<svg width="198" height="150" viewBox="0 0 198 150" fill="none" xmlns="http://www.w3.org/2000/svg">
<path fill-rule="evenodd" clip-rule="evenodd" d="M99 111.174C119.478 111.174 136.078 94.9783 136.078 75C136.078 55.0217 119.478 38.8261 99 38.8261C78.5222 38.8261 61.9217 55.0217 61.9217 75C61.9217 94.9783 78.5222 111.174 99 111.174ZM99 115C121.644 115 140 97.0914 140 75C140 52.9086 121.644 35 99 35C76.3563 35 58 52.9086 58 75C58 97.0914 76.3563 115 99 115Z" fill="#FFFEFC"/>
<path fill-rule="evenodd" clip-rule="evenodd" d="M98.5 107C117.002 107 132 92.4493 132 74.5C132 56.5507 117.002 42 98.5 42C79.9985 42 65 56.5507 65 74.5C65 92.4493 79.9985 107 98.5 107ZM97.7779 50C101.13 50 104.349 50.5447 107.344 51.5465L103.005 67.0257C101.31 66.7302 99.5627 66.5758 97.7779 66.5758C95.7304 66.5758 93.7325 66.779 91.8051 67.1654L87.497 51.7958C90.6919 50.6354 94.1573 50 97.7779 50ZM111.738 70C109.586 68.8653 107.266 67.9849 104.823 67.401L109.087 52.191C113.844 54.1227 117.95 57.2361 121 61.146L111.738 70ZM85.7673 52.4866C81.5318 54.3351 77.8438 57.1312 75 60.5913L84.4854 69.6589C86.2276 68.7966 88.0732 68.0985 89.9996 67.5861L85.7673 52.4866ZM114.574 70.4968L101.849 89.7164L101.844 89.7117C101.625 90.0782 101.355 90.4239 101.033 90.7385C99.0374 92.6915 95.8192 92.7092 93.8454 90.778C91.8715 88.8468 91.8896 85.698 93.8857 83.745C94.2072 83.4304 94.5605 83.166 94.9352 82.9519L94.9305 82.9473L114.574 70.4968ZM95.865 88.802C96.5616 89.4836 97.6975 89.4773 98.402 88.7881C99.1065 88.0988 99.1128 86.9874 98.4162 86.3058C97.7196 85.6242 96.5837 85.6305 95.8792 86.3198C95.1747 87.009 95.1684 88.1204 95.865 88.802Z" fill="#FFFEFC"/>
<path fill-rule="evenodd" clip-rule="evenodd" d="M178.627 58.7102C177.107 60.1763 175.047 61 172.898 61L155 61V62.2308C155 63.2079 154.225 64 153.269 64H147.731C146.775 64 146 63.2079 146 62.2308V61L135.149 61C132.488 54.7499 128.1 49.3552 122.554 45.3644L146 45.3644V42.7692C146 41.7921 146.775 41 147.731 41H153.269C154.225 41 155 41.7921 155 42.7692V45.3644L164.796 45.3644V42H163.769C162.792 42 162 41.2251 162 40.2692V34.7308C162 33.7749 162.792 33 163.769 33H164.796V27.8178C164.796 23.5001 168.423 20 172.898 20C177.373 20 181 23.5001 181 27.8178V33H183.231C184.208 33 185 33.7749 185 34.7308V40.2692C185 41.2251 184.208 42 183.231 42H181V53.1822C181 55.2556 180.146 57.2441 178.627 58.7102ZM63.4435 88H53V87.7692C53 86.7921 52.2251 86 51.2692 86H45.7308C44.7749 86 44 86.7921 44 87.7692V88H26.0696C21.6129 88 18 91.5001 18 95.8178V109H15.7692C14.7921 109 14 109.775 14 110.731V116.269C14 117.225 14.7921 118 15.7692 118H18V121.182C18 125.5 21.6129 129 26.0696 129C30.5263 129 34.1392 125.5 34.1392 121.182V118H35.2308C36.2079 118 37 117.225 37 116.269V110.731C37 109.775 36.2079 109 35.2308 109H34.1392V103.636H44V107.231C44 108.208 44.7749 109 45.7308 109H51.2692C52.2251 109 53 108.208 53 107.231V103.636H75.1175C69.9151 99.5395 65.8492 94.1599 63.4435 88Z" fill="#FFFEFC"/>
</svg>
