<svg width="198" height="150" viewBox="0 0 198 150" fill="none" xmlns="http://www.w3.org/2000/svg">
<path d="M147.439 85.1121L152.52 91.5047C153.761 93.0828 153.514 95.3859 151.969 96.6647L140.892 105.921C139.348 107.2 137.103 106.955 135.862 105.377L130.78 98.9847C129.676 97.5868 128.912 95.9515 128.552 94.1912C127.827 90.8589 125.618 88.0632 122.577 86.649L120.145 85.5466L114.338 78.2408C112.297 75.6813 111.333 72.3777 111.712 69.0673L107.22 63.4077L118.297 54.1514L122.789 59.811C125.985 60.1297 128.967 61.7646 131.008 64.324L136.816 71.6298L137.393 74.3044C138.118 77.6366 140.327 80.4324 143.368 81.8466C144.92 82.6098 146.334 83.7142 147.439 85.1121Z" fill="#FFFEFC"/>
<path fill-rule="evenodd" clip-rule="evenodd" d="M37.2111 126.727L32.4175 127.962L33.2527 130.957C33.4688 131.732 32.9845 132.536 32.1763 132.744C31.3683 132.952 30.5303 132.488 30.3142 131.713L25.3193 132.999C23.7031 133.415 22.0272 132.487 21.5949 130.937L18.1364 118.535C17.7041 116.984 18.6727 115.375 20.2889 114.959L25.2838 113.673C25.0676 112.898 25.5519 112.094 26.3599 111.886C27.1681 111.677 28.0061 112.141 28.2222 112.917L29.0623 115.929L33.8742 114.69C31.5604 106.393 36.6992 97.8565 45.3489 95.6294L46.9101 95.2275C47.7731 95.0053 48.6576 95.495 48.8885 96.3231L48.9071 96.3183C48.6762 95.4902 49.1874 94.6411 50.0505 94.4189L62.8469 91.1242L64.522 97.1316C64.7382 97.9068 65.5762 98.3708 66.3842 98.1627C67.1924 97.9546 67.6767 97.1502 67.4605 96.3751L65.7853 90.3676L68.856 89.577C69.7193 89.3547 70.6038 89.8445 70.8347 90.6725L71.166 91.8605C70.9128 90.299 71.9271 88.7862 73.5392 88.3712L76.6796 87.5626C77.9284 87.2411 79.1853 87.6538 79.9477 88.5527C80.0323 88.6442 80.1804 88.6816 80.3089 88.6485C80.4375 88.6154 80.5465 88.5118 80.5721 88.3919C80.8013 87.2378 81.6749 86.2764 82.9237 85.9549L86.0641 85.1463C86.7589 84.9674 87.4575 85.0213 88.0775 85.2543L97.1353 117.737C97.3515 118.512 98.1894 118.976 98.9974 118.768C99.8057 118.56 100.29 117.756 100.074 116.981L90.9807 84.3715C90.5683 84.7987 90.2821 85.3255 90.1676 85.9026C90.1419 86.0225 90.0331 86.1261 89.9044 86.1592C89.8816 86.1686 89.8579 86.1749 89.8341 86.1784C89.9141 86.1291 89.9748 86.0519 89.9932 85.9662C90.2225 84.812 91.0961 83.8507 92.345 83.5292L95.4854 82.7206C96.7342 82.3991 97.9957 82.8295 98.79 83.7013C98.839 83.7543 98.9093 83.7892 98.9848 83.8027C99.0397 83.8125 99.0972 83.811 99.1514 83.797C99.2799 83.7639 99.3888 83.6604 99.4144 83.5405C99.6437 82.3863 100.517 81.425 101.766 81.1034C105.219 80.2145 108.775 82.1688 109.704 85.4985L118.089 115.571C119.013 118.883 116.955 122.302 113.539 123.181C112.29 123.503 111.028 123.072 110.234 122.2C110.175 122.136 110.084 122.099 109.991 122.093C109.995 122.092 109.998 122.091 110.002 122.091C110.13 122.057 110.279 122.095 110.363 122.186C110.763 122.631 111.285 122.95 111.864 123.122L102.771 90.5124C102.555 89.7373 101.717 89.2733 100.909 89.4814C100.101 89.6894 99.6116 90.4762 99.8326 91.269L108.903 123.797C108.491 124.269 107.928 124.626 107.258 124.798L104.118 125.607C102.869 125.928 101.607 125.498 100.813 124.626C100.728 124.535 100.58 124.497 100.452 124.53C100.323 124.563 100.214 124.667 100.188 124.787C99.9593 125.941 99.0857 126.902 97.8369 127.224L94.6965 128.033C93.4476 128.354 92.1861 127.924 91.3918 127.052C91.3342 126.989 91.2464 126.952 91.1559 126.945C91.1691 126.94 91.1826 126.936 91.1963 126.932C91.325 126.899 91.4731 126.937 91.5577 127.028C91.9572 127.473 92.4792 127.792 93.0586 127.964L83.9655 95.3544C83.7494 94.5792 82.9114 94.1152 82.1032 94.3233C81.2952 94.5314 80.806 95.3182 81.0271 96.1109L90.0904 128.614C89.6754 129.103 89.1021 129.473 88.4156 129.65L85.2752 130.458C83.6466 130.878 81.9925 130.037 81.404 128.576L81.7356 129.765C81.9665 130.593 81.4553 131.442 80.592 131.664L77.5213 132.455L75.8462 126.447C75.63 125.672 74.792 125.208 73.9838 125.416C73.1575 125.629 72.6866 126.411 72.9077 127.204L74.5829 133.211L61.7865 136.506C60.9234 136.728 60.0389 136.239 59.808 135.41L59.7894 135.415C60.0203 136.243 59.5091 137.092 58.6461 137.315L57.0849 137.717C48.4168 139.948 39.5249 135.025 37.2111 126.727ZM68.3284 117.205L66.9873 112.396L65.7838 108.079L65.7592 107.991C65.543 107.216 64.7051 106.752 63.8968 106.96L60.5728 107.816C59.7648 108.024 59.2806 108.828 59.4967 109.604L59.5213 109.692L60.7249 114.008L62.066 118.817C62.2821 119.592 63.1201 120.056 63.9281 119.848L67.2521 118.993C68.0603 118.784 68.5446 117.98 68.3284 117.205Z" fill="#FFFEFC"/>
<path d="M82.0591 91.1061L74.4943 99.1907C72.6241 101.169 69.486 101.294 67.4643 99.4768L52.8499 86.4582C50.8282 84.6408 50.71 81.5806 52.5802 79.6027L60.145 71.5181C61.8006 69.7592 63.8422 68.4104 66.1317 67.5777C70.457 65.9438 73.7681 62.4261 75.0609 58.0662L76.0566 54.586L84.7021 45.3465C87.7295 42.1006 91.9691 40.1523 96.4842 40.0027L103.183 32.854L117.797 45.8726L111.099 53.0213C111.306 57.3713 109.705 61.6957 106.678 64.9416L98.0323 74.1811L94.5598 75.4868C90.2345 77.1206 86.9234 80.6384 85.6306 84.9983C84.9152 87.2312 83.7147 89.3472 82.0591 91.1061Z" fill="#FFFEFC"/>
<path fill-rule="evenodd" clip-rule="evenodd" d="M177.563 138.257C177.448 138.273 177.332 138.281 177.216 138.282L177.218 138.304L161.813 138.045C159.062 135.465 156.363 128.484 155.135 120.056C153.906 111.611 154.511 104.174 156.428 100.977L171.154 96.6686L171.158 96.6903C171.27 96.6604 171.384 96.6377 171.499 96.6222C175.606 96.0698 180.293 104.942 181.968 116.44C183.642 127.937 181.67 137.705 177.563 138.257ZM133.813 122.865C134.791 129.579 137.07 135.19 139.553 137.671L130.044 137.511L130.031 137.419C126.909 137.196 123.672 131.594 122.621 124.384C121.571 117.173 123.084 110.933 126.022 109.894L126.019 109.875L135.036 107.237C133.408 110.314 132.848 116.241 133.813 122.865ZM168.601 118.052C170.115 128.448 174.003 136.518 177.284 136.076C180.566 135.635 181.999 126.85 180.485 116.454C178.971 106.059 175.083 97.9891 171.801 98.4304C168.52 98.8717 167.087 107.657 168.601 118.052Z" fill="#FFFEFC"/>
<path d="M132.134 6.2442C128.531 7.98064 131.218 11.2701 133.012 12.6978C134.314 13.9483 142.128 14.1984 141.122 10.7961C140.318 8.07426 136.044 10.5243 134.008 12.0895C134.884 9.41755 135.736 4.50775 132.134 6.2442Z" fill="#FFFEFC"/>
<path d="M36.2946 65.1808C36.9359 67.7857 39.5181 67.239 40.729 66.6401C41.751 66.2706 43.0412 61.8438 40.6254 61.3871C38.6928 61.0217 39.714 64.2306 40.4662 65.8808C38.8084 64.5621 35.6533 62.5759 36.2946 65.1808Z" fill="#FFFEFC"/>
</svg>
