<svg width="198" height="150" viewBox="0 0 198 150" fill="none" xmlns="http://www.w3.org/2000/svg">
<path fill-rule="evenodd" clip-rule="evenodd" d="M172.724 137C172.907 137.33 173 137.663 173 138C173 144.627 136.959 150 92.5 150C48.0411 150 12 144.627 12 138C12 137.658 12.096 137.319 12.2842 136.984L1 44.6631L31.9729 27L170.358 134.94C171.277 135.46 171.966 135.994 172.41 136.54L173 137H172.724Z" fill="#FFF8ED" fill-opacity="0.28"/>
<path d="M61 72C63.5832 74.3162 67.5456 80.0651 62.7297 84.5314C57.9139 88.9977 61.393 93.4815 63.7345 95.1651" stroke="#FFFEFC" stroke-width="4" stroke-linecap="round"/>
<path d="M71 76C72.3341 77.1718 74.4188 80.1625 72.0845 82.7511C69.7502 85.3398 71.5707 87.6593 72.7728 88.4954" stroke="#FFFEFC" stroke-width="4" stroke-linecap="round"/>
<path fill-rule="evenodd" clip-rule="evenodd" d="M64.4905 114.683C58.4063 122.765 55.9004 132.55 55.4877 139.018C55.3759 140.771 53.8343 142.103 52.0445 141.994C50.2548 141.884 48.8946 140.374 49.0064 138.621C49.4793 131.209 52.2867 120.175 59.2642 110.907C66.3447 101.502 77.6813 94 94.753 94C96.5463 94 98 95.4241 98 97.1807C98 98.9374 96.5463 100.361 94.753 100.361C79.9453 100.361 70.4717 106.738 64.4905 114.683Z" fill="#FFFEFC"/>
<path d="M87.898 99C83.679 105.929 79.3045 121.23 95.5588 127C98.5565 120.919 101.221 106.806 87.898 99Z" fill="#FFFEFC"/>
<path d="M94.1556 95.2271C94.2757 103.105 98.5416 118.254 114.644 115.823C113.968 109.23 108.924 95.8806 94.1556 95.2271Z" fill="#FFFEFC"/>
<circle cx="17" cy="36" r="17" fill="#FFFEFC"/>
</svg>
