<svg width="124" height="126" viewBox="0 0 124 126" fill="none" xmlns="http://www.w3.org/2000/svg">
<path d="M71.812 75.2376H52.2209C53.3204 69.7273 58.593 66.1977 64.0156 67.315C67.9388 68.1022 71.0124 71.2255 71.812 75.2376Z" fill="#556645"/>
<path d="M66.6643 63.8616C71.562 61.2713 73.4362 55.1259 70.8874 50.1486C68.3385 45.1712 62.2913 43.2667 57.3935 45.8569C52.4958 48.4471 50.6216 54.5926 53.1704 59.5699C54.12 61.3983 55.5943 62.8966 57.3935 63.8616C51.7961 65.8677 48.0478 71.226 48.0228 77.2698C48.0228 78.3872 48.9224 79.3014 50.0219 79.3014H74.0109C75.1104 79.3014 76.01 78.3872 76.01 77.2698C76.01 71.226 72.2617 65.8677 66.6643 63.8616ZM56.0191 54.9227C56.0191 51.5707 58.7179 48.828 62.0164 48.828C65.3149 48.828 68.0137 51.5707 68.0137 54.9227C68.0137 58.2748 65.3149 61.0174 62.0164 61.0174C58.7179 61.0174 56.0191 58.2748 56.0191 54.9227ZM52.2209 75.2383C53.3204 69.7277 58.593 66.1979 64.0155 67.3152C67.9387 68.1278 71.0123 71.2514 71.8119 75.2383H52.2209Z" fill="#88A76C"/>
<path d="M62.0165 61.0167C65.3287 61.0167 68.0137 58.288 68.0137 54.922C68.0137 51.5561 65.3287 48.8274 62.0165 48.8274C58.7043 48.8274 56.0192 51.5561 56.0192 54.922C56.0192 58.288 58.7043 61.0167 62.0165 61.0167Z" fill="#556645"/>
<path d="M116.641 89.9663C113.068 86.9952 108.595 85.3954 103.997 85.3954C99.3744 85.3954 94.9264 87.0206 91.3531 89.9917L81.7325 80.215C85.5307 75.7202 87.7297 70.0319 87.9546 64.115L108.37 63.3532C109.67 67.6194 114.118 70.0065 118.291 68.686C122.489 67.3655 124.838 62.8453 123.538 58.6045C122.239 54.3383 117.791 51.9512 113.618 53.2717C110.869 54.1351 108.795 56.446 108.195 59.2901L87.8297 60.052C86.9551 52.256 82.707 45.2726 76.26 40.9809L80.0832 33.9214C86.3553 36.156 93.2022 32.7786 95.3762 26.4301C97.5752 20.0561 94.2517 13.0981 88.0046 10.8888C81.7325 8.65415 74.8856 12.0316 72.7116 18.3801C71.0373 23.2812 72.5866 28.7409 76.5848 31.966L72.7616 39.0256C63.5907 34.7594 52.7957 36.3084 45.1492 43.0125L35.5286 33.2357C42.5254 24.5255 41.2759 11.7268 32.7049 4.59108C24.1338 -2.51929 11.5145 -1.22419 4.51775 7.46062C-2.47905 16.1708 -1.20464 28.9695 7.34146 36.1053C14.7131 42.2253 25.3082 42.2253 32.6799 36.1053L42.3005 45.882C37.1528 51.9258 35.0038 60.052 36.5031 67.9242L18.9362 72.7237C16.4373 67.7718 10.44 65.8418 5.56727 68.3813C0.694494 70.9207 -1.20464 77.0153 1.29422 81.9672C3.79308 86.919 9.79034 88.849 14.6631 86.3096C17.9866 84.5574 20.0606 81.0784 20.0357 77.2692C20.0357 77.0661 19.9857 76.8629 19.9857 76.6598L37.5526 71.8603C39.5767 77.6247 43.4999 82.5258 48.6726 85.6747L44.4495 94.2579C37.1029 91.7693 29.1565 95.7816 26.7076 103.247C24.2587 110.713 28.2069 118.789 35.5536 121.277C42.9002 123.766 50.8466 119.754 53.2955 112.288C55.2696 106.295 53.1205 99.6923 48.0229 96.0863L52.2459 87.5031C61.2418 91.2614 71.5621 89.5346 78.9337 83.0845L88.5543 92.8613C81.5825 101.546 82.8569 114.345 91.403 121.43C99.9491 128.515 112.543 127.22 119.515 118.535C126.462 109.85 125.213 97.0513 116.641 89.9663ZM115.992 56.9539C118.191 56.9539 119.99 58.7823 119.99 61.017C119.99 63.2516 118.191 65.08 115.992 65.08C113.793 65.08 111.994 63.2516 111.994 61.017C111.994 58.7823 113.793 56.9539 115.992 56.9539ZM76.0101 22.4178C76.0101 17.923 79.5834 14.2917 84.0064 14.2917C88.4294 14.2917 92.0028 17.923 92.0028 22.4178C92.0028 26.9126 88.4294 30.5439 84.0064 30.5439C79.5834 30.5439 76.0101 26.8872 76.0101 22.4178ZM9.36553 32.4485C9.36553 32.4231 9.36553 32.4231 9.36553 32.4485C9.59043 32.5247 9.81533 32.5755 10.0402 32.5755H30.0311C30.281 32.5755 30.5059 32.5247 30.7308 32.4231C24.6835 38.0352 15.4378 38.0352 9.36553 32.4485ZM20.0357 22.4178C23.684 22.4178 26.8575 24.9318 27.7821 28.5124H12.2892C13.2138 24.9318 16.4123 22.4178 20.0357 22.4178ZM16.0375 14.2917C16.0375 12.057 17.8367 10.2286 20.0357 10.2286C22.2346 10.2286 24.0338 12.057 24.0338 14.2917C24.0338 16.5263 22.2346 18.3547 20.0357 18.3547C17.8367 18.3547 16.0375 16.5263 16.0375 14.2917ZM31.9052 31.255C32.0052 31.0264 32.0552 30.7725 32.0552 30.5439C32.0552 27.3189 30.8057 24.1954 28.5568 21.9353C27.7571 21.1227 26.8575 20.437 25.858 19.8784C28.9066 16.6279 28.7817 11.4983 25.5831 8.4002C22.3846 5.30211 17.3369 5.42909 14.2883 8.67954C11.3396 11.8284 11.3396 16.7549 14.2883 19.9038C10.465 22.0369 8.06612 26.1253 8.06612 30.5693C8.06612 30.8233 8.1161 31.0518 8.21606 31.2804C5.54228 28.3092 4.09294 24.4239 4.06795 20.4117C4.04296 11.4475 11.1897 4.13398 20.0107 4.10859C28.8316 4.08319 36.0283 11.3459 36.0533 20.3101C36.0533 24.3478 34.579 28.2585 31.9052 31.255ZM10.0402 83.3638C6.74173 83.3638 4.04296 80.6213 4.04296 77.2692C4.04296 73.9172 6.74173 71.1746 10.0402 71.1746C13.3387 71.1746 16.0375 73.9172 16.0375 77.2692C16.0375 80.6213 13.3637 83.3638 10.0402 83.3638ZM50.0219 107.742C50.0219 113.354 45.549 117.9 40.0265 117.9C34.504 117.9 30.0311 113.354 30.0311 107.742C30.0311 102.13 34.504 97.5846 40.0265 97.5846C45.549 97.5846 50.0219 102.13 50.0219 107.742ZM62.0165 85.3954C49.872 85.37 40.0515 75.3901 40.0265 63.0485C40.0265 50.7069 49.872 40.7016 62.0165 40.7016C74.1609 40.7016 84.0064 50.7069 84.0064 63.0485C84.0064 75.3901 74.1609 85.3954 62.0165 85.3954ZM93.3272 117.773C93.3272 117.748 93.3272 117.748 93.3272 117.773C93.5521 117.849 93.777 117.9 94.0018 117.9H113.993C114.243 117.9 114.467 117.849 114.692 117.748C108.645 123.36 99.3994 123.36 93.3272 117.773ZM103.997 107.742C107.646 107.742 110.819 110.256 111.744 113.837H96.2508C97.1754 110.256 100.374 107.742 103.997 107.742ZM99.9991 99.6161C99.9991 97.3814 101.798 95.553 103.997 95.553C106.196 95.553 107.995 97.3814 107.995 99.6161C107.995 101.851 106.196 103.679 103.997 103.679C101.798 103.679 99.9991 101.851 99.9991 99.6161ZM115.867 116.579C115.967 116.351 116.017 116.122 116.017 115.868C116.017 112.643 114.767 109.52 112.518 107.26C111.719 106.447 110.819 105.762 109.82 105.203C112.868 101.952 112.743 96.8228 109.545 93.7247C106.346 90.6266 101.299 90.7535 98.2499 94.004C95.3013 97.1529 95.3013 102.079 98.2499 105.228C94.4267 107.361 92.0277 111.45 92.0277 115.894C92.0277 116.148 92.0777 116.376 92.1777 116.605C86.2554 109.952 86.7552 99.6669 93.3022 93.6485C99.8492 87.6301 109.97 88.1379 115.892 94.7912C121.389 100.937 121.389 110.383 115.867 116.579Z" fill="#FFA775"/>
<path d="M62.0164 40.7019C49.8719 40.7019 40.0264 50.7072 40.0264 63.0488C40.0514 75.3904 49.8719 85.3703 62.0164 85.3957C74.1608 85.3957 84.0063 75.3904 84.0063 63.0488C84.0063 50.7072 74.1608 40.7019 62.0164 40.7019ZM74.0109 79.3011H50.0219C48.9224 79.3011 48.0228 78.3869 48.0228 77.2696C48.0228 71.2257 51.7711 65.8676 57.3935 63.8614C55.5943 62.8964 54.12 61.3982 53.1704 59.5698C50.6216 54.5925 52.4957 48.4725 57.3935 45.8569C62.2913 43.2667 68.3135 45.1713 70.8873 50.1485C73.4362 55.1258 71.562 61.2458 66.6643 63.8614C72.2617 65.8676 76.01 71.2257 76.035 77.2696C76.01 78.3869 75.1354 79.3011 74.0109 79.3011Z" fill="#BBD3A5"/>
<path d="M10.0402 83.3641C13.3524 83.3641 16.0375 80.6353 16.0375 77.2692C16.0375 73.9031 13.3524 71.1743 10.0402 71.1743C6.72803 71.1743 4.04297 73.9031 4.04297 77.2692C4.04297 80.6353 6.72803 83.3641 10.0402 83.3641Z" fill="#88A76C"/>
<path d="M50.022 107.743C50.022 113.355 45.5491 117.901 40.0266 117.901C34.5041 117.901 30.0312 113.355 30.0312 107.743C30.0312 102.13 34.5041 97.5845 40.0266 97.5845C45.5491 97.5845 50.022 102.13 50.022 107.743Z" fill="#FC965D"/>
<path d="M114.717 117.748C108.67 123.36 99.3994 123.36 93.3522 117.773C93.5771 117.849 93.802 117.9 94.0269 117.9H114.018C114.243 117.9 114.493 117.849 114.717 117.748Z" fill="#FFF8ED"/>
<path d="M111.744 113.838H96.2508C97.1753 110.257 100.349 107.743 103.997 107.743C107.646 107.743 110.844 110.231 111.744 113.838Z" fill="#FEE7C4"/>
<path d="M103.997 103.68C106.205 103.68 107.995 101.861 107.995 99.6166C107.995 97.3725 106.205 95.5533 103.997 95.5533C101.789 95.5533 99.9991 97.3725 99.9991 99.6166C99.9991 101.861 101.789 103.68 103.997 103.68Z" fill="#FEE7C4"/>
<path d="M115.867 116.58C115.967 116.351 116.017 116.123 116.017 115.869C116.017 112.644 114.767 109.52 112.518 107.26C111.719 106.447 110.819 105.762 109.82 105.203C112.868 101.953 112.743 96.8231 109.545 93.725C106.346 90.6269 101.298 90.7539 98.2499 94.0043C95.3012 97.1532 95.3012 102.08 98.2499 105.229C94.4266 107.362 92.0277 111.45 92.0277 115.894C92.0277 116.148 92.0777 116.377 92.1776 116.605C86.2553 109.952 86.7551 99.6672 93.3021 93.6488C99.8491 87.6304 109.97 88.1382 115.892 94.7915C121.389 100.937 121.389 110.384 115.867 116.58Z" fill="#FFF8ED"/>
<path d="M115.992 65.0805C118.2 65.0805 119.99 63.2612 119.99 61.017C119.99 58.7728 118.2 56.9535 115.992 56.9535C113.784 56.9535 111.994 58.7728 111.994 61.017C111.994 63.2612 113.784 65.0805 115.992 65.0805Z" fill="#86C4DF"/>
<path d="M84.0064 30.5438C88.4227 30.5438 92.0028 26.9056 92.0028 22.4178C92.0028 17.9299 88.4227 14.2917 84.0064 14.2917C79.5902 14.2917 76.0101 17.9299 76.0101 22.4178C76.0101 26.9056 79.5902 30.5438 84.0064 30.5438Z" fill="#FFE1A7"/>
<path d="M30.7558 32.4232C24.7086 38.0356 15.4378 38.0356 9.39056 32.4486C9.61546 32.5248 9.84036 32.5756 10.0653 32.5756H30.0561C30.281 32.5756 30.5309 32.5248 30.7558 32.4232Z" fill="#3C98BF"/>
<path d="M20.0356 18.355C22.2437 18.355 24.0338 16.5358 24.0338 14.2918C24.0338 12.0477 22.2437 10.2285 20.0356 10.2285C17.8275 10.2285 16.0374 12.0477 16.0374 14.2918C16.0374 16.5358 17.8275 18.355 20.0356 18.355Z" fill="#86C4DF"/>
<path d="M27.7821 28.5126H12.2892C13.2137 24.9319 16.3873 22.4177 20.0356 22.4177C23.6839 22.4177 26.8825 24.9065 27.7821 28.5126Z" fill="#86C4DF"/>
<path d="M31.9052 31.2555C32.0051 31.0269 32.0551 30.773 32.0551 30.5444C32.0551 27.3193 30.8057 24.1957 28.5567 21.9356C27.757 21.1229 26.8575 20.4373 25.8579 19.8786C28.9065 16.6281 28.7816 11.4983 25.583 8.40018C22.3845 5.30202 17.3368 5.42899 14.2882 8.67952C11.3396 11.8285 11.3396 16.7551 14.2882 19.904C10.465 22.0372 8.06605 26.1257 8.06605 30.5698C8.06605 30.8237 8.11603 31.0523 8.21598 31.2808C5.5422 28.3097 4.09286 24.4243 4.06788 20.4119C4.04289 11.4475 11.1896 4.13386 20.0106 4.10846C28.8316 4.08307 36.0283 11.346 36.0533 20.3103C36.0533 24.3481 34.5789 28.2589 31.9052 31.2555Z" fill="#3C98BF"/>
</svg>
