<svg width="125" height="125" viewBox="0 0 125 125" fill="none" xmlns="http://www.w3.org/2000/svg">
<path fill-rule="evenodd" clip-rule="evenodd" d="M103.564 93.9755C102.719 93.9755 102.034 94.6598 102.034 95.5041V118.572C102.034 119.416 102.719 120.101 103.564 120.101C104.408 120.101 105.093 119.416 105.093 118.572V95.5041C105.093 94.6598 104.408 93.9755 103.564 93.9755Z" fill="#488100"/>
<path d="M120.819 94.6379C121.085 99.3849 118.627 108.861 106.661 108.788C106.199 104.474 108.384 95.6059 120.819 94.6379Z" fill="#488100"/>
<path d="M86.0142 85.3476C90.7627 85.0813 100.241 87.5392 100.168 99.5016C95.8537 99.9632 86.9826 97.7784 86.0142 85.3476Z" fill="#488100"/>
<path d="M0.0238479 82.6489V78.508C0.0238479 76.2317 1.86343 74.3671 4.16292 74.3671V73.0836H53.7107V74.3671C55.986 74.3671 57.8498 76.2075 57.8498 78.508V82.6489C57.8498 84.2956 56.9058 85.7001 55.5019 86.3781C55.3567 86.4508 55.2598 86.6203 55.2598 86.7898C55.2598 86.9593 55.3567 87.1288 55.5019 87.2015C56.8816 87.8795 57.8498 89.284 57.8498 90.9307V95.0716C57.8498 96.7183 56.9058 98.1228 55.5019 98.8009C55.3567 98.8735 55.2598 99.043 55.2598 99.2125C55.2598 99.3821 55.3567 99.5516 55.5019 99.6242C56.8816 100.302 57.8498 101.707 57.8498 103.353V107.494C57.8498 109.141 56.9058 110.546 55.5019 111.224C55.3567 111.296 55.2598 111.466 55.2598 111.635C55.2598 111.805 55.3567 111.974 55.5019 112.047C56.8816 112.725 57.8498 114.13 57.8498 115.776C57.8498 120.28 54.1464 123.985 49.5959 123.985H8.27778C3.70302 123.985 0.0238479 120.28 0.0238479 115.728C0.0238479 114.081 0.967845 112.677 2.37174 111.999C2.51697 111.926 2.61379 111.756 2.61379 111.587C2.61379 111.417 2.51697 111.248 2.37174 111.175C0.992051 110.497 0.0238479 109.093 0.0238479 107.446V103.305C0.0238479 101.658 0.967845 100.254 2.37174 99.5758C2.51697 99.5031 2.61379 99.3336 2.61379 99.1641C2.61379 98.9946 2.51697 98.8251 2.37174 98.7524C0.992051 98.0744 0.0238479 96.6699 0.0238479 95.0232V90.8823C0.0238479 89.2356 0.967845 87.8311 2.37174 87.153C2.51697 87.0804 2.61379 86.9109 2.61379 86.7414C2.61379 86.5719 2.51697 86.4023 2.37174 86.3297C0.967845 85.7001 0.0238479 84.2956 0.0238479 82.6489Z" fill="#A2D2FF" fill-opacity="0.66"/>
<path d="M2.34788 86.3781C0.968188 85.7001 -1.50613e-05 84.2955 -1.50613e-05 82.6489V78.508C-1.50613e-05 76.2317 1.83957 74.3671 4.13906 74.3671H10.0693C7.79403 74.3671 5.93023 76.2075 5.93023 78.508V82.6489C5.93023 84.2955 6.87423 85.7001 8.27813 86.3781C8.42336 86.4508 8.52018 86.6203 8.52018 86.7898C8.52018 86.9593 8.42336 87.1288 8.27813 87.2015C6.89844 87.8795 5.93023 89.284 5.93023 90.9307V95.0716C5.93023 96.7183 6.87423 98.1228 8.27813 98.8008C8.42336 98.8735 8.52018 99.043 8.52018 99.2125C8.52018 99.382 8.42336 99.5515 8.27813 99.6242C6.89844 100.302 5.93023 101.707 5.93023 103.353V107.494C5.93023 109.141 6.87423 110.546 8.27813 111.224C8.42336 111.296 8.52018 111.466 8.52018 111.635C8.52018 111.805 8.42336 111.974 8.27813 112.047C6.89844 112.725 5.93023 114.129 5.93023 115.776C5.93023 120.353 9.63362 124.034 14.1842 124.034H8.25392C3.67916 124.034 -1.50613e-05 120.329 -1.50613e-05 115.776C-1.50613e-05 114.129 0.943983 112.725 2.34788 112.047C2.49311 111.974 2.58993 111.805 2.58993 111.635C2.58993 111.466 2.49311 111.296 2.34788 111.224C0.968188 110.546 -1.50613e-05 109.141 -1.50613e-05 107.494V103.353C-1.50613e-05 101.707 0.943983 100.302 2.34788 99.6242C2.49311 99.5515 2.58993 99.382 2.58993 99.2125C2.58993 99.043 2.49311 98.8735 2.34788 98.8008C0.968188 98.1228 -1.50613e-05 96.7183 -1.50613e-05 95.0716V90.9307C-1.50613e-05 89.284 0.943983 87.8795 2.34788 87.2015C2.49311 87.1288 2.58993 86.9593 2.58993 86.7898C2.61413 86.6203 2.51731 86.4508 2.34788 86.3781Z" fill="#A0C6FF"/>
<path d="M12.4169 84.8519H57.2205C56.809 85.5058 56.2281 86.0385 55.5261 86.3776C55.3809 86.4502 55.2841 86.6197 55.2841 86.7892C55.2841 86.9587 55.3809 87.1283 55.5261 87.2009C56.2281 87.5399 56.809 88.0727 57.2205 88.7265H12.4169C11.3519 88.7265 10.4805 87.8547 10.4805 86.7892C10.4805 85.7237 11.3276 84.8519 12.4169 84.8519Z" fill="#A0C6FF"/>
<path d="M2.34804 98.7764C1.64609 98.4374 1.06517 97.9047 0.653685 97.2509H45.4573C46.5223 97.2509 47.3937 98.1226 47.3937 99.188C47.3937 100.253 46.5223 101.125 45.4573 101.125H0.653685C1.06517 100.471 1.64609 99.9387 2.34804 99.5997C2.49327 99.527 2.59009 99.3575 2.59009 99.188C2.6143 99.0185 2.51748 98.849 2.34804 98.7764Z" fill="#A0C6FF"/>
<path d="M12.4169 109.649H57.2205C56.809 110.303 56.2281 110.836 55.5261 111.175C55.3809 111.247 55.2841 111.417 55.2841 111.586C55.2841 111.756 55.3809 111.925 55.5261 111.998C56.2281 112.337 56.809 112.87 57.2205 113.523H12.4169C11.3519 113.523 10.4805 112.652 10.4805 111.586C10.4805 110.521 11.3276 109.649 12.4169 109.649Z" fill="#A0C6FF"/>
<path d="M2.08128 74.391H55.7924C56.93 74.391 57.8498 73.4708 57.8498 72.3327V47.5357C57.8498 46.3976 56.93 45.4774 55.7924 45.4774V44.194H2.08128V45.4774C0.943642 45.4774 0.0238495 46.3976 0.0238495 47.5357V72.3327C0.0238495 73.4708 0.943642 74.391 2.08128 74.391Z" fill="#67A6C1"/>
<path d="M2.08131 45.4532V44.1698H8.01157V45.4532C6.87393 45.4532 5.95413 46.3734 5.95413 47.5116V72.3085C5.95413 73.4466 6.87393 74.3668 8.01157 74.3668H2.08131C0.943674 74.3668 0.02388 73.4466 0.02388 72.3085V47.5358C0.02388 46.3976 0.943674 45.4532 2.08131 45.4532Z" fill="#3C98BF"/>
<path d="M16.532 12.3985H41.318V3.87453C41.318 1.74354 39.5752 0 37.4452 0H20.4048C18.2747 0 16.532 1.74354 16.532 3.87453V12.3985Z" fill="#EDF6FF"/>
<path d="M37.203 10.8967H20.6709V22.1572H37.203V10.8967Z" fill="#A0C6FF"/>
<path d="M37.2029 20.6565C48.6034 20.6565 57.8498 29.9068 57.8498 41.3366V43.3949C57.8498 44.533 56.93 45.4532 55.7924 45.4532H2.08128C0.943641 45.4532 0.0238479 44.533 0.0238479 43.3949V41.3366C0.0238479 29.9311 9.27019 20.6807 20.6708 20.6807H37.2029V20.6565Z" fill="#A2D2FF" fill-opacity="0.66"/>
<path d="M16.532 12.3985H41.318V3.87453C41.318 1.74354 39.5752 0 37.4452 0H20.4048C18.2747 0 16.532 1.74354 16.532 3.87453V12.3985Z" fill="#EDF6FF"/>
<path d="M20.6708 0H26.6011C24.3258 0 22.462 1.8404 22.462 4.1409V12.3985H16.5318V4.1409C16.5318 1.8404 18.3956 0 20.6708 0Z" fill="#D8E2F3"/>
<path d="M16.532 14.3358H41.318C42.383 14.3358 43.2544 13.4639 43.2544 12.3984C43.2544 11.3328 42.383 10.4609 41.318 10.4609H16.532C15.4669 10.4609 14.5956 11.3328 14.5956 12.3984C14.5956 13.4639 15.4669 14.3358 16.532 14.3358Z" fill="#D8E2F3"/>
<path d="M20.6708 20.6565H26.6011C15.2005 20.6565 5.95414 29.9069 5.95414 41.3124V43.3707C5.95414 44.5089 6.87393 45.4291 8.01157 45.4291H2.08133C0.943688 45.4291 0.0238948 44.5089 0.0238948 43.3707V41.3124C0.0238948 29.9069 9.27023 20.6565 20.6708 20.6565Z" fill="#A0C6FF"/>
<path d="M49.5959 64.1964H57.8498V68.071H49.5959C48.5308 68.071 47.6595 67.1992 47.6595 66.1337C47.6595 65.044 48.5066 64.1964 49.5959 64.1964Z" fill="#3C98BF"/>
<path d="M0.0238647 68.071V64.1964H8.2778C9.34282 64.1964 10.2142 65.0682 10.2142 66.1337C10.2142 67.1992 9.34282 68.071 8.2778 68.071H0.0238647Z" fill="#3C98BF"/>
<path d="M18.612 72.5603L42.2252 72.5603C44.2118 72.5603 45.8372 69.8654 45.8372 66.5717L45.8372 53.0223C45.8372 49.7286 44.2118 47.0337 42.2252 47.0337L18.612 47.0337C16.6254 47.0337 15 49.7286 15 53.0223L15 66.5717C15 69.8654 16.6254 72.5603 18.612 72.5603Z" fill="#EDF6FF"/>
<path fill-rule="evenodd" clip-rule="evenodd" d="M33.0487 51.8515C33.0752 51.878 33.0941 51.999 33.0941 52.1275C33.0941 52.256 33.1129 52.377 33.1394 52.4034C33.1658 52.4299 33.2829 52.4488 33.4 52.4488C33.6756 52.4488 33.7361 52.5017 33.7361 52.755C33.7361 53.0536 33.6983 53.0914 33.4226 53.0914C33.2867 53.0914 33.1658 53.1103 33.1394 53.1368C33.1129 53.1633 33.0941 53.2804 33.0941 53.3976C33.0941 53.6849 33.1469 53.7341 33.4339 53.7341C33.6228 53.7341 33.6643 53.7454 33.7021 53.8135C33.7587 53.9231 33.7285 54.2973 33.6568 54.3427C33.5812 54.388 32.6144 54.3843 32.5238 54.3389C32.4558 54.3011 32.4521 54.2482 32.4521 53.4317L32.4521 53.3656C32.4522 52.7452 32.4522 52.5445 32.3584 52.4796C32.3135 52.4486 32.2471 52.4487 32.149 52.4488L32.1311 52.4488C31.8214 52.4488 31.81 52.4677 31.81 53.1103C31.81 53.6093 31.8025 53.6585 31.7383 53.6963C31.6968 53.7152 31.4475 53.7341 31.1794 53.7341C30.5676 53.7341 30.526 53.7114 30.526 53.3976C30.526 53.2804 30.5072 53.1633 30.4807 53.1368C30.4165 53.0725 28.7473 53.0725 28.6831 53.1368C28.6567 53.1633 28.6378 53.2842 28.6378 53.4203C28.6378 53.7001 28.6755 53.7341 28.9965 53.7341C29.1892 53.7341 29.208 53.7416 29.2458 53.8361C29.2949 53.9609 29.2685 54.2406 29.2043 54.32C29.1665 54.3654 29.0532 54.3767 28.6491 54.3767C28.3696 54.3767 28.1091 54.3578 28.0675 54.3389C27.9995 54.3011 27.9958 54.2444 27.9958 53.099C27.9958 52.2144 28.0071 51.8856 28.0411 51.8515C28.0675 51.8251 28.1846 51.8062 28.3017 51.8062C28.5849 51.8062 28.6378 51.8591 28.6378 52.1426C28.6378 52.2598 28.6567 52.377 28.6831 52.4034C28.7322 52.4526 29.1212 52.4639 29.1929 52.4186C29.2194 52.3997 29.2534 52.2787 29.2647 52.1426C29.2798 52.0103 29.3062 51.878 29.3289 51.8515C29.3478 51.8251 29.4535 51.8062 29.5819 51.8062C29.8651 51.8062 29.9218 51.8666 29.9218 52.1728C29.9218 52.3467 29.9369 52.4072 29.9822 52.4261C30.0993 52.4715 31.0736 52.4526 31.1227 52.4034C31.1492 52.377 31.168 52.2598 31.168 52.1426L31.168 52.1203C31.1679 52.0168 31.1678 51.9475 31.2003 51.9009C31.2667 51.806 31.4688 51.8061 32.083 51.8062L32.1462 51.8062C32.7617 51.8062 33.0148 51.8175 33.0487 51.8515ZM38.8109 56.2073C38.8411 56.1279 38.8411 51.943 38.8109 51.8674C38.7883 51.8107 38.5692 51.8069 36.5903 51.8144L34.3962 51.8258L34.3848 54.0449L34.3773 56.2678H36.5828C38.5579 56.2678 38.7883 56.2603 38.8109 56.2073ZM35.0193 55.6251V54.0373V52.4496H36.5866C37.8101 52.4496 38.1614 52.4609 38.1727 52.4987C38.184 52.5214 38.1878 53.2321 38.184 54.0752L38.1727 55.6062L36.5941 55.6176L35.0193 55.6251ZM37.55 54.0592C37.55 53.5526 37.5387 53.1291 37.5236 53.114C37.5085 53.1027 37.0817 53.0951 36.5719 53.0989L35.6429 53.1102L35.6316 54.0403L35.624 54.9742L35.7071 54.9968C35.8204 55.0271 37.4141 55.0271 37.4896 54.9968C37.5425 54.9779 37.55 54.857 37.55 54.0592ZM27.3462 54.0748C27.35 52.8801 27.3462 51.8782 27.3349 51.8517C27.3235 51.8139 26.859 51.8064 25.1181 51.8139L22.9163 51.8253L22.905 54.0483L22.8975 56.2676L25.1143 56.26L27.3349 56.2487L27.3462 54.0748ZM23.5395 55.6249V54.037V52.4491H25.0992C25.9602 52.4491 26.674 52.4604 26.6853 52.4755C26.7004 52.4869 26.7117 53.2014 26.7117 54.0634V55.6249H25.1256H23.5395ZM26.0433 53.114C26.0584 53.1291 26.0698 53.5526 26.0698 54.0592C26.0698 54.857 26.0622 54.9779 26.0094 54.9968C25.9338 55.0271 24.3401 55.0271 24.2268 54.9968L24.1438 54.9742L24.1513 54.0403L24.1626 53.1102L25.0917 53.0989C25.6015 53.0951 26.0282 53.1027 26.0433 53.114ZM31.8099 54.6831C31.8099 54.5092 31.7948 54.4146 31.7608 54.4033C31.7382 54.392 31.6097 54.3806 31.4813 54.3806C31.2057 54.3768 31.1679 54.4146 31.1679 54.6944C31.1679 54.9175 31.2623 55.0195 31.4662 55.0195C31.5493 55.0195 31.6588 55.0044 31.7117 54.9817C31.8024 54.9477 31.8099 54.9288 31.8099 54.6831ZM29.8802 54.4487C29.9029 54.4903 29.9218 54.6151 29.9218 54.7323C29.9218 54.857 29.9407 54.9515 29.9671 54.9704C29.9935 54.9856 30.2692 55.0082 30.5827 55.0196L31.1492 55.0385V55.6434V56.2482L30.8924 56.2596C30.5562 56.2747 30.526 56.2482 30.526 55.942C30.526 55.666 30.4845 55.6245 30.2239 55.6245L30.1934 55.6244C30.1065 55.6241 30.0474 55.6238 30.0072 55.6513C29.9214 55.7098 29.9215 55.894 29.9218 56.4706L29.9218 56.5696C29.9218 57.303 29.9142 57.4429 29.8614 57.492C29.8123 57.5449 29.6763 57.5525 28.9739 57.5525C28.4716 57.5525 28.1128 57.5676 28.0675 57.5903C28.0071 57.6243 27.9958 57.6735 27.9958 57.8663C27.9958 58.0024 28.0147 58.1233 28.0411 58.1498C28.0751 58.1838 28.3961 58.1952 29.2609 58.1952C30.1257 58.1952 30.4467 58.2065 30.4807 58.2405C30.5072 58.267 30.526 58.388 30.526 58.5241C30.526 58.7471 30.5185 58.766 30.4278 58.8001C30.375 58.8227 29.9784 58.8379 29.5441 58.8379C29.1098 58.8379 28.7322 58.8492 28.6982 58.8605C28.6529 58.8794 28.6378 58.9399 28.6378 59.1365C28.6378 59.2839 28.6567 59.4087 28.6831 59.4352C28.7133 59.4654 28.9021 59.4805 29.2873 59.4805C29.7972 59.4805 29.8463 59.4881 29.884 59.5524C29.9029 59.5939 29.9218 59.8624 29.9218 60.1535C29.9218 60.5996 29.9293 60.6865 29.9822 60.7054C30.0993 60.7508 31.0736 60.7319 31.1227 60.6827C31.1492 60.6563 31.168 60.5466 31.168 60.437C31.168 60.1081 31.2096 60.0854 31.8629 60.0854C32.3237 60.0854 32.4105 60.0778 32.4294 60.0249C32.4709 59.9191 32.4521 59.5713 32.4067 59.5259C32.3765 59.4957 32.1915 59.4805 31.8252 59.4805C31.3115 59.4805 31.2813 59.4768 31.2285 59.3974C31.1605 59.3029 31.1492 59.0798 31.202 58.9399C31.2398 58.8455 31.2436 58.8454 31.8087 58.8341L31.81 58.8341C32.2632 58.8227 32.3879 58.8076 32.4143 58.7622C32.4332 58.732 32.4521 58.4712 32.4521 58.1876C32.4521 57.5827 32.437 57.5525 32.1462 57.5525C31.8478 57.5525 31.81 57.5147 31.81 57.2387C31.81 57.1026 31.8289 56.9816 31.8554 56.9552C31.8894 56.9212 32.2859 56.9098 33.4 56.9098L33.6566 56.9097C34.6757 56.9091 34.9357 56.9089 35.0003 57.0212C35.0225 57.0597 35.0217 57.1113 35.0206 57.1806C35.0203 57.1965 35.0201 57.2133 35.0201 57.2312C35.0201 57.4996 34.9634 57.5525 34.684 57.5525C34.5669 57.5525 34.4498 57.5714 34.4234 57.5979C34.397 57.6243 34.3781 57.7453 34.3781 57.8738C34.3781 58.0024 34.397 58.1233 34.4234 58.1498C34.4536 58.1801 34.6349 58.1952 34.9861 58.1952C35.2731 58.1952 35.5299 58.2065 35.5639 58.2179C35.6092 58.2368 35.6243 58.2972 35.6243 58.4787C35.6243 58.6451 35.6432 58.7282 35.6848 58.7622C35.7452 58.8152 36.1455 58.8303 36.221 58.7849C36.2852 58.7471 36.2852 57.6621 36.221 57.5979C36.1946 57.5714 36.0775 57.5525 35.9604 57.5525C35.681 57.5525 35.6243 57.4996 35.6243 57.2387C35.6246 57.2177 35.6244 57.1979 35.6242 57.1795C35.6236 57.1095 35.6231 57.0575 35.6456 57.019C35.7102 56.9086 35.964 56.9088 36.9463 56.9097L37.2407 56.9098L37.569 56.9096C38.5088 56.9085 38.7554 56.9082 38.8171 57.0149C38.8391 57.0529 38.8376 57.1044 38.8357 57.1742C38.835 57.1964 38.8344 57.2203 38.8344 57.2463L38.8344 57.2535C38.8344 57.3498 38.8344 57.4151 38.8039 57.4593C38.7397 57.5525 38.5402 57.5525 37.9206 57.5525L37.8865 57.5525C37.3842 57.5525 37.0254 57.5676 36.9801 57.5903C36.9197 57.6243 36.9083 57.6735 36.9083 57.8663C36.9083 58.0024 36.9272 58.1233 36.9537 58.1498C36.9801 58.1763 37.1009 58.1952 37.2293 58.1952C37.3578 58.1952 37.4786 58.2141 37.505 58.2405C37.5579 58.2935 37.5655 58.6791 37.5164 58.7585C37.4937 58.7925 37.3917 58.819 37.2407 58.8303C37.1085 58.8379 36.9801 58.8643 36.9537 58.8832C36.8895 58.9361 36.8895 59.9758 36.9537 60.04C36.9801 60.0665 37.0972 60.0854 37.2142 60.0854C37.4975 60.0854 37.5504 60.1383 37.5504 60.4219C37.5504 60.5391 37.5315 60.6563 37.505 60.6827C37.4786 60.7092 37.3615 60.7281 37.2445 60.7281C36.9612 60.7281 36.9083 60.781 36.9083 61.0645C36.9083 61.1817 36.8895 61.2989 36.863 61.3254C36.8026 61.3859 36.357 61.3859 36.3154 61.3216C36.3003 61.2989 36.2777 60.8755 36.2663 60.3878L36.2475 59.4994L35.9869 59.4881C35.832 59.4805 35.7074 59.4957 35.6848 59.5183C35.6621 59.541 35.6357 59.6733 35.6243 59.8132L35.6054 60.0665L34.718 60.0854C34.2308 60.0967 33.8078 60.1194 33.7814 60.1346C33.755 60.1535 33.7361 60.248 33.7361 60.3727C33.7361 60.6865 33.7021 60.7281 33.434 60.7281C33.1469 60.7281 33.0941 60.7772 33.0941 61.0645C33.0941 61.1817 33.1129 61.2989 33.1394 61.3254C33.1658 61.3519 33.2829 61.3708 33.4 61.3708C33.6832 61.3708 33.7361 61.4237 33.7361 61.7072C33.7361 61.8244 33.755 61.9416 33.7814 61.9681C33.8116 61.9983 34.0004 62.0134 34.3856 62.0134C34.7708 62.0134 34.9221 62.0134 34.9816 62.0874C35.0201 62.1352 35.0201 62.2141 35.0201 62.344L35.0201 62.3499C35.0201 62.6448 34.9937 62.6561 34.363 62.6561C33.9967 62.6561 33.8116 62.6712 33.7814 62.7015C33.7512 62.7317 33.7361 62.9056 33.7361 63.2383L33.7361 63.3045C33.7363 63.6771 33.7364 63.8184 33.6679 63.8717C33.6262 63.9043 33.5589 63.9041 33.4505 63.9037L33.4151 63.9037C33.1998 63.9037 33.1356 63.8923 33.1167 63.8432C33.1054 63.8092 33.0941 63.4047 33.0941 62.9434C33.0941 62.3423 33.0827 62.0928 33.0487 62.0588C33.0223 62.0323 32.9015 62.0134 32.7731 62.0134C32.6447 62.0134 32.5238 61.9945 32.4974 61.9681C32.4709 61.9416 32.4521 61.8244 32.4521 61.7072C32.4521 61.4275 32.3992 61.3708 32.1311 61.3708C31.8629 61.3708 31.81 61.4275 31.81 61.7072C31.81 61.8244 31.7912 61.9416 31.7647 61.9681C31.7383 61.9945 31.6212 62.0134 31.5042 62.0134C31.2171 62.0134 31.168 61.9605 31.168 61.6732C31.168 61.4917 31.1529 61.4426 31.0963 61.4086C30.9981 61.3594 30.0917 61.3594 29.9935 61.4086C29.9369 61.4426 29.9218 61.4917 29.9218 61.6732C29.9218 61.9643 29.8727 62.0134 29.5857 62.0134C29.4535 62.0134 29.3478 61.9945 29.3289 61.9643C29.3062 61.9416 29.2798 61.8169 29.2685 61.6959C29.2571 61.5749 29.2269 61.4539 29.2043 61.4313C29.1816 61.4086 29.0494 61.3821 28.9097 61.3708L28.6567 61.3519L28.6378 61.1024C28.6151 60.781 28.5698 60.7281 28.313 60.7281C28.0486 60.7281 27.9958 60.7848 27.9958 61.0645C27.9958 61.1817 27.9769 61.2989 27.9504 61.3254C27.8862 61.3897 26.8213 61.3897 26.7571 61.3254C26.7306 61.2989 26.7118 61.178 26.7118 61.0419C26.7118 60.7659 26.6702 60.7281 26.3945 60.7281C26.1566 60.7281 26.0697 60.8188 26.0697 61.0645C26.0697 61.3594 26.0584 61.3708 25.7714 61.3708C25.6241 61.3708 25.4995 61.3519 25.4731 61.3254C25.4428 61.2952 25.4277 61.1061 25.4277 60.7243C25.4277 60.3198 25.4164 60.1572 25.3786 60.1346C25.356 60.1194 25.2238 60.0967 25.0879 60.0854L24.8424 60.0665V59.783V59.4994L26.3492 59.4881L26.6343 59.4864C27.6436 59.4806 27.9072 59.4791 27.9744 59.3635C27.9981 59.3226 27.9973 59.2675 27.9963 59.1929L27.9963 59.1928C27.996 59.1763 27.9958 59.1588 27.9958 59.1403C27.9958 59.0118 27.9769 58.9059 27.9467 58.8832C27.924 58.8643 27.6483 58.8379 27.3424 58.8303C26.8968 58.8227 26.776 58.8076 26.7495 58.7622C26.6966 58.6791 26.7042 58.2935 26.7571 58.2405C26.7835 58.2141 26.9044 58.1952 27.0403 58.1952C27.2329 58.1952 27.282 58.1838 27.316 58.1233C27.3349 58.0818 27.3538 57.8133 27.3538 57.526C27.3538 57.1669 27.3689 56.9854 27.3991 56.9552C27.4255 56.9287 27.5464 56.9098 27.6748 56.9098C27.8032 56.9098 27.924 56.8909 27.9504 56.8645C27.9844 56.8304 27.9958 56.5771 27.9958 55.9647C27.9958 55.4959 28.0109 55.0952 28.026 55.0687C28.0449 55.0385 28.2375 55.0196 28.6076 55.012C28.9777 55.0045 29.1778 54.9856 29.208 54.9553C29.2345 54.9289 29.2647 54.7928 29.276 54.6529L29.2987 54.3958L29.5706 54.3845C29.8085 54.3769 29.8463 54.3845 29.8802 54.4487ZM28.7095 55.6623C28.6453 55.7001 28.6378 55.7492 28.6378 56.2634C28.6378 56.7019 28.6491 56.8342 28.6906 56.8682C28.7246 56.8947 28.8379 56.9098 28.9814 56.9023C29.1245 56.8954 29.1816 56.8927 29.2117 56.8629C29.2317 56.8431 29.2398 56.8113 29.2533 56.7586C29.2722 56.6868 29.2798 56.4259 29.2722 56.1764C29.2571 55.7908 29.2458 55.7228 29.1854 55.6774C29.1023 55.6169 28.8153 55.6093 28.7095 55.6623ZM33.7965 58.8605C33.7512 58.8794 33.7361 58.9399 33.7361 59.1365C33.7361 59.2839 33.755 59.4087 33.7814 59.4352C33.8116 59.4654 33.9967 59.4805 34.363 59.4805C34.8766 59.4805 34.9068 59.4768 34.9597 59.3974C35.0276 59.3029 35.039 59.0193 34.9823 58.9097C34.9446 58.8454 34.8955 58.8379 34.397 58.8379C34.0986 58.8379 33.8305 58.8492 33.7965 58.8605ZM33.6983 56.1953C33.755 56.0894 33.7474 55.1216 33.6908 55.0649C33.6643 55.0384 33.5397 55.0195 33.3924 55.0195C33.1961 55.0195 33.1356 55.0347 33.1167 55.08C33.0714 55.1972 33.0903 56.1726 33.1394 56.2217C33.1658 56.2482 33.2867 56.2671 33.4226 56.2671C33.6152 56.2671 33.6643 56.2557 33.6983 56.1953ZM32.4293 55.08C32.4746 55.1972 32.4557 56.1726 32.4066 56.2217C32.3802 56.2482 32.2594 56.2671 32.131 56.2671C32.0026 56.2671 31.8817 56.2482 31.8553 56.2217C31.7911 56.1575 31.7911 55.1292 31.8553 55.0649C31.8817 55.0384 32.0063 55.0195 32.1536 55.0195C32.35 55.0195 32.4104 55.0347 32.4293 55.08ZM31.8099 56.5808C31.8099 56.3994 31.7948 56.3389 31.7419 56.3049C31.674 56.2633 31.2623 56.2709 31.2208 56.3162C31.1717 56.3654 31.1603 56.7471 31.2019 56.8303C31.2397 56.8983 31.2812 56.9097 31.4814 56.9097C31.6173 56.9097 31.7382 56.8908 31.7646 56.8643C31.791 56.8379 31.8099 56.7169 31.8099 56.5808ZM31.1226 56.955C31.1415 56.9815 31.1679 57.11 31.1755 57.2424C31.1868 57.3936 31.2132 57.4957 31.2472 57.5183C31.2774 57.5372 31.3945 57.5524 31.5078 57.5524C31.6249 57.5524 31.7382 57.5713 31.7646 57.5977C31.791 57.6242 31.8099 57.7452 31.8099 57.8737C31.8099 58.0023 31.791 58.1232 31.7646 58.1497C31.7344 58.1799 31.5456 58.1951 31.1603 58.1951C30.6505 58.1951 30.6014 58.1875 30.5637 58.1232C30.5448 58.0817 30.5259 57.8246 30.5259 57.5524C30.5259 57.2802 30.5448 57.0231 30.5637 56.9815C30.5976 56.921 30.6467 56.9097 30.8431 56.9097C30.9904 56.9097 31.0961 56.9286 31.1226 56.955ZM26.7117 57.5524C26.7117 57.1743 26.6966 56.9853 26.6664 56.955C26.64 56.9286 26.5191 56.9097 26.3832 56.9097C26.1037 56.9097 26.0697 56.9475 26.0697 57.2575C26.0697 57.3709 26.0508 57.4806 26.0244 57.507C25.998 57.5335 25.8809 57.5524 25.7638 57.5524C25.439 57.5524 25.4277 57.5713 25.4277 58.1914C25.4277 58.6111 25.439 58.7245 25.4844 58.7623C25.5637 58.8266 25.8431 58.853 25.964 58.8039C26.0622 58.7661 26.0697 58.7472 26.0697 58.5544C26.0697 58.233 26.1037 58.1952 26.3832 58.1952C26.5191 58.1952 26.64 58.1763 26.6664 58.1498C26.6966 58.1196 26.7117 57.9305 26.7117 57.5524ZM25.3825 56.955C25.4429 57.0155 25.4429 57.4463 25.3825 57.5068C25.3372 57.5521 24.9897 57.571 24.884 57.5294C24.8387 57.5105 24.8236 57.4501 24.8236 57.2536C24.8236 57.1062 24.8425 56.9815 24.8689 56.955C24.9293 56.8946 25.3221 56.8946 25.3825 56.955ZM24.1438 57.2536C24.1438 57.1062 24.1249 56.9815 24.0985 56.955C24.038 56.8946 23.6453 56.8946 23.5848 56.955C23.5584 56.9815 23.5395 57.1024 23.5395 57.2309C23.5395 57.3594 23.5584 57.4803 23.5848 57.5068C23.6302 57.5521 23.9776 57.571 24.0833 57.5294C24.1287 57.5105 24.1438 57.4501 24.1438 57.2536ZM23.4788 57.6129C23.5468 57.681 23.5619 58.0059 23.5015 58.123C23.4675 58.1835 23.4184 58.1948 23.2258 58.1948C23.0898 58.1948 22.969 58.1759 22.9425 58.1495C22.9161 58.123 22.8972 58.0021 22.8972 57.8737C22.8972 57.7452 22.9161 57.6243 22.9425 57.5978C23.0105 57.5298 23.407 57.5412 23.4788 57.6129ZM24.7705 58.747C24.8309 58.66 24.8422 58.3726 24.7856 58.2667C24.7516 58.2062 24.7025 58.1948 24.4948 58.1948C24.2002 58.1948 24.1474 58.2402 24.1436 58.5012C24.1436 58.7621 24.204 58.8188 24.4835 58.8188C24.6685 58.8188 24.7252 58.8037 24.7705 58.747ZM38.7965 58.9097C38.8191 58.9589 38.8342 59.6091 38.8342 60.7622C38.8342 62.3273 38.8267 62.5428 38.7738 62.5958C38.7021 62.6676 38.3055 62.6789 38.2375 62.6109C38.2036 62.5769 38.1922 62.1837 38.1922 61.0684C38.1922 59.9532 38.1809 59.56 38.1469 59.526C38.1205 59.4995 38.0034 59.4806 37.8863 59.4806C37.6031 59.4806 37.5502 59.4277 37.5502 59.1441C37.5502 59.0269 37.5691 58.9097 37.5955 58.8833C37.6257 58.853 37.8146 58.8379 38.1998 58.8379C38.7096 58.8379 38.7587 58.8455 38.7965 58.9097ZM24.1361 59.8243C24.1436 59.692 24.1398 59.5596 24.1285 59.5332C24.1134 59.4916 23.9812 59.4802 23.5243 59.4802C23.0296 59.4802 22.9389 59.4878 22.92 59.5407C22.8747 59.6579 22.8936 60.6335 22.9427 60.6827C22.9691 60.7091 23.09 60.728 23.2259 60.728C23.5054 60.728 23.5394 60.6902 23.5394 60.3726C23.5394 60.2478 23.5583 60.1533 23.5847 60.1344C23.6111 60.1193 23.7433 60.0966 23.8793 60.0852L24.1247 60.0663L24.1361 59.8243ZM35.5562 60.7699C35.6091 60.8001 35.6242 60.8606 35.6242 61.042C35.6242 61.1781 35.6431 61.2991 35.6695 61.3255C35.6959 61.352 35.8092 61.3709 35.9263 61.3709C36.2209 61.3709 36.2851 61.4276 36.2851 61.6846C36.2851 62.0059 36.27 62.0134 35.662 62.0134C35.3749 62.0134 35.1144 62.0021 35.0804 61.9907C35.0351 61.9719 35.02 61.9114 35.02 61.73C35.02 61.4238 34.9671 61.3709 34.6536 61.3709C34.3855 61.3709 34.3779 61.3595 34.3779 61.0307C34.3779 60.8493 34.3931 60.8001 34.4497 60.7661C34.5441 60.717 35.4694 60.717 35.5562 60.7699ZM24.8233 61.0534C24.8233 60.9286 24.8007 60.8568 24.7478 60.8039C24.6798 60.7358 24.6232 60.7283 24.1775 60.7283C23.9056 60.7283 23.6526 60.7472 23.6111 60.7661C23.5506 60.8001 23.5393 60.8492 23.5393 61.042C23.5393 61.1781 23.5204 61.2991 23.494 61.3256C23.4676 61.352 23.358 61.3709 23.2447 61.3709C23.222 61.3709 23.2007 61.3706 23.1808 61.3703H23.1807H23.1806H23.1805H23.1805H23.1804H23.1803H23.1803C23.0942 61.369 23.0342 61.3681 22.9924 61.3952C22.8958 61.4578 22.8961 61.6698 22.8971 62.3712L22.8973 62.6184C22.8973 63.2573 22.9086 63.8092 22.92 63.8433C22.9388 63.8962 23.0559 63.9038 23.8452 63.9038L23.9479 63.9038H23.9479C24.5497 63.904 24.7384 63.9041 24.7972 63.8167C24.8241 63.7768 24.8238 63.7186 24.8234 63.6339L24.8233 63.6013C24.8233 63.3027 24.8195 63.2989 24.1889 63.2989C23.8037 63.2989 23.6148 63.2838 23.5846 63.2535C23.5544 63.2233 23.5393 63.0343 23.5393 62.6562C23.5393 62.2782 23.5544 62.0892 23.5846 62.059C23.6111 62.0325 23.7168 62.0136 23.8263 62.0136C24.1284 62.0136 24.1435 62.0022 24.1435 61.7452C24.1435 61.439 24.2153 61.3709 24.5212 61.3709C24.7818 61.3709 24.8233 61.3293 24.8233 61.0534ZM37.4896 61.4309C37.5387 61.48 37.55 61.5897 37.55 62.0283C37.55 62.3951 37.5349 62.5804 37.5047 62.6106C37.4443 62.6711 37.0138 62.6711 36.9533 62.6106C36.9231 62.5804 36.908 62.3951 36.908 62.0283C36.908 61.393 36.9193 61.3704 37.229 61.3704C37.3612 61.3704 37.4518 61.3893 37.4896 61.4309ZM28.6378 61.7069C28.6378 61.5595 28.6189 61.4687 28.5774 61.4309C28.5094 61.3629 28.1846 61.3478 28.0675 61.4083C28.0071 61.4423 27.9958 61.4914 27.9958 61.6842C27.9958 61.8203 27.9769 61.9413 27.9505 61.9678C27.9165 62.0018 27.5275 62.0131 26.4247 62.0131C25.609 62.0131 24.9179 62.0245 24.8839 62.0358C24.8386 62.0547 24.8235 62.1152 24.8235 62.3118C24.8235 62.4592 24.8424 62.584 24.8688 62.6104C24.8953 62.6369 25.0123 62.6558 25.1294 62.6558C25.2654 62.6558 25.3598 62.6747 25.3862 62.7087C25.4164 62.7427 25.4277 62.9393 25.4202 63.3212L25.4089 63.8844L25.1521 63.9071C25.0123 63.9185 24.8801 63.9449 24.8575 63.9676C24.8348 63.9903 24.8273 64.236 24.8311 64.5876L24.8424 65.1698L25.0879 65.1811C25.22 65.1887 25.3522 65.2114 25.3786 65.234C25.4466 65.287 25.4504 66.3606 25.3824 66.4287C25.356 66.4551 25.2427 66.474 25.1256 66.474C25.0086 66.474 24.8953 66.4929 24.8688 66.5194C24.8424 66.5459 24.8235 66.6706 24.8235 66.818C24.8235 67.0146 24.8386 67.0751 24.8839 67.094C24.9897 67.1356 27.8447 67.1205 27.924 67.0789C27.9844 67.0449 27.9958 66.9957 27.9958 66.8029C27.9958 66.6668 27.9769 66.5459 27.9505 66.5194C27.9165 66.4854 27.6597 66.474 27.0252 66.474C26.1982 66.474 26.1453 66.4702 26.1075 66.4022C26.0886 66.3606 26.0697 66.1035 26.0697 65.8276L26.0696 65.7453C26.0691 65.4672 26.0688 65.3278 26.1384 65.258C26.2084 65.1877 26.3492 65.188 26.6316 65.1886H26.6316L26.7155 65.1887C27.3349 65.1887 27.3538 65.2 27.3538 65.5251C27.3538 65.6423 27.3726 65.7595 27.3991 65.786C27.4331 65.82 27.6785 65.8314 28.279 65.8314C28.887 65.8314 29.1325 65.8427 29.1778 65.8767C29.2156 65.907 29.2496 66.0015 29.2647 66.1149L29.2703 66.1664C29.2891 66.3407 29.2973 66.4165 29.3392 66.4493C29.3715 66.4746 29.4237 66.4744 29.5162 66.4741L29.5517 66.474C29.8538 66.474 29.9218 66.5307 29.9218 66.7878C29.9218 67.0524 29.8538 67.1167 29.5819 67.1167C29.4648 67.1167 29.3515 67.1356 29.3251 67.1621C29.2647 67.2226 29.2647 67.6535 29.3251 67.714C29.3893 67.7783 31.0585 67.7783 31.1227 67.714C31.1831 67.6535 31.1831 67.2226 31.1227 67.1621C31.0963 67.1356 30.9792 67.1167 30.8621 67.1167C30.5827 67.1167 30.526 67.0638 30.526 66.8067C30.526 66.5307 30.5902 66.474 30.8848 66.474C31.1605 66.474 31.168 66.4627 31.168 66.1338C31.168 65.9523 31.1529 65.9032 31.0963 65.8692C31.0547 65.8503 30.8017 65.8314 30.5298 65.8314C30.2617 65.8314 30.0162 65.82 29.9822 65.8087C29.9369 65.7898 29.9218 65.7293 29.9218 65.5478C29.9218 65.2 29.9067 65.1925 29.2231 65.1811L28.6567 65.1698L28.6453 64.58L28.6378 63.9903L28.7473 63.9411C28.819 63.9109 29.0192 63.8996 29.3364 63.9109C29.8991 63.926 29.9218 63.9374 29.9218 64.2852C29.9218 64.4175 29.9407 64.5158 29.9671 64.5347C29.9935 64.5498 30.4165 64.5725 30.9037 64.5838L31.7912 64.6027L31.8025 64.8409C31.8176 65.1509 31.7836 65.1887 31.5042 65.1887C31.3229 65.1887 31.2776 65.2038 31.2285 65.2719C31.1605 65.3664 31.1492 65.5894 31.2058 65.7331C31.2398 65.8238 31.2625 65.8314 31.4513 65.8314C31.7723 65.8314 31.81 65.8654 31.81 66.1451C31.81 66.2812 31.7912 66.4022 31.7647 66.4287C31.7383 66.4551 31.6212 66.474 31.5042 66.474C31.2058 66.474 31.1567 66.5307 31.1756 66.8256C31.1869 66.9617 31.2134 67.06 31.2473 67.0827C31.2776 67.1016 31.3946 67.1167 31.5079 67.1167C31.625 67.1167 31.7383 67.1356 31.7647 67.1621C31.7912 67.1885 31.81 67.3095 31.81 67.438C31.81 67.5666 31.8289 67.6875 31.8554 67.714C31.8894 67.748 32.1424 67.7594 32.758 67.7594C33.4906 67.7594 33.6266 67.7518 33.6756 67.6989C33.7285 67.6497 33.7361 67.4569 33.7361 66.1867C33.7361 65.2529 33.721 64.7048 33.6983 64.6556C33.6643 64.5952 33.6152 64.5838 33.4 64.5838C33.196 64.5838 33.1356 64.5989 33.1167 64.6443C33.1054 64.6783 33.0941 64.9354 33.0941 65.2227C33.0941 65.5743 33.079 65.7557 33.0487 65.786C32.9883 65.8465 32.5578 65.8465 32.4974 65.786C32.4332 65.7217 32.4332 64.6934 32.4974 64.6292C32.5238 64.6027 32.6333 64.5838 32.7466 64.5838C33.0563 64.5838 33.0941 64.5498 33.0941 64.2625C33.0941 63.9185 33.0676 63.9033 32.3916 63.9033C31.9384 63.9033 31.8516 63.8958 31.8327 63.8428C31.7912 63.737 31.81 63.3892 31.8554 63.3438C31.8818 63.3174 31.9989 63.2985 32.1159 63.2985C32.3916 63.2985 32.4521 63.2455 32.4521 62.9923C32.4521 62.8574 32.4521 62.7767 32.4125 62.7282C32.3532 62.6558 32.2054 62.6558 31.8365 62.6558C31.5419 62.6558 31.2776 62.6709 31.2473 62.6898C31.2134 62.7125 31.1869 62.8146 31.1756 62.9658C31.168 63.0981 31.1416 63.2266 31.1227 63.2493C31.0699 63.3174 29.3893 63.3174 29.3251 63.2531C29.2949 63.2229 29.2798 63.0452 29.2798 62.7087C29.2798 62.4327 29.2647 62.1643 29.242 62.1114C29.208 62.0207 29.1891 62.0131 28.9663 62.0131C28.8304 62.0131 28.7095 61.9942 28.6831 61.9678C28.6567 61.9413 28.6378 61.8241 28.6378 61.7069ZM26.0697 63.6047C26.0697 62.9015 26.0773 62.7654 26.1302 62.7163C26.1793 62.6634 26.3152 62.6558 27.0479 62.6558C27.6634 62.6558 27.9165 62.6671 27.9505 62.7012C27.9844 62.7352 27.9958 62.9885 27.9958 63.6009C27.9958 64.3835 27.9882 64.4628 27.9278 64.5195C27.8674 64.5763 27.7465 64.5838 27.0403 64.5838C26.2699 64.5838 26.217 64.58 26.1453 64.5082C26.0735 64.4364 26.0697 64.3835 26.0697 63.6047ZM32.4521 66.7765C32.4521 66.595 32.4672 66.5459 32.5238 66.5118C32.6258 66.4589 32.9921 66.4627 33.0487 66.5194C33.0752 66.5459 33.0941 66.6668 33.0941 66.8029C33.0941 67.0789 33.0563 67.1167 32.758 67.1167C32.5049 67.1167 32.4521 67.0562 32.4521 66.7765ZM27.3081 63.344C27.3534 63.3893 27.3723 63.7372 27.3308 63.8431C27.3119 63.8922 27.2477 63.9036 27.0324 63.9036C26.8172 63.9036 26.753 63.8922 26.7341 63.8431C26.6926 63.7372 26.7114 63.3893 26.7568 63.344C26.7832 63.3175 26.904 63.2986 27.0324 63.2986C27.1608 63.2986 27.2817 63.3175 27.3081 63.344ZM31.1226 62.6106C31.1831 62.5502 31.1831 62.1192 31.1226 62.0587C31.0735 62.0096 30.0992 61.9907 29.9821 62.036C29.9368 62.0549 29.9217 62.1154 29.9217 62.312C29.9217 62.4594 29.9406 62.5842 29.967 62.6106C29.9972 62.6409 30.1823 62.656 30.5448 62.656C30.9074 62.656 31.0924 62.6409 31.1226 62.6106ZM38.8077 63.325C38.8455 63.3591 38.838 67.6539 38.804 67.7144C38.7775 67.7522 38.3092 67.7598 36.5834 67.7522L34.3968 67.7409L34.3855 65.5179L34.3779 63.2986H36.5796C37.7919 63.2986 38.7964 63.3099 38.8077 63.325ZM35.0275 65.5216L35.0199 67.1171L36.5947 67.1095L38.1733 67.0982L38.1846 65.5216C38.1922 64.0472 38.1884 63.9451 38.128 63.93C38.0902 63.9186 37.3802 63.9148 36.5494 63.9186L35.0388 63.9224L35.0275 65.5216ZM37.55 66.4744V65.5293V64.5842L36.5946 64.5918L35.6429 64.6031L35.6316 65.5369L35.624 66.4744H36.587H37.55ZM24.1023 65.2419C24.1288 65.2759 24.1439 65.3969 24.1363 65.5557L24.125 65.8128L23.8795 65.8317C23.7436 65.843 23.6114 65.8657 23.5849 65.8808C23.5585 65.8997 23.5396 66.0018 23.5396 66.1492C23.5396 66.2816 23.5207 66.4025 23.4943 66.429C23.4339 66.4895 23.0034 66.4895 22.9429 66.429C22.9127 66.3988 22.8976 66.2097 22.8976 65.8241C22.8976 65.3137 22.9052 65.2646 22.9694 65.2268C23.0864 65.1663 24.0495 65.1776 24.1023 65.2419ZM24.8232 66.1565C24.8232 66.0317 24.8006 65.9599 24.7477 65.9069C24.691 65.8502 24.6231 65.8313 24.4833 65.8313C24.2341 65.8313 24.1434 65.9183 24.1434 66.1565C24.1434 66.4401 24.1812 66.4741 24.4833 66.4741C24.7854 66.4741 24.8232 66.4401 24.8232 66.1565ZM29.204 66.512C29.2455 66.5384 29.2606 66.614 29.2606 66.7955C29.2606 66.977 29.2455 67.0526 29.204 67.0791C29.1209 67.132 28.7357 67.1245 28.6828 67.0716C28.6564 67.0451 28.6375 66.9241 28.6375 66.7955C28.6375 66.667 28.6564 66.546 28.6828 66.5195C28.7357 66.4666 29.1209 66.459 29.204 66.512ZM24.1436 66.7351C24.1436 66.5952 24.1248 66.512 24.0945 66.5007C24.0001 66.4591 23.63 66.4742 23.5847 66.5196C23.5583 66.5461 23.5394 66.6632 23.5394 66.7804C23.5394 67.064 23.4865 67.1169 23.2033 67.1169C23.0862 67.1169 22.9691 67.1358 22.9427 67.1622C22.9163 67.1887 22.8974 67.3097 22.8974 67.4382C22.8974 67.5667 22.9163 67.6877 22.9427 67.7142C22.9767 67.7482 23.2297 67.7595 23.8453 67.7595C24.6912 67.7595 24.7063 67.7595 24.763 67.6764C24.831 67.5818 24.8423 67.2983 24.7856 67.1887C24.7517 67.1282 24.7026 67.1169 24.5024 67.1169C24.2041 67.1169 24.1436 67.0526 24.1436 66.7351Z" fill="#433836"/>
<path fill-rule="evenodd" clip-rule="evenodd" d="M38.572 50.0242H23.0199C21.9551 50.0242 21.0919 50.8945 21.0919 51.9682V67.6499C21.0919 68.7236 21.9551 69.5939 23.0199 69.5939H38.572C39.6368 69.5939 40.5 68.7236 40.5 67.6499V51.9682C40.5 50.8945 39.6368 50.0242 38.572 50.0242ZM38.572 51.0934C39.0512 51.0934 39.4396 51.485 39.4396 51.9682V67.6499C39.4396 68.1331 39.0512 68.5247 38.572 68.5247H23.0199C22.5407 68.5247 22.1523 68.1331 22.1523 67.6499V51.9682C22.1523 51.485 22.5407 51.0934 23.0199 51.0934H38.572Z" fill="#433836"/>
<path d="M19.1242 47.0337L31.0116 47.0337C28.7312 47.0337 26.8874 49.8783 26.8874 53.3966L26.8874 66.1974C26.8874 69.7157 28.7312 72.5603 31.0116 72.5603L19.1242 72.5603C16.8438 72.5603 15 69.7157 15 66.1974L15 53.3966C15 49.8783 16.8438 47.0337 19.1242 47.0337Z" fill="#0A1BB3" fill-opacity="0.21"/>
</svg>
