<svg width="124" height="126" viewBox="0 0 124 126" fill="none" xmlns="http://www.w3.org/2000/svg">
<path d="M124 63C124 97.7939 96.2417 126 62 126C27.7583 126 0 97.7939 0 63C0 28.2061 27.7583 0 62 0C96.2417 0 124 28.2061 124 63Z" fill="#CEA27A"/>
<path d="M87.2276 63C87.2276 77.1575 75.9328 88.6344 62 88.6344C48.0672 88.6344 36.7724 77.1575 36.7724 63C36.7724 48.8424 48.0672 37.3655 62 37.3655C75.9328 37.3655 87.2276 48.8424 87.2276 63Z" fill="black" fill-opacity="0.5"/>
<path d="M60.7791 66.9689C59.2053 68.2302 55.2792 69.0247 52.1655 62.1129C56.0925 62.2905 63.3131 63.5104 60.7791 66.9689Z" fill="#AEFF46"/>
<path d="M62.3623 67.8232C60.9705 64.7 60.6757 57.7117 70.631 54.745C69.6122 61.4029 66.532 73.3395 62.3623 67.8232Z" fill="#AEFF46"/>
<path d="M21.5169 66.6483C20.2699 67.6476 17.1592 68.2771 14.6922 62.8008C17.8036 62.9415 23.5246 63.9081 21.5169 66.6483Z" fill="#EEE3AC"/>
<path d="M22.5124 67.4905C21.4097 65.0159 21.1761 59.479 29.0638 57.1284C28.2566 62.4036 25.8162 71.8612 22.5124 67.4905Z" fill="#EEE3AC"/>
<path d="M89.8833 100.089C88.6364 101.089 85.5257 101.718 83.0586 96.2419C86.1701 96.3826 91.8911 97.3492 89.8833 100.089Z" fill="#EEE3AC"/>
<path d="M90.8789 100.931C89.7762 98.4567 89.5426 92.9198 97.4303 90.5692C96.6231 95.8444 94.1827 105.302 90.8789 100.931Z" fill="#EEE3AC"/>
<path d="M89.8833 31.0185C88.6364 32.0178 85.5257 32.6474 83.0586 27.171C86.1701 27.3117 91.8911 28.2783 89.8833 31.0185Z" fill="#EEE3AC"/>
<path d="M90.8789 31.8604C89.7762 29.3858 89.5426 23.8489 97.4303 21.4983C96.6231 26.7734 94.1827 36.231 90.8789 31.8604Z" fill="#EEE3AC"/>
</svg>
