<svg width="124" height="126" viewBox="0 0 124 126" fill="none" xmlns="http://www.w3.org/2000/svg">
<path d="M47.2976 0C40.8175 0.516393 36.3313 2.84016 33.8389 6.97131L17.3893 36.6639L28.3557 43.1189L0.192047 46.7336L8.91531 51.8975L1.43823 65.3238C-0.0571889 68.1639 -1.05413 74.6189 1.9367 79.2664C3.18288 81.0738 6.92142 88.0451 10.1615 94.2418C13.1523 99.6639 15.8939 104.57 17.1401 106.635C18.3863 108.701 19.6325 110.766 19.8817 111.025C19.8817 111.025 16.6416 105.344 22.374 95.2746L37.079 68.9385L45.8022 74.1025L34.5866 46.9918L45.553 53.4467L68.9812 11.3607C73.7166 2.06557 77.4552 0.516393 78.4521 0.258197C78.9506 0.258197 79.1998 0.258197 79.6983 0.258197C79.4491 0.258197 78.9506 0.258197 78.7014 0.258197C78.4521 0.258197 78.2029 0.258197 78.2029 0.258197C74.7136 0.258197 68.7319 0.258197 61.5041 0.258197C57.0178 0 52.2824 0 47.2976 0ZM81.9414 0.516393C80.446 1.29098 77.206 3.61475 73.2182 11.3607L64.2457 27.6271L69.4796 37.1803L60.7564 42.3443L88.92 45.959L77.9537 52.4139L92.1601 77.9754H110.604C118.33 77.9754 122.318 75.3934 123.813 73.5861C124.312 70.4877 123.813 67.3894 122.318 64.8074L105.868 35.373L94.9017 41.8279L106.117 14.7172L97.3941 19.8811L89.917 6.45492C89.1693 4.38934 85.9292 1.29098 81.9414 0.516393ZM79.9476 71.5205L62.7503 95.0164V81.8484H34.0881L24.8664 98.373C20.8786 105.344 21.3771 110.25 21.8756 112.574C24.3679 114.639 26.8603 115.672 29.8511 115.672H62.7503V102.504L79.9476 126V115.672H94.9017C98.1418 115.672 103.874 113.348 106.367 108.443C107.364 106.377 111.351 99.4057 114.841 93.4672C117.831 88.3033 120.822 83.1394 121.819 81.0738C122.816 78.75 123.813 76.4262 123.813 76.168C123.813 76.168 120.822 81.8484 109.357 81.8484H79.9476V71.5205Z" fill="#556645"/>
<path d="M45.0143 75.6146V72.9971C45.0143 71.5583 46.1245 70.3796 47.5122 70.3796V69.5684H77.414V70.3796C78.7871 70.3796 79.9119 71.543 79.9119 72.9971V75.6146C79.9119 76.6555 79.3422 77.5433 78.495 77.9719C78.4073 78.0178 78.3489 78.1249 78.3489 78.2321C78.3489 78.3392 78.4073 78.4464 78.495 78.4923C79.3276 78.9209 79.9119 79.8087 79.9119 80.8496V83.4671C79.9119 84.5079 79.3422 85.3957 78.495 85.8243C78.4073 85.8702 78.3489 85.9774 78.3489 86.0845C78.3489 86.1917 78.4073 86.2988 78.495 86.3448C79.3276 86.7734 79.9119 87.6612 79.9119 88.702V91.3195C79.9119 92.3604 79.3422 93.2482 78.495 93.6768C78.4073 93.7227 78.3489 93.8299 78.3489 93.937C78.3489 94.0441 78.4073 94.1513 78.495 94.1972C79.3276 94.6258 79.9119 95.5136 79.9119 96.5545C79.9119 99.4016 77.677 101.744 74.9307 101.744H49.9955C47.2347 101.744 45.0143 99.4016 45.0143 96.5239C45.0143 95.483 45.584 94.5952 46.4313 94.1666C46.5189 94.1207 46.5773 94.0135 46.5773 93.9064C46.5773 93.7992 46.5189 93.6921 46.4313 93.6462C45.5986 93.2176 45.0143 92.3298 45.0143 91.2889V88.6714C45.0143 87.6305 45.584 86.7427 46.4313 86.3141C46.5189 86.2682 46.5773 86.1611 46.5773 86.0539C46.5773 85.9468 46.5189 85.8396 46.4313 85.7937C45.5986 85.3651 45.0143 84.4773 45.0143 83.4364V80.819C45.0143 79.7781 45.584 78.8903 46.4313 78.4617C46.5189 78.4158 46.5773 78.3086 46.5773 78.2015C46.5773 78.0943 46.5189 77.9872 46.4313 77.9413C45.584 77.5433 45.0143 76.6555 45.0143 75.6146Z" fill="#B9D9F6"/>
<path d="M46.4169 77.972C45.5842 77.5434 44.9999 76.6556 44.9999 75.6147V72.9972C44.9999 71.5584 46.1101 70.3798 47.4978 70.3798H51.0767C49.7036 70.3798 48.5788 71.5431 48.5788 72.9972V75.6147C48.5788 76.6556 49.1485 77.5434 49.9957 77.972C50.0834 78.0179 50.1418 78.1251 50.1418 78.2322C50.1418 78.3394 50.0834 78.4465 49.9957 78.4924C49.1631 78.921 48.5788 79.8088 48.5788 80.8497V83.4672C48.5788 84.5081 49.1485 85.3959 49.9957 85.8245C50.0834 85.8704 50.1418 85.9775 50.1418 86.0847C50.1418 86.1918 50.0834 86.299 49.9957 86.3449C49.1631 86.7735 48.5788 87.6613 48.5788 88.7022V91.3197C48.5788 92.3605 49.1485 93.2483 49.9957 93.6769C50.0834 93.7229 50.1418 93.83 50.1418 93.9372C50.1418 94.0443 50.0834 94.1515 49.9957 94.1974C49.1631 94.626 48.5788 95.5138 48.5788 96.5546C48.5788 99.4477 50.8138 101.774 53.56 101.774H49.9811C47.2203 101.774 44.9999 99.4323 44.9999 96.5546C44.9999 95.5138 45.5696 94.626 46.4169 94.1974C46.5045 94.1515 46.563 94.0443 46.563 93.9372C46.563 93.83 46.5045 93.7229 46.4169 93.6769C45.5842 93.2483 44.9999 92.3605 44.9999 91.3197V88.7022C44.9999 87.6613 45.5696 86.7735 46.4169 86.3449C46.5045 86.299 46.563 86.1918 46.563 86.0847C46.563 85.9775 46.5045 85.8704 46.4169 85.8245C45.5842 85.3959 44.9999 84.5081 44.9999 83.4672V80.8497C44.9999 79.8088 45.5696 78.921 46.4169 78.4924C46.5045 78.4465 46.563 78.3394 46.563 78.2322C46.5776 78.1251 46.5191 78.0179 46.4169 77.972Z" fill="#A0C6FF"/>
<path d="M52.4933 77.0073H79.532C79.2837 77.4205 78.9331 77.7572 78.5095 77.9714C78.4219 78.0173 78.3634 78.1244 78.3634 78.2315C78.3634 78.3387 78.4219 78.4458 78.5095 78.4917C78.9331 78.7059 79.2837 79.0426 79.532 79.4558H52.4933C51.8506 79.4558 51.3247 78.9049 51.3247 78.2315C51.3247 77.5582 51.836 77.0073 52.4933 77.0073Z" fill="#A0C6FF"/>
<path d="M46.417 85.8086C45.9934 85.5943 45.6428 85.2576 45.3944 84.8444H72.4331C73.0759 84.8444 73.6017 85.3954 73.6017 86.0688C73.6017 86.7423 73.0759 87.2933 72.4331 87.2933H45.3944C45.6428 86.88 45.9934 86.5433 46.417 86.329C46.5046 86.2831 46.563 86.176 46.563 86.0688C46.5777 85.9617 46.5192 85.8545 46.417 85.8086Z" fill="#A0C6FF"/>
<path d="M52.4933 92.6814H79.532C79.2837 93.0947 78.9331 93.4315 78.5095 93.6459C78.4219 93.6918 78.3634 93.7989 78.3634 93.9061C78.3634 94.0133 78.4219 94.1204 78.5095 94.1664C78.9331 94.3807 79.2837 94.7175 79.532 95.1308H52.4933C51.8506 95.1308 51.3247 94.5797 51.3247 93.9061C51.3247 93.2325 51.836 92.6814 52.4933 92.6814Z" fill="#A0C6FF"/>
<path d="M46.256 70.3946H78.6703C79.3568 70.3946 79.9119 69.8129 79.9119 69.0935V53.419C79.9119 52.6996 79.3568 52.1179 78.6703 52.1179V51.3066H46.256V52.1179C45.5694 52.1179 45.0143 52.6996 45.0143 53.419V69.0935C45.0143 69.8129 45.5694 70.3946 46.256 70.3946Z" fill="#67A6C1"/>
<path d="M46.256 52.1021V51.2908H49.8349V52.1021C49.1483 52.1021 48.5933 52.6838 48.5933 53.4032V69.0781C48.5933 69.7975 49.1483 70.3792 49.8349 70.3792H46.256C45.5695 70.3792 45.0144 69.7975 45.0144 69.0781V53.4185C45.0144 52.6991 45.5695 52.1021 46.256 52.1021Z" fill="#3C98BF"/>
<path d="M54.9769 31.2082H69.9351V25.8203C69.9351 24.4733 68.8834 23.3712 67.5979 23.3712H57.3141C56.0287 23.3712 54.9769 24.4733 54.9769 25.8203V31.2082Z" fill="#EDF6FF"/>
<path d="M67.4517 30.2592H57.4747V37.377H67.4517V30.2592Z" fill="#A0C6FF"/>
<path d="M67.4516 36.4282C74.3318 36.4282 79.9119 42.2754 79.9119 49.5001V50.8011C79.9119 51.5206 79.3568 52.1022 78.6703 52.1022H46.256C45.5694 52.1022 45.0143 51.5206 45.0143 50.8011V49.5001C45.0143 42.2907 50.5944 36.4435 57.4746 36.4435H67.4516V36.4282Z" fill="#B9D9F6"/>
<path d="M54.9769 31.2082H69.9351V25.8203C69.9351 24.4733 68.8834 23.3712 67.5979 23.3712H57.3141C56.0287 23.3712 54.9769 24.4733 54.9769 25.8203V31.2082Z" fill="#EDF6FF"/>
<path d="M57.4747 23.3712H61.0535C59.6804 23.3712 58.5556 24.5345 58.5556 25.9886V31.2082H54.9768V25.9886C54.9768 24.5345 56.1015 23.3712 57.4747 23.3712Z" fill="#D8E2F3"/>
<path d="M54.9768 32.4329H69.935C70.5777 32.4329 71.1036 31.8819 71.1036 31.2085C71.1036 30.535 70.5777 29.984 69.935 29.984H54.9768C54.334 29.984 53.8082 30.535 53.8082 31.2085C53.8082 31.8819 54.334 32.4329 54.9768 32.4329Z" fill="#D8E2F3"/>
<path d="M57.4747 36.4282H61.0535C54.1733 36.4282 48.5932 42.2755 48.5932 49.4851V50.7862C48.5932 51.5057 49.1483 52.0873 49.8349 52.0873H46.256C45.5694 52.0873 45.0144 51.5057 45.0144 50.7862V49.4851C45.0144 42.2755 50.5945 36.4282 57.4747 36.4282Z" fill="#A0C6FF"/>
<path d="M74.9307 63.9504H79.9119V66.3999H74.9307C74.288 66.3999 73.7621 65.8487 73.7621 65.1752C73.7621 64.4863 74.2734 63.9504 74.9307 63.9504Z" fill="#3C98BF"/>
<path d="M45.0143 66.3999V63.9504H49.9955C50.6382 63.9504 51.1641 64.5016 51.1641 65.1752C51.1641 65.8487 50.6382 66.3999 49.9955 66.3999H45.0143Z" fill="#3C98BF"/>
<path d="M56.2064 69.6829L70.6308 69.6829C71.8443 69.6829 72.8372 68.0119 72.8372 65.9695L72.8372 57.5681C72.8372 55.5257 71.8443 53.8547 70.6308 53.8547L56.2064 53.8547C54.9929 53.8547 54 55.5257 54 57.5681L54 65.9695C54 68.0119 54.9929 69.6829 56.2064 69.6829Z" fill="#EDF6FF"/>
<path fill-rule="evenodd" clip-rule="evenodd" d="M65.0253 56.8417C65.0415 56.8582 65.053 56.9332 65.053 57.0129C65.053 57.0926 65.0645 57.1677 65.0807 57.1841C65.0968 57.2005 65.1683 57.2122 65.2399 57.2122C65.4083 57.2122 65.4452 57.245 65.4452 57.4021C65.4452 57.5874 65.4221 57.6108 65.2537 57.6108C65.1707 57.6108 65.0968 57.6226 65.0807 57.639C65.0645 57.6554 65.053 57.7281 65.053 57.8008C65.053 57.979 65.0853 58.0094 65.2606 58.0094C65.376 58.0094 65.4013 58.0165 65.4244 58.0587C65.459 58.1267 65.4406 58.3588 65.3967 58.387C65.3506 58.4151 64.76 58.4127 64.7047 58.3846C64.6631 58.3612 64.6608 58.3283 64.6608 57.8219L64.6608 57.7809C64.6609 57.3948 64.6609 57.2707 64.603 57.2309C64.5756 57.2121 64.5352 57.2121 64.4757 57.2122L64.4647 57.2122C64.2756 57.2122 64.2686 57.2239 64.2686 57.6226C64.2686 57.9321 64.264 57.9626 64.2248 57.986C64.1994 57.9977 64.0472 58.0094 63.8834 58.0094C63.5097 58.0094 63.4843 57.9954 63.4843 57.8008C63.4843 57.7281 63.4728 57.6554 63.4566 57.639C63.4174 57.5991 62.3977 57.5991 62.3585 57.639C62.3424 57.6554 62.3308 57.7304 62.3308 57.8148C62.3308 57.9883 62.3539 58.0094 62.55 58.0094C62.6676 58.0094 62.6792 58.0141 62.7022 58.0728C62.7322 58.1501 62.7161 58.3236 62.6769 58.3729C62.6538 58.401 62.5846 58.4081 62.3378 58.4081C62.167 58.4081 62.0079 58.3963 61.9825 58.3846C61.941 58.3612 61.9387 58.326 61.9387 57.6155C61.9387 57.0668 61.9456 56.8628 61.9663 56.8417C61.9825 56.8253 62.054 56.8136 62.1255 56.8136C62.2985 56.8136 62.3308 56.8464 62.3308 57.0223C62.3308 57.095 62.3424 57.1677 62.3585 57.1841C62.3885 57.2146 62.6261 57.2216 62.67 57.1935C62.6861 57.1817 62.7069 57.1067 62.7138 57.0223C62.723 56.9402 62.7392 56.8582 62.753 56.8417C62.7645 56.8253 62.8291 56.8136 62.9076 56.8136C63.0806 56.8136 63.1152 56.8511 63.1152 57.0411C63.1152 57.1489 63.1244 57.1864 63.1521 57.1982C63.2236 57.2263 63.8188 57.2146 63.8488 57.1841C63.8649 57.1677 63.8765 57.095 63.8765 57.0223L63.8765 57.0084C63.8764 56.9438 63.8763 56.9007 63.8966 56.8718C63.9376 56.8135 64.0614 56.8135 64.4354 56.8136L64.474 56.8136C64.85 56.8136 65.0046 56.8206 65.0253 56.8417ZM68.5451 59.5432C68.5636 59.4939 68.5636 56.8985 68.5451 56.8516C68.5313 56.8165 68.3975 56.8141 67.1887 56.8188L65.8484 56.8259L65.8414 58.2021L65.8368 59.5807H67.1841C68.3906 59.5807 68.5313 59.576 68.5451 59.5432ZM66.229 59.1821V58.1974V57.2127H67.1864C67.9338 57.2127 68.1483 57.2197 68.1553 57.2432C68.1622 57.2572 68.1645 57.698 68.1622 58.2209L68.1553 59.1704L67.191 59.1774L66.229 59.1821ZM67.775 58.2116C67.775 57.8976 67.768 57.6352 67.7588 57.6258C67.7496 57.6188 67.4889 57.6141 67.1775 57.6164L66.61 57.6235L66.603 58.1999L66.5984 58.7787L66.6492 58.7928C66.7184 58.8115 67.6919 58.8115 67.7381 58.7928C67.7703 58.7811 67.775 58.7061 67.775 58.2116ZM61.5418 58.2203C61.5441 57.4796 61.5418 56.8585 61.5349 56.8421C61.528 56.8187 61.2442 56.814 60.1807 56.8187L58.8358 56.8257L58.8289 58.2039L58.8243 59.5797L60.1784 59.575L61.5349 59.568L61.5418 58.2203ZM59.2164 59.1812V58.1968V57.2124H60.1692C60.6952 57.2124 61.1312 57.2194 61.1381 57.2288C61.1473 57.2359 61.1543 57.6788 61.1543 58.2132V59.1812H60.1853H59.2164ZM60.7459 57.6258C60.7552 57.6352 60.7621 57.8976 60.7621 58.2116C60.7621 58.7061 60.7575 58.7811 60.7252 58.7928C60.679 58.8115 59.7055 58.8115 59.6363 58.7928L59.5856 58.7787L59.5902 58.1999L59.5971 57.6235L60.1646 57.6164C60.476 57.6141 60.7367 57.6188 60.7459 57.6258ZM64.2686 58.5978C64.2686 58.4899 64.2593 58.4313 64.2386 58.4243C64.2247 58.4172 64.1463 58.4102 64.0679 58.4102C63.8995 58.4079 63.8764 58.4313 63.8764 58.6048C63.8764 58.7432 63.9341 58.8065 64.0586 58.8065C64.1094 58.8065 64.1763 58.7971 64.2086 58.783C64.2639 58.7619 64.2686 58.7502 64.2686 58.5978ZM63.0898 58.4524C63.1036 58.4782 63.1152 58.5555 63.1152 58.6282C63.1152 58.7055 63.1267 58.7641 63.1428 58.7759C63.159 58.7852 63.3274 58.7993 63.5189 58.8063L63.8649 58.8181V59.1931V59.5682L63.708 59.5752C63.5027 59.5846 63.4843 59.5682 63.4843 59.3783C63.4843 59.2072 63.4589 59.1814 63.2997 59.1814L63.2811 59.1813C63.2284 59.1811 63.1924 59.181 63.1678 59.1977C63.115 59.2336 63.115 59.3474 63.1151 59.7061V59.7061L63.1152 59.7674C63.1152 60.2222 63.1105 60.3089 63.0783 60.3394C63.0483 60.3722 62.9652 60.3769 62.5361 60.3769C62.2293 60.3769 62.0101 60.3863 61.9825 60.4003C61.9456 60.4214 61.9386 60.4519 61.9386 60.5714C61.9386 60.6558 61.9502 60.7308 61.9663 60.7473C61.9871 60.7684 62.1832 60.7754 62.7115 60.7754C63.2397 60.7754 63.4358 60.7824 63.4566 60.8035C63.4727 60.8199 63.4843 60.8949 63.4843 60.9793C63.4843 61.1176 63.4797 61.1293 63.4243 61.1504C63.392 61.1645 63.1498 61.1739 62.8845 61.1739C62.6192 61.1739 62.3885 61.1809 62.3677 61.1879C62.34 61.1997 62.3308 61.2372 62.3308 61.3591C62.3308 61.4505 62.3423 61.5278 62.3585 61.5442C62.377 61.563 62.4923 61.5724 62.7276 61.5724C63.039 61.5724 63.069 61.5771 63.0921 61.6169C63.1036 61.6427 63.1152 61.8091 63.1152 61.9896C63.1152 62.2662 63.1198 62.3201 63.1521 62.3319C63.2236 62.36 63.8188 62.3483 63.8488 62.3178C63.8649 62.3014 63.8764 62.2334 63.8764 62.1654C63.8764 61.9615 63.9018 61.9474 64.3009 61.9474C64.5824 61.9474 64.6354 61.9427 64.647 61.9099C64.6723 61.8443 64.6608 61.6286 64.6331 61.6005C64.6147 61.5818 64.5016 61.5724 64.2779 61.5724C63.9641 61.5724 63.9457 61.57 63.9134 61.5208C63.8718 61.4622 63.8649 61.3239 63.8972 61.2372C63.9203 61.1786 63.9226 61.1786 64.2678 61.1716L64.2686 61.1715C64.5455 61.1645 64.6216 61.1551 64.6377 61.127C64.6493 61.1082 64.6608 60.9465 64.6608 60.7707C64.6608 60.3956 64.6516 60.3769 64.4739 60.3769C64.2917 60.3769 64.2686 60.3534 64.2686 60.1823C64.2686 60.0979 64.2802 60.0229 64.2963 60.0065C64.3171 59.9854 64.5593 59.9784 65.2398 59.9784L65.3966 59.9783H65.3966H65.3966H65.3966H65.3966H65.3966H65.3966H65.3966H65.3966H65.3966H65.3966H65.3966H65.3966H65.3966H65.3966H65.3967H65.3967H65.3967H65.3967H65.3967H65.3967H65.3967H65.3967C66.0176 59.9779 66.1772 59.9778 66.2171 60.0469C66.231 60.0708 66.2305 60.103 66.2298 60.1463V60.1463C66.2297 60.1562 66.2295 60.1666 66.2295 60.1776C66.2295 60.3441 66.1949 60.3769 66.0242 60.3769C65.9527 60.3769 65.8812 60.3886 65.865 60.405C65.8489 60.4214 65.8373 60.4964 65.8373 60.5761C65.8373 60.6558 65.8489 60.7308 65.865 60.7473C65.8835 60.766 65.9942 60.7754 66.2087 60.7754C66.3841 60.7754 66.5409 60.7824 66.5617 60.7894C66.5894 60.8012 66.5986 60.8387 66.5986 60.9512C66.5986 61.0543 66.6101 61.1059 66.6355 61.127C66.6724 61.1598 66.917 61.1692 66.9631 61.1411C67.0023 61.1176 67.0023 60.4449 66.9631 60.405C66.947 60.3886 66.8754 60.3769 66.8039 60.3769C66.6332 60.3769 66.5986 60.3441 66.5986 60.1823C66.5987 60.1693 66.5986 60.157 66.5985 60.1456C66.5981 60.1019 66.5978 60.0695 66.6119 60.0456C66.6519 59.9776 66.8076 59.9778 67.4061 59.9783L67.586 59.9784L67.7865 59.9782C68.3591 59.9776 68.5105 59.9774 68.5487 60.0431C68.5624 60.0666 68.5615 60.0987 68.5603 60.1423C68.5599 60.1561 68.5595 60.1709 68.5595 60.187L68.5595 60.1915C68.5595 60.2516 68.5595 60.2922 68.5405 60.3197C68.5009 60.3769 68.3786 60.3769 68.0013 60.3769L67.9805 60.3769C67.6736 60.3769 67.4545 60.3863 67.4268 60.4003C67.3899 60.4214 67.383 60.4519 67.383 60.5714C67.383 60.6558 67.3945 60.7308 67.4106 60.7473C67.4268 60.7637 67.5006 60.7754 67.579 60.7754C67.6575 60.7754 67.7313 60.7871 67.7475 60.8035C67.7798 60.8363 67.7844 61.0754 67.7544 61.1247C67.7405 61.1458 67.6782 61.1622 67.586 61.1692C67.5052 61.1739 67.4268 61.1903 67.4106 61.202C67.3714 61.2348 67.3714 61.8795 67.4106 61.9193C67.4268 61.9357 67.4983 61.9474 67.5698 61.9474C67.7428 61.9474 67.7751 61.9803 67.7751 62.1561C67.7751 62.2287 67.7636 62.3014 67.7475 62.3178C67.7313 62.3342 67.6598 62.3459 67.5883 62.3459C67.4153 62.3459 67.383 62.3787 67.383 62.5546C67.383 62.6272 67.3714 62.6999 67.3553 62.7163C67.3184 62.7538 67.0462 62.7538 67.0208 62.714C67.0115 62.6999 66.9977 62.4374 66.9908 62.135L66.9793 61.5841L66.8201 61.5771C66.7255 61.5724 66.6494 61.5818 66.6355 61.5958C66.6217 61.6099 66.6055 61.6919 66.5986 61.7787L66.5871 61.9357L66.0449 61.9474C65.7474 61.9545 65.489 61.9685 65.4728 61.9779C65.4567 61.9896 65.4452 62.0482 65.4452 62.1256C65.4452 62.3201 65.4244 62.3459 65.2606 62.3459C65.0853 62.3459 65.053 62.3764 65.053 62.5546C65.053 62.6272 65.0645 62.6999 65.0807 62.7163C65.0968 62.7327 65.1683 62.7444 65.2398 62.7444C65.4129 62.7444 65.4452 62.7772 65.4452 62.9531C65.4452 63.0257 65.4567 63.0984 65.4728 63.1148C65.4913 63.1335 65.6066 63.1429 65.8419 63.1429C66.0763 63.1429 66.1689 63.1429 66.2056 63.1882C66.2295 63.2178 66.2295 63.2668 66.2295 63.3479V63.3515C66.2295 63.5344 66.2134 63.5414 65.8281 63.5414C65.6043 63.5414 65.4913 63.5508 65.4728 63.5696C65.4544 63.5883 65.4452 63.6961 65.4452 63.9024L65.4452 63.9435C65.4453 64.1754 65.4453 64.2628 65.4031 64.2955C65.3775 64.3154 65.3365 64.3152 65.2707 64.315L65.2491 64.315C65.1176 64.315 65.0784 64.3079 65.0668 64.2775C65.0599 64.2564 65.053 64.0056 65.053 63.7196C65.053 63.3469 65.0461 63.1922 65.0253 63.1711C65.0091 63.1546 64.9353 63.1429 64.8569 63.1429C64.7785 63.1429 64.7046 63.1312 64.6885 63.1148C64.6723 63.0984 64.6608 63.0257 64.6608 62.9531C64.6608 62.7796 64.6285 62.7444 64.4647 62.7444C64.3009 62.7444 64.2686 62.7796 64.2686 62.9531C64.2686 63.0257 64.2571 63.0984 64.2409 63.1148C64.2248 63.1312 64.1533 63.1429 64.0818 63.1429C63.9064 63.1429 63.8764 63.1101 63.8764 62.932C63.8764 62.8194 63.8672 62.789 63.8326 62.7679C63.7726 62.7374 63.219 62.7374 63.159 62.7679C63.1244 62.789 63.1152 62.8194 63.1152 62.932C63.1152 63.1125 63.0852 63.1429 62.9098 63.1429C62.8291 63.1429 62.7645 63.1312 62.753 63.1125C62.7391 63.0984 62.723 63.021 62.7161 62.946C62.7091 62.871 62.6907 62.796 62.6768 62.7819C62.663 62.7679 62.5823 62.7515 62.4969 62.7444L62.3423 62.7327L62.3308 62.578C62.317 62.3787 62.2893 62.3459 62.1324 62.3459C61.9709 62.3459 61.9386 62.3811 61.9386 62.5546C61.9386 62.6272 61.9271 62.6999 61.911 62.7163C61.8717 62.7561 61.2212 62.7561 61.182 62.7163C61.1658 62.6999 61.1543 62.6249 61.1543 62.5405C61.1543 62.3694 61.1289 62.3459 60.9605 62.3459C60.8152 62.3459 60.7621 62.4022 60.7621 62.5546C60.7621 62.7374 60.7552 62.7444 60.5799 62.7444C60.4899 62.7444 60.4138 62.7327 60.3976 62.7163C60.3792 62.6975 60.3699 62.5803 60.3699 62.3436C60.3699 62.0928 60.363 61.992 60.3399 61.9779C60.3261 61.9685 60.2454 61.9545 60.1623 61.9474L60.0124 61.9357V61.7599V61.5841L60.9328 61.5771L61.107 61.576C61.7219 61.5724 61.8837 61.5715 61.9253 61.5003C61.9401 61.475 61.9396 61.4406 61.9389 61.394V61.394V61.394V61.3939V61.3939V61.3938V61.3938V61.3938C61.9388 61.3836 61.9386 61.3728 61.9386 61.3614C61.9386 61.2817 61.9271 61.2161 61.9086 61.202C61.8948 61.1903 61.7264 61.1739 61.5395 61.1692C61.2673 61.1645 61.1935 61.1551 61.1774 61.127C61.1451 61.0754 61.1497 60.8363 61.182 60.8035C61.1981 60.7871 61.2719 60.7754 61.355 60.7754C61.4726 60.7754 61.5026 60.7684 61.5234 60.7308C61.5349 60.7051 61.5465 60.5386 61.5465 60.3605C61.5465 60.1378 61.5557 60.0253 61.5741 60.0065C61.5903 59.9901 61.6641 59.9784 61.7425 59.9784C61.821 59.9784 61.8948 59.9667 61.911 59.9503C61.9317 59.9292 61.9386 59.7721 61.9386 59.3924C61.9386 59.1017 61.9479 58.8532 61.9571 58.8368C61.9686 58.8181 62.0863 58.8063 62.3124 58.8016C62.5384 58.797 62.6607 58.7852 62.6792 58.7665C62.6953 58.7501 62.7138 58.6657 62.7207 58.579L62.7345 58.4196L62.9006 58.4125C63.046 58.4078 63.069 58.4125 63.0898 58.4524ZM62.3746 59.2048C62.3354 59.2283 62.3308 59.2587 62.3308 59.5775C62.3308 59.8495 62.3377 59.9315 62.3631 59.9526C62.3839 59.969 62.4531 59.9784 62.5407 59.9737C62.6861 59.9667 62.6861 59.9667 62.7068 59.8846C62.7184 59.8401 62.723 59.6783 62.7184 59.5236C62.7091 59.2845 62.7022 59.2423 62.6653 59.2142C62.6146 59.1767 62.4392 59.172 62.3746 59.2048ZM65.4821 61.1879C65.4544 61.1997 65.4452 61.2372 65.4452 61.3591C65.4452 61.4505 65.4567 61.5278 65.4728 61.5442C65.4913 61.563 65.6043 61.5724 65.8281 61.5724C66.1418 61.5724 66.1603 61.57 66.1926 61.5208C66.2341 61.4622 66.241 61.2864 66.2064 61.2184C66.1834 61.1786 66.1534 61.1739 65.8489 61.1739C65.6666 61.1739 65.5028 61.1809 65.4821 61.1879ZM65.4221 59.536C65.4567 59.4703 65.4521 58.8695 65.4175 58.8343C65.4013 58.8178 65.3252 58.8061 65.2352 58.8061C65.1153 58.8061 65.0784 58.8155 65.0668 58.8437C65.0392 58.9164 65.0507 59.5219 65.0807 59.5524C65.0968 59.5689 65.1707 59.5806 65.2537 59.5806C65.3714 59.5806 65.4013 59.5736 65.4221 59.536ZM64.6469 58.8437C64.6746 58.9164 64.6631 59.5219 64.6331 59.5524C64.6169 59.5689 64.5431 59.5806 64.4647 59.5806C64.3863 59.5806 64.3124 59.5689 64.2963 59.5524C64.2571 59.5125 64.2571 58.8742 64.2963 58.8343C64.3124 58.8178 64.3886 58.8061 64.4785 58.8061C64.5985 58.8061 64.6354 58.8155 64.6469 58.8437ZM64.2686 59.775C64.2686 59.662 64.2593 59.6244 64.227 59.6032C64.1855 59.5773 63.9341 59.582 63.9087 59.6103C63.8787 59.6408 63.8718 59.8785 63.8971 59.9302C63.9202 59.9726 63.9456 59.9796 64.0679 59.9796C64.1509 59.9796 64.2247 59.9679 64.2409 59.9514C64.257 59.9349 64.2686 59.8597 64.2686 59.775ZM63.8487 60.0064C63.8602 60.0229 63.8764 60.1026 63.881 60.1848C63.8879 60.2786 63.9041 60.342 63.9248 60.3561C63.9433 60.3678 64.0148 60.3772 64.084 60.3772C64.1555 60.3772 64.2247 60.3889 64.2409 60.4053C64.257 60.4218 64.2686 60.4969 64.2686 60.5766C64.2686 60.6564 64.257 60.7315 64.2409 60.7479C64.2224 60.7667 64.1071 60.7761 63.8718 60.7761C63.5603 60.7761 63.5303 60.7714 63.5073 60.7315C63.4957 60.7057 63.4842 60.5461 63.4842 60.3772C63.4842 60.2082 63.4957 60.0487 63.5073 60.0229C63.528 59.9853 63.558 59.9783 63.678 59.9783C63.768 59.9783 63.8326 59.99 63.8487 60.0064ZM61.1542 60.3767C61.1542 60.1423 61.145 60.0252 61.1266 60.0064C61.1104 59.99 61.0366 59.9783 60.9535 59.9783C60.7828 59.9783 60.7621 60.0017 60.7621 60.1939C60.7621 60.2642 60.7505 60.3322 60.7344 60.3486C60.7182 60.365 60.6467 60.3767 60.5752 60.3767C60.3768 60.3767 60.3699 60.3884 60.3699 60.7728C60.3699 61.033 60.3768 61.1033 60.4045 61.1267C60.4529 61.1666 60.6236 61.183 60.6975 61.1525C60.7574 61.1291 60.7621 61.1174 60.7621 60.9978C60.7621 60.7986 60.7828 60.7752 60.9535 60.7752C61.0366 60.7752 61.1104 60.7635 61.1266 60.747C61.145 60.7283 61.1542 60.6111 61.1542 60.3767ZM60.3423 60.0065C60.3792 60.0442 60.3792 60.3125 60.3423 60.3502C60.3146 60.3784 60.1023 60.3902 60.0377 60.3643C60.0101 60.3525 60.0008 60.3149 60.0008 60.1925C60.0008 60.1007 60.0124 60.023 60.0285 60.0065C60.0654 59.9689 60.3053 59.9689 60.3423 60.0065ZM59.5856 60.1925C59.5856 60.1007 59.574 60.023 59.5579 60.0065C59.521 59.9689 59.2811 59.9689 59.2441 60.0065C59.228 60.023 59.2165 60.0983 59.2165 60.1784C59.2165 60.2584 59.228 60.3337 59.2441 60.3502C59.2718 60.3784 59.4841 60.3902 59.5487 60.3643C59.5763 60.3525 59.5856 60.3149 59.5856 60.1925ZM59.1794 60.4142C59.2209 60.4564 59.2302 60.6579 59.1932 60.7306C59.1725 60.7681 59.1425 60.7751 59.0248 60.7751C58.9418 60.7751 58.868 60.7634 58.8518 60.747C58.8357 60.7306 58.8241 60.6556 58.8241 60.5759C58.8241 60.4962 58.8357 60.4212 58.8518 60.4048C58.8933 60.3626 59.1356 60.3697 59.1794 60.4142ZM59.9685 61.119C60.0054 61.0648 60.0123 60.8859 59.9777 60.82C59.9569 60.7823 59.9269 60.7752 59.8001 60.7752C59.6201 60.7752 59.5878 60.8035 59.5855 60.9659C59.5855 61.1284 59.6224 61.1637 59.7931 61.1637C59.9062 61.1637 59.9408 61.1543 59.9685 61.119ZM68.5363 61.2182C68.5502 61.2487 68.5594 61.652 68.5594 62.3671C68.5594 63.3378 68.5548 63.4715 68.5225 63.5043C68.4787 63.5488 68.2365 63.5559 68.1949 63.5137C68.1742 63.4926 68.1672 63.2487 68.1672 62.557C68.1672 61.8653 68.1603 61.6215 68.1396 61.6004C68.1234 61.584 68.0519 61.5722 67.9804 61.5722C67.8074 61.5722 67.7751 61.5394 67.7751 61.3636C67.7751 61.2909 67.7866 61.2182 67.8028 61.2018C67.8212 61.183 67.9366 61.1736 68.1719 61.1736C68.4833 61.1736 68.5133 61.1783 68.5363 61.2182ZM59.5809 61.7861C59.5855 61.704 59.5832 61.6219 59.5763 61.6055C59.5671 61.5797 59.4863 61.5727 59.2072 61.5727C58.905 61.5727 58.8496 61.5774 58.8381 61.6102C58.8104 61.6829 58.8219 62.288 58.8519 62.3185C58.8681 62.335 58.9419 62.3467 59.0249 62.3467C59.1957 62.3467 59.2164 62.3232 59.2164 62.1262C59.2164 62.0488 59.228 61.9902 59.2441 61.9784C59.2603 61.9691 59.341 61.955 59.424 61.948L59.574 61.9362L59.5809 61.7861ZM66.557 62.3719C66.5893 62.3906 66.5985 62.4281 66.5985 62.5407C66.5985 62.6251 66.6101 62.7001 66.6262 62.7165C66.6423 62.7329 66.7116 62.7447 66.7831 62.7447C66.963 62.7447 67.0022 62.7798 67.0022 62.9393C67.0022 63.1386 66.993 63.1433 66.6216 63.1433C66.4463 63.1433 66.2871 63.1362 66.2663 63.1292C66.2386 63.1175 66.2294 63.08 66.2294 62.9674C66.2294 62.7775 66.1971 62.7447 66.0056 62.7447C65.8418 62.7447 65.8372 62.7376 65.8372 62.5336C65.8372 62.4211 65.8465 62.3906 65.8811 62.3695C65.9387 62.339 66.5039 62.339 66.557 62.3719ZM60.0007 62.5475C60.0007 62.4702 59.9869 62.4256 59.9546 62.3928C59.9131 62.3506 59.8785 62.3459 59.6063 62.3459C59.4402 62.3459 59.2856 62.3577 59.2602 62.3694C59.2233 62.3905 59.2164 62.421 59.2164 62.5405C59.2164 62.6249 59.2049 62.6999 59.1887 62.7163C59.1726 62.7327 59.1057 62.7445 59.0364 62.7445C59.0224 62.7445 59.0093 62.7443 58.9971 62.7441C58.9449 62.7433 58.9083 62.7427 58.8828 62.7592C58.8233 62.7975 58.8235 62.9285 58.8241 63.3648L58.8242 63.518C58.8242 63.9142 58.8311 64.2565 58.838 64.2776C58.8496 64.3104 58.9211 64.3151 59.4032 64.3151L59.466 64.3151C59.8324 64.3152 59.9481 64.3153 59.9844 64.2616C60.0012 64.2368 60.001 64.2006 60.0008 64.1477L60.0007 64.1275C60.0007 63.9423 59.9984 63.94 59.6132 63.94C59.3779 63.94 59.2625 63.9306 59.2441 63.9119C59.2256 63.8931 59.2164 63.7759 59.2164 63.5415C59.2164 63.3071 59.2256 63.1899 59.2441 63.1711C59.2602 63.1547 59.3248 63.143 59.3917 63.143C59.5763 63.143 59.5855 63.1359 59.5855 62.9765C59.5855 62.7867 59.6293 62.7445 59.8162 62.7445C59.9754 62.7445 60.0007 62.7187 60.0007 62.5475ZM67.7381 62.7819C67.768 62.8124 67.775 62.8805 67.775 63.1527C67.775 63.3803 67.7657 63.4952 67.7473 63.514C67.7104 63.5516 67.4474 63.5516 67.4105 63.514C67.392 63.4952 67.3828 63.3803 67.3828 63.1527C67.3828 62.7584 67.3897 62.7444 67.5789 62.7444C67.6596 62.7444 67.715 62.7561 67.7381 62.7819ZM62.3309 62.953C62.3309 62.8616 62.3193 62.8054 62.2939 62.7819C62.2524 62.7397 62.054 62.7303 61.9825 62.7678C61.9456 62.7889 61.9387 62.8194 61.9387 62.939C61.9387 63.0233 61.9271 63.0983 61.911 63.1148C61.8902 63.1359 61.6526 63.1429 60.979 63.1429C60.4807 63.1429 60.0585 63.1499 60.0378 63.1569C60.0101 63.1687 60.0009 63.2062 60.0009 63.3281C60.0009 63.4195 60.0124 63.4968 60.0286 63.5132C60.0447 63.5296 60.1162 63.5414 60.1877 63.5414C60.2708 63.5414 60.3285 63.5531 60.3446 63.5742C60.3631 63.5953 60.37 63.7172 60.3654 63.9539L60.3584 64.3031L60.2016 64.3172C60.1162 64.3242 60.0355 64.3406 60.0216 64.3547C60.0078 64.3688 60.0032 64.5211 60.0055 64.7391L60.0124 65.1001L60.1624 65.1071C60.2431 65.1118 60.3238 65.1259 60.34 65.1399C60.3815 65.1728 60.3838 65.8384 60.3423 65.8806C60.3261 65.897 60.2569 65.9088 60.1854 65.9088C60.1139 65.9088 60.0447 65.9205 60.0286 65.9369C60.0124 65.9533 60.0009 66.0306 60.0009 66.1221C60.0009 66.2439 60.0101 66.2814 60.0378 66.2932C60.1024 66.3189 61.8464 66.3096 61.8948 66.2838C61.9318 66.2627 61.9387 66.2322 61.9387 66.1127C61.9387 66.0283 61.9271 65.9533 61.911 65.9369C61.8902 65.9158 61.7334 65.9088 61.3458 65.9088C60.8406 65.9088 60.8083 65.9064 60.7852 65.8642C60.7737 65.8384 60.7622 65.679 60.7622 65.5079L60.7621 65.4569C60.7617 65.2837 60.7616 65.1972 60.8047 65.1541C60.8477 65.1112 60.9337 65.1114 61.1054 65.1117L61.1566 65.1118C61.535 65.1118 61.5465 65.1188 61.5465 65.3204C61.5465 65.3931 61.558 65.4657 61.5742 65.4822C61.5949 65.5032 61.7449 65.5103 62.1117 65.5103C62.4831 65.5103 62.6331 65.5173 62.6607 65.5384C62.6838 65.5572 62.7046 65.6158 62.7138 65.6861L62.7172 65.718C62.7288 65.8265 62.7338 65.8735 62.7597 65.8937C62.7794 65.9091 62.8113 65.909 62.8675 65.9088L62.8891 65.9088C63.0737 65.9088 63.1152 65.9439 63.1152 66.1033C63.1152 66.2674 63.0737 66.3072 62.9076 66.3072C62.8361 66.3072 62.7669 66.3189 62.7507 66.3354C62.7138 66.3729 62.7138 66.6401 62.7507 66.6776C62.7899 66.7174 63.8096 66.7174 63.8488 66.6776C63.8857 66.6401 63.8857 66.3729 63.8488 66.3354C63.8327 66.3189 63.7611 66.3072 63.6896 66.3072C63.5189 66.3072 63.4843 66.2744 63.4843 66.115C63.4843 65.9439 63.5235 65.9088 63.7035 65.9088C63.8719 65.9088 63.8765 65.9017 63.8765 65.6978C63.8765 65.5853 63.8673 65.5548 63.8327 65.5337C63.8073 65.522 63.6527 65.5103 63.4866 65.5103C63.3228 65.5103 63.1729 65.5032 63.1521 65.4962C63.1244 65.4845 63.1152 65.447 63.1152 65.3345C63.1152 65.1188 63.106 65.1142 62.6884 65.1071L62.3424 65.1001L62.3355 64.7344L62.3309 64.3688L62.3978 64.3383C62.4416 64.3196 62.5639 64.3125 62.7576 64.3196C63.1014 64.3289 63.1152 64.336 63.1152 64.5516C63.1152 64.6336 63.1267 64.6946 63.1429 64.7063C63.159 64.7157 63.4174 64.7297 63.715 64.7368L64.2571 64.7485L64.264 64.8962C64.2733 65.0884 64.2525 65.1118 64.0818 65.1118C63.9711 65.1118 63.9434 65.1212 63.9134 65.1634C63.8719 65.222 63.865 65.3603 63.8996 65.4493C63.9203 65.5056 63.9342 65.5103 64.0495 65.5103C64.2456 65.5103 64.2687 65.5314 64.2687 65.7048C64.2687 65.7892 64.2571 65.8642 64.241 65.8806C64.2248 65.897 64.1533 65.9088 64.0818 65.9088C63.8996 65.9088 63.8696 65.9439 63.8811 66.1267C63.888 66.2111 63.9042 66.2721 63.9249 66.2861C63.9434 66.2979 64.0149 66.3072 64.0841 66.3072C64.1556 66.3072 64.2248 66.3189 64.241 66.3354C64.2571 66.3518 64.2687 66.4268 64.2687 66.5065C64.2687 66.5862 64.2802 66.6612 64.2963 66.6776C64.3171 66.6987 64.4717 66.7057 64.8477 66.7057C65.2952 66.7057 65.3783 66.701 65.4083 66.6682C65.4406 66.6377 65.4452 66.5182 65.4452 65.7306C65.4452 65.1517 65.436 64.8118 65.4221 64.7813C65.4014 64.7438 65.3714 64.7368 65.2399 64.7368C65.1153 64.7368 65.0784 64.7462 65.0669 64.7743C65.0599 64.7954 65.053 64.9548 65.053 65.1329C65.053 65.3509 65.0438 65.4634 65.0253 65.4822C64.9884 65.5197 64.7254 65.5197 64.6885 65.4822C64.6493 65.4423 64.6493 64.8048 64.6885 64.7649C64.7047 64.7485 64.7716 64.7368 64.8408 64.7368C65.0299 64.7368 65.053 64.7157 65.053 64.5375C65.053 64.3242 65.0369 64.3149 64.6239 64.3149C64.3471 64.3149 64.294 64.3102 64.2825 64.2774C64.2571 64.2117 64.2687 63.9961 64.2963 63.968C64.3125 63.9515 64.384 63.9398 64.4555 63.9398C64.6239 63.9398 64.6608 63.907 64.6608 63.75C64.6608 63.6659 64.6608 63.6157 64.6362 63.5857C64.5998 63.5414 64.5093 63.5414 64.2848 63.5414C64.1049 63.5414 63.9434 63.5507 63.9249 63.5625C63.9042 63.5765 63.888 63.6398 63.8811 63.7336C63.8765 63.8156 63.8603 63.8953 63.8488 63.9094C63.8165 63.9515 62.7899 63.9515 62.7507 63.9117C62.7323 63.8929 62.723 63.7828 62.723 63.5742C62.723 63.4031 62.7138 63.2366 62.7 63.2038C62.6792 63.1476 62.6677 63.1429 62.5316 63.1429C62.4485 63.1429 62.3747 63.1312 62.3585 63.1148C62.3424 63.0983 62.3309 63.0257 62.3309 62.953ZM60.7622 64.1297C60.7622 63.6937 60.7668 63.6093 60.7991 63.5789C60.8291 63.546 60.9121 63.5414 61.3596 63.5414C61.7357 63.5414 61.8902 63.5484 61.911 63.5695C61.9318 63.5906 61.9387 63.7476 61.9387 64.1273C61.9387 64.6125 61.9341 64.6618 61.8972 64.6969C61.8602 64.7321 61.7864 64.7368 61.355 64.7368C60.8844 64.7368 60.8521 64.7344 60.8083 64.6899C60.7645 64.6454 60.7622 64.6125 60.7622 64.1297ZM64.6608 66.0963C64.6608 65.9838 64.6701 65.9533 64.7047 65.9322C64.767 65.8994 64.9907 65.9017 65.0253 65.9369C65.0415 65.9533 65.053 66.0283 65.053 66.1127C65.053 66.2838 65.0299 66.3072 64.8477 66.3072C64.6931 66.3072 64.6608 66.2697 64.6608 66.0963ZM61.5186 63.9681C61.5462 63.9963 61.5578 64.2125 61.5324 64.2783C61.5209 64.3089 61.4816 64.3159 61.3502 64.3159C61.2187 64.3159 61.1794 64.3089 61.1679 64.2783C61.1425 64.2125 61.1541 63.9963 61.1817 63.9681C61.1979 63.9516 61.2717 63.9398 61.3502 63.9398C61.4286 63.9398 61.5024 63.9516 61.5186 63.9681ZM63.8487 63.5145C63.8856 63.4768 63.8856 63.2083 63.8487 63.1706C63.8187 63.14 63.2236 63.1282 63.152 63.1565C63.1244 63.1682 63.1151 63.2059 63.1151 63.3284C63.1151 63.4203 63.1267 63.498 63.1428 63.5145C63.1613 63.5334 63.2743 63.5428 63.4958 63.5428C63.7172 63.5428 63.8303 63.5334 63.8487 63.5145ZM68.5432 63.9563C68.5663 63.9774 68.5617 66.6404 68.5409 66.6779C68.5248 66.7014 68.2387 66.7061 67.1844 66.7014L65.8487 66.6943L65.8418 65.3159L65.8372 63.9398H67.1821C67.9226 63.9398 68.5363 63.9469 68.5432 63.9563ZM66.234 65.3183L66.2294 66.3075L67.1914 66.3029L68.1556 66.2958L68.1626 65.3183C68.1672 64.404 68.1649 64.3407 68.128 64.3313C68.1049 64.3243 67.6712 64.322 67.1637 64.3243L66.2409 64.3266L66.234 65.3183ZM67.775 65.9085V65.3226V64.7368L67.1913 64.7415L66.61 64.7485L66.603 65.3273L66.5984 65.9085H67.1867H67.775ZM59.5603 65.145C59.5764 65.1661 59.5856 65.2412 59.581 65.3396L59.5741 65.4991L59.4242 65.5108C59.3411 65.5178 59.2604 65.5319 59.2442 65.5413C59.2281 65.553 59.2165 65.6163 59.2165 65.7077C59.2165 65.7898 59.205 65.8648 59.1889 65.8812C59.1519 65.9187 58.889 65.9187 58.852 65.8812C58.8336 65.8625 58.8244 65.7452 58.8244 65.5061C58.8244 65.1896 58.829 65.1591 58.8682 65.1357C58.9397 65.0982 59.528 65.1052 59.5603 65.145ZM60.0007 65.7121C60.0007 65.6348 59.9868 65.5902 59.9545 65.5574C59.9199 65.5223 59.8784 65.5106 59.7931 65.5106C59.6408 65.5106 59.5854 65.5645 59.5854 65.7121C59.5854 65.8879 59.6085 65.909 59.7931 65.909C59.9776 65.909 60.0007 65.8879 60.0007 65.7121ZM62.6767 65.9319C62.7021 65.9484 62.7113 65.9955 62.7113 66.1084C62.7113 66.2214 62.7021 66.2684 62.6767 66.2849C62.6259 66.3178 62.3906 66.3131 62.3583 66.2802C62.3422 66.2637 62.3307 66.1884 62.3307 66.1084C62.3307 66.0284 62.3422 65.9531 62.3583 65.9366C62.3906 65.9037 62.6259 65.899 62.6767 65.9319ZM59.5855 66.0706C59.5855 65.9838 59.574 65.9321 59.5555 65.9251C59.4979 65.8993 59.2718 65.9087 59.2441 65.9368C59.2279 65.9533 59.2164 66.026 59.2164 66.0988C59.2164 66.2749 59.1841 66.3077 59.0111 66.3077C58.9396 66.3077 58.8681 66.3195 58.8519 66.3359C58.8358 66.3523 58.8242 66.4274 58.8242 66.5073C58.8242 66.5871 58.8358 66.6622 58.8519 66.6786C58.8727 66.6997 59.0272 66.7068 59.4033 66.7068C59.92 66.7068 59.9292 66.7068 59.9639 66.6551C60.0054 66.5965 60.0123 66.4204 59.9777 66.3523C59.9569 66.3148 59.9269 66.3077 59.8047 66.3077C59.6224 66.3077 59.5855 66.2678 59.5855 66.0706Z" fill="#433836"/>
<path fill-rule="evenodd" clip-rule="evenodd" d="M68.3992 55.2729H58.899C58.2486 55.2729 57.7213 55.8126 57.7213 56.4784V66.202C57.7213 66.8677 58.2486 67.4074 58.899 67.4074H68.3992C69.0496 67.4074 69.5769 66.8677 69.5769 66.202V56.4784C69.5769 55.8126 69.0496 55.2729 68.3992 55.2729ZM68.3992 55.9359C68.6919 55.9359 68.9292 56.1788 68.9292 56.4784V66.202C68.9292 66.5015 68.6919 66.7444 68.3992 66.7444H58.899C58.6063 66.7444 58.3691 66.5015 58.3691 66.202V56.4784C58.3691 56.1788 58.6063 55.9359 58.899 55.9359H68.3992Z" fill="#433836"/>
<path d="M56.5193 53.8547L63.7808 53.8547C62.3878 53.8547 61.2615 55.6186 61.2615 57.8002L61.2615 65.7374C61.2615 67.919 62.3878 69.6829 63.7808 69.6829L56.5193 69.6829C55.1263 69.6829 54 67.919 54 65.7374L54 57.8002C54 55.6186 55.1263 53.8547 56.5193 53.8547Z" fill="#0A1BB3" fill-opacity="0.21"/>
</svg>
