<svg width="124" height="126" viewBox="0 0 124 126" fill="none" xmlns="http://www.w3.org/2000/svg">
<path fill-rule="evenodd" clip-rule="evenodd" d="M21.6912 20.5896C20.2364 19.2159 16.315 17.058 12.268 19.4158C8.22097 21.7736 8.71362 25.929 9.46582 27.712C10.8967 31.7533 17.109 37.9429 32.803 35.4634C41.9814 23.4524 37.5607 16.2191 33.9166 13.4672C32.3564 12.1549 28.2242 10.1198 24.1772 12.4776C20.1302 14.8353 20.8336 18.8679 21.6912 20.5896Z" fill="#FA7777" fill-opacity="0.54"/>
<path fill-rule="evenodd" clip-rule="evenodd" d="M97.3791 48.5026C98.3251 47.324 99.5589 44.3855 96.9256 42.0601C94.2923 39.7347 90.8276 40.7031 89.4244 41.478C86.2016 43.0522 81.8861 48.1349 86.4198 58.1806C98.0698 62.4265 103.551 58.3733 105.334 55.5273C106.211 54.2882 107.308 51.2285 104.675 48.9031C102.041 46.5777 98.7137 47.6672 97.3791 48.5026Z" fill="#FA7777" fill-opacity="0.54"/>
<path fill-rule="evenodd" clip-rule="evenodd" d="M61.1565 0.0603463C61.1711 0.0400761 61.1857 0.0199605 61.2001 0V0.120715C68.1712 9.77917 98.8408 59.2469 61.113 59.3138C61.0984 59.3138 61.0839 59.3139 61.0694 59.3139C61.0549 59.3139 61.0258 59.3139 61.0258 59.3139C23.298 59.247 54.1418 9.77917 61.1129 0.120715V0C61.1273 0.0199605 61.1419 0.0400761 61.1565 0.0603463Z" fill="#67A6C1"/>
<path d="M53.2167 93.3034V126H31V112.433C31 111.402 30.4575 110.479 29.5792 110.018L15.7067 102.746C6.01917 97.6448 0 87.4153 0 76.0189V39.1708C0 36.1861 2.325 33.744 5.16667 33.744C8.00834 33.744 10.3333 36.1861 10.3333 39.1708V62.3434C7.18167 64.2427 5.16667 67.8245 5.16667 71.7318C5.16667 74.6351 6.25167 77.3485 8.18918 79.4107L21.4159 93.3034C22.4234 94.3616 24.0509 94.3616 25.0584 93.3034C26.0659 92.2451 26.0659 90.5357 25.0584 89.4775L11.8317 75.5848C10.85 74.5537 10.3075 73.197 10.3075 71.7589C10.3075 69.4525 11.7025 67.4174 13.7433 66.6306C14.2858 66.4135 14.88 66.3321 15.4742 66.3321C16.7917 66.3321 18.1092 66.8476 19.1167 67.933L24.9292 74.0382C30.9225 80.3333 43.9942 82.6939 44.02 82.6939C49.29 83.2095 53.2167 87.768 53.2167 93.3034Z" fill="#CEA27A"/>
<path d="M70.7833 93.3034V126H93V112.433C93 111.402 93.5425 110.479 94.4208 110.018L108.293 102.746C117.981 97.6448 124 87.4153 124 76.0189V39.1708C124 36.1861 121.675 33.744 118.833 33.744C115.992 33.744 113.667 36.1861 113.667 39.1708V62.3434C116.818 64.2427 118.833 67.8245 118.833 71.7318C118.833 74.6351 117.748 77.3485 115.811 79.4107L102.584 93.3034C101.577 94.3616 99.9491 94.3616 98.9416 93.3034C97.9341 92.2451 97.9341 90.5357 98.9416 89.4775L112.168 75.5848C113.15 74.5537 113.692 73.197 113.692 71.7589C113.692 69.4525 112.297 67.4174 110.257 66.6306C109.714 66.4135 109.12 66.3321 108.526 66.3321C107.208 66.3321 105.891 66.8476 104.883 67.933L99.0708 74.0382C93.0775 80.3333 80.0058 82.6939 79.98 82.6939C74.71 83.2095 70.7833 87.768 70.7833 93.3034Z" fill="#CEA27A"/>
</svg>
