<svg width="227" height="449" viewBox="0 0 227 449" fill="none" xmlns="http://www.w3.org/2000/svg">
<path d="M97.0083 44.603L66.7743 96.9992C64.2308 101.407 56.1163 101.529 48.7421 97.2687L18.4075 79.7452C11.0334 75.4853 7.08111 68.3933 9.6247 63.9853L39.8587 11.5891C42.4022 7.18098 50.5168 7.0597 57.8909 11.3196L88.2255 28.8431C95.5996 33.1029 99.5519 40.1949 97.0083 44.603Z" fill="#EDF6FF"/>
<path fill-rule="evenodd" clip-rule="evenodd" d="M51.0926 88.0032L81.3267 35.6071C83.474 31.8858 79.6887 25.4989 72.676 20.2596L83.4792 26.5005C93.0878 32.0514 98.8684 40.1997 96.3249 44.6078L66.0917 97.0044C63.5481 101.413 53.6055 100.478 43.9968 94.9267L4.47028 72.0925C2.97508 71.2287 1.57257 70.302 0.279697 69.3363L28.9974 85.9257C38.6061 91.4764 48.549 92.4113 51.0926 88.0032Z" fill="#0030D9" fill-opacity="0.17"/>
<path fill-rule="evenodd" clip-rule="evenodd" d="M67.2106 45.8411C68.6764 43.2822 69.9205 41.1448 69.9774 41.1022C70.0483 41.0354 71.0518 41.5936 74.7688 43.7624L79.4673 46.5089L76.749 51.2758L74.0273 56.03L69.2918 53.2728L64.5529 50.503L67.2106 45.8411ZM73.446 53.862L75.405 50.4671L77.364 47.0721L74.0256 45.1437C72.1827 44.079 70.641 43.2208 70.5981 43.2391C70.5518 43.2447 69.646 44.7584 68.5825 46.6014L66.6562 49.9397L70.0511 51.9009L73.446 53.862ZM38.6255 35.4264C38.6589 35.2193 43.8217 26.2717 43.9795 26.1474C44.0979 26.0541 44.5708 26.3165 48.7911 28.7761L53.4669 31.5096L50.7535 36.2682L48.0273 41.0302L43.3133 38.3069C39.0917 35.8681 38.6086 35.5675 38.6255 35.4264ZM47.4479 38.8634L49.4067 35.4686L51.3655 32.0739L48.0157 30.1387C45.4004 28.6278 44.6357 28.2184 44.5648 28.2853C44.5126 28.3198 43.6278 29.8347 42.5958 31.6418L40.7312 34.9293L44.0913 36.9027L47.4479 38.8634ZM43.75 33.1665C44.4088 32.0247 44.9849 31.0851 45.0385 31.0706C45.0872 31.0647 46.0563 31.6018 47.1974 32.2724L49.271 33.5045L48.087 35.6153L46.8896 37.7298L46.6734 37.673C46.3794 37.594 42.797 35.5244 42.6665 35.3582C42.5723 35.2469 42.7126 34.9644 43.75 33.1665ZM56.4934 34.0055C56.3976 34.0333 56.1903 34.294 56.0153 34.5971C55.8404 34.9003 55.6331 35.1609 55.5372 35.1888C55.4414 35.2166 55.1508 35.1082 54.8859 34.9551C54.2621 34.5948 54.0533 34.6406 53.7086 35.238C53.3022 35.9424 53.3362 36.0809 53.96 36.4413C54.2676 36.619 54.5153 36.8215 54.5391 36.9185C54.5629 37.0155 54.4462 37.3166 54.2867 37.593C53.8957 38.2706 53.7092 38.3174 53.0598 37.9422C52.6325 37.6954 52.5231 37.6679 52.345 37.779C52.0676 37.9635 51.6267 38.8857 51.7273 39.0865C51.8365 39.2922 54.0291 40.547 54.2959 40.5585C54.5012 40.5582 54.5818 40.4383 55.693 38.5124L55.7829 38.3567C56.6345 36.8802 56.9049 36.4113 57.2087 36.3887C57.3501 36.3781 57.4987 36.4642 57.7165 36.5903L57.757 36.6138C58.4577 37.0185 58.4576 37.0779 57.583 38.5937C56.9039 39.7706 56.8541 39.8964 56.9479 40.0695C57.0162 40.1684 57.5544 40.5388 58.1611 40.8892C59.5454 41.6889 59.6703 41.6897 60.0973 40.9497C60.2568 40.6733 60.459 40.4216 60.5549 40.3937C60.7876 40.3261 64.5645 42.5079 64.6223 42.7434C64.6461 42.8404 64.5242 43.1504 64.339 43.4714C63.9583 44.1312 63.8265 44.1621 63.1002 43.7425C62.6644 43.4907 62.6114 43.4839 62.3973 43.6574C62.2696 43.762 62.1336 43.9626 62.0268 44.1758L61.6372 43.929C61.1168 43.6063 61.0231 43.5742 60.8665 43.6708C60.7636 43.7324 60.5644 43.9805 60.4167 44.2364C60.2596 44.5087 60.0985 44.6908 60.0158 44.698C59.9378 44.697 59.2952 44.3918 58.5827 44.0132L57.2971 43.3255L56.5351 44.6461L55.7731 45.9666L56.3309 46.3218C57.0605 46.7874 57.1611 46.7685 57.5469 46.0999C57.8945 45.4974 58.0394 45.4601 58.6199 45.7954L58.688 45.8345C58.8837 45.9466 59.0163 46.0226 59.0704 46.136C59.1841 46.3744 58.9508 46.7784 58.227 48.0316L58.1023 48.2476C57.1784 49.8487 57.019 50.1638 57.0749 50.3392C57.1176 50.5179 57.4109 50.7093 58.9755 51.6132C60.0944 52.2596 60.8745 52.7543 60.9468 52.8621C61.0386 53.0141 61.0019 53.136 60.759 53.5569C60.5876 53.854 60.3931 54.0939 60.3009 54.1176C60.1823 54.1482 59.453 53.7598 57.5266 52.647C55.6002 51.5341 54.8709 51.1458 54.7523 51.1764C54.6601 51.2001 54.4657 51.4399 54.2942 51.737C54.0133 52.224 54.0063 52.275 54.1653 52.4659C54.2545 52.5835 55.1187 53.1267 56.0861 53.6856C57.0535 54.2445 57.8805 54.7552 57.9419 54.8237C58.019 54.9233 57.9765 55.0748 57.7288 55.5039C57.5431 55.8258 57.3439 56.0739 57.2517 56.0976C57.1463 56.1248 56.7066 55.9148 55.8486 55.4191C54.7129 54.7631 54.594 54.7164 54.429 54.8081C54.3345 54.8746 53.9543 55.4363 53.5876 56.0718C53.0257 57.0457 52.8993 57.2259 52.7577 57.1991C52.4398 57.1475 50.2933 55.8524 50.2458 55.6819C50.2203 55.5902 50.3163 55.3265 50.4544 55.0872C50.8688 54.3691 50.8048 54.2661 49.3495 53.4254C48.3232 52.8325 48.1393 52.7042 48.1639 52.5644C48.2047 52.2798 48.6849 51.5448 48.843 51.5041C48.9484 51.4769 49.3796 51.6821 50.1956 52.1534C51.3396 52.8144 51.4117 52.845 51.6295 52.7397C51.9 52.6208 52.2062 52.1485 52.2646 51.775C52.2995 51.5203 52.2911 51.5153 51.0466 50.7633L51.0436 50.7615C50.0484 50.1536 49.7899 49.9602 49.7881 49.8272C49.7842 49.7369 50.0707 49.1431 50.4279 48.5241C51.1898 47.2035 51.2616 47.1569 51.9093 47.5311C51.9737 47.5683 52.0331 47.6016 52.0882 47.6308C52.0191 47.7185 51.9442 47.8298 51.8755 47.9489C51.7256 48.2087 51.6226 48.4753 51.6453 48.5597C51.6711 48.6562 52.0355 48.9074 52.8148 49.3576C53.8462 49.9535 53.9544 49.9956 54.1057 49.9098C54.1924 49.8478 54.5305 49.3502 54.848 48.7999C55.1655 48.2496 55.4272 47.7079 55.4375 47.6017C55.4392 47.4519 55.3657 47.372 55.0404 47.1793C55.2973 46.7985 55.5906 46.191 55.5494 46.0363C55.5076 45.8464 54.3942 45.1756 54.1426 45.1822C53.9443 45.192 53.8074 45.3338 53.5204 45.8311C53.374 46.0848 53.2625 46.3332 53.2158 46.5021C52.9332 46.2745 51.9843 45.7037 49.9261 44.5146L49.3545 44.1841L49.3545 44.1841L49.3545 44.1841L49.3545 44.1841L49.3545 44.1841L49.3544 44.1841L49.3544 44.1841L49.3544 44.1841L49.3544 44.1841L49.3544 44.1841L49.3544 44.1841L49.3544 44.1841L49.3544 44.184L49.3544 44.184L49.3544 44.184L49.3544 44.184L49.3544 44.184L49.3543 44.184L49.3543 44.184L49.3543 44.184L49.3543 44.184L49.3543 44.184L49.3543 44.184C47.0775 42.8669 46.5024 42.5342 46.2181 42.7001C46.122 42.7561 46.0591 42.8692 45.975 43.0204L45.975 43.0204C45.9555 43.0554 45.9349 43.0925 45.9125 43.1314C45.5743 43.7173 45.6339 43.9058 46.2564 44.2654C46.5171 44.4161 46.7541 44.608 46.7796 44.6998C46.8052 44.7916 46.6949 45.08 46.5329 45.3606C46.371 45.6412 46.1766 45.881 46.0843 45.9048C45.979 45.9319 45.5561 45.7317 44.7738 45.2797C44.1345 44.9104 43.5482 44.6047 43.4582 44.5857C43.3334 44.5687 43.2236 44.6813 42.995 45.0774C42.7854 45.4406 42.6386 45.5979 42.5032 45.6187C42.3019 45.6565 41.3912 45.1744 41.2801 44.9781C41.1847 44.813 42.5515 42.4443 42.7755 42.3866C42.8677 42.3628 43.1523 42.4722 43.413 42.6228C44.0355 42.9825 44.2284 42.9398 44.557 42.3703C44.5829 42.3242 44.608 42.2816 44.6316 42.2417L44.6316 42.2417L44.6316 42.2416L44.6316 42.2416L44.6316 42.2416L44.6317 42.2415L44.6317 42.2415L44.6317 42.2415L44.6317 42.2414L44.6317 42.2414L44.6318 42.2414L44.6318 42.2414L44.6318 42.2413L44.6318 42.2413L44.6318 42.2413L44.6318 42.2413L44.6318 42.2412L44.6318 42.2412L44.6319 42.2412L44.6319 42.2412L44.6319 42.2412L44.6319 42.2412L44.6319 42.2411C44.7206 42.0906 44.7867 41.9786 44.7864 41.8667C44.7855 41.5414 44.2236 41.2174 42.0271 39.9509L42.0271 39.9509L42.0271 39.9509L42.0271 39.9509L42.0271 39.9509L42.0271 39.9509L42.0271 39.9509L42.0271 39.9509L42.0271 39.9509L42.0271 39.9509L42.027 39.9509L42.027 39.9509L42.027 39.9509L42.027 39.9509L42.027 39.9509L42.027 39.9509L42.027 39.9509L42.027 39.9509L42.027 39.9509L42.027 39.9508L42.027 39.9508L42.0269 39.9508L42.0269 39.9508L42.026 39.9503L42.025 39.9497L42.0239 39.9491L42.0228 39.9484L42.0216 39.9477L42.0203 39.947L42.019 39.9462L42.0175 39.9454L42.016 39.9445C41.8149 39.8286 41.6001 39.7048 41.3709 39.5723C41.1107 39.422 40.8695 39.2823 40.646 39.1529L40.6455 39.1525L40.645 39.1522L40.6445 39.152L40.644 39.1517L40.6436 39.1515L40.6433 39.1513L40.6429 39.1511L40.6426 39.1509L40.6423 39.1507L40.642 39.1505L40.6417 39.1504L40.6415 39.1502L40.6413 39.1501L40.6411 39.15L40.6409 39.1499L40.6407 39.1498L40.6405 39.1497L40.6403 39.1496L40.6402 39.1495L40.6401 39.1494L40.6399 39.1493L40.6398 39.1493C38.5406 37.9335 37.9951 37.6175 37.7242 37.7748C37.629 37.83 37.5678 37.9437 37.485 38.0972C37.4585 38.1463 37.4298 38.1994 37.3971 38.2561L37.388 38.2719C37.2678 38.4801 37.1859 38.6219 37.1963 38.7567C37.2184 39.0443 37.6606 39.2998 39.0468 40.1005L39.0468 40.1005L39.1228 40.1444C40.2417 40.7907 41.0218 41.2854 41.0941 41.3933C41.1859 41.5453 41.1492 41.6672 40.9063 42.0881C40.7349 42.3852 40.5404 42.625 40.4482 42.6488C40.356 42.6725 40.063 42.5583 39.777 42.3931C39.491 42.2278 39.198 42.1136 39.1057 42.1374C38.9213 42.1849 38.4187 43.017 38.4281 43.2535C38.4357 43.3569 38.6295 43.5459 38.9517 43.7651C39.2366 43.9517 39.4892 44.1747 39.5243 44.25C39.6007 44.4481 38.291 46.7178 38.0671 46.7755C37.9748 46.7993 37.6903 46.6899 37.4295 46.5392C36.7986 46.1748 36.6141 46.2223 36.2569 46.8413C36.1093 47.0971 36.0037 47.3773 36.0293 47.4691C36.0548 47.5609 36.2918 47.7528 36.5526 47.9035C37.1835 48.2679 37.2346 48.4515 36.8774 49.0705C36.7298 49.3264 36.6242 49.6065 36.6498 49.6983C36.7082 49.9081 37.7008 50.4816 37.8743 50.3947C37.9365 50.3646 38.5204 49.4694 39.1599 48.4193L40.3211 46.504L40.9159 46.8146C41.2703 46.9973 41.5288 47.1907 41.5507 47.2694C41.5726 47.3481 41.4648 47.671 41.3139 47.9909L41.0369 48.5682L42.9899 49.7515C44.0608 50.4031 44.9744 50.997 45.0142 51.064C45.0493 51.1393 44.9723 51.3699 44.8151 51.6423C44.4199 52.3273 44.4432 52.4618 45.0405 52.8069C45.6798 53.1762 45.7356 53.3515 45.3737 53.9788C45.2261 54.2346 45.0364 54.4662 44.9442 54.49C44.8519 54.5137 44.5674 54.4043 44.3066 54.2537C43.6757 53.8892 43.4912 53.9367 43.1341 54.5557C42.9864 54.8116 42.7967 55.0432 42.7045 55.0669C42.5991 55.0941 42.1595 54.8841 41.3014 54.3884C40.439 53.8902 40.1028 53.696 39.8772 53.7843C39.7331 53.8407 39.6341 54.0123 39.4718 54.2937L39.4643 54.3065C39.0929 54.9503 39.1375 55.0091 40.5423 55.8207C41.3583 56.292 41.7514 56.5632 41.7806 56.6681C41.8098 56.773 41.6244 57.1721 41.2053 57.8984L41.1219 58.0429C40.6544 58.8519 40.4757 59.1612 40.5579 59.3657C40.6087 59.4923 40.7594 59.5787 41.0033 59.7187L41.0822 59.7641C41.5617 60.0411 41.719 60.0989 41.823 60.0159C41.8911 59.9562 42.4259 59.0877 43.0069 58.0808C43.7641 56.7685 44.1036 56.2383 44.2222 56.2078C44.3144 56.184 44.6074 56.2983 44.8934 56.4635C45.1794 56.6287 45.4724 56.743 45.5646 56.7192C45.6569 56.6954 45.8466 56.4639 45.9942 56.208C46.3466 55.5973 46.5358 55.5415 47.1331 55.8865C47.7303 56.2316 47.7767 56.4234 47.4243 57.0342C47.2766 57.29 47.1711 57.5702 47.1966 57.662C47.2222 57.7538 47.4591 57.9457 47.7199 58.0963C48.3592 58.4657 48.5352 58.4133 48.8972 57.786C49.1258 57.3899 49.2213 57.302 49.3904 57.3006C49.671 57.3197 51.6899 58.486 51.8467 58.7196C51.93 58.8668 51.9018 58.9936 51.6732 59.3897C51.3065 60.0252 51.3539 60.1957 51.9933 60.565C52.2877 60.7351 52.547 60.8299 52.6272 60.7882C52.7063 60.7678 52.9223 60.5295 53.0999 60.28C53.2776 60.0304 53.4972 59.8052 53.5763 59.7848C53.6553 59.7645 53.9831 59.8768 54.3086 60.0318L54.8961 60.3162L55.2524 59.7957C55.7077 59.1234 55.8753 59.0661 56.4473 59.3966C57.0362 59.7368 57.0825 59.9286 56.7301 60.5394C56.5825 60.7952 56.4769 61.0754 56.5025 61.1672C56.5645 61.3901 58.9367 62.7605 59.1607 62.7028C59.2529 62.6791 59.4474 62.4392 59.6188 62.1421C59.9665 61.5396 60.1066 61.5105 60.7207 61.8653C61.2507 62.1715 61.3299 62.4813 61.0203 63.0178C60.6489 63.6616 60.6598 63.7009 61.2991 64.0702C61.6272 64.2598 61.9286 64.3789 62.0208 64.3551C62.1262 64.3279 62.398 63.9347 62.879 63.1011C63.3886 62.218 63.6186 61.8777 63.7313 61.8768C63.8008 61.8729 64.1238 61.9935 64.4409 62.1437L65.0115 62.4183L65.3687 61.7993L65.7259 61.1802L62.3837 59.2165C62.1601 59.0854 61.95 58.9625 61.7528 58.847L61.7508 58.8459L61.7508 58.8459L61.7508 58.8458L61.7508 58.8458L61.7507 58.8458L61.7507 58.8458L61.7507 58.8458L61.7507 58.8458L61.7507 58.8458L61.7507 58.8458L61.7506 58.8458L61.7506 58.8458L61.7506 58.8458L61.7506 58.8458L61.7506 58.8457L61.7506 58.8457L61.7506 58.8457L61.7505 58.8457L61.7505 58.8457L61.7505 58.8457L61.7505 58.8457L61.7505 58.8457L61.7505 58.8457C59.5019 57.5298 58.9205 57.1896 58.9206 56.8496C58.9206 56.731 58.9914 56.6124 59.0868 56.4526C59.1082 56.4167 59.1308 56.3788 59.1541 56.3383C59.316 56.0577 59.4914 55.8509 59.5873 55.8403C59.6616 55.8282 60.309 56.1252 60.9999 56.5023C62.0021 57.0592 62.2903 57.1817 62.4064 57.1167C62.5624 57.0371 62.8397 56.5945 62.9738 56.2738L62.9913 56.2841C63.5567 56.6107 63.5763 56.7357 63.1579 57.4607C62.9069 57.8957 62.8976 57.9472 63.047 58.1473C63.2275 58.3994 63.8273 58.6663 64.0715 58.614C64.2124 58.5817 64.3829 58.339 64.9292 57.3922C65.7364 55.9934 65.7381 55.9375 65.081 55.5579C64.8442 55.4211 64.6319 55.2416 64.6129 55.151C64.5939 55.0604 64.6984 54.791 64.8461 54.5351C65.2496 53.8356 65.2301 53.7106 64.6647 53.384C64.3897 53.2251 64.1206 53.1265 64.0326 53.1553C63.9321 53.1883 63.6555 53.5971 63.1633 54.45C62.8672 54.9632 62.6712 55.3284 62.5668 55.5605C62.5363 55.5417 62.505 55.5229 62.473 55.5045C62.044 55.2566 61.9489 55.1687 61.9494 54.9929C61.9597 54.8778 62.2558 54.2675 62.6177 53.6403C63.0701 52.8562 63.265 52.4406 63.2358 52.3357C63.2103 52.2439 62.9649 52.0471 62.6789 51.8819C62.3929 51.7166 62.1475 51.5199 62.122 51.4281C62.0891 51.3101 62.383 50.7425 63.1544 49.4054C63.745 48.382 64.2161 47.4877 64.2158 47.4105C64.2118 47.3202 63.8066 47.031 62.9918 46.5383C62.1769 46.0455 61.7549 45.7467 61.7257 45.6418C61.7027 45.5594 61.7843 45.2802 61.9105 44.9925C62.0389 45.1316 62.3478 45.3288 63.0117 45.7124C63.6441 46.0777 64.2594 46.3737 64.3791 46.3834C64.5844 46.3831 64.6701 46.2543 66.2289 43.5527C67.4328 41.4663 67.8548 40.6758 67.8242 40.5511C67.8004 40.4541 67.5612 40.2565 67.2963 40.1035C66.6554 39.7333 66.4638 39.789 66.0779 40.4577C65.9184 40.7341 65.7162 40.9858 65.6204 41.0137C65.4424 41.0654 64.5468 40.5837 64.4462 40.3829C64.4121 40.3038 64.4999 39.9741 64.6594 39.6383C64.8053 39.3064 64.9256 38.9598 64.9103 38.8678C64.9036 38.7807 64.6901 38.5979 64.3995 38.4301C63.7587 38.0598 63.5482 38.1284 63.1314 38.8507C62.8948 39.2608 62.7783 39.3837 62.65 39.3691C62.3234 39.323 60.1445 38.0049 60.1003 37.8248C60.0765 37.7278 60.1932 37.4267 60.3527 37.1503L60.3832 37.0976C60.5269 36.8494 60.6224 36.6844 60.608 36.5296C60.5792 36.2227 60.1177 35.9561 58.7404 35.1608L58.5974 35.0783C57.2046 34.2736 56.6167 33.9696 56.4934 34.0055ZM52.8616 47.6523L52.839 47.6394L52.8193 47.6285C52.8916 47.5464 52.9656 47.4306 53.0533 47.2786C53.1547 47.1028 53.2347 46.9301 53.2779 46.7993C53.3966 46.9248 53.6289 47.0953 53.8986 47.2511C53.9256 47.2667 53.9516 47.2816 53.9767 47.2959C53.9492 47.3341 53.9219 47.3737 53.8955 47.4141C53.6962 47.7065 53.5236 47.882 53.4284 47.8881C53.3452 47.891 53.0908 47.7847 52.8616 47.6523ZM71.0385 45.0706C70.9849 45.0851 70.4087 46.0247 69.7498 47.1665C68.7124 48.9643 68.572 49.2468 68.6663 49.358C68.7968 49.5243 72.3793 51.5937 72.6733 51.6727L72.8895 51.7294L74.087 49.615L75.2711 47.5042L73.1975 46.2723C72.0563 45.6018 71.0872 45.0647 71.0385 45.0706ZM55.5266 41.8204C55.7986 41.349 55.9872 41.1164 56.0966 41.1386C56.1754 41.1432 56.5395 41.3126 56.8859 41.5126C57.6355 41.932 57.6782 42.0933 57.2407 42.8515C56.8919 43.4561 56.4776 43.5856 55.9274 43.2678C55.7033 43.1384 55.4316 42.9267 55.3244 42.7828C55.3112 42.7667 55.2989 42.7514 55.2877 42.7366C54.9313 43.4432 54.3245 44.4069 54.1583 44.4301C54.0558 44.4444 53.7101 44.2972 53.3669 44.0989C53.0237 43.9007 52.7234 43.6747 52.6846 43.5787C52.6124 43.4006 53.7341 41.3399 53.9961 41.1658C54.1011 41.1004 54.2808 41.1622 54.8057 41.4655C55.0983 41.6345 55.3448 41.8059 55.4681 41.9222L55.5266 41.8204ZM61.9455 47.8267C62.0409 47.9918 61.9958 48.1088 61.3482 49.2313C60.7957 50.1887 60.6038 50.463 60.4684 50.4838C60.3594 50.4979 60.088 50.3851 59.7778 50.1839C59.2621 49.853 59.2621 49.853 59.3531 49.5204C59.4015 49.3393 59.7133 48.7601 60.0444 48.2251C60.5638 47.4026 60.6748 47.2687 60.8665 47.2474C61.1278 47.2222 61.7767 47.5751 61.9455 47.8267ZM46.5855 48.2631C46.6626 48.3627 46.62 48.5142 46.3724 48.9434C46.1867 49.2653 45.9875 49.5133 45.8952 49.5371C45.7898 49.5642 45.3586 49.3591 44.5426 48.8877C43.3986 48.2268 43.336 48.1797 43.3183 47.9383C43.2859 47.6445 43.6178 47.0109 43.8821 46.8445C44.0472 46.7528 44.1661 46.7994 45.2765 47.4409C45.9411 47.8248 46.524 48.1946 46.5855 48.2631ZM49.6912 42.5091C49.6666 42.2009 50.85 40.1968 51.07 40.1664C51.1726 40.1522 51.5293 40.3058 51.924 40.5338C52.4503 40.8378 52.594 40.9628 52.5901 41.0865C52.5707 41.4008 51.3479 43.4031 51.1572 43.4294C51.0546 43.4436 50.708 43.2959 50.3437 43.0854C49.8275 42.7873 49.7096 42.6877 49.6912 42.5091ZM67.0594 55.1972C66.7922 55.2601 66.1223 56.4211 66.2014 56.6841C66.2608 56.8813 67.2272 57.5075 67.5949 57.5705C67.7542 57.5946 67.8915 57.4567 68.1971 56.9272C68.4262 56.53 68.566 56.1627 68.5314 56.0476C68.4522 55.7846 67.3266 55.1344 67.0594 55.1972ZM69.4653 56.9267C69.6944 56.5296 69.9425 56.2248 70.0594 56.1972C70.3266 56.1343 71.4522 56.7846 71.5314 57.0476C71.566 57.1627 71.4321 57.5198 71.2323 57.8661C71.0325 58.2123 70.7904 58.5069 70.6735 58.5344C70.4731 58.5816 69.4479 58.0573 69.2095 57.7702C69.109 57.6442 69.1597 57.4563 69.4653 56.9267ZM71.0691 58.2573C70.78 58.3348 70.2336 59.1877 70.2143 59.5977C70.2119 59.8137 70.3267 59.9208 70.8461 60.2209C71.2128 60.4327 71.5681 60.5701 71.6806 60.5399C71.793 60.5098 72.0321 60.2131 72.232 59.8667C72.4319 59.5202 72.5691 59.1647 72.539 59.0522C72.4615 58.7628 71.3744 58.1755 71.0691 58.2573ZM66.2483 59.6095C66.2335 59.279 66.6649 58.4644 66.979 58.2539C67.1627 58.136 67.3061 58.1768 67.8359 58.4829C68.5873 58.917 68.6494 59.1209 68.2411 59.8509C67.8231 60.5754 67.5781 60.6438 66.8653 60.232C66.3933 59.9593 66.273 59.8338 66.2483 59.6095ZM34.9824 42.2071C34.8722 42.2921 33.9905 43.7495 32.4813 46.3651C30.4327 49.9154 30.1659 50.4131 30.2036 50.5949C30.2547 50.8417 31.0421 51.3309 31.2687 51.256C31.382 51.2185 31.9196 50.3399 33.3793 47.81C34.8391 45.2802 35.3766 44.4016 35.4899 44.3641C35.5781 44.335 35.8396 44.4289 36.0765 44.5657C36.6495 44.8968 36.8258 44.8385 37.1969 44.1953C37.3503 43.9295 37.4655 43.6415 37.4466 43.5506C37.4251 43.4467 37.0629 43.1917 36.2836 42.7415C35.2521 42.1457 35.1429 42.1054 34.9824 42.2071ZM66.5947 62.7213C66.738 62.4366 66.9049 62.1655 66.9603 62.1241C67.0418 62.0557 67.3311 62.1913 68.284 62.7417C69.3156 63.3377 69.4956 63.4626 69.4713 63.5956C69.425 63.8943 68.2134 65.903 68.0519 65.9463C67.965 65.9695 67.6903 65.8633 67.4068 65.6996C66.824 65.3629 66.7985 65.2432 67.1802 64.5818C67.3301 64.322 67.4044 64.1024 67.3719 64.0312C67.335 63.9678 67.0866 63.7613 66.8167 63.5739L66.3276 63.2389L66.5947 62.7213ZM39.6077 50.0372C39.4524 50.0291 39.3474 50.1317 39.1355 50.4989C38.9766 50.7744 38.7925 50.9944 38.7016 51.0133C38.6107 51.0322 38.3314 50.9219 38.0656 50.7684C37.3969 50.382 37.185 50.4126 36.8848 50.9329C36.5095 51.5832 36.535 51.6183 37.9153 52.4157C38.5668 52.7921 39.1716 53.1109 39.262 53.1325C39.387 53.1537 39.4919 53.0511 39.7038 52.6839C40.0614 52.0641 40.2432 52.0264 40.9548 52.4375C41.5635 52.7891 41.5939 52.7761 41.9779 52.1104C42.1898 51.7432 42.2129 51.6239 42.124 51.4808C41.9671 51.2575 39.8667 50.044 39.6077 50.0372ZM63.5911 64.7097C63.7481 64.4374 63.8895 64.3101 64.0749 64.2633C64.3134 64.203 64.4502 64.2601 65.4516 64.8386C66.0626 65.1916 66.6074 65.5613 66.677 65.6565C66.77 65.8092 66.7335 65.9311 66.4908 66.3518C66.3194 66.6488 66.2096 66.9373 66.2357 67.0293C66.2617 67.1214 66.4841 67.3048 66.7386 67.4519C66.7903 67.4817 66.8389 67.5088 66.8843 67.5342C67.082 67.6445 67.2191 67.721 67.2777 67.8371C67.4102 68.1 67.1406 68.5658 66.2605 70.086L66.2585 70.0894C66.1625 70.2551 66.0594 70.4333 65.9487 70.6251C65.1443 72.0192 64.424 73.2088 64.3557 73.2683C64.2466 73.3593 63.974 73.2238 62.2003 72.1992L61.9696 72.066C60.6086 71.2804 60.1875 71.0374 60.1702 70.7685C60.1625 70.648 60.2357 70.5223 60.3419 70.3404L60.383 70.2695C60.7591 69.6178 60.7723 69.6144 62.1896 70.4332C63.0552 70.9333 63.4986 71.1454 63.6045 71.1186C63.7105 71.0919 63.9824 70.699 64.4584 69.8741C64.9344 69.0492 65.1384 68.6172 65.1086 68.512C65.0825 68.4199 64.8687 68.2414 64.6226 68.0992C63.9436 67.707 63.924 67.6626 64.2476 67.1017C64.6332 66.4335 64.5576 66.1919 63.8702 65.7948C63.2846 65.4565 63.2436 65.3118 63.5911 64.7097ZM35.0924 49.2164C34.9027 49.2393 34.7442 49.4433 34.2327 50.3298C33.8049 51.0711 33.6296 51.4691 33.6758 51.5774C33.7682 51.7938 34.9296 52.4647 35.1631 52.4366C35.2799 52.4225 35.5367 52.0716 35.9645 51.3302C36.7053 50.0463 36.7012 49.9828 35.8659 49.5002C35.5094 49.2943 35.2428 49.1912 35.0924 49.2164ZM53.9714 61.3109C54.1559 60.9912 54.3116 60.8189 54.4517 60.7906C54.6887 60.7308 55.4334 61.1172 55.6193 61.3995C55.7118 61.5513 55.6756 61.6725 55.4344 62.0905C55.2642 62.3855 55.155 62.6722 55.181 62.7637C55.2144 62.8814 56.0694 63.4081 58.5335 64.8316C60.3563 65.8846 61.8864 66.8013 61.9482 66.8697C62.0258 66.9692 61.9839 67.1199 61.738 67.5461C61.5535 67.8657 61.3552 68.1118 61.2631 68.1351C61.1709 68.1583 60.8856 68.0482 60.624 67.8971C60.3202 67.7216 60.0856 67.6407 59.984 67.6803C59.8739 67.7151 59.6026 68.1267 59.1418 68.9643L58.4625 70.2002L59.0079 70.5809C59.306 70.7858 59.5682 71.0138 59.5905 71.0923C59.6127 71.1707 59.3222 71.7132 58.8739 72.4706L58.1202 73.7182L57.5575 73.426C57.2527 73.2717 56.929 73.1503 56.8415 73.1653C56.6234 73.1923 55.2718 75.5153 55.3386 75.7505C55.3645 75.842 55.594 76.0293 55.8556 76.1804C55.9997 76.2636 56.134 76.3578 56.23 76.4409C56.2656 76.2945 56.3562 76.1157 56.4943 75.8763C56.6884 75.5401 56.8578 75.3798 57.0748 75.315C57.3073 75.2455 57.5099 75.2946 57.8659 75.5002C58.5009 75.867 58.5966 76.2348 58.2261 76.8768C57.7851 77.641 57.636 77.6771 56.8663 77.2325C56.6068 77.0826 56.4298 76.9665 56.3262 76.8491C56.2786 76.979 56.1997 77.144 56.1004 77.3163C55.8544 77.7425 55.745 77.8541 55.6201 77.8366C55.3318 77.7903 48.9709 74.072 48.8457 73.8795C48.7533 73.7277 48.7894 73.6065 49.0306 73.1885C49.2009 72.8934 49.3944 72.6555 49.4866 72.6323C49.6051 72.6024 50.1932 72.9093 51.6109 73.7283C53.459 74.7959 53.5819 74.856 53.7514 74.7572C53.8456 74.6914 54.2094 74.1584 54.5547 73.5601L54.6578 73.3819C55.0034 72.7858 55.1785 72.4838 55.1159 72.2438C55.0517 71.9974 54.7368 71.8163 54.0986 71.4494L53.9109 71.3412C52.5269 70.5417 52.4706 70.5419 52.0638 71.2468C51.9172 71.5009 51.7284 71.7307 51.6362 71.7539C51.5177 71.7838 50.955 71.4915 49.6132 70.7164C48.2546 69.9315 47.6918 69.6392 47.548 69.6545C47.4258 69.6713 47.2316 69.8324 47.056 70.0588L46.9791 70.1631C46.7212 70.5135 46.6077 70.6678 46.4745 70.6872C46.3699 70.7024 46.2531 70.6344 46.0444 70.5129L45.9653 70.4669C45.2902 70.0769 45.0673 70.1121 44.7457 70.6695C44.4147 71.2432 44.4862 71.4703 45.0938 71.8213C45.2095 71.8882 45.3189 71.9621 45.4072 72.0316C45.4353 71.98 45.4663 71.925 45.5002 71.8662C45.7839 71.3745 45.9441 71.1938 46.101 71.1888C46.4146 71.1788 47.4734 71.8177 47.5376 72.046C47.5697 72.1602 47.433 72.5183 47.232 72.8666C47.031 73.2148 46.7894 73.5123 46.6746 73.5416C46.4858 73.5897 45.7211 73.1944 45.3724 72.8984C45.2177 73.1684 45.027 73.421 44.9203 73.4479C44.6965 73.5043 40.9665 71.3496 40.9034 71.1274C40.8441 70.9182 41.3833 69.9838 41.5939 69.9307C41.6861 69.9074 41.9714 70.0176 42.233 70.1687C42.8575 70.5295 43.0503 70.4878 43.3719 69.9305C43.7171 69.3321 43.6446 69.1263 42.9864 68.7461C42.3703 68.3902 42.3676 68.3558 42.7791 67.6428C43.0061 67.2493 43.1014 67.1623 43.2705 67.1616C43.387 67.1743 43.976 67.4599 44.5836 67.8109C45.1828 68.157 45.7455 68.4493 45.8357 68.4686C45.9606 68.4861 46.07 68.3745 46.297 67.981C46.7321 67.227 46.7753 67.2301 48.317 68.0879L49.597 68.7945L50.3601 67.5305L51.1148 66.2616L50.9316 66.0137C50.8091 65.8555 50.376 65.5725 49.6529 65.1876C48.3766 64.494 48.3118 64.4893 47.8767 65.2434C47.7111 65.5303 47.546 65.719 47.4633 65.7259C47.3853 65.7245 46.4117 65.2277 45.3089 64.6234L43.3022 63.5188L42.9789 64.0206C42.5573 64.6732 42.586 64.799 43.2104 65.1598C43.6155 65.3938 43.6978 65.485 43.7224 65.696C43.7561 65.9886 43.5024 66.4868 43.1961 66.7252C43.0066 66.878 42.9465 66.8652 42.5246 66.6214C41.8073 66.207 41.6803 66.2321 41.3303 66.8386C41.1601 67.1337 41.0509 67.4203 41.0769 67.5118C41.1028 67.6033 41.3408 67.7954 41.6024 67.9466C42.2691 68.3317 42.3078 68.518 41.8967 69.133C41.7012 69.4134 41.5191 69.5924 41.4148 69.5977C41.3236 69.5997 41.0431 69.4813 40.7899 69.3351C40.5283 69.184 40.2515 69.0787 40.1593 69.102C40.0672 69.1252 39.8736 69.3631 39.7128 69.6418C39.552 69.9205 39.3585 70.1584 39.2663 70.1816C39.1478 70.2115 38.5682 69.9095 37.1927 69.1149C35.5555 68.1691 35.2612 67.9772 35.2177 67.7991C35.161 67.6243 35.3853 67.1965 36.9745 64.4425C38.1427 62.418 38.8622 61.249 38.9743 61.1717C39.1259 61.0844 39.2498 61.1232 39.7308 61.4011C40.1865 61.6643 40.3027 61.7751 40.2881 61.8979C40.2708 61.9862 39.9746 62.5582 39.6151 63.1812C39.1753 63.9434 38.982 64.3564 39.0117 64.4609C39.071 64.6701 40.0331 65.2258 40.2437 65.1727C40.4676 65.1162 41.754 62.8868 41.691 62.6646C41.665 62.5731 41.4439 62.3907 41.1908 62.2445C40.4988 61.8447 40.457 61.7222 40.8164 61.0993C41.2468 60.3534 41.3248 60.3547 42.8353 61.2273C43.848 61.8123 44.0516 61.9081 44.16 61.8177C44.3852 61.6418 44.7781 60.8634 44.7336 60.7065C44.7077 60.615 44.4697 60.4229 44.2081 60.2718C43.5921 59.9159 43.5233 59.7231 43.8401 59.174C44.0067 58.8853 44.1074 58.7108 44.2535 58.6547C44.4765 58.569 44.8055 58.759 45.6366 59.2391L45.6366 59.2391C46.2948 59.6194 46.8666 59.9934 46.9105 60.0734C46.9581 60.1664 46.8894 60.4219 46.7256 60.7644C46.5769 61.061 46.4752 61.3738 46.489 61.4473C46.522 61.6631 50.2773 63.8325 50.5012 63.776C50.6065 63.7494 50.8626 63.3837 51.2835 62.6542C51.6288 62.0559 51.9983 61.4934 52.1152 61.4079C52.3046 61.2551 52.3563 61.2631 52.8542 61.5507C53.158 61.7262 53.4517 61.8412 53.5438 61.818C53.636 61.7947 53.8248 61.565 53.9714 61.3109ZM57.3356 68.7405C58.2153 67.216 58.3687 66.9112 58.3121 66.7364C58.2686 66.5582 57.9742 66.3663 56.3371 65.4206C54.9615 64.626 54.382 64.3239 54.2634 64.3538C54.1449 64.3837 53.8027 64.9183 53.0365 66.2461C52.0575 67.9428 51.9751 68.1246 52.0392 68.3256C52.1032 68.5265 52.3638 68.6989 53.9419 69.6105C55.6634 70.605 55.7863 70.6651 56.0365 70.602C56.2867 70.5389 56.3614 70.429 57.3356 68.7405ZM39.1059 67.3787C39.3329 66.9852 39.3606 66.8592 39.2766 66.7123C39.115 66.4659 38.2917 66.0012 38.0941 66.0511C38.002 66.0743 37.8084 66.3122 37.6382 66.6073C37.2929 67.2056 37.33 67.3363 37.9967 67.7215C38.5621 68.0481 38.7559 67.9852 39.1059 67.3787ZM55.0482 66.2011C54.8511 66.2605 54.2255 67.2271 54.1625 67.5949C54.1321 67.7651 54.2864 67.8975 54.8663 68.2325C55.4463 68.5675 55.638 68.635 55.7701 68.5236C56.0569 68.2851 56.5808 67.2597 56.5337 67.0592C56.5062 66.9423 56.2118 66.7001 55.8659 66.5002C55.52 66.3004 55.1631 66.1664 55.0482 66.2011ZM47.1651 60.6652C47.1328 60.4301 47.7999 59.2741 48.0195 59.1846C48.1979 59.1118 50.2581 60.2343 50.4319 60.497C50.4971 60.6022 50.435 60.7827 50.1307 61.31C49.9024 61.7055 49.67 62.0174 49.5739 62.0566C49.4641 62.1014 49.055 61.9191 48.2993 61.4826C47.5435 61.046 47.1812 60.7827 47.1651 60.6652ZM29.0212 52.0877C28.8985 52.1138 23.6162 61.3057 23.6142 61.477C23.6241 61.5905 24.616 62.185 28.3152 64.3005L33.0042 66.9769L35.7709 62.238L38.5249 57.5024L33.8176 54.7831C31.2258 53.2858 29.0641 52.0694 29.0212 52.0877ZM34.3936 61.4531L32.4415 64.8736L29.0839 62.9123L25.7229 60.9384L27.6436 57.5537C29.4464 54.3919 29.5805 54.1783 29.7283 54.2206C29.823 54.243 31.3456 55.1118 33.1173 56.1461L36.3423 58.0199L34.3936 61.4531ZM27.501 60.3307L28.7505 58.1654L30 56L32.1378 57.258L34.2621 58.5198L33.0531 60.6739L31.8305 62.8317L29.6658 61.5812L27.501 60.3307ZM60.0113 75.1542C59.9163 75.1909 59.7438 75.4168 59.5747 75.7465L59.299 76.2791L59.7909 76.6141C60.0624 76.8015 60.3127 77.0071 60.3505 77.0696C60.3838 77.1397 60.3045 77.3686 60.1327 77.6662C59.9786 77.9333 59.8772 78.2003 59.9018 78.2857C59.9578 78.4809 60.8593 79.0016 61.0563 78.9526C61.1548 78.9281 61.4066 78.5648 61.8557 77.7865C62.4502 76.7563 62.4916 76.648 62.4012 76.494C62.2265 76.2303 60.1969 75.0884 60.0113 75.1542ZM57.2236 78.4054C57.387 78.1222 57.5266 77.9783 57.6079 77.9946C57.8689 78.0331 58.6838 78.5447 58.7327 78.6954C58.7613 78.7834 58.6668 79.0452 58.5299 79.2825C58.1986 79.8566 58.2557 80.0325 58.8929 80.4005C59.1563 80.5527 59.3976 80.7431 59.4261 80.831C59.4547 80.919 59.3558 81.1885 59.2056 81.4487C59.0554 81.709 58.8716 81.9294 58.7812 81.9486C58.665 81.9734 58.0825 81.6675 56.6977 80.8676C54.7946 79.7682 54.7606 79.7486 54.7303 79.5066C54.6878 79.2269 54.9936 78.6381 55.2492 78.4897C55.3963 78.4114 55.52 78.4522 55.9703 78.7123C56.6415 79.1 56.8525 79.0484 57.2236 78.4054Z" fill="#433836"/>
<path fill-rule="evenodd" clip-rule="evenodd" d="M47.2149 22.4347L81.215 42.0746C83.5428 43.4192 84.3184 46.4353 82.9474 48.8113L62.9219 83.514C61.5508 85.8899 58.5523 86.7259 56.2245 85.3813L22.2243 65.7414C19.8965 64.3968 19.1209 61.3807 20.492 59.0047L40.5175 24.302C41.8885 21.9261 44.8871 21.0901 47.2149 22.4347ZM45.8495 24.8008C44.802 24.1957 43.4527 24.5719 42.8357 25.6411L22.8101 60.3438C22.1932 61.413 22.5422 62.7702 23.5897 63.3753L57.5898 83.0152C58.6373 83.6203 59.9867 83.2441 60.6037 82.1749L80.6292 47.4722C81.2462 46.403 80.8971 45.0458 79.8496 44.4407L45.8495 24.8008Z" fill="#433836"/>
<path d="M97 252.282V246.099C97 242.7 94.2323 239.916 90.7727 239.916V238H16.2273V239.916C12.8041 239.916 10 242.664 10 246.099V252.282C10 254.74 11.4203 256.837 13.5324 257.85C13.7509 257.958 13.8966 258.211 13.8966 258.464C13.8966 258.717 13.7509 258.971 13.5324 259.079C11.4567 260.091 10 262.188 10 264.647L10 270.83C10 273.288 11.4203 275.385 13.5324 276.398C13.7509 276.506 13.8966 276.759 13.8966 277.012C13.8966 277.265 13.7509 277.519 13.5324 277.627C11.4567 278.639 10 280.736 10 283.195L10 289.378C10 291.836 11.4203 293.933 13.5324 294.946C13.7509 295.054 13.8966 295.307 13.8966 295.56C13.8966 295.814 13.7509 296.067 13.5324 296.175C11.4567 297.187 10 299.284 10 301.743C10 308.468 15.5718 314 22.4182 314H84.5818C91.4646 314 97 308.468 97 301.671C97 299.212 95.5797 297.115 93.4676 296.103C93.2491 295.994 93.1034 295.741 93.1034 295.488C93.1034 295.235 93.2491 294.982 93.4676 294.873C95.5433 293.861 97 291.764 97 289.305V283.123C97 280.664 95.5797 278.567 93.4676 277.555C93.2491 277.446 93.1034 277.193 93.1034 276.94C93.1034 276.687 93.2491 276.434 93.4676 276.325C95.5433 275.313 97 273.216 97 270.757V264.575C97 262.116 95.5797 260.019 93.4676 259.007C93.2491 258.898 93.1034 258.645 93.1034 258.392C93.1034 258.139 93.2491 257.886 93.4676 257.777C95.5797 256.837 97 254.74 97 252.282Z" fill="#C1DFF9"/>
<path d="M93.5239 257.896C95.5666 256.885 97 254.793 97 252.339V246.17C97 242.778 94.2764 240 90.872 240H82.0921C85.4608 240 88.2201 242.742 88.2201 246.17V252.339C88.2201 254.793 86.8225 256.885 84.744 257.896C84.529 258.004 84.3857 258.256 84.3857 258.509C84.3857 258.762 84.529 259.014 84.744 259.122C86.7867 260.133 88.2201 262.225 88.2201 264.679V270.848C88.2201 273.302 86.8225 275.394 84.744 276.405C84.529 276.513 84.3857 276.765 84.3857 277.018C84.3857 277.271 84.529 277.523 84.744 277.631C86.7867 278.642 88.2201 280.734 88.2201 283.188V289.357C88.2201 291.811 86.8225 293.903 84.744 294.914C84.529 295.022 84.3857 295.274 84.3857 295.527C84.3857 295.78 84.529 296.032 84.744 296.14C86.7867 297.151 88.2201 299.243 88.2201 301.697C88.2201 308.516 82.7372 314 76 314H84.7799C91.5529 314 97 308.48 97 301.697C97 299.243 95.6024 297.151 93.5239 296.14C93.3089 296.032 93.1655 295.78 93.1655 295.527C93.1655 295.274 93.3089 295.022 93.5239 294.914C95.5666 293.903 97 291.811 97 289.357V283.188C97 280.734 95.6024 278.642 93.5239 277.631C93.3089 277.523 93.1655 277.271 93.1655 277.018C93.1655 276.765 93.3089 276.513 93.5239 276.405C95.5666 275.394 97 273.302 97 270.848V264.679C97 262.225 95.6024 260.133 93.5239 259.122C93.3089 259.014 93.1655 258.762 93.1655 258.509C93.1297 258.256 93.273 258.004 93.5239 257.896Z" fill="#A0C6FF"/>
<path d="M78.0999 255H11C11.6163 256.013 12.4863 256.838 13.5375 257.363C13.755 257.475 13.9001 257.738 13.9001 258C13.9001 258.262 13.755 258.525 13.5375 258.638C12.4863 259.163 11.6163 259.987 11 261H78.0999C79.695 261 81 259.65 81 258C81 256.35 79.7312 255 78.0999 255Z" fill="#A0C6FF"/>
<path d="M93.4625 276.362C94.5137 275.837 95.3837 275.013 96 274H28.9001C27.305 274 26 275.35 26 277C26 278.65 27.305 280 28.9001 280H96C95.3837 278.987 94.5137 278.162 93.4625 277.637C93.2449 277.525 93.0999 277.262 93.0999 277C93.0637 276.738 93.2087 276.475 93.4625 276.362Z" fill="#A0C6FF"/>
<path d="M78.0999 292H11C11.6163 293.013 12.4863 293.838 13.5375 294.363C13.755 294.475 13.9001 294.737 13.9001 295C13.9001 295.263 13.755 295.525 13.5375 295.638C12.4863 296.163 11.6163 296.988 11 298H78.0999C79.695 298 81 296.65 81 295C81 293.35 79.7312 292 78.0999 292Z" fill="#A0C6FF"/>
<path d="M93.9046 239H13.0954C11.3838 239 10 237.629 10 235.933L10 198.98C10 197.284 11.3838 195.913 13.0954 195.913V194H93.9046V195.913C95.6162 195.913 97 197.284 97 198.98V235.933C97 237.629 95.6162 239 93.9046 239Z" fill="#67A6C1"/>
<path d="M93.9091 195.913V194H85V195.913C86.7091 195.913 88.0909 197.284 88.0909 198.98V235.933C88.0909 237.629 86.7091 239 85 239H93.9091C95.6182 239 97 237.629 97 235.933V199.016C97 197.32 95.6182 195.913 93.9091 195.913Z" fill="#3C98BF"/>
<path d="M72 147H35V133.938C35 130.672 37.6016 128 40.7813 128H66.2188C69.3984 128 72 130.672 72 133.938V147Z" fill="#EDF6FF"/>
<path d="M41 144H66V161H41V144Z" fill="#A0C6FF"/>
<path d="M41.0636 159C23.9113 159 10 172.803 10 189.857V192.929C10 194.627 11.3838 196 13.0954 196H93.9046C95.6162 196 97 194.627 97 192.929V189.857C97 172.839 83.0887 159.036 65.9364 159.036H41.0636V159Z" fill="#C1DFF9"/>
<path d="M72 147H35V133.938C35 130.672 37.6016 128 40.7813 128H66.2188C69.3984 128 72 130.672 72 133.938V147Z" fill="#EDF6FF"/>
<path d="M65.8341 128H57C60.3894 128 63.1659 130.82 63.1659 134.346V147H72V134.346C72 130.82 69.2236 128 65.8341 128Z" fill="#D8E2F3"/>
<path d="M72.0946 150H34.9054C33.3074 150 32 148.65 32 147C32 145.35 33.3074 144 34.9054 144H72.0946C73.6926 144 75 145.35 75 147C75 148.65 73.6926 150 72.0946 150Z" fill="#D8E2F3"/>
<path d="M65.9253 159H57C74.1585 159 88.0747 172.816 88.0747 189.851V192.926C88.0747 194.626 86.6903 196 84.9781 196H93.9035C95.6157 196 97 194.626 97 192.926V189.851C97 172.816 83.0838 159 65.9253 159Z" fill="#A0C6FF"/>
<path d="M22.1496 224H10L10 230H22.1496C23.7173 230 25 228.65 25 227C25 225.312 23.753 224 22.1496 224Z" fill="#3C98BF"/>
<path d="M97 230V224H84.8504C83.2827 224 82 225.35 82 227C82 228.65 83.2827 230 84.8504 230H97Z" fill="#3C98BF"/>
<path fill-rule="evenodd" clip-rule="evenodd" d="M63.0883 358.664L34.4816 389.496L67.4004 408.479L79.8305 368.319L63.0883 358.664Z" fill="#FA594F"/>
<path fill-rule="evenodd" clip-rule="evenodd" d="M54.5043 399.123L69.005 407.485L81.5007 367.362L67 359L54.5043 399.123Z" fill="#CF2C45"/>
<path d="M56.6655 355.309C57.4025 354.034 59.0789 353.622 60.4098 354.39L85.0438 368.595C86.3747 369.363 86.8562 371.018 86.1191 372.294L84.7846 374.602C84.0476 375.877 82.3712 376.289 81.0402 375.521L56.4063 361.316C55.0753 360.548 54.5939 358.893 55.3309 357.617L56.6655 355.309Z" fill="#FA594F"/>
<path d="M29.3691 436.753L49.7623 388.487L61.0241 394.981L29.3691 436.753Z" fill="#E2D8FF"/>
<path fill-rule="evenodd" clip-rule="evenodd" d="M36.8683 419.636L29.9615 436.164L61.7966 394.496L57.8254 392.206L36.8683 419.636Z" fill="#A2B2EB"/>
<path fill-rule="evenodd" clip-rule="evenodd" d="M66.9963 366.926L81.8857 375.512C83.2313 376.288 84.9196 375.883 85.6567 374.608L86.9913 372.3C87.7283 371.024 87.235 369.362 85.8894 368.586L71 360C72.3456 360.776 72.8389 362.439 72.1019 363.714L70.7673 366.022C70.0303 367.297 68.3419 367.702 66.9963 366.926Z" fill="#A4003B" fill-opacity="0.5"/>
<path d="M33.4707 383.376C34.8676 380.959 38.0356 380.174 40.5465 381.622L71.3025 399.358C73.8135 400.806 74.7167 403.938 73.3198 406.355L72.8734 407.127C71.4765 409.544 68.3086 410.329 65.7976 408.881L35.0416 391.145C32.5306 389.697 31.6275 386.564 33.0244 384.148L33.4707 383.376Z" fill="#FA594F"/>
<path fill-rule="evenodd" clip-rule="evenodd" d="M51.4949 400.523L66.0534 408.918C68.5387 410.351 71.6858 409.554 73.0827 407.138L73.5291 406.365C74.926 403.949 74.0438 400.828 71.5585 399.395L57 391C59.4852 392.433 60.3675 395.554 58.9705 397.97L58.5242 398.743C57.1273 401.159 53.9801 401.956 51.4949 400.523Z" fill="#CF2C45"/>
<path d="M50.482 117C49.9549 117 49.5116 116.832 49.1522 116.497C48.8168 116.137 48.649 115.694 48.649 115.167V110.351H43.833C43.3058 110.351 42.8626 110.171 42.5032 109.812C42.1677 109.452 42 109.009 42 108.482C42 107.955 42.1677 107.524 42.5032 107.188C42.8626 106.829 43.3058 106.649 43.833 106.649H48.649V101.833C48.649 101.33 48.8288 100.899 49.1882 100.539C49.5715 100.18 50.0028 100 50.482 100C51.0331 100 51.4764 100.18 51.8118 100.539C52.1473 100.875 52.315 101.306 52.315 101.833V106.649H57.1311C57.6342 106.649 58.0655 106.829 58.4249 107.188C58.8083 107.548 59 107.991 59 108.518C59 109.021 58.8083 109.452 58.4249 109.812C58.0655 110.171 57.6342 110.351 57.1311 110.351H52.315V115.167C52.315 115.694 52.1473 116.137 51.8118 116.497C51.4764 116.832 51.0331 117 50.482 117Z" fill="#433836"/>
<path fill-rule="evenodd" clip-rule="evenodd" d="M49.7315 116.497C50.0698 116.832 50.487 117 50.9831 117C51.5018 117 51.919 116.832 52.2347 116.497C52.5504 116.137 52.7083 115.694 52.7083 115.167V110.351H57.241C57.7146 110.351 58.1205 110.171 58.4588 109.812C58.8196 109.452 59 109.021 59 108.518C59 107.991 58.8196 107.548 58.4588 107.188C58.1205 106.829 57.7146 106.649 57.241 106.649H52.7083V104.263L46.6385 110.351H49.2579V115.167C49.2579 115.694 49.4158 116.137 49.7315 116.497Z" fill="#4F1C1C" fill-opacity="0.5"/>
<path d="M50.482 342C49.9549 342 49.5116 341.832 49.1522 341.497C48.8168 341.137 48.649 340.694 48.649 340.167V335.351H43.833C43.3058 335.351 42.8626 335.171 42.5032 334.812C42.1677 334.452 42 334.009 42 333.482C42 332.955 42.1677 332.524 42.5032 332.188C42.8626 331.829 43.3058 331.649 43.833 331.649H48.649V326.833C48.649 326.33 48.8288 325.899 49.1882 325.539C49.5715 325.18 50.0028 325 50.482 325C51.0331 325 51.4764 325.18 51.8118 325.539C52.1473 325.875 52.315 326.306 52.315 326.833V331.649H57.1311C57.6342 331.649 58.0655 331.829 58.4249 332.188C58.8083 332.548 59 332.991 59 333.518C59 334.021 58.8083 334.452 58.4249 334.812C58.0655 335.171 57.6342 335.351 57.1311 335.351H52.315V340.167C52.315 340.694 52.1473 341.137 51.8118 341.497C51.4764 341.832 51.0331 342 50.482 342Z" fill="#433836"/>
<path fill-rule="evenodd" clip-rule="evenodd" d="M49.7315 341.497C50.0698 341.832 50.4869 342 50.9831 342C51.5017 342 51.9189 341.832 52.2347 341.497C52.5504 341.137 52.7082 340.694 52.7082 340.167V335.351H57.241C57.7146 335.351 58.1205 335.171 58.4588 334.812C58.8196 334.452 59 334.021 59 333.518C59 332.991 58.8196 332.548 58.4588 332.188C58.1205 331.829 57.7146 331.649 57.241 331.649H52.7082V329.263L46.6384 335.351H49.2579V340.167C49.2579 340.694 49.4158 341.137 49.7315 341.497Z" fill="#4F1C1C" fill-opacity="0.5"/>
<path d="M119.839 212.766C119.3 212.766 118.858 212.594 118.515 212.249C118.172 211.88 118 211.425 118 210.883C118 210.342 118.172 209.898 118.515 209.554C118.858 209.185 119.3 209 119.839 209H132.124C132.639 209 133.08 209.185 133.448 209.554C133.816 209.923 134 210.366 134 210.883C134 211.425 133.816 211.88 133.448 212.249C133.08 212.594 132.639 212.766 132.124 212.766H119.839ZM119.839 221C119.3 221 118.858 220.828 118.515 220.483C118.172 220.114 118 219.658 118 219.117C118 218.551 118.172 218.095 118.515 217.751C118.858 217.406 119.3 217.234 119.839 217.234H132.124C132.639 217.234 133.08 217.418 133.448 217.788C133.816 218.157 134 218.6 134 219.117C134 219.634 133.816 220.077 133.448 220.446C133.08 220.815 132.639 221 132.124 221H119.839Z" fill="#433836"/>
<path fill-rule="evenodd" clip-rule="evenodd" d="M125.156 212.766L128.956 209H132.124C132.639 209 133.08 209.185 133.448 209.554C133.816 209.923 134 210.366 134 210.883C134 211.425 133.816 211.88 133.448 212.249C133.08 212.594 132.639 212.766 132.124 212.766H125.156ZM118.094 219.765L120.649 217.234H132.124C132.639 217.234 133.08 217.418 133.448 217.788C133.816 218.157 134 218.6 134 219.117C134 219.634 133.816 220.077 133.448 220.446C133.08 220.815 132.639 221 132.124 221H119.839C119.3 221 118.858 220.828 118.515 220.483C118.319 220.272 118.179 220.033 118.094 219.765Z" fill="#492A29"/>
<path fill-rule="evenodd" clip-rule="evenodd" d="M153.164 298.799L167.046 283.706L151.434 274.747L145.224 294.242L153.164 298.799Z" fill="#FA594F"/>
<path fill-rule="evenodd" clip-rule="evenodd" d="M157.029 279.401L149.77 275.235L143.741 294.834L151 299L157.029 279.401Z" fill="#CF2C45"/>
<path d="M155.67 300.847C155.3 301.484 154.492 301.708 153.865 301.348L142.258 294.688C141.631 294.328 141.423 293.52 141.792 292.883L142.462 291.73C142.832 291.094 143.64 290.869 144.267 291.229L155.874 297.89C156.501 298.249 156.709 299.057 156.339 299.694L155.67 300.847Z" fill="#FA594F"/>
<path d="M169.602 261.493L159.647 284.604L154.443 281.618L169.602 261.493Z" fill="#E2D8FF"/>
<path fill-rule="evenodd" clip-rule="evenodd" d="M166.266 269.769L169.673 261.875L154.531 282.009L156.298 283.023L166.266 269.769Z" fill="#A2B2EB"/>
<path fill-rule="evenodd" clip-rule="evenodd" d="M152.009 294.541L145.301 290.692C144.695 290.344 143.903 290.578 143.533 291.215L142.864 292.367C142.494 293.004 142.685 293.802 143.292 294.15L150 298C149.394 297.652 149.202 296.854 149.572 296.217L150.242 295.064C150.612 294.427 151.403 294.193 152.009 294.541Z" fill="#A4003B" fill-opacity="0.5"/>
<path d="M167.154 287.014C166.517 288.111 165.025 288.441 163.823 287.751L149.096 279.299C147.893 278.609 147.435 277.161 148.073 276.063L148.276 275.713C148.913 274.616 150.405 274.286 151.607 274.976L166.334 283.427C167.537 284.117 167.995 285.566 167.357 286.663L167.154 287.014Z" fill="#FA594F"/>
<path fill-rule="evenodd" clip-rule="evenodd" d="M158.511 278.676L151.223 274.494C149.979 273.78 148.454 274.091 147.817 275.188L147.613 275.538C146.976 276.636 147.468 278.104 148.712 278.818L156 283C154.756 282.286 154.264 280.818 154.901 279.721L155.105 279.37C155.742 278.273 157.267 277.963 158.511 278.676Z" fill="#CF2C45"/>
<path fill-rule="evenodd" clip-rule="evenodd" d="M165.013 304.038C165.016 304.033 165.019 304.028 165.023 304.024L165.023 304.052C166.546 306.341 173.256 318.056 165.086 318.023C165.083 318.023 165.08 318.023 165.077 318.023C165.074 318.023 165.067 318.023 165.067 318.023C156.897 317.959 163.508 306.323 165.004 304.052L165.004 304.024C165.007 304.028 165.01 304.033 165.013 304.038Z" fill="#67A6C1"/>
<path d="M227 225.651V220.607C227 217.834 224.773 215.563 221.99 215.563V214H162.01V215.563C159.256 215.563 157 217.805 157 220.607V225.651C157 227.657 158.143 229.367 159.842 230.193C160.018 230.282 160.135 230.488 160.135 230.695C160.135 230.901 160.018 231.108 159.842 231.196C158.172 232.022 157 233.733 157 235.738V240.782C157 242.788 158.143 244.499 159.842 245.324C160.018 245.413 160.135 245.619 160.135 245.826C160.135 246.032 160.018 246.239 159.842 246.327C158.172 247.153 157 248.864 157 250.87V255.913C157 257.919 158.143 259.63 159.842 260.456C160.018 260.544 160.135 260.751 160.135 260.957C160.135 261.164 160.018 261.37 159.842 261.459C158.172 262.284 157 263.995 157 266.001C157 271.487 161.483 276 166.992 276H217.008C222.546 276 227 271.487 227 265.942C227 263.936 225.857 262.225 224.158 261.4C223.982 261.311 223.865 261.105 223.865 260.898C223.865 260.692 223.982 260.485 224.158 260.397C225.828 259.571 227 257.86 227 255.854V250.811C227 248.805 225.857 247.094 224.158 246.268C223.982 246.18 223.865 245.973 223.865 245.767C223.865 245.56 223.982 245.354 224.158 245.265C225.828 244.44 227 242.729 227 240.723V235.679C227 233.674 225.857 231.963 224.158 231.137C223.982 231.049 223.865 230.842 223.865 230.636C223.865 230.429 223.982 230.223 224.158 230.134C225.857 229.367 227 227.657 227 225.651Z" fill="#A2D2FF" fill-opacity="0.66"/>
<path d="M224.186 230.51C225.84 229.691 227 227.994 227 226.005V221.002C227 218.253 224.795 216 222.039 216H214.932C217.659 216 219.892 218.223 219.892 221.002V226.005C219.892 227.994 218.761 229.691 217.079 230.51C216.904 230.598 216.788 230.803 216.788 231.007C216.788 231.212 216.904 231.417 217.079 231.505C218.732 232.324 219.892 234.02 219.892 236.01V241.012C219.892 243.001 218.761 244.698 217.079 245.517C216.904 245.605 216.788 245.81 216.788 246.015C216.788 246.219 216.904 246.424 217.079 246.512C218.732 247.331 219.892 249.028 219.892 251.017V256.02C219.892 258.009 218.761 259.706 217.079 260.525C216.904 260.612 216.788 260.817 216.788 261.022C216.788 261.227 216.904 261.431 217.079 261.519C218.732 262.338 219.892 264.035 219.892 266.024C219.892 271.553 215.454 276 210 276H217.108C222.59 276 227 271.524 227 266.024C227 264.035 225.869 262.338 224.186 261.519C224.012 261.431 223.896 261.227 223.896 261.022C223.896 260.817 224.012 260.612 224.186 260.525C225.84 259.706 227 258.009 227 256.02V251.017C227 249.028 225.869 247.331 224.186 246.512C224.012 246.424 223.896 246.219 223.896 246.015C223.896 245.81 224.012 245.605 224.186 245.517C225.84 244.698 227 243.001 227 241.012V236.01C227 234.02 225.869 232.324 224.186 231.505C224.012 231.417 223.896 231.212 223.896 231.007C223.867 230.803 223.983 230.598 224.186 230.51Z" fill="#A0C6FF"/>
<path d="M212.639 229H158C158.502 229.844 159.21 230.531 160.066 230.969C160.243 231.063 160.361 231.281 160.361 231.5C160.361 231.719 160.243 231.938 160.066 232.031C159.21 232.469 158.502 233.156 158 234H212.639C213.937 234 215 232.875 215 231.5C215 230.125 213.967 229 212.639 229Z" fill="#A0C6FF"/>
<path d="M224.934 245.969C225.79 245.531 226.498 244.844 227 244H172.361C171.063 244 170 245.125 170 246.5C170 247.875 171.063 249 172.361 249H227C226.498 248.156 225.79 247.469 224.934 247.031C224.757 246.937 224.639 246.719 224.639 246.5C224.609 246.281 224.727 246.062 224.934 245.969Z" fill="#A0C6FF"/>
<path d="M212.639 259H158C158.502 259.844 159.21 260.531 160.066 260.969C160.243 261.063 160.361 261.281 160.361 261.5C160.361 261.719 160.243 261.938 160.066 262.031C159.21 262.469 158.502 263.156 158 264H212.639C213.937 264 215 262.875 215 261.5C215 260.125 213.967 259 212.639 259Z" fill="#A0C6FF"/>
<path d="M224.509 216H159.491C158.113 216 157 214.872 157 213.478V183.095C157 181.7 158.113 180.573 159.491 180.573V179H224.509V180.573C225.887 180.573 227 181.7 227 183.095V213.478C227 214.872 225.887 216 224.509 216Z" fill="#67A6C1"/>
<path d="M205.666 213L177.334 213C174.95 213 173 209.938 173 206.196L173 190.803C173 187.062 174.95 184 177.334 184L205.666 184C208.05 184 210 187.062 210 190.803L210 206.196C210 209.938 208.05 213 205.666 213Z" fill="#EDF6FF"/>
<path fill-rule="evenodd" clip-rule="evenodd" d="M195.002 191.54C194.997 190.199 195.002 189.075 195.014 189.045C195.027 189.003 195.549 188.994 197.505 189.003L199.979 189.016L199.992 191.51L200 194L197.509 193.992L195.014 193.979L195.002 191.54ZM199.279 193.279V191.497V189.716H197.526C196.559 189.716 195.757 189.728 195.744 189.745C195.727 189.758 195.714 190.56 195.714 191.527V193.279H197.497H199.279ZM181.025 193.932C180.992 193.843 180.992 189.147 181.025 189.063C181.051 188.999 181.297 188.995 183.517 189.003L185.979 189.016L185.992 191.506L186 194H183.525C181.309 194 181.051 193.992 181.025 193.932ZM185.28 193.279V191.497V189.716H183.521C182.148 189.716 181.754 189.729 181.742 189.771C181.729 189.796 181.725 190.594 181.729 191.54L181.742 193.258L183.513 193.27L185.28 193.279ZM183 192.001C183 191.473 183.012 191.033 183.027 191.017C183.043 191.005 183.486 190.997 184.016 191.001L184.98 191.013L184.992 191.981L185 192.953L184.914 192.976C184.796 193.008 183.141 193.008 183.063 192.976C183.008 192.957 183 192.831 183 192.001ZM187.838 189.053C187.806 189.084 187.783 189.225 187.783 189.375C187.783 189.525 187.76 189.666 187.728 189.697C187.695 189.728 187.553 189.75 187.41 189.75C187.074 189.75 187 189.812 187 190.107C187 190.456 187.046 190.5 187.382 190.5C187.548 190.5 187.695 190.522 187.728 190.553C187.76 190.584 187.783 190.721 187.783 190.857C187.783 191.193 187.718 191.25 187.368 191.25C187.138 191.25 187.087 191.263 187.041 191.343C186.972 191.471 187.009 191.907 187.097 191.96C187.189 192.013 188.368 192.009 188.478 191.956C188.561 191.912 188.566 191.85 188.566 190.897L188.566 190.82C188.566 190.103 188.566 189.866 188.677 189.788C188.732 189.75 188.813 189.75 188.935 189.75L188.957 189.75C189.335 189.75 189.349 189.772 189.349 190.522C189.349 191.104 189.358 191.162 189.436 191.206C189.487 191.228 189.791 191.25 190.118 191.25C190.864 191.25 190.914 191.224 190.914 190.857C190.914 190.721 190.938 190.584 190.97 190.553C191.048 190.478 193.084 190.478 193.162 190.553C193.194 190.584 193.217 190.725 193.217 190.884C193.217 191.21 193.171 191.25 192.78 191.25C192.545 191.25 192.522 191.259 192.476 191.369C192.416 191.515 192.448 191.841 192.526 191.934C192.572 191.987 192.711 192 193.203 192C193.544 192 193.862 191.978 193.913 191.956C193.995 191.912 194 191.846 194 190.509C194 189.476 193.986 189.093 193.945 189.053C193.912 189.022 193.77 189 193.627 189C193.282 189 193.217 189.062 193.217 189.393C193.217 189.529 193.194 189.666 193.162 189.697C193.102 189.754 192.628 189.768 192.54 189.715C192.508 189.693 192.466 189.551 192.453 189.393C192.434 189.238 192.402 189.084 192.374 189.053C192.351 189.022 192.222 189 192.066 189C191.72 189 191.651 189.071 191.651 189.428C191.651 189.631 191.633 189.701 191.578 189.724C191.435 189.776 190.247 189.754 190.187 189.697C190.155 189.666 190.132 189.529 190.132 189.393L190.132 189.367V189.367C190.132 189.248 190.132 189.168 190.095 189.114C190.016 189 189.772 189 189.016 189L188.939 189C188.188 189 187.88 189.013 187.838 189.053ZM196.027 191.017C196.012 191.033 196 191.473 196 192.001C196 192.831 196.008 192.957 196.063 192.976C196.141 193.008 197.796 193.008 197.914 192.976L198 192.953L197.992 191.981L197.98 191.013L197.016 191.001C196.486 190.997 196.043 191.005 196.027 191.017ZM189 192.474C189 192.201 189.024 192.054 189.076 192.036C189.112 192.018 189.312 192 189.512 192C189.941 191.994 190 192.054 190 192.491C190 192.84 189.853 193 189.535 193C189.406 193 189.235 192.976 189.153 192.941C189.012 192.888 189 192.858 189 192.474ZM191.88 192.077C191.853 192.125 191.83 192.269 191.83 192.405C191.83 192.549 191.807 192.658 191.775 192.68C191.742 192.697 191.408 192.723 191.027 192.736L190.339 192.758V193.457V194.156L190.651 194.169C191.059 194.186 191.096 194.156 191.096 193.802C191.096 193.483 191.146 193.435 191.463 193.435L191.5 193.435C191.608 193.435 191.68 193.435 191.729 193.468C191.83 193.538 191.83 193.754 191.83 194.413L191.83 194.527C191.83 195.374 191.839 195.536 191.903 195.593C191.963 195.654 192.128 195.663 192.981 195.663C193.591 195.663 194.027 195.68 194.082 195.706C194.156 195.746 194.169 195.802 194.169 196.025C194.169 196.182 194.146 196.322 194.114 196.353C194.073 196.392 193.683 196.405 192.632 196.405C191.582 196.405 191.192 196.418 191.151 196.457C191.119 196.488 191.096 196.628 191.096 196.785C191.096 197.043 191.105 197.065 191.215 197.104C191.279 197.13 191.761 197.148 192.288 197.148C192.816 197.148 193.275 197.161 193.316 197.174C193.371 197.196 193.389 197.265 193.389 197.493C193.389 197.663 193.366 197.807 193.334 197.838C193.298 197.873 193.068 197.89 192.6 197.89C191.981 197.89 191.921 197.899 191.876 197.973C191.853 198.021 191.83 198.331 191.83 198.667C191.83 199.183 191.82 199.283 191.756 199.305C191.614 199.357 190.43 199.336 190.371 199.279C190.339 199.248 190.316 199.122 190.316 198.995C190.316 198.615 190.265 198.589 189.472 198.589C188.912 198.589 188.806 198.58 188.783 198.519C188.733 198.397 188.756 197.995 188.811 197.942C188.848 197.907 189.072 197.89 189.517 197.89C190.141 197.89 190.178 197.886 190.242 197.794C190.325 197.685 190.339 197.427 190.274 197.265C190.229 197.156 190.224 197.156 189.537 197.143L189.536 197.143C188.985 197.13 188.834 197.113 188.802 197.06C188.779 197.025 188.756 196.724 188.756 196.396C188.756 195.698 188.774 195.663 189.128 195.663C189.49 195.663 189.536 195.619 189.536 195.3C189.536 195.172 189.521 195.055 189.497 195L189.519 195C189.835 195 189.9 194.982 189.96 194.874C190.025 194.743 190.007 194.139 189.93 194.061C189.864 193.989 189.215 193.977 189.107 194.043C189.024 194.097 189 194.193 189 194.48C189 194.695 189.03 194.886 189.072 194.928C189.073 194.93 189.075 194.931 189.077 194.933C188.784 194.924 188.314 194.92 187.604 194.92L187.293 194.92C186.044 194.919 185.734 194.919 185.658 195.052C185.634 195.096 185.634 195.155 185.636 195.233C185.636 195.251 185.636 195.271 185.636 195.291C185.636 195.601 185.705 195.663 186.045 195.663C186.187 195.663 186.329 195.684 186.361 195.715C186.393 195.746 186.416 195.885 186.416 196.034C186.416 196.182 186.393 196.322 186.361 196.353C186.324 196.388 186.104 196.405 185.678 196.405C185.329 196.405 185.017 196.418 184.976 196.431C184.921 196.453 184.902 196.523 184.902 196.733C184.902 196.925 184.879 197.021 184.829 197.06C184.756 197.121 184.269 197.139 184.177 197.086C184.099 197.043 184.099 195.789 184.177 195.715C184.21 195.684 184.352 195.663 184.494 195.663C184.834 195.663 184.902 195.601 184.902 195.3C184.902 195.276 184.902 195.253 184.902 195.232V195.232V195.232V195.232V195.232V195.232V195.232V195.232V195.232V195.232V195.232V195.232V195.232V195.232V195.232V195.232V195.232V195.232V195.232V195.232V195.232V195.232V195.232C184.903 195.153 184.904 195.094 184.878 195.05C184.803 194.919 184.5 194.919 183.296 194.92L182.939 194.92L182.54 194.92C181.389 194.919 181.094 194.918 181.022 195.045C180.997 195.088 180.999 195.147 181.001 195.226L181.001 195.226C181.002 195.251 181.003 195.279 181.003 195.309L181.003 195.317C181.003 195.426 181.003 195.5 181.037 195.552C181.113 195.663 181.352 195.663 182.113 195.663H182.113L182.154 195.663C182.764 195.663 183.2 195.68 183.255 195.706C183.329 195.746 183.343 195.802 183.343 196.025C183.343 196.182 183.32 196.322 183.287 196.353C183.255 196.383 183.109 196.405 182.953 196.405C182.797 196.405 182.65 196.427 182.618 196.457C182.561 196.512 182.547 196.865 182.586 197.01C182.437 197.003 182.24 197 181.988 197C181.194 197 181.118 197.01 181.059 197.094C181.024 197.158 181 198.01 181 199.52C181 201.569 181.012 201.851 181.094 201.921C181.206 202.015 181.824 202.03 181.929 201.941C181.982 201.896 182 201.381 182 199.921C182 198.46 182.018 197.946 182.071 197.901C182.112 197.866 182.294 197.842 182.476 197.842C182.918 197.842 183 197.772 183 197.401C183 197.304 182.988 197.208 182.969 197.141C183.119 197.151 183.257 197.18 183.287 197.2C183.365 197.261 183.365 198.462 183.287 198.536C183.255 198.567 183.113 198.589 182.971 198.589C182.627 198.589 182.563 198.65 182.563 198.977C182.563 199.113 182.586 199.248 182.618 199.279C182.65 199.309 182.792 199.331 182.934 199.331C183.278 199.331 183.343 199.392 183.343 199.72C183.343 199.837 183.36 199.954 183.385 200.004C183.241 200.013 183.141 200.042 183.094 200.094C183.018 200.171 183 200.341 183 201.024C183 201.594 183.024 201.882 183.071 201.929C183.165 202.024 183.835 202.024 183.929 201.929C183.976 201.882 184 201.594 184 201.024C184 200.414 183.993 200.167 183.875 200.067C183.97 200.059 184.045 200.042 184.063 200.017C184.081 199.991 184.109 199.502 184.122 198.938L184.145 197.912L184.462 197.899C184.65 197.89 184.801 197.907 184.829 197.934C184.856 197.96 184.889 198.113 184.902 198.274L184.925 198.567L186.003 198.589C186.595 198.602 187.109 198.628 187.141 198.646C187.173 198.667 187.196 198.777 187.196 198.921C187.196 199.283 187.237 199.331 187.563 199.331C187.912 199.331 187.976 199.388 187.976 199.72C187.976 199.855 187.953 199.991 187.921 200.021C187.889 200.052 187.747 200.074 187.604 200.074C187.26 200.074 187.196 200.135 187.196 200.462C187.196 200.598 187.173 200.733 187.141 200.764C187.104 200.799 186.875 200.816 186.407 200.816C186.23 200.816 186.094 200.816 185.989 200.821C185.999 200.743 186 200.63 186 200.469C186 200.186 185.984 200.11 185.925 200.057C185.826 199.98 184.855 199.98 184.764 200.063C184.709 200.11 184.693 200.204 184.693 200.487C184.693 200.699 184.673 200.887 184.646 200.928C184.618 200.969 184.499 200.999 184.376 200.999C184.067 200.999 184 201.087 184 201.488C184 201.988 184.016 202 184.653 202C184.954 202 185.228 201.982 185.263 201.965C185.311 201.935 185.327 201.841 185.327 201.558C185.327 201.116 185.374 201.013 185.644 201C185.636 201.051 185.636 201.116 185.636 201.198V201.198V201.205C185.636 201.546 185.668 201.559 186.435 201.559C186.88 201.559 187.104 201.576 187.141 201.611C187.178 201.646 187.196 201.847 187.196 202.231L187.196 202.308C187.196 202.733 187.196 202.897 187.276 202.961C187.326 203.001 187.409 203 187.543 203L187.586 203C187.848 203 187.926 202.987 187.949 202.93C187.962 202.891 187.976 202.423 187.976 201.891C187.976 201.196 187.99 200.908 188.031 200.869C188.063 200.838 188.21 200.816 188.366 200.816C188.522 200.816 188.669 200.794 188.701 200.764C188.733 200.733 188.756 200.598 188.756 200.462C188.756 200.139 188.82 200.074 189.146 200.074C189.472 200.074 189.536 200.139 189.536 200.462C189.536 200.598 189.559 200.733 189.591 200.764C189.623 200.794 189.765 200.816 189.907 200.816C190.256 200.816 190.316 200.755 190.316 200.423C190.316 200.213 190.334 200.157 190.403 200.117C190.522 200.061 191.623 200.061 191.742 200.117C191.811 200.157 191.83 200.213 191.83 200.423C191.83 200.759 191.889 200.816 192.238 200.816C192.399 200.816 192.527 200.794 192.55 200.759C192.577 200.733 192.61 200.589 192.623 200.449C192.637 200.31 192.674 200.17 192.701 200.144C192.729 200.117 192.889 200.087 193.059 200.074L193.366 200.052L193.389 199.764C193.417 199.392 193.472 199.331 193.784 199.331C194.105 199.331 194.169 199.397 194.169 199.72C194.169 199.855 194.192 199.991 194.224 200.021C194.302 200.096 195.596 200.096 195.674 200.021C195.706 199.991 195.729 199.851 195.729 199.694C195.729 199.375 195.78 199.331 196.114 199.331C196.404 199.331 196.509 199.436 196.509 199.72C196.509 200.061 196.523 200.074 196.871 200.074C197.05 200.074 197.202 200.052 197.234 200.021C197.271 199.986 197.289 199.768 197.289 199.327C197.289 198.86 197.303 198.672 197.349 198.646C197.376 198.628 197.537 198.602 197.702 198.589L198 198.567V198.239V197.912L196.17 197.899L195.823 197.897H195.823C194.587 197.89 194.272 197.888 194.193 197.751C194.167 197.704 194.167 197.642 194.169 197.558C194.169 197.539 194.169 197.518 194.169 197.497C194.169 197.348 194.192 197.226 194.229 197.2C194.256 197.178 194.591 197.148 194.963 197.139C195.504 197.13 195.651 197.113 195.683 197.06C195.747 196.964 195.738 196.519 195.674 196.457C195.642 196.427 195.495 196.405 195.33 196.405C195.096 196.405 195.036 196.392 194.995 196.322C194.972 196.274 194.949 195.964 194.949 195.632C194.949 195.217 194.931 195.008 194.894 194.973C194.862 194.942 194.715 194.92 194.559 194.92C194.403 194.92 194.256 194.898 194.224 194.868C194.183 194.828 194.169 194.536 194.169 193.828C194.169 193.287 194.151 192.824 194.133 192.793C194.11 192.758 193.876 192.736 193.426 192.728C192.977 192.719 192.733 192.697 192.697 192.662C192.665 192.632 192.628 192.474 192.614 192.313L192.587 192.016L192.256 192.003C191.967 191.994 191.921 192.003 191.88 192.077ZM193.302 193.479C193.38 193.523 193.389 193.579 193.389 194.173C193.389 194.68 193.376 194.833 193.325 194.872C193.284 194.903 193.146 194.92 192.972 194.911C192.683 194.898 192.683 194.898 192.642 194.745C192.619 194.663 192.61 194.361 192.619 194.073C192.637 193.627 192.651 193.549 192.724 193.496C192.825 193.427 193.174 193.418 193.302 193.479ZM187.123 197.174C187.178 197.196 187.196 197.265 187.196 197.493C187.196 197.663 187.173 197.807 187.141 197.838C187.104 197.873 186.88 197.89 186.435 197.89C185.811 197.89 185.774 197.886 185.71 197.794C185.627 197.685 185.613 197.357 185.682 197.231C185.728 197.156 185.788 197.148 186.393 197.148C186.756 197.148 187.081 197.161 187.123 197.174ZM187.06 193.942C186.973 193.858 186.984 193.082 187.072 193.036C187.113 193.015 187.306 193 187.534 193C187.837 193 187.931 193.012 187.96 193.048C188.03 193.142 188.001 193.924 187.925 193.964C187.884 193.985 187.697 194 187.487 194C187.189 194 187.113 193.991 187.06 193.942ZM189.04 193.048C188.97 193.142 188.999 193.924 189.075 193.964C189.116 193.985 189.302 194 189.5 194C189.698 194 189.885 193.985 189.926 193.964C190.025 193.912 190.025 193.088 189.926 193.036C189.885 193.015 189.693 193 189.465 193C189.162 193 189.069 193.012 189.04 193.048ZM190.071 195.071C190.041 195.112 190 195.312 189.988 195.518C189.971 195.753 189.929 195.912 189.876 195.947C189.829 195.976 189.647 196 189.471 196C189.288 196 189.112 196.029 189.071 196.071C189.029 196.112 189 196.3 189 196.5C189 196.7 189.029 196.888 189.071 196.929C189.118 196.976 189.412 197 190.012 197C190.806 197 190.882 196.988 190.941 196.888C190.971 196.824 191 196.424 191 196C191 195.576 190.971 195.176 190.941 195.112C190.888 195.018 190.812 195 190.506 195C190.276 195 190.112 195.029 190.071 195.071ZM195 195.67C195 195.276 195.024 195.079 195.071 195.047C195.112 195.02 195.3 195 195.512 195C195.947 195 196 195.039 196 195.362C196 195.481 196.029 195.595 196.071 195.622C196.112 195.65 196.294 195.67 196.476 195.67C196.982 195.67 197 195.689 197 196.335C197 196.773 196.982 196.891 196.912 196.93C196.788 196.997 196.353 197.025 196.165 196.973C196.012 196.934 196 196.914 196 196.714C196 196.379 195.947 196.339 195.512 196.339C195.3 196.339 195.112 196.32 195.071 196.292C195.024 196.261 195 196.064 195 195.67ZM197.075 195.071C196.975 195.165 196.975 195.835 197.075 195.929C197.15 195.999 197.725 196.029 197.9 195.964C197.975 195.935 198 195.841 198 195.535C198 195.306 197.969 195.112 197.925 195.071C197.825 194.976 197.175 194.976 197.075 195.071ZM199 195.535C199 195.306 199.031 195.112 199.075 195.071C199.175 194.976 199.825 194.976 199.925 195.071C199.969 195.112 200 195.3 200 195.5C200 195.7 199.969 195.888 199.925 195.929C199.85 195.999 199.275 196.029 199.1 195.964C199.025 195.935 199 195.841 199 195.535ZM199.094 196.094C198.988 196.2 198.965 196.706 199.059 196.888C199.112 196.982 199.188 197 199.488 197C199.7 197 199.888 196.971 199.929 196.929C199.971 196.888 200 196.7 200 196.5C200 196.3 199.971 196.112 199.929 196.071C199.824 195.965 199.206 195.982 199.094 196.094ZM198.077 197.885C197.988 197.745 197.971 197.285 198.054 197.115C198.104 197.018 198.177 197 198.483 197C198.917 197 198.994 197.073 199 197.491C199 197.909 198.911 198 198.499 198C198.227 198 198.143 197.976 198.077 197.885ZM199.003 198.276C198.997 198.17 199 198.064 199.009 198.042C199.021 198.009 199.127 198 199.494 198C199.891 198 199.964 198.006 199.979 198.048C200.016 198.142 200.001 198.924 199.961 198.964C199.94 198.985 199.843 199 199.734 199C199.509 199 199.482 198.97 199.482 198.715C199.482 198.615 199.467 198.539 199.446 198.524C199.425 198.512 199.318 198.494 199.209 198.485L199.012 198.47L199.003 198.276ZM198 200.41C198 200.252 198.024 200.162 198.079 200.095C198.149 200.01 198.208 200 198.671 200C198.953 200 199.216 200.024 199.259 200.048C199.321 200.09 199.333 200.152 199.333 200.395C199.333 200.567 199.353 200.719 199.38 200.752C199.408 200.786 199.521 200.81 199.639 200.81C199.663 200.81 199.685 200.809 199.706 200.809C199.787 200.807 199.846 200.806 199.889 200.832C200.001 200.9 200.001 201.153 200 202.069V202.069V202.069V202.069V202.069V202.069V202.069V202.07V202.07V202.07L200 202.381C200 203.186 199.988 203.881 199.976 203.924C199.956 203.99 199.835 204 199.016 204L198.909 204C198.31 204 198.105 204 198.036 203.903C197.999 203.853 198 203.776 198 203.66L198 203.619C198 203.243 198.004 203.238 198.659 203.238C199.059 203.238 199.255 203.219 199.286 203.181C199.317 203.143 199.333 202.905 199.333 202.429C199.333 201.952 199.317 201.714 199.286 201.676C199.259 201.643 199.149 201.619 199.035 201.619C198.722 201.619 198.706 201.605 198.706 201.281C198.706 200.895 198.631 200.81 198.314 200.81C198.043 200.81 198 200.757 198 200.41ZM193.292 200.421C193.292 200.237 193.316 200.123 193.367 200.076C193.451 199.991 193.852 199.972 193.996 200.047C194.071 200.09 194.085 200.152 194.085 200.393C194.085 200.563 194.108 200.715 194.141 200.748C194.183 200.79 194.663 200.804 196.024 200.804C197.031 200.804 197.883 200.819 197.925 200.833C197.981 200.857 198 200.932 198 201.178C198 201.363 197.977 201.519 197.944 201.552C197.911 201.585 197.767 201.609 197.622 201.609C197.455 201.609 197.338 201.632 197.306 201.675C197.268 201.718 197.254 201.964 197.264 202.442L197.278 203.147L197.594 203.175C197.767 203.189 197.93 203.222 197.958 203.251C197.986 203.279 197.995 203.587 197.991 204.027L197.977 204.755L197.674 204.77C197.511 204.779 197.347 204.807 197.315 204.836C197.231 204.902 197.226 206.246 197.31 206.331C197.343 206.364 197.483 206.388 197.627 206.388C197.772 206.388 197.911 206.411 197.944 206.444C197.977 206.478 198 206.634 198 206.818C198 207.064 197.981 207.14 197.925 207.164C197.795 207.216 194.271 207.197 194.173 207.145C194.099 207.102 194.085 207.041 194.085 206.799C194.085 206.629 194.108 206.478 194.141 206.444C194.183 206.402 194.5 206.388 195.283 206.388C196.303 206.388 196.369 206.383 196.415 206.298C196.439 206.246 196.462 205.924 196.462 205.579L196.462 205.476C196.463 205.126 196.463 204.951 196.376 204.864C196.289 204.778 196.115 204.778 195.768 204.779L195.665 204.779C194.9 204.779 194.877 204.793 194.877 205.2C194.877 205.347 194.854 205.493 194.821 205.527C194.779 205.569 194.476 205.583 193.735 205.583C192.985 205.583 192.682 205.598 192.626 205.64C192.579 205.678 192.537 205.796 192.519 205.938L192.512 206C192.699 206.002 192.884 206.026 192.927 206.068C192.97 206.11 193 206.299 193 206.5C193 206.701 192.97 206.89 192.927 206.932C192.842 207.014 192.224 207.026 192.091 206.944C192.024 206.902 192 206.784 192 206.5C192 206.462 192 206.427 192.001 206.394C191.766 206.418 191.708 206.512 191.708 206.78C191.708 207.112 191.792 207.192 192.127 207.192C192.272 207.192 192.411 207.216 192.444 207.249C192.519 207.325 192.519 207.864 192.444 207.94C192.365 208.02 190.305 208.02 190.225 207.94C190.151 207.864 190.151 207.325 190.225 207.249C190.258 207.216 190.403 207.192 190.547 207.192C190.892 207.192 190.962 207.126 190.962 206.804C190.962 206.459 190.883 206.388 190.519 206.388C190.179 206.388 190.169 206.374 190.169 205.962C190.169 205.735 190.188 205.673 190.258 205.631C190.309 205.607 190.622 205.583 190.957 205.583C191.288 205.583 191.591 205.569 191.633 205.555C191.689 205.531 191.708 205.456 191.708 205.228C191.708 204.793 191.726 204.784 192.57 204.77L193.269 204.755L193.283 204.017L193.292 203.279L193.157 203.218C193.069 203.18 192.822 203.166 192.43 203.18C191.736 203.199 191.708 203.213 191.708 203.648C191.708 203.814 191.684 203.937 191.652 203.96C191.619 203.979 191.097 204.008 190.496 204.022L189.4 204.046L189.386 204.344C189.368 204.732 189.41 204.779 189.755 204.779C189.978 204.779 190.034 204.798 190.095 204.883C190.179 205.001 190.193 205.281 190.123 205.46C190.081 205.574 190.053 205.583 189.82 205.583C189.424 205.583 189.377 205.626 189.377 205.976C189.377 206.146 189.4 206.298 189.433 206.331C189.466 206.364 189.61 206.388 189.755 206.388C190.123 206.388 190.183 206.459 190.16 206.828C190.146 206.998 190.114 207.121 190.072 207.15C190.034 207.173 189.89 207.192 189.75 207.192C189.606 207.192 189.466 207.216 189.433 207.249C189.4 207.282 189.377 207.433 189.377 207.594C189.377 207.755 189.354 207.907 189.321 207.94C189.279 207.982 188.967 207.996 188.207 207.996C187.303 207.996 187.135 207.987 187.075 207.921C187.009 207.859 187 207.618 187 206.028C187 204.859 187.019 204.173 187.047 204.112C187.089 204.036 187.149 204.022 187.415 204.022C187.667 204.022 187.741 204.041 187.764 204.098C187.778 204.14 187.792 204.462 187.792 204.822C187.792 205.262 187.811 205.489 187.848 205.527C187.923 205.602 188.454 205.602 188.529 205.527C188.608 205.446 188.608 204.159 188.529 204.079C188.496 204.046 188.361 204.022 188.221 204.022C187.839 204.022 187.792 203.979 187.792 203.62C187.792 203.189 187.825 203.17 188.659 203.17C189.219 203.17 189.326 203.161 189.349 203.095C189.4 202.962 189.377 202.527 189.321 202.47C189.289 202.437 189.144 202.413 189 202.413C188.659 202.413 188.585 202.347 188.585 202.03C188.585 201.86 188.585 201.759 188.634 201.698C188.708 201.609 188.891 201.609 189.344 201.609C189.624 201.609 189.881 201.62 190.002 201.636C189.995 201.41 190.006 201.133 190.036 201.075C190.076 200.999 190.858 200.97 190.952 201.04C190.988 201.069 191 201.163 191 201.467C191 201.696 190.985 201.889 190.964 201.93C190.939 201.977 190.791 202 190.5 202C190.349 202 190.236 201.994 190.159 201.981L190.16 201.997C190.169 202.162 190.202 202.323 190.225 202.352C190.291 202.437 192.365 202.437 192.444 202.356C192.481 202.319 192.5 202.096 192.5 201.675C192.5 201.33 192.519 200.994 192.547 200.927C192.589 200.814 192.612 200.804 192.887 200.804C193.055 200.804 193.204 200.781 193.236 200.748C193.269 200.715 193.292 200.568 193.292 200.421ZM196.462 202.796C196.462 201.916 196.453 201.746 196.387 201.685C196.327 201.618 196.159 201.609 195.255 201.609C194.495 201.609 194.183 201.623 194.141 201.666C194.099 201.708 194.085 202.025 194.085 202.792C194.085 203.771 194.094 203.871 194.169 203.942C194.243 204.012 194.392 204.022 195.264 204.022C196.215 204.022 196.28 204.017 196.369 203.927C196.457 203.837 196.462 203.771 196.462 202.796ZM188.585 206.766C188.585 206.539 188.566 206.478 188.496 206.435C188.37 206.369 187.918 206.374 187.848 206.444C187.816 206.478 187.792 206.629 187.792 206.799C187.792 207.145 187.839 207.192 188.207 207.192C188.519 207.192 188.585 207.116 188.585 206.766ZM195.071 203.075C195.001 203.15 194.971 203.725 195.036 203.9C195.065 203.981 195.165 204 195.5 204C195.835 204 195.935 203.981 195.964 203.9C196.029 203.725 195.999 203.15 195.929 203.075C195.888 203.031 195.7 203 195.5 203C195.3 203 195.112 203.031 195.071 203.075ZM181.028 203.03C180.986 203.068 180.994 207.887 181.033 207.955C181.062 207.997 181.588 208.006 183.525 207.997L185.979 207.984L185.992 205.49L186 203H183.529C182.168 203 181.041 203.013 181.028 203.03ZM185.271 205.494L185.279 207.284L183.512 207.276L181.74 207.263L181.728 205.494C181.719 203.84 181.723 203.725 181.791 203.708C181.834 203.696 182.63 203.691 183.563 203.696L185.258 203.7L185.271 205.494ZM183 206V205V204L183.992 204.008L184.98 204.02L184.992 205.008L185 206H184H183ZM199.029 205.085C199.008 205.138 198.995 205.326 199.002 205.573L199.011 205.972L199.209 206.002C199.318 206.019 199.425 206.054 199.446 206.078C199.467 206.107 199.483 206.266 199.483 206.495C199.483 206.7 199.498 206.888 199.519 206.93C199.54 206.97 199.616 206.993 199.699 206.999C199.693 206.998 199.688 206.998 199.682 206.998C199.388 206.998 199.333 206.916 199.333 206.474C199.333 206.291 199.313 206.109 199.286 206.067C199.239 205.998 198.864 205.974 198.76 206.036C198.691 206.011 198.605 206 198.5 206C198.294 206 198.194 206.029 198.111 206.118C198.033 206.2 198 206.312 198 206.506C198 206.9 198.044 206.984 198.371 206.998C198.358 206.998 198.345 206.998 198.332 206.998C198.124 206.998 198.073 207.016 198.038 207.11C197.979 207.281 197.991 207.723 198.061 207.87C198.12 208 198.136 208 199.015 208C199.655 208 199.918 207.982 199.953 207.929C199.98 207.888 200 207.7 200 207.499C200 207.299 199.98 207.11 199.953 207.069C199.929 207.033 199.835 207.006 199.731 207C199.833 207.002 199.938 206.978 199.963 206.93C199.988 206.883 200 206.589 200 205.99C200 205.197 199.994 205.12 199.942 205.062C199.848 204.968 199.072 204.985 199.029 205.085Z" fill="#433836"/>
<path fill-rule="evenodd" clip-rule="evenodd" d="M181.384 187H200.616C201.933 187 203 188.067 203 189.384V208.616C203 209.933 201.933 211 200.616 211H181.384C180.067 211 179 209.933 179 208.616V189.384C179 188.067 180.067 187 181.384 187ZM181.384 188.311C180.792 188.311 180.311 188.792 180.311 189.384V208.616C180.311 209.208 180.792 209.689 181.384 209.689H200.616C201.208 209.689 201.689 209.208 201.689 208.616V189.384C201.689 188.792 201.208 188.311 200.616 188.311H181.384Z" fill="#433836"/>
<path d="M205.106 184L191 184C193.706 184 195.894 187.232 195.894 191.229L195.894 205.771C195.894 209.768 193.706 213 191 213L205.106 213C207.812 213 210 209.768 210 205.771L210 191.229C210 187.232 207.812 184 205.106 184Z" fill="#0A1BB3" fill-opacity="0.21"/>
<path d="M224.424 180.573V179H217V180.573C218.424 180.573 219.576 181.7 219.576 183.095V213.478C219.576 214.872 218.424 216 217 216H224.424C225.848 216 227 214.872 227 213.478V183.124C227 181.73 225.848 180.573 224.424 180.573Z" fill="#3C98BF"/>
<path d="M207 141H177V130.688C177 128.109 179.109 126 181.688 126H202.312C204.891 126 207 128.109 207 130.688V141Z" fill="#EDF6FF"/>
<path d="M182 139H202V153H182V139Z" fill="#A0C6FF"/>
<path d="M181.994 151C168.193 151 157 162.191 157 176.02V178.51C157 179.887 158.113 181 159.491 181H224.509C225.887 181 227 179.887 227 178.51V176.02C227 162.221 215.807 151.029 202.006 151.029H181.994V151Z" fill="#A2D2FF" fill-opacity="0.66"/>
<path d="M207 141H177V130.688C177 128.109 179.109 126 181.688 126H202.312C204.891 126 207 128.109 207 130.688V141Z" fill="#EDF6FF"/>
<path d="M202.067 126H195C197.712 126 199.933 128.227 199.933 131.01V141H207V131.01C207 128.227 204.779 126 202.067 126Z" fill="#D8E2F3"/>
<path d="M207.635 144H177.365C176.064 144 175 142.875 175 141.5C175 140.125 176.064 139 177.365 139H207.635C208.936 139 210 140.125 210 141.5C210 142.875 208.936 144 207.635 144Z" fill="#D8E2F3"/>
<path d="M202.14 151H195C208.727 151 219.86 162.202 219.86 176.015V178.507C219.86 179.886 218.752 181 217.383 181H224.523C225.893 181 227 179.886 227 178.507V176.015C227 162.202 215.867 151 202.14 151Z" fill="#A0C6FF"/>
<path d="M166.72 204H157V209H166.72C167.974 209 169 207.875 169 206.5C169 205.094 168.002 204 166.72 204Z" fill="#3C98BF"/>
<path d="M227 209V204H217.28C216.026 204 215 205.125 215 206.5C215 207.875 216.026 209 217.28 209H227Z" fill="#3C98BF"/>
</svg>
