<svg width="39" height="40" viewBox="0 0 39 40" fill="none" xmlns="http://www.w3.org/2000/svg">
<path fill-rule="evenodd" clip-rule="evenodd" d="M36.3847 10.0017C41.7686 19.5659 38.5735 31.7957 29.2484 37.3177C20.6792 42.3918 9.91558 40.0361 4.04891 32.1993C4.79204 31.7682 7.5064 30.1845 9.38521 29.0856L9.42425 29.0628L9.4299 29.0706C10.256 30.183 11.6836 31.4615 12.9667 32.2377C13.8928 32.7978 15.1571 33.3211 16.2613 33.601C19.0181 34.3001 21.8543 34.0787 24.5889 32.9507C25.3721 32.6278 26.6471 31.9639 27.2407 31.5702C29.6981 29.94 32.1085 26.9903 32.864 24.6886C33.3501 23.2077 32.4975 21.8122 30.8694 21.4241C29.8916 21.191 28.9786 21.4675 28.1661 22.2426C27.8319 22.5615 27.71 22.7345 27.4372 23.2768C26.4452 25.2494 25.2121 26.5529 23.5292 27.408C22.7897 27.7837 22.2232 28.0021 21.4759 28.1993C20.9112 28.3484 20.7915 28.3591 19.6889 28.3591C18.3558 28.3591 18.0773 28.3126 17.0396 27.9171C16.1535 27.5795 15.185 26.9704 14.6538 26.4168L14.4323 26.186L14.9708 25.8667C15.267 25.6911 15.691 25.4428 15.9129 25.3149C16.3513 25.0622 19.3585 23.3079 21.3895 22.1201C22.5762 21.426 23.0923 21.1248 26.0589 19.3954C26.693 19.0257 27.601 18.4959 28.0766 18.218C29.1084 17.6152 29.5161 17.2436 29.808 16.6405C30.188 15.8555 30.1874 15.0481 29.8066 14.2501C29.3932 13.3838 28.3286 11.8862 27.4063 10.8735C27.2043 10.6515 26.7715 10.2385 26.4446 9.95564C24.5706 8.33359 22.5368 7.35759 20.4498 7.07873C19.6603 6.97327 18.0876 6.97387 17.3253 7.07987C15.6217 7.31687 13.7089 8.09167 11.9621 9.25234C9.8211 10.675 8.32938 12.3913 7.26373 14.6583C6.50635 16.2695 6.1655 17.7079 6.10321 19.5556C6.04892 21.1653 6.32742 22.9445 6.85568 24.3643C6.87643 24.4155 6.89776 24.4672 6.91963 24.5195L6.35873 24.8466C5.83559 25.1513 5.07031 25.5983 4.6581 25.8398C4.24595 26.0814 3.67523 26.4145 3.38985 26.5801C2.60518 27.0353 1.98212 27.3974 1.49637 27.6805C-2.22403 18.539 1.16501 7.76699 9.75161 2.68239C19.0768 -2.83954 31.0008 0.437399 36.3847 10.0017ZM19.7177 12.6841C20.6275 12.9077 21.3952 13.2471 22.1386 13.7544C22.6312 14.0906 23.4594 14.8622 23.3958 14.9256C23.3703 14.9509 22.8825 15.2437 22.3118 15.5764C21.7411 15.9089 20.8331 16.4389 20.2941 16.754C19.7551 17.0691 18.8861 17.5763 18.3629 17.881C17.8398 18.1858 17.0745 18.6327 16.6624 18.8743C16.2502 19.1159 15.6794 19.449 15.3941 19.6146C12.9828 21.0135 12.0975 21.5323 12.0337 21.5837C11.9111 21.6823 11.8591 21.5689 11.7584 20.9835C11.6135 20.141 11.6677 18.7039 11.874 17.9231C12.3714 16.0391 13.4944 14.6521 15.4477 13.5093C16.9169 12.6496 18.4064 12.3618 19.7177 12.6841Z" fill="#FFF8ED"/>
</svg>
