<svg width="460" height="617" viewBox="0 0 460 617" fill="none" xmlns="http://www.w3.org/2000/svg">
<g clip-path="url(#clip0)">
<path d="M274.945 92.297C349.177 5.38559 478.078 0.371474 533.25 8.72834L667 -13V227.678C657.247 237.706 632.727 265.284 612.664 295.368C587.586 332.974 607.648 454.985 612.664 489.248C616.677 516.658 646.659 599.837 661.148 638C643.872 633.264 606.311 609.085 594.273 550.253C579.227 476.712 590.094 307.904 583.406 315.425C576.719 322.946 560 351.359 544.117 445.792C531.411 521.338 500.927 554.71 487.273 561.953C500.37 542.732 527.9 484.568 533.25 405.679C538.457 328.903 567.311 267.535 582.209 244.531C577.974 250.164 566.231 260.144 544.117 266.119C519.373 272.805 499.812 343.003 493.125 377.266C493.125 358.881 495.633 313.586 505.664 279.49C518.203 236.87 573.375 249.406 568.359 227.678C564.347 210.296 538.823 184.779 526.562 174.194C516.81 195.643 488.945 242.386 455.508 257.763C422.07 273.139 427.643 297.597 434.609 307.904C458.294 329.074 481.589 380.943 385.289 419.05C288.989 457.157 248.195 571.424 239.836 623.793C237.328 613.765 237.495 575.825 258.227 504.29C284.141 414.872 397.828 405.679 402.844 364.73C407.859 323.782 384.453 328.796 353.523 343.838C322.594 358.881 274.945 363.895 239.836 328.796C204.835 293.805 150.725 376.752 137.969 396.307L137.852 396.487C127.82 411.863 81.2865 409.022 59.2734 405.679C75.1562 400.386 110.6 387.294 125.312 377.266C143.703 364.73 160.422 309.575 193.023 295.368C225.625 281.162 263.242 309.575 304.203 315.425C345.164 321.275 282.469 277.819 263.242 273.641C244.016 269.462 208.906 257.763 150.391 257.763C103.578 257.763 83.5156 277.819 79.3359 287.847C79.3359 283.39 87.3609 269.462 119.461 249.406C159.586 224.335 223.953 246.899 258.227 242.72C292.5 238.542 316.742 249.406 366.062 257.763C415.383 266.119 479.75 190.908 493.125 153.302C506.5 115.696 445.477 136.588 445.477 153.302C445.477 170.015 419.562 198.429 397.828 200.936C380.441 202.941 369.406 219.599 366.062 227.678C364.391 194.25 419.562 167.508 419.562 153.302C419.562 139.095 451.328 119.874 434.609 124.888C418.156 129.823 415.466 133.948 403.434 152.396L402.844 153.302C392.812 168.678 351.294 173.637 331.789 174.194C342.656 169.18 367.734 160.823 402.844 119.874C437.953 78.9256 516.531 92.297 505.664 59.7048C496.97 33.6309 487.273 38.1896 402.844 59.7048C274.945 92.297 349.344 149.241 210.578 184.222C106.624 210.428 43.6693 279.212 25 315.425C33.9167 296.483 57.2672 251.411 79.3359 222.664C106.922 186.729 182.156 200.936 274.945 92.297Z" fill="#791913" fill-opacity="0.42"/>
</g>
<defs>
<clipPath id="clip0">
<rect width="460" height="617" fill="white"/>
</clipPath>
</defs>
</svg>
