<svg width="50" height="50" viewBox="0 0 50 50" fill="none" xmlns="http://www.w3.org/2000/svg">
<circle cx="25" cy="25" r="25" fill="#FFF8ED"/>
<path d="M36.571 13.429C35.6164 12.4743 34.4721 12 33.1261 12H16.8739C15.5339 12 14.3836 12.4743 13.429 13.429C12.4743 14.3836 12 15.5339 12 16.8739V33.1261C12 34.4661 12.4743 35.6164 13.429 36.571C14.3836 37.5257 15.5339 38 16.8739 38H33.1261C34.4661 38 35.6164 37.5257 36.571 36.571C37.5257 35.6164 38 34.4661 38 33.1261V16.8739C38 15.5339 37.5257 14.3836 36.571 13.429ZM31.8928 22.0027C31.9047 22.1035 31.9106 22.2577 31.9106 22.4593C31.9106 23.408 31.7742 24.3567 31.4956 25.3113C31.2169 26.2659 30.7959 27.179 30.2267 28.0566C29.6575 28.9282 28.9756 29.7049 28.187 30.3749C27.3984 31.0449 26.4497 31.5845 25.3409 31.9818C24.2381 32.3849 23.0522 32.5806 21.7834 32.5806C19.8208 32.5806 18.0005 32.047 16.3343 30.9916C16.6071 31.0271 16.8857 31.0449 17.1822 31.0449C18.8187 31.0449 20.2892 30.535 21.5995 29.5211C20.8347 29.5092 20.1469 29.2721 19.5421 28.8096C18.9373 28.3471 18.5163 27.7601 18.2791 27.0486C18.5697 27.096 18.795 27.1138 18.9373 27.1138C19.1863 27.1138 19.4709 27.0664 19.803 26.9774C18.9788 26.8173 18.2851 26.4082 17.7218 25.7501C17.1585 25.0919 16.8739 24.3389 16.8739 23.491V23.4554C17.4727 23.74 18.036 23.8823 18.5637 23.8942C17.538 23.2064 17.0221 22.2162 17.0221 20.9295C17.0221 20.2951 17.1881 19.7022 17.5143 19.133C18.4036 20.2299 19.4887 21.1015 20.7635 21.7596C22.0383 22.4119 23.4021 22.7795 24.8607 22.8625C24.8073 22.649 24.7777 22.3763 24.7777 22.0502C24.7777 21.0659 25.1275 20.2299 25.8212 19.5361C26.5149 18.8424 27.351 18.4926 28.3352 18.4926C29.3729 18.4926 30.2385 18.8661 30.9263 19.6073C31.7031 19.4591 32.462 19.1745 33.1973 18.7416C32.9127 19.6132 32.3909 20.2714 31.626 20.722C32.3612 20.6212 33.0431 20.4315 33.6716 20.1469C33.1973 20.8821 32.6043 21.4987 31.8928 22.0027Z" fill="#556645"/>
</svg>
