<svg width="140" height="40" viewBox="0 0 140 40" fill="none" xmlns="http://www.w3.org/2000/svg">
<path d="M64.5616 20.0011C64.5616 20.0565 64.5324 20.4446 64.474 21.1652H52.5859C52.8001 22.0891 53.3063 22.8189 54.1047 23.3548C54.9031 23.8906 55.8962 24.1585 57.0841 24.1585C57.9019 24.1585 58.6224 24.0477 59.2456 23.8259C59.8882 23.5857 60.4821 23.2162 61.0273 22.7173L63.4517 25.2118C61.9718 26.8193 59.8103 27.6231 56.9672 27.6231C55.1952 27.6231 53.6276 27.2997 52.2645 26.653C50.9015 25.9878 49.8499 25.0732 49.11 23.9091C48.37 22.745 48 21.4239 48 19.9457C48 18.486 48.3602 17.1741 49.0807 16.01C49.8207 14.8274 50.8236 13.9128 52.0893 13.2661C53.3745 12.6009 54.8058 12.2683 56.3831 12.2683C57.9214 12.2683 59.3137 12.5824 60.56 13.2106C61.8062 13.8389 62.7799 14.7443 63.4809 15.9268C64.2014 17.0909 64.5616 18.449 64.5616 20.0011ZM56.4123 15.5388C55.3802 15.5388 54.5137 15.816 53.8126 16.3703C53.1116 16.9246 52.6832 17.6822 52.5274 18.643H60.2679C60.1121 17.7007 59.6837 16.9523 58.9827 16.398C58.2817 15.8252 57.4249 15.5388 56.4123 15.5388Z" fill="#FFF8ED"/>
<path d="M67.9166 8H72.6485V23.7428H82.9009V27.4013H67.9166V8Z" fill="#FFF8ED"/>
<path d="M91.7331 12.2683C94.1672 12.2683 96.0366 12.8226 97.3413 13.9313C98.6459 15.0214 99.2983 16.6752 99.2983 18.8925V27.4013H95.0337V25.5443C94.1769 26.9302 92.5802 27.6231 90.2434 27.6231C89.0361 27.6231 87.9846 27.429 87.0888 27.041C86.2125 26.653 85.5407 26.1171 85.0734 25.4335C84.606 24.7498 84.3724 23.9738 84.3724 23.1053C84.3724 21.7195 84.9176 20.6293 86.0081 19.8348C87.118 19.0403 88.8219 18.643 91.1197 18.643H94.7416C94.7416 17.7007 94.4398 16.98 93.8362 16.4812C93.2325 15.9638 92.327 15.7051 91.1197 15.7051C90.2824 15.7051 89.4548 15.8344 88.6369 16.0931C87.8385 16.3333 87.157 16.6659 86.5923 17.0909L84.9565 14.0698C85.8133 13.497 86.8357 13.0536 88.0235 12.7395C89.2308 12.4254 90.4674 12.2683 91.7331 12.2683ZM91.3826 24.7129C92.1615 24.7129 92.8528 24.5466 93.4564 24.214C94.0601 23.8629 94.4885 23.3548 94.7416 22.6896V21.1652H91.6162C89.7469 21.1652 88.8122 21.7472 88.8122 22.9113C88.8122 23.4656 89.0361 23.9091 89.484 24.2417C89.9513 24.5558 90.5842 24.7129 91.3826 24.7129Z" fill="#FFF8ED"/>
<path d="M112.974 12.2683C114.921 12.2683 116.489 12.8226 117.676 13.9313C118.884 15.0399 119.487 16.6844 119.487 18.8647V27.4013H114.931V19.5299C114.931 18.3474 114.658 17.4697 114.113 16.8969C113.568 16.3056 112.779 16.01 111.747 16.01C110.598 16.01 109.683 16.3518 109.001 17.0355C108.32 17.7007 107.979 18.6984 107.979 20.0288V27.4013H103.422V12.49H107.774V14.2361C108.378 13.6079 109.128 13.1275 110.024 12.7949C110.919 12.4438 111.903 12.2683 112.974 12.2683Z" fill="#FFF8ED"/>
<path d="M140 12.49V24.9069C140 27.6415 139.25 29.6741 137.751 31.0044C136.251 32.3348 134.061 33 131.179 33C129.66 33 128.219 32.8245 126.856 32.4734C125.493 32.1223 124.363 31.6142 123.468 30.949L125.279 27.8448C125.941 28.3622 126.778 28.7687 127.791 29.0643C128.803 29.3784 129.816 29.5355 130.828 29.5355C132.406 29.5355 133.564 29.1936 134.304 28.51C135.064 27.8448 135.443 26.8285 135.443 25.4612V24.8237C134.256 26.0617 132.6 26.6807 130.478 26.6807C129.037 26.6807 127.713 26.3851 126.505 25.7938C125.317 25.184 124.373 24.3341 123.672 23.2439C122.971 22.1537 122.62 20.8973 122.62 19.4745C122.62 18.0517 122.971 16.7953 123.672 15.7051C124.373 14.6149 125.317 13.7742 126.505 13.1829C127.713 12.5732 129.037 12.2683 130.478 12.2683C132.756 12.2683 134.489 12.9797 135.677 14.4024V12.49H140ZM131.383 23.133C132.591 23.133 133.574 22.8004 134.333 22.1353C135.112 21.4516 135.502 20.5647 135.502 19.4745C135.502 18.3843 135.112 17.5067 134.333 16.8415C133.574 16.1578 132.591 15.816 131.383 15.816C130.176 15.816 129.183 16.1578 128.404 16.8415C127.625 17.5067 127.236 18.3843 127.236 19.4745C127.236 20.5647 127.625 21.4516 128.404 22.1353C129.183 22.8004 130.176 23.133 131.383 23.133Z" fill="#FFF8ED"/>
<path fill-rule="evenodd" clip-rule="evenodd" d="M37.3176 10.0017C42.8395 19.5659 39.5626 31.7957 29.9984 37.3177C21.2095 42.3918 10.1698 40.0361 4.15273 32.1993C4.91492 31.7682 7.69887 30.1845 9.62585 29.0856L9.6659 29.0628L9.67169 29.0706C10.5189 30.183 11.9832 31.4615 13.2992 32.2377C14.249 32.7978 15.5457 33.3211 16.6783 33.601C19.5057 34.3001 22.4146 34.0787 25.2194 32.9507C26.0226 32.6278 27.3304 31.9639 27.9392 31.5702C30.4596 29.94 32.9318 26.9903 33.7067 24.6886C34.2053 23.2077 33.3308 21.8122 31.6609 21.4241C30.6581 21.191 29.7216 21.4675 28.8883 22.2426C28.5456 22.5615 28.4205 22.7345 28.1407 23.2768C27.1233 25.2494 25.8585 26.5529 24.1326 27.408C23.3741 27.7837 22.7931 28.0021 22.0266 28.1993C21.4474 28.3484 21.3246 28.3591 20.1937 28.3591C18.8265 28.3591 18.5408 28.3126 17.4765 27.9171C16.5677 27.5795 15.5744 26.9704 15.0295 26.4168L14.8023 26.186L15.3547 25.8667C15.6585 25.6911 16.0933 25.4428 16.3209 25.3149C16.7705 25.0622 19.8549 23.3079 21.9379 22.1201C23.1551 21.426 23.6844 21.1248 26.7271 19.3954C27.3774 19.0257 28.3087 18.4959 28.7965 18.218C29.8548 17.6152 30.273 17.2436 30.5723 16.6405C30.962 15.8555 30.9615 15.0481 30.5709 14.2501C30.1469 13.3838 29.055 11.8862 28.1091 10.8735C27.9018 10.6515 27.458 10.2385 27.1227 9.95564C25.2006 8.33359 23.1146 7.35759 20.9741 7.07873C20.1644 6.97327 18.5514 6.97387 17.7695 7.07987C16.0223 7.31687 14.0604 8.09167 12.2689 9.25234C10.0729 10.675 8.54295 12.3913 7.44998 14.6583C6.67318 16.2695 6.32359 17.7079 6.2597 19.5556C6.20402 21.1653 6.48966 22.9445 7.03147 24.3643C7.05275 24.4155 7.07463 24.4672 7.09706 24.5195L6.52177 24.8466C5.98522 25.1513 5.20032 25.5983 4.77754 25.8398C4.35482 26.0814 3.76947 26.4145 3.47677 26.5801C2.67198 27.0353 2.03294 27.3974 1.53473 27.6805C-2.28105 18.539 1.19488 7.76699 10.0017 2.68239C19.566 -2.83954 31.7957 0.437399 37.3176 10.0017ZM20.2232 12.6841C21.1564 12.9077 21.9438 13.2471 22.7063 13.7544C23.2115 14.0906 24.0609 14.8622 23.9956 14.9256C23.9695 14.9509 23.4692 15.2437 22.8839 15.5764C22.2986 15.9089 21.3673 16.4389 20.8145 16.754C20.2617 17.0691 19.3704 17.5763 18.8338 17.881C18.2972 18.1858 17.5123 18.6327 17.0896 18.8743C16.6668 19.1159 16.0814 19.449 15.7888 19.6146C13.3157 21.0135 12.4077 21.5323 12.3423 21.5837C12.2165 21.6823 12.1631 21.5689 12.0599 20.9835C11.9113 20.141 11.9669 18.7039 12.1784 17.9231C12.6886 16.0391 13.8404 14.6521 15.8438 13.5093C17.3507 12.6496 18.8783 12.3618 20.2232 12.6841Z" fill="#FFF8ED"/>
</svg>
