<svg width="50" height="50" viewBox="0 0 50 50" fill="none" xmlns="http://www.w3.org/2000/svg">
<circle cx="25" cy="25" r="25" fill="#FFF8ED"/>
<rect x="12" y="12" width="26" height="26" rx="4" fill="#556645"/>
<path fill-rule="evenodd" clip-rule="evenodd" d="M24.9965 31.6703C21.3053 31.6703 18.3264 28.6912 18.3264 25C18.3264 21.3088 21.3053 18.3297 24.9965 18.3297C28.6877 18.3297 31.6666 21.3088 31.6666 25C31.6666 28.6912 28.6877 31.6703 24.9965 31.6703ZM20.6614 25C20.6614 22.6129 22.6094 20.6648 24.9965 20.6648C27.3836 20.6648 29.3316 22.6129 29.3316 25C29.3316 27.3871 27.3836 29.3352 24.9965 29.3352C22.6094 29.3352 20.6614 27.3871 20.6614 25Z" fill="#FFF8ED"/>
<path d="M31.9398 19.6144C31.078 19.6144 30.382 18.9184 30.382 18.0566C30.382 17.1947 31.078 16.4988 31.9398 16.4988C32.8016 16.4988 33.4976 17.1947 33.4976 18.0566C33.4979 18.2612 33.4577 18.4639 33.3795 18.653C33.3013 18.8421 33.1866 19.014 33.0419 19.1587C32.8972 19.3034 32.7254 19.4181 32.5363 19.4963C32.3471 19.5745 32.1445 19.6146 31.9398 19.6144Z" fill="#FFF8ED"/>
</svg>
