<svg width="50" height="50" viewBox="0 0 50 50" fill="none" xmlns="http://www.w3.org/2000/svg">
<circle cx="25" cy="25" r="25" fill="#FFF8ED"/>
<path fill-rule="evenodd" clip-rule="evenodd" d="M12 17.7389V20V20.2229V33.9832C12 35.1261 12.78 36 13.8 36H18V25.042L17.8083 24.8474L18 25V20.9038L18.625 25.4135L25.5 31L32.375 25.4135L33 20.9038V25L33.3909 24.6888L33 25.1092V36H37.2C38.22 36 39 35.1261 39 33.9832V20.2229V20V17.7389C39 16.2102 37.86 15 36.42 15C35.88 15 35.34 15.1911 34.86 15.5732L33 17.0382V20.9038L32.375 17L25.5 22.5865L18.625 17L18 20.9038V17.0382L16.14 15.5732C15.66 15.1911 15.12 15 14.58 15C13.14 15 12 16.2102 12 17.7389Z" fill="#556645"/>
</svg>
