<svg width="384" height="396" viewBox="0 0 384 396" fill="none" xmlns="http://www.w3.org/2000/svg">
<path d="M149.5 69.809C193.9 17.8581 271 -3.49528 304 1.5L384 6.86817V150.732C378.167 156.727 363.5 173.211 351.5 191.194C336.5 213.673 348.5 286.603 351.5 307.084C353.9 323.469 371.833 373.188 380.5 396C370.167 393.169 347.7 378.716 340.5 343.55C331.5 299.591 338 198.687 334 203.183C330 207.678 320 224.662 310.5 281.109C302.9 326.266 284.667 346.214 276.5 350.543C284.333 339.054 300.8 304.287 304 257.132C307.114 211.239 324.373 174.556 333.284 160.806C330.751 164.173 323.727 170.139 310.5 173.71C295.7 177.707 284 219.667 280 240.148C280 229.158 281.5 202.084 287.5 181.703C295 156.227 328 163.72 325 150.732C322.6 140.342 307.333 125.09 300 118.762C294.167 131.584 277.5 159.524 257.5 168.715C237.5 177.907 240.833 192.526 245 198.687C259.167 211.342 273.1 242.345 215.5 265.124C157.9 287.902 133.5 356.204 128.5 387.508C127 381.514 127.1 358.835 139.5 316.076C155 262.626 223 257.132 226 232.655C229 208.178 215 211.175 196.5 220.167C178 229.158 149.5 232.155 128.5 211.175C107.565 190.26 75.2002 239.84 67.5701 251.529L67.5 251.637C61.5 260.828 33.6667 259.13 20.5 257.132C30 253.968 51.2 246.142 60 240.148C71 232.655 81 199.686 100.5 191.194C120 182.702 142.5 199.686 167 203.183C191.5 206.679 154 180.704 142.5 178.206C131 175.709 110 168.715 75 168.715C47 168.715 35 180.704 32.5 186.698C32.5 184.034 37.3 175.709 56.5 163.72C80.5 148.734 119 162.221 139.5 159.724C160 157.226 174.5 163.72 204 168.715C233.5 173.71 272 128.753 280 106.274C288 83.7954 251.5 96.2836 251.5 106.274C251.5 116.265 236 133.249 223 134.747C212.6 135.946 206 145.903 204 150.732C203 130.751 236 114.766 236 106.274C236 97.7822 255 86.2931 245 89.2903C235.159 92.2398 233.55 94.7055 226.353 105.733L226 106.274C220 115.465 195.167 118.429 183.5 118.762C190 115.765 205 110.77 226 86.2931C247 61.8162 294 69.8089 287.5 50.3271C282.3 34.7416 276.5 37.4665 226 50.3271C149.5 69.8089 194 103.847 111 124.757C48.8215 140.421 11.1667 181.536 0 203.183C5.33333 191.86 19.3 164.919 32.5 147.735C49 126.255 94 134.748 149.5 69.809Z" fill="#FFA775"/>
</svg>
