<svg width="384" height="396" viewBox="0 0 384 396" fill="none" xmlns="http://www.w3.org/2000/svg">
<path d="M149.5 69.0158C193.9 17.0649 271 -4.28849 304 0.706787L384 6.07496V149.939C378.167 155.933 363.5 172.418 351.5 190.401C336.5 212.879 348.5 285.81 351.5 306.291C353.9 322.675 371.833 372.395 380.5 395.207C370.167 392.376 347.7 377.923 340.5 342.756C331.5 298.798 338 197.894 334 202.389C330 206.885 320 223.869 310.5 280.315C302.9 325.473 284.667 345.421 276.5 349.75C284.333 338.261 300.8 303.494 304 256.338C307.114 210.446 324.373 173.763 333.284 160.013C330.751 163.38 323.727 169.346 310.5 172.917C295.7 176.913 284 218.874 280 239.354C280 228.365 281.5 201.29 287.5 180.91C295 155.434 328 162.927 325 149.939C322.6 139.549 307.333 124.297 300 117.969C294.167 130.79 277.5 158.731 257.5 167.922C237.5 177.113 240.833 191.733 245 197.894C259.167 210.548 273.1 241.552 215.5 264.331C157.9 287.109 133.5 355.411 128.5 386.715C127 380.721 127.1 358.042 139.5 315.282C155 261.833 223 256.338 226 231.862C229 207.385 215 210.382 196.5 219.373C178 228.365 149.5 231.362 128.5 210.382C107.565 189.466 75.2002 239.047 67.5701 250.736L67.5 250.844C61.5 260.035 33.6667 258.336 20.5 256.338C30 253.175 51.2 245.349 60 239.354C71 231.862 81 198.893 100.5 190.401C120 181.909 142.5 198.893 167 202.389C191.5 205.886 154 179.911 142.5 177.413C131 174.915 110 167.922 75 167.922C47 167.922 35 179.911 32.5 185.905C32.5 183.241 37.3 174.915 56.5 162.927C80.5 147.941 119 161.428 139.5 158.93C160 156.433 174.5 162.927 204 167.922C233.5 172.917 272 127.96 280 105.481C288 83.0022 251.5 95.4904 251.5 105.481C251.5 115.472 236 132.456 223 133.954C212.6 135.153 206 145.11 204 149.939C203 129.958 236 113.973 236 105.481C236 96.989 255 85.4999 245 88.497C235.159 91.4465 233.55 93.9123 226.353 104.94L226 105.481C220 114.672 195.167 117.636 183.5 117.969C190 114.972 205 109.977 226 85.4999C247 61.023 294 69.0157 287.5 49.5339C282.3 33.9484 276.5 36.6733 226 49.5339C149.5 69.0157 194 103.054 111 123.964C48.8215 139.628 11.1667 180.743 0 202.389C5.33333 191.067 19.3 164.126 32.5 146.942C49 125.462 94 133.954 149.5 69.0158Z" fill="#FFA775"/>
</svg>
