<svg width="92" height="25" viewBox="0 0 92 25" fill="none" xmlns="http://www.w3.org/2000/svg">
<path d="M16.5616 12.0011C16.5616 12.0565 16.5324 12.4446 16.474 13.1652H4.58585C4.80005 14.0891 5.30635 14.8189 6.10473 15.3548C6.90312 15.8906 7.89623 16.1585 9.08408 16.1585C9.90193 16.1585 10.6224 16.0477 11.2456 15.8259C11.8882 15.5857 12.4821 15.2162 13.0273 14.7173L15.4517 17.2118C13.9718 18.8193 11.8103 19.6231 8.96724 19.6231C7.19521 19.6231 5.62765 19.2997 4.26455 18.653C2.90145 17.9878 1.84992 17.0732 1.10995 15.9091C0.369984 14.745 0 13.4239 0 11.9457C0 10.486 0.360247 9.17406 1.08074 8.00998C1.82071 6.82742 2.82356 5.91279 4.08929 5.26608C5.3745 4.60089 6.80575 4.26829 8.38305 4.26829C9.92141 4.26829 11.3137 4.58241 12.56 5.21064C13.8062 5.83888 14.7799 6.74427 15.4809 7.92683C16.2014 9.09091 16.5616 10.449 16.5616 12.0011ZM8.41226 7.5388C7.3802 7.5388 6.51366 7.81596 5.81264 8.37029C5.11162 8.92461 4.68322 9.68219 4.52743 10.643H12.2679C12.1121 9.70067 11.6837 8.95233 10.9827 8.398C10.2817 7.8252 9.42485 7.5388 8.41226 7.5388Z" fill="#FFF8ED"/>
<path d="M19.9166 0H24.6485V15.7428H34.9009V19.4013H19.9166V0Z" fill="#FFF8ED"/>
<path d="M43.7331 4.26829C46.1672 4.26829 48.0366 4.82262 49.3413 5.93126C50.6459 7.02143 51.2983 8.67517 51.2983 10.8925V19.4013H47.0337V17.5443C46.1769 18.9302 44.5802 19.6231 42.2434 19.6231C41.0361 19.6231 39.9846 19.429 39.0888 19.041C38.2125 18.653 37.5407 18.1171 37.0734 17.4335C36.606 16.7498 36.3724 15.9738 36.3724 15.1053C36.3724 13.7195 36.9176 12.6293 38.0081 11.8348C39.118 11.0403 40.8219 10.643 43.1197 10.643H46.7416C46.7416 9.70067 46.4398 8.98004 45.8362 8.48115C45.2325 7.96378 44.327 7.7051 43.1197 7.7051C42.2824 7.7051 41.4548 7.83444 40.6369 8.09313C39.8385 8.33333 39.157 8.66593 38.5923 9.09091L36.9565 6.06984C37.8133 5.49704 38.8357 5.05358 40.0235 4.73947C41.2308 4.42535 42.4674 4.26829 43.7331 4.26829ZM43.3826 16.7129C44.1615 16.7129 44.8528 16.5466 45.4564 16.214C46.0601 15.8629 46.4885 15.3548 46.7416 14.6896V13.1652H43.6162C41.7469 13.1652 40.8122 13.7472 40.8122 14.9113C40.8122 15.4656 41.0361 15.9091 41.484 16.2417C41.9513 16.5558 42.5842 16.7129 43.3826 16.7129Z" fill="#FFF8ED"/>
<path d="M64.9737 4.26829C66.921 4.26829 68.4885 4.82262 69.6764 5.93126C70.8837 7.03991 71.4873 8.6844 71.4873 10.8647V19.4013H66.9307V11.5299C66.9307 10.3474 66.6581 9.4697 66.1128 8.8969C65.5676 8.30562 64.779 8.00998 63.7469 8.00998C62.598 8.00998 61.6828 8.35181 61.0012 9.03548C60.3197 9.70066 59.9789 10.6984 59.9789 12.0288V19.4013H55.4223V4.49002H59.7744V6.23614C60.3781 5.60791 61.1278 5.1275 62.0235 4.7949C62.9193 4.44383 63.9027 4.26829 64.9737 4.26829Z" fill="#FFF8ED"/>
<path d="M92 4.49002V16.9069C92 19.6415 91.2503 21.6741 89.7509 23.0044C88.2515 24.3348 86.0608 25 83.1788 25C81.6599 25 80.2189 24.8245 78.8558 24.4734C77.4927 24.1223 76.3633 23.6142 75.4676 22.949L77.2785 19.8448C77.9406 20.3622 78.7779 20.7687 79.7905 21.0643C80.8031 21.3784 81.8157 21.5355 82.8283 21.5355C84.4056 21.5355 85.5642 21.1936 86.3042 20.51C87.0636 19.8448 87.4434 18.8285 87.4434 17.4612V16.8237C86.2555 18.0617 84.6003 18.6807 82.4778 18.6807C81.0368 18.6807 79.7126 18.3851 78.5053 17.7938C77.3175 17.184 76.3731 16.3341 75.672 15.2439C74.971 14.1537 74.6205 12.8973 74.6205 11.4745C74.6205 10.0517 74.971 8.79527 75.672 7.7051C76.3731 6.61493 77.3175 5.77421 78.5053 5.18293C79.7126 4.57317 81.0368 4.26829 82.4778 4.26829C84.7561 4.26829 86.4892 4.97968 87.677 6.40244V4.49002H92ZM83.3833 15.133C84.5906 15.133 85.574 14.8004 86.3334 14.1353C87.1123 13.4516 87.5018 12.5647 87.5018 11.4745C87.5018 10.3843 87.1123 9.50665 86.3334 8.84146C85.574 8.1578 84.5906 7.81596 83.3833 7.81596C82.1759 7.81596 81.1828 8.1578 80.4039 8.84146C79.625 9.50665 79.2356 10.3843 79.2356 11.4745C79.2356 12.5647 79.625 13.4516 80.4039 14.1353C81.1828 14.8004 82.1759 15.133 83.3833 15.133Z" fill="#FFF8ED"/>
</svg>
