<svg width="124" height="125" viewBox="0 0 124 125" fill="none" xmlns="http://www.w3.org/2000/svg">
<path fill-rule="evenodd" clip-rule="evenodd" d="M11.1119 40.1006C10.9175 39.5896 10.9175 12.6556 11.1119 12.1689C11.2577 11.804 12.6674 11.7796 25.4034 11.8283L39.5248 11.9013L39.5977 26.1834L39.6463 40.4898H25.452C12.7404 40.4898 11.2577 40.4412 11.1119 40.1006ZM35.5144 36.3536V26.1347V15.9159H25.4277C17.5528 15.9159 15.2924 15.9889 15.2195 16.2322C15.1466 16.3781 15.1223 20.9523 15.1466 26.3781L15.2195 36.232L25.3791 36.305L35.5144 36.3536ZM19.4013 26.5747C19.4013 23.2388 19.4757 20.4506 19.575 20.351C19.6742 20.2763 22.4777 20.2265 25.8271 20.2514L31.9303 20.3261L32.0047 26.4502L32.0544 32.5993L31.5085 32.7486C30.7642 32.9478 20.2945 32.9478 19.7983 32.7486C19.4509 32.6242 19.4013 31.8275 19.4013 26.5747ZM48.3081 12.0925C48.1372 12.2575 48.0151 13.0117 48.0151 13.8131C48.0151 14.6144 47.893 15.3686 47.7221 15.5336C47.5511 15.6986 46.7942 15.8165 46.0372 15.8165C44.2547 15.8165 43.864 16.1464 43.864 17.7256C43.864 19.5875 44.1082 19.8232 45.8907 19.8232C46.7698 19.8232 47.5511 19.9411 47.7221 20.1061C47.893 20.2711 48.0151 21.0017 48.0151 21.7323C48.0151 23.5236 47.6732 23.83 45.8175 23.83C44.5965 23.83 44.3279 23.9007 44.0838 24.325C43.7175 25.0085 43.9128 27.3418 44.3768 27.6247C44.8651 27.9075 51.1162 27.8839 51.7022 27.6011C52.1418 27.3654 52.1662 27.0354 52.1662 21.9445L52.1661 21.5328C52.1654 17.695 52.1652 16.4328 52.7578 16.0184C53.0483 15.8152 53.481 15.8157 54.1259 15.8164L54.2417 15.8165C56.244 15.8165 56.3173 15.9343 56.3173 19.9411C56.3173 23.0522 56.3661 23.3586 56.7812 23.5943C57.0498 23.7122 58.6614 23.83 60.3951 23.83C64.3509 23.83 64.6195 23.6886 64.6195 21.7323C64.6195 21.0017 64.7415 20.2711 64.9125 20.1061C65.3276 19.7054 76.1204 19.7054 76.5355 20.1061C76.7065 20.2711 76.8286 21.0253 76.8286 21.8738C76.8286 23.6179 76.5844 23.83 74.5088 23.83C73.2635 23.83 73.1414 23.8772 72.8972 24.4664C72.5798 25.2442 72.7507 26.9883 73.1658 27.4833C73.41 27.7661 74.1425 27.8368 76.7553 27.8368C78.5622 27.8368 80.2471 27.719 80.5157 27.6011C80.9552 27.3654 80.9796 27.0119 80.9796 19.8704C80.9796 14.3552 80.9064 12.3046 80.6866 12.0925C80.5157 11.9275 79.7587 11.8097 79.0018 11.8097C77.1704 11.8097 76.8286 12.1396 76.8286 13.9073C76.8286 14.638 76.7065 15.3686 76.5355 15.5336C76.2181 15.84 73.703 15.9107 73.2391 15.6279C73.0681 15.5101 72.8484 14.7558 72.7751 13.9073C72.6775 13.0824 72.5065 12.2575 72.36 12.0925C72.2379 11.9275 71.5542 11.8097 70.724 11.8097C68.8926 11.8097 68.5264 12.1868 68.5264 14.0959C68.5264 15.1801 68.4287 15.5572 68.1357 15.675C67.3787 15.9579 61.0788 15.84 60.7614 15.5336C60.5905 15.3686 60.4684 14.638 60.4684 13.9073L60.4685 13.768V13.768C60.4695 13.1337 60.4701 12.7047 60.2698 12.4147C59.8512 11.8088 58.5553 11.809 54.5526 11.8096L54.1441 11.8097C50.1639 11.8097 48.5279 11.8804 48.3081 12.0925ZM84.3628 26.3772C84.3384 18.6882 84.3628 12.2402 84.4358 12.0699C84.5088 11.8265 87.5025 11.7779 98.7227 11.8265L112.912 11.8995L112.985 26.2069L113.034 40.4899L98.747 40.4412L84.4358 40.3682L84.3628 26.3772ZM108.896 36.3534V26.1339V15.9144H98.8444C93.2951 15.9144 88.6951 15.9873 88.6221 16.0847C88.5247 16.1577 88.4517 20.7565 88.4517 26.3042V36.3534H98.674H108.896ZM92.9628 20.351C92.8636 20.4506 92.7891 23.2388 92.7891 26.5747C92.7891 31.8275 92.8388 32.6242 93.1861 32.7486C93.6823 32.9478 104.152 32.9478 104.896 32.7486L105.442 32.5993L105.393 26.4502L105.318 20.3261L99.2149 20.2514C95.8656 20.2265 93.062 20.2763 92.9628 20.351ZM55.6736 30.6777C55.6736 29.5301 55.7728 28.9064 55.9961 28.8316C56.145 28.7568 56.9885 28.6819 57.832 28.6819C59.6432 28.657 59.8913 28.9064 59.8913 30.7525C59.8913 32.2244 59.271 32.898 57.9313 32.898C57.3855 32.898 56.666 32.7982 56.3186 32.6485C55.7232 32.424 55.6736 32.2993 55.6736 30.6777ZM68.1922 29.1055C68.0474 29.3707 67.9268 30.1665 67.9268 30.914C67.9268 31.7098 67.8061 32.3126 67.6372 32.4332C67.4683 32.5297 65.7068 32.6743 63.7041 32.7467L60.0846 32.8673V36.7255V40.5837L61.7254 40.656C63.873 40.7525 64.066 40.5837 64.066 38.6305C64.066 36.8701 64.3314 36.6049 65.9964 36.6049L66.0896 36.6048L66.1907 36.6044H66.1914C66.7469 36.6023 67.1249 36.6009 67.3819 36.7764C67.929 37.1501 67.9285 38.3254 67.9269 42.0023V42.0023L67.9268 42.6333C67.9268 47.3114 67.975 48.2036 68.3128 48.5171C68.6265 48.8547 69.4952 48.9029 73.9833 48.9029C77.1925 48.9029 79.4848 48.9994 79.7744 49.1441C80.1604 49.3611 80.2328 49.6746 80.2328 50.9044C80.2328 51.7725 80.1122 52.5441 79.9433 52.7129C79.7261 52.9299 77.6751 53.0023 72.1494 53.0023C66.6238 53.0023 64.5727 53.0746 64.3556 53.2917C64.1867 53.4605 64.066 54.2321 64.066 55.1002C64.066 56.5229 64.1143 56.6435 64.6934 56.8605C65.0312 57.0052 67.5648 57.1016 70.3397 57.1016C73.1146 57.1016 75.5276 57.174 75.7447 57.2463C76.0343 57.3669 76.1308 57.7527 76.1308 59.0066C76.1308 59.9471 76.0102 60.7428 75.8413 60.9116C75.6482 61.1045 74.4417 61.201 71.9805 61.201C68.723 61.201 68.4093 61.2492 68.168 61.6591C68.0474 61.9244 67.9268 63.6365 67.9268 65.4932C67.9268 68.3387 67.8785 68.8933 67.5407 69.0139C66.7927 69.3032 60.5672 69.1827 60.2535 68.8692C60.0846 68.7004 59.964 68.0011 59.964 67.3018C59.964 65.2039 59.6986 65.0592 55.5242 65.0592C52.5803 65.0592 52.0254 65.011 51.9047 64.6734C51.6393 63.9982 51.7599 61.7797 52.0495 61.4904C52.2425 61.2974 53.4249 61.201 55.7654 61.201C59.0471 61.201 59.2401 61.1769 59.5779 60.6705C60.0123 60.0676 60.0846 58.6449 59.7468 57.7527C59.5057 57.1503 59.4814 57.1499 55.8707 57.0777L55.862 57.0775C52.9664 57.0052 52.1701 56.9087 52.0012 56.6194C51.8806 56.4265 51.7599 54.7626 51.7599 52.9541C51.7599 49.0959 51.8565 48.9029 53.7144 48.9029C55.6207 48.9029 55.862 48.6618 55.862 46.9015C55.862 46.0334 55.7413 45.2618 55.5724 45.093C55.3552 44.8759 52.8216 44.8036 45.7034 44.8036C45.1265 44.8036 44.5816 44.8033 44.0669 44.8029H44.0651H44.0634C37.5502 44.7989 35.8899 44.7979 35.4778 45.5146C35.3367 45.7599 35.3418 46.0891 35.3486 46.5309V46.531V46.531V46.5311V46.5312V46.5312V46.5313V46.5314V46.5314V46.5315V46.5316V46.5317V46.5318V46.5318V46.5319V46.532V46.5321V46.5322V46.5324V46.5325V46.5326V46.5327V46.5328C35.3502 46.6337 35.3518 46.7404 35.3518 46.8533C35.3518 48.5653 35.7138 48.9029 37.4994 48.9029C38.2474 48.9029 38.9954 49.0235 39.1643 49.1923C39.3332 49.3611 39.4539 50.1327 39.4539 50.9526C39.4539 51.7725 39.3332 52.5441 39.1643 52.7129C38.9713 52.9058 37.813 53.0023 35.569 53.0023C33.7352 53.0023 32.0943 53.0746 31.8772 53.147C31.5876 53.2675 31.4911 53.6534 31.4911 54.8108C31.4911 55.8718 31.3705 56.4023 31.105 56.6194C30.719 56.957 28.1612 57.0534 27.6786 56.764C27.2684 56.5229 27.2684 49.6022 27.6786 49.1923C27.8475 49.0235 28.5956 48.9029 29.3436 48.9029C31.1292 48.9029 31.4911 48.5653 31.4911 46.9015C31.4897 46.7684 31.4908 46.6437 31.4919 46.5269V46.5267V46.5264V46.5262V46.526V46.5258V46.5256V46.5255V46.5253V46.5251V46.5249V46.5248V46.5246V46.5245V46.5243V46.5242V46.524V46.5239V46.5238V46.5237C31.496 46.0774 31.499 45.7463 31.3556 45.5009C30.9435 44.7958 29.3227 44.7972 23.0458 44.8026H23.0457H23.0457H23.0457H23.0456H23.0456H23.0455H23.0455H23.0454H23.0454H23.0453H23.0453H23.0453H23.0452H23.0452H23.0451H23.0451H23.045H23.045H23.0449H23.0449H23.0448H23.0448C22.4592 44.8031 21.8331 44.8036 21.1636 44.8036C20.413 44.8036 19.7175 44.8028 19.0729 44.8021L19.0657 44.8021C13.0596 44.7953 11.4845 44.7935 11.0908 45.4746C10.9508 45.7167 10.9601 46.0451 10.9727 46.4902C10.9766 46.6313 10.981 46.7842 10.981 46.9497L10.981 46.9959C10.9808 47.6095 10.9808 48.0258 11.1752 48.3081C11.585 48.9032 12.8592 48.9031 16.8195 48.9029L17.0375 48.9029C20.2467 48.9029 22.539 48.9994 22.8286 49.1441C23.2147 49.3611 23.287 49.6746 23.287 50.9044C23.287 51.7725 23.1664 52.5441 22.9975 52.7129C22.8286 52.8817 22.0564 53.0023 21.236 53.0023C20.4156 53.0023 19.6435 53.1229 19.4746 53.2917C19.1368 53.6292 19.0885 56.0889 19.4022 56.5952C19.547 56.8123 20.1985 56.9811 21.1636 57.0534C22.0082 57.1016 22.8286 57.2704 22.9975 57.391C23.4077 57.7286 23.4077 64.3599 22.9975 64.7698C22.8286 64.9386 22.0806 65.0592 21.3326 65.0592C19.5228 65.0592 19.185 65.3968 19.185 67.2053C19.185 67.9529 19.3057 68.7004 19.4746 68.8692C19.6435 69.038 20.3915 69.1585 21.1395 69.1585C22.9492 69.1585 23.287 69.4961 23.287 71.3047C23.287 72.0522 23.4077 72.7997 23.5766 72.9685C23.9627 73.3544 26.81 73.3544 27.0754 72.9444C27.1719 72.7997 27.3167 70.099 27.3891 66.9883L27.5097 61.3216L29.1747 61.2492C30.164 61.201 30.9602 61.2974 31.105 61.4421C31.2498 61.5868 31.4187 62.4308 31.4911 63.323L31.6117 64.9386L37.2822 65.0592C40.3949 65.1315 43.0974 65.2762 43.2663 65.3727C43.4352 65.4932 43.5559 66.0961 43.5559 66.8918C43.5559 68.8933 43.7731 69.1585 45.4863 69.1585C47.3201 69.1585 47.6579 69.472 47.6579 71.3047C47.6579 72.0522 47.5373 72.7997 47.3684 72.9685C47.1994 73.1373 46.4514 73.2579 45.7034 73.2579C43.8937 73.2579 43.5559 73.5955 43.5559 75.404C43.5559 76.1516 43.4352 76.8991 43.2663 77.0679C43.0733 77.2608 41.8668 77.3572 39.4056 77.3572C36.9438 77.3572 35.977 77.3572 35.5973 77.8294C35.3517 78.1348 35.3518 78.6376 35.3518 79.4657V79.5034C35.3518 81.3843 35.5207 81.4566 39.5504 81.4566C41.8909 81.4566 43.0733 81.5531 43.2663 81.746C43.4594 81.9389 43.5559 83.0481 43.5559 85.1701L43.5557 85.5923C43.5544 87.9682 43.5539 88.8694 43.9906 89.2099C44.2575 89.418 44.6877 89.4167 45.3808 89.4146L45.4704 89.4143L45.6069 89.4142C46.9823 89.4142 47.3925 89.3418 47.5131 89.0283C47.5855 88.8113 47.6579 86.2311 47.6579 83.2892C47.6579 79.4551 47.7303 77.8636 47.9475 77.6466C48.1164 77.4778 48.8885 77.3572 49.7089 77.3572C50.5293 77.3572 51.3015 77.2367 51.4704 77.0679C51.6393 76.8991 51.7599 76.1516 51.7599 75.404C51.7599 73.6196 52.0978 73.2579 53.811 73.2579C55.5242 73.2579 55.862 73.6196 55.862 75.404C55.862 76.1516 55.9826 76.8991 56.1515 77.0679C56.3204 77.2367 57.0684 77.3572 57.8165 77.3572C59.6503 77.3572 59.964 77.0197 59.964 75.187C59.964 74.0295 60.0605 73.7161 60.4225 73.499C61.0498 73.1856 66.8409 73.1856 67.4683 73.499C67.8302 73.7161 67.9268 74.0295 67.9268 75.187C67.9268 77.0438 68.2404 77.3572 70.0743 77.3572C70.9188 77.3572 71.5944 77.2367 71.7151 77.0438C71.8599 76.8991 72.0288 76.1033 72.1012 75.3317C72.1736 74.56 72.3666 73.7884 72.5114 73.6437C72.6561 73.499 73.5007 73.3302 74.3935 73.2579L76.0102 73.1373L76.1308 71.5458C76.2756 69.4961 76.5651 69.1585 78.206 69.1585C79.895 69.1585 80.2328 69.5203 80.2328 71.3047C80.2328 72.0522 80.3535 72.7997 80.5224 72.9685C80.9326 73.3785 87.7371 73.3785 88.1473 72.9685C88.3162 72.7997 88.4369 72.0281 88.4369 71.16C88.4369 69.3997 88.7023 69.1585 90.4638 69.1585C91.9839 69.1585 92.5389 69.7373 92.5389 71.3047C92.5389 73.1856 92.6113 73.2579 94.4452 73.2579C95.3862 73.2579 96.1825 73.1373 96.3514 72.9685C96.5444 72.7756 96.6409 71.5699 96.6409 69.1344C96.6409 66.5543 96.7133 65.5174 96.9546 65.3727C97.0994 65.2762 97.9439 65.1315 98.8126 65.0592L100.381 64.9386V63.1301V61.3216L90.7533 61.2492C90.1073 61.245 89.5009 61.2415 88.9316 61.2383C82.4809 61.2014 80.7977 61.1918 80.3691 60.4537C80.2178 60.1931 80.2229 59.8417 80.2297 59.3663C80.2312 59.2607 80.2328 59.149 80.2328 59.0307C80.2328 58.2109 80.3535 57.5357 80.5465 57.391C80.6913 57.2704 82.4528 57.1016 84.4072 57.0534C87.2545 57.0052 88.0267 56.9087 88.1956 56.6194C88.5334 56.0889 88.4851 53.6292 88.1473 53.2917C87.9784 53.1229 87.2063 53.0023 86.3376 53.0023C85.107 53.0023 84.7933 52.93 84.5762 52.5441C84.4555 52.2789 84.3349 50.5668 84.3349 48.7341C84.3349 46.4433 84.2383 45.2859 84.0453 45.093C83.8764 44.9242 83.1043 44.8036 82.2839 44.8036C81.4634 44.8036 80.6913 44.683 80.5224 44.5142C80.3052 44.2972 80.2328 42.6816 80.2328 38.7751C80.2328 35.785 80.1363 33.229 80.0398 33.0602C79.9192 32.8673 78.6885 32.7467 76.3238 32.6985C73.9591 32.6502 72.6803 32.5297 72.4872 32.3367C72.3183 32.168 72.1253 31.2999 72.0529 30.4076L71.9081 28.7679L70.1708 28.6956C68.6506 28.6473 68.4093 28.6956 68.1922 29.1055ZM75.6723 36.846C76.0826 37.0872 76.1308 37.4006 76.1308 40.6801C76.1308 43.4773 76.0584 44.3213 75.793 44.5383C75.5758 44.7071 74.8519 44.8036 73.935 44.7554C72.4149 44.683 72.4149 44.683 72.1977 43.839C72.077 43.3809 72.0288 41.717 72.077 40.1255C72.1736 37.6659 72.2459 37.2319 72.632 36.9425C73.1629 36.5567 74.9967 36.5084 75.6723 36.846ZM43.1698 57.2463C43.4594 57.3669 43.5559 57.7527 43.5559 59.0066C43.5559 59.9471 43.4352 60.7428 43.2663 60.9116C43.0733 61.1045 41.8909 61.201 39.5504 61.201C36.2688 61.201 36.0757 61.1769 35.7379 60.6705C35.3036 60.0676 35.2312 58.2591 35.5931 57.5598C35.8344 57.1499 36.1481 57.1016 39.3332 57.1016C41.2394 57.1016 42.9526 57.174 43.1698 57.2463ZM44.1179 39.2091C43.7481 38.565 43.7974 32.6756 44.1672 32.3305C44.3397 32.1694 45.1531 32.0544 46.1143 32.0544C47.396 32.0544 47.7904 32.1464 47.9136 32.4225C48.2094 33.1357 48.0862 39.0711 47.7658 39.3702C47.5932 39.5312 46.8045 39.6462 45.9172 39.6462C44.6601 39.6462 44.3397 39.5772 44.1179 39.2091ZM51.6233 32.4225C51.3283 33.1357 51.4512 39.0711 51.7708 39.3702C51.9429 39.5312 52.7295 39.6462 53.5654 39.6462C54.4012 39.6462 55.1879 39.5312 55.36 39.3702C55.7779 38.9791 55.7779 32.7216 55.36 32.3305C55.1879 32.1694 54.3766 32.0544 53.4179 32.0544C52.1396 32.0544 51.7462 32.1464 51.6233 32.4225ZM55.6736 42.5132C55.6736 41.3026 55.7742 40.899 56.1262 40.672C56.5787 40.3946 59.3193 40.445 59.5959 40.7477C59.9228 41.0756 59.9982 43.6229 59.7216 44.1778C59.4702 44.6318 59.1936 44.7075 57.861 44.7075C56.9559 44.7075 56.1513 44.5814 55.9753 44.4048C55.7993 44.2283 55.6736 43.4212 55.6736 42.5132ZM60.189 45.0052C60.0649 45.1789 59.8913 46.0224 59.8416 46.8908C59.7672 47.8832 59.5936 48.5531 59.3703 48.7019C59.1718 48.826 58.4027 48.9252 57.6584 48.9252C56.8893 48.9252 56.145 49.0493 55.9713 49.2229C55.7976 49.3966 55.6736 50.1905 55.6736 51.034C55.6736 51.8776 55.7976 52.6715 55.9713 52.8452C56.1698 53.0437 57.4103 53.1429 59.9409 53.1429C63.2902 53.1429 63.6128 53.0933 63.8609 52.6715C63.9849 52.3986 64.109 50.7115 64.109 48.9252C64.109 47.1389 63.9849 45.4518 63.8609 45.1789C63.6376 44.7819 63.315 44.7075 62.0249 44.7075C61.0573 44.7075 60.3627 44.8316 60.189 45.0052ZM88.5715 48.9441C88.5715 46.452 88.6708 45.2059 88.8692 45.0066C89.0429 44.8321 89.8368 44.7075 90.73 44.7075C92.5659 44.7075 92.7892 44.9567 92.7892 47.0002C92.7892 47.7479 92.9133 48.4706 93.0869 48.645C93.2606 48.8195 94.0297 48.9441 94.7988 48.9441C96.9325 48.9441 97.0069 49.0687 97.0069 53.1557C97.0069 55.9219 96.9325 56.6695 96.6347 56.9187C96.1137 57.3424 94.2778 57.5168 93.4839 57.1928C92.8388 56.9436 92.7892 56.819 92.7892 55.5481C92.7892 53.4298 92.5659 53.1806 90.73 53.1806C89.8368 53.1806 89.0429 53.056 88.8692 52.8815C88.6708 52.6822 88.5715 51.4361 88.5715 48.9441ZM97.3231 45.0051C96.9013 45.4018 96.9013 48.2284 97.3231 48.6251C97.6394 48.9226 100.065 49.0466 100.803 48.7739C101.119 48.6499 101.224 48.2532 101.224 46.9638C101.224 45.9968 101.093 45.1786 100.908 45.0051C100.486 44.6083 97.7448 44.6083 97.3231 45.0051ZM105.442 46.9638C105.442 45.9968 105.574 45.1786 105.759 45.0051C106.18 44.6083 108.922 44.6083 109.344 45.0051C109.528 45.1786 109.66 45.9721 109.66 46.8151C109.66 47.6581 109.528 48.4515 109.344 48.6251C109.027 48.9226 106.602 49.0466 105.864 48.7739C105.548 48.6499 105.442 48.2532 105.442 46.9638ZM109.214 49.3221C108.767 49.7686 108.668 51.9023 109.065 52.6714C109.288 53.0684 109.611 53.1428 110.876 53.1428C111.769 53.1428 112.563 53.0188 112.736 52.8451C112.91 52.6714 113.034 51.8775 113.034 51.034C113.034 50.1904 112.91 49.3965 112.736 49.2228C112.29 48.7762 109.685 48.8507 109.214 49.3221ZM100.704 56.0314C100.329 55.4435 100.258 53.5008 100.61 52.785C100.821 52.376 101.126 52.2994 102.417 52.2994C104.247 52.2994 104.575 52.6061 104.599 54.3699C104.599 56.1336 104.223 56.517 102.487 56.517C101.337 56.517 100.985 56.4148 100.704 56.0314ZM11.2142 56.9772C11.0653 57.292 10.9661 61.4579 10.9661 68.8452C10.9661 78.8724 11.0157 80.253 11.363 80.5921C11.8344 81.0523 14.4395 81.1249 14.886 80.6889C15.1093 80.471 15.1838 77.952 15.1838 70.807C15.1838 63.662 15.2582 61.1431 15.4815 60.9251C15.6551 60.7555 16.4242 60.6344 17.1934 60.6344C19.0541 60.6344 19.4014 60.2954 19.4014 58.4788C19.4014 57.728 19.2774 56.9772 19.1037 56.8076C18.9052 56.6139 17.6647 56.517 15.1341 56.517C11.7848 56.517 11.4623 56.5654 11.2142 56.9772ZM105.466 62.8282C105.42 62.023 105.443 61.2178 105.512 61.0568C105.604 60.8037 106.41 60.7347 109.195 60.7347C112.21 60.7347 112.762 60.7807 112.877 61.1028C113.153 61.816 113.038 67.7514 112.739 68.0505C112.578 68.2115 111.841 68.3266 111.013 68.3266C109.31 68.3266 109.103 68.0965 109.103 66.164C109.103 65.4049 108.988 64.8297 108.826 64.7147C108.665 64.6227 107.86 64.4846 107.031 64.4156L105.535 64.3006L105.466 62.8282ZM31.5066 69.4341C31.1792 69.6328 31.0857 70.0302 31.0857 71.2223C31.0857 72.1165 30.9688 72.9113 30.8051 73.0851C30.6414 73.259 29.9398 73.3832 29.2149 73.3832C27.3908 73.3832 26.9933 73.7557 26.9933 75.4446C26.9933 77.5558 27.0868 77.6055 30.8518 77.6055C32.6291 77.6055 34.2427 77.5309 34.4531 77.4564C34.7338 77.3323 34.8273 76.9349 34.8273 75.7427C34.8273 73.7309 35.1547 73.3832 37.0957 73.3832C38.756 73.3832 38.8028 73.3086 38.8028 71.1478C38.8028 69.9556 38.7093 69.6328 38.3585 69.4092C37.7738 69.0863 32.0445 69.0863 31.5066 69.4341ZM100.382 71.2427C100.382 70.4474 100.531 69.9895 100.878 69.6521C101.325 69.2183 101.697 69.1701 104.623 69.1701C106.409 69.1701 108.071 69.2906 108.344 69.4111C108.74 69.628 108.815 69.9413 108.815 71.1704C108.815 72.0381 108.939 72.8093 109.112 72.978C109.286 73.1467 110.005 73.2672 110.749 73.2672C110.9 73.2672 111.041 73.2651 111.172 73.2632H111.172L111.173 73.2632C111.746 73.2547 112.143 73.2488 112.418 73.4291C113.041 73.8372 113.039 75.1994 113.033 79.6445C113.032 80.1318 113.031 80.6562 113.031 81.2204C113.031 85.2934 112.957 88.8121 112.882 89.029C112.758 89.3665 111.99 89.4147 106.806 89.4147L106.132 89.4148H106.132C102.155 89.4164 100.925 89.4169 100.547 88.8495C100.377 88.5953 100.379 88.2271 100.381 87.694C100.382 87.6275 100.382 87.5584 100.382 87.4866C100.382 85.5826 100.407 85.5585 104.549 85.5585C107.079 85.5585 108.319 85.4621 108.517 85.2693C108.716 85.0765 108.815 83.8715 108.815 81.4614C108.815 79.0514 108.716 77.8463 108.517 77.6535C108.344 77.4848 107.649 77.3643 106.93 77.3643C104.946 77.3643 104.846 77.292 104.846 75.6532C104.846 73.701 104.375 73.2672 102.366 73.2672C100.655 73.2672 100.382 73.0021 100.382 71.2427ZM19.7983 73.7847C19.4757 74.1072 19.4013 74.8267 19.4013 77.7046C19.4013 80.1112 19.5005 81.3269 19.699 81.5254C20.096 81.9223 22.9243 81.9223 23.3213 81.5254C23.5197 81.3269 23.619 80.1112 23.619 77.7046C23.619 73.5366 23.5446 73.3877 21.5101 73.3877C20.6418 73.3877 20.0464 73.5118 19.7983 73.7847ZM76.6762 75.5196C76.6762 74.5856 76.7977 74.0109 77.0651 73.7714C77.5026 73.3404 79.5928 73.2446 80.3463 73.6277C80.7352 73.8433 80.8081 74.1546 80.8081 75.3759C80.8081 76.238 80.9296 77.0043 81.0997 77.172C81.3185 77.3875 83.8219 77.4593 90.9191 77.4593C96.169 77.4593 100.617 77.5312 100.836 77.603C101.127 77.7228 101.225 78.1059 101.225 79.3512C101.225 80.2851 101.103 81.0754 100.933 81.243C100.763 81.4107 100.009 81.5304 99.2558 81.5304C98.3808 81.5304 97.7732 81.6501 97.6031 81.8657C97.4086 82.0812 97.3357 83.3265 97.3843 85.7452L97.4572 89.3134L99.11 89.457C100.009 89.5289 100.86 89.6965 101.006 89.8402C101.152 89.9839 101.2 91.5405 101.176 93.7676L101.103 97.4555L99.5232 97.5273C98.6725 97.5752 97.8218 97.7189 97.6517 97.8626C97.2142 98.1979 97.1899 104.999 97.6273 105.43C97.7975 105.598 98.5266 105.717 99.2801 105.717C100.034 105.717 100.763 105.837 100.933 106.005C101.103 106.172 101.225 106.963 101.225 107.897C101.225 109.142 101.127 109.525 100.836 109.645C100.155 109.908 81.7803 109.812 81.2699 109.549C80.881 109.333 80.8081 109.022 80.8081 107.801C80.8081 106.939 80.9296 106.172 81.0997 106.005C81.3185 105.789 82.9712 105.717 87.0545 105.717C92.3774 105.717 92.7177 105.693 92.9607 105.262C93.0823 104.999 93.2038 103.371 93.2038 101.622C93.2038 101.441 93.2041 101.267 93.2045 101.101C93.2081 99.3491 93.2099 98.4656 92.7691 98.0211C92.3209 97.5691 91.415 97.5709 89.588 97.5745H89.5879L89.3357 97.575L89.0476 97.5752C85.0615 97.5752 84.94 97.6471 84.94 99.7066C84.94 100.449 84.8185 101.191 84.6483 101.359C84.4296 101.574 82.8497 101.646 78.9852 101.646C75.072 101.646 73.4922 101.718 73.2005 101.934C72.9575 102.125 72.7387 102.724 72.6415 103.442L72.6196 103.64L72.606 103.763L72.6055 103.768C72.4847 104.867 72.4318 105.348 72.1654 105.558C71.9581 105.721 71.6214 105.72 71.0226 105.718H71.0226C70.9504 105.718 70.8743 105.717 70.7943 105.717C68.8499 105.717 68.4124 106.077 68.4124 107.705C68.4124 109.381 68.8499 109.788 70.5998 109.788C71.3533 109.788 72.0825 109.908 72.2526 110.076C72.6415 110.459 72.6415 113.189 72.2526 113.572C71.8394 113.979 61.0965 113.979 60.6833 113.572C60.2944 113.189 60.2944 110.459 60.6833 110.076C60.8534 109.908 61.6069 109.788 62.3603 109.788C64.1589 109.788 64.5235 109.453 64.5235 107.825C64.5235 106.077 64.1103 105.717 62.2145 105.717C60.4402 105.717 60.3916 105.646 60.3916 103.562C60.3916 102.413 60.4888 102.101 60.8534 101.886C61.1208 101.766 62.7492 101.646 64.4992 101.646C66.2249 101.646 67.8047 101.574 68.0235 101.503C68.3151 101.383 68.4124 101 68.4124 99.8503C68.4124 97.6471 68.5096 97.5992 72.9088 97.5273L76.5546 97.4555L76.6276 93.7197L76.6762 89.9839L75.9713 89.6726C75.5095 89.481 74.2213 89.4091 72.1797 89.481C68.5582 89.5768 68.4124 89.6486 68.4124 91.8518C68.4124 92.6899 68.2908 93.3126 68.1207 93.4323C67.9506 93.5281 65.2284 93.6718 62.093 93.7436L56.3812 93.8634L56.3083 95.3721C56.2111 97.3358 56.4298 97.5752 58.2284 97.5752C59.3951 97.5752 59.6868 97.671 60.0027 98.1021C60.4402 98.7008 60.5131 100.114 60.1486 101.024C59.9298 101.598 59.784 101.646 58.5687 101.646C56.5028 101.646 56.2597 101.862 56.2597 103.634C56.2597 104.496 56.3812 105.262 56.5514 105.43C56.7215 105.598 57.475 105.717 58.2284 105.717C60.1486 105.717 60.4645 106.077 60.343 107.945C60.2701 108.807 60.0999 109.429 59.8812 109.573C59.6868 109.693 58.9333 109.788 58.2041 109.788C57.4507 109.788 56.7215 109.908 56.5514 110.076C56.3812 110.243 56.2597 111.01 56.2597 111.824C56.2597 112.638 56.1382 113.405 55.968 113.572C55.7493 113.788 54.1208 113.86 50.1591 113.86C45.4438 113.86 44.5688 113.812 44.2529 113.476C43.9126 113.165 43.864 111.944 43.864 103.897C43.864 97.9823 43.9612 94.51 44.107 94.1986C44.3258 93.8155 44.6418 93.7436 46.0272 93.7436C47.3397 93.7436 47.7285 93.8394 47.8501 94.1268C47.923 94.3423 47.9959 95.9708 47.9959 97.7908C47.9959 100.018 48.0931 101.167 48.2876 101.359C48.6764 101.742 51.4473 101.742 51.8361 101.359C52.2493 100.952 52.2493 94.4381 51.8361 94.031C51.666 93.8634 50.9611 93.7436 50.232 93.7436C48.239 93.7436 47.9959 93.5281 47.9959 91.7081C47.9959 89.5289 48.166 89.4331 52.5167 89.4331C55.4333 89.4331 55.9923 89.3852 56.1139 89.0499C56.3812 88.3794 56.2597 86.1762 55.968 85.8889C55.7979 85.7212 55.0444 85.6015 54.291 85.6015C52.5167 85.6015 52.1278 85.2662 52.1278 83.6617C52.1278 82.8132 52.1278 82.3025 52.3778 81.9951C52.7557 81.5304 53.7051 81.5304 56.0896 81.5304C57.9854 81.5304 59.6868 81.6262 59.8812 81.7459C60.0999 81.8896 60.2701 82.5362 60.343 83.4941C60.3916 84.3323 60.5617 85.1465 60.6833 85.2902C61.0235 85.7212 71.8394 85.7212 72.2526 85.3141C72.447 85.1225 72.5443 83.997 72.5443 81.8657C72.5443 80.1175 72.6415 78.4172 72.7873 78.082C73.0061 77.5072 73.1276 77.4593 74.5616 77.4593C75.4366 77.4593 76.2144 77.3396 76.3845 77.172C76.5546 77.0043 76.6762 76.262 76.6762 75.5196ZM93.2038 87.5412C93.2038 83.087 93.1552 82.2249 92.8149 81.9136C92.4989 81.5783 91.6239 81.5304 86.9087 81.5304C82.9469 81.5304 81.3185 81.6023 81.0997 81.8178C80.881 82.0333 80.8081 83.6378 80.8081 87.5173C80.8081 92.4744 80.8567 92.9773 81.2456 93.3365C81.6345 93.6957 82.4122 93.7436 86.9573 93.7436C91.9156 93.7436 92.2559 93.7197 92.7177 93.2647C93.1795 92.8097 93.2038 92.4744 93.2038 87.5412ZM52.1278 107.633C52.1278 106.484 52.0306 106.172 51.666 105.957C51.0098 105.622 48.6521 105.646 48.2876 106.005C48.1174 106.172 47.9959 106.939 47.9959 107.801C47.9959 109.549 48.2389 109.788 50.1591 109.788C51.7875 109.788 52.1278 109.405 52.1278 107.633ZM84.6536 85.5136C84.3562 85.8299 84.2323 88.2551 84.5049 88.9932C84.6288 89.3359 85.05 89.415 86.4625 89.415C87.8749 89.415 88.2962 89.3359 88.4201 88.9932C88.6926 88.2551 88.5687 85.8299 88.2714 85.5136C88.0979 85.3291 87.305 85.1973 86.4625 85.1973C85.62 85.1973 84.827 85.3291 84.6536 85.5136ZM60.1673 80.6833C59.7992 80.2883 59.7992 77.4735 60.1673 77.0784C60.4663 76.7574 66.4018 76.634 67.1149 76.9303C67.391 77.0537 67.483 77.4488 67.483 78.7327C67.483 79.6957 67.368 80.5105 67.207 80.6833C67.0229 80.8808 65.8957 80.9796 63.6871 80.9796C61.4786 80.9796 60.3513 80.8808 60.1673 80.6833ZM11.1282 85.3676C10.8851 85.5866 10.9337 113.228 11.1525 113.617C11.3227 113.861 14.3374 113.909 25.4481 113.861L39.5248 113.788L39.5977 99.4803L39.6463 85.1973H25.4724C17.6682 85.1973 11.2011 85.2703 11.1282 85.3676ZM35.4647 99.5046L35.5133 109.773L25.3751 109.724L15.2126 109.651L15.1397 99.5046C15.0911 90.0151 15.1154 89.3581 15.5044 89.2608C15.7475 89.1878 20.3182 89.1634 25.6669 89.1878L35.3917 89.2121L35.4647 99.5046ZM19.4013 105.442V99.5374V93.6327L25.6782 93.6799L31.9303 93.7507L32.0047 99.5847L32.0544 105.442H25.7278H19.4013ZM105.662 97.3663C105.5 97.5892 105.408 98.382 105.454 99.4224L105.523 101.107L107.026 101.231C107.858 101.305 108.666 101.454 108.828 101.553C108.99 101.677 109.105 102.346 109.105 103.312C109.105 104.179 109.221 104.971 109.383 105.145C109.753 105.541 112.387 105.541 112.757 105.145C112.942 104.947 113.034 103.708 113.034 101.181C113.034 97.837 112.988 97.5149 112.595 97.2672C111.879 96.8708 105.986 96.9451 105.662 97.3663ZM100.381 103.358C100.381 102.539 100.521 102.068 100.849 101.721C101.201 101.349 101.623 101.224 102.49 101.224C104.036 101.224 104.599 101.795 104.599 103.358C104.599 105.219 104.364 105.442 102.49 105.442C100.615 105.442 100.381 105.219 100.381 103.358ZM72.9277 105.681C72.6466 105.855 72.5443 106.354 72.5443 107.551C72.5443 108.748 72.6466 109.247 72.9277 109.422C73.4901 109.771 76.0974 109.721 76.4553 109.372C76.6342 109.197 76.762 108.399 76.762 107.551C76.762 106.703 76.6342 105.905 76.4553 105.73C76.0974 105.381 73.4901 105.331 72.9277 105.681ZM104.84 107.143C104.84 106.224 104.964 105.677 105.163 105.603C105.784 105.329 108.217 105.429 108.515 105.727C108.689 105.901 108.813 106.671 108.813 107.441C108.813 109.305 109.161 109.653 111.023 109.653C111.792 109.653 112.562 109.777 112.736 109.951C112.91 110.125 113.034 110.92 113.034 111.765C113.034 112.61 112.91 113.405 112.736 113.579C112.512 113.803 110.849 113.878 106.802 113.878C101.24 113.878 101.141 113.878 100.768 113.331C100.321 112.71 100.247 110.846 100.619 110.125C100.843 109.728 101.166 109.653 102.481 109.653C104.443 109.653 104.84 109.231 104.84 107.143Z" fill="#FFF8ED"/>
<path fill-rule="evenodd" clip-rule="evenodd" d="M12.3179 0H111.682C118.485 0 124 5.55242 124 12.4017V112.442C124 119.291 118.485 124.844 111.682 124.844H12.3179C5.5149 124.844 0 119.291 0 112.442V12.4017C0 5.55242 5.51491 0 12.3179 0ZM12.3179 6.82092C9.25654 6.82092 6.77483 9.31951 6.77483 12.4017V112.442C6.77483 115.524 9.25654 118.023 12.3179 118.023H111.682C114.743 118.023 117.225 115.524 117.225 112.442V12.4017C117.225 9.31951 114.743 6.82092 111.682 6.82092H12.3179Z" fill="#FFF8ED"/>
</svg>
