<svg width="642" height="651" viewBox="0 0 642 651" fill="none" xmlns="http://www.w3.org/2000/svg">
<path d="M249.945 105.297C324.177 18.3856 453.078 13.3715 508.25 21.7283L642 0V240.678C632.247 250.706 607.727 278.284 587.664 308.368C562.586 345.974 582.648 467.985 587.664 502.248C591.677 529.658 621.659 612.837 636.148 651C618.872 646.264 581.311 622.085 569.273 563.253C554.227 489.712 565.094 320.904 558.406 328.425C551.719 335.946 535 364.359 519.117 458.792C506.411 534.338 475.927 567.71 462.273 574.953C475.37 555.732 502.9 497.568 508.25 418.679C513.457 341.903 542.311 280.535 557.209 257.531C552.974 263.164 541.231 273.144 519.117 279.119C494.373 285.805 474.812 356.003 468.125 390.266C468.125 371.881 470.633 326.586 480.664 292.49C493.203 249.87 548.375 262.406 543.359 240.678C539.347 223.296 513.823 197.779 501.562 187.194C491.81 208.643 463.945 255.386 430.508 270.763C397.07 286.139 402.643 310.597 409.609 320.904C433.294 342.074 456.589 393.943 360.289 432.05C263.989 470.157 223.195 584.424 214.836 636.793C212.328 626.765 212.495 588.825 233.227 517.29C259.141 427.872 372.828 418.679 377.844 377.73C382.859 336.782 359.453 341.796 328.523 356.838C297.594 371.881 249.945 376.895 214.836 341.796C179.835 306.805 125.725 389.752 112.969 409.307L112.852 409.487C102.82 424.863 56.2865 422.022 34.2734 418.679C50.1562 413.386 85.6 400.294 100.312 390.266C118.703 377.73 135.422 322.575 168.023 308.368C200.625 294.162 238.242 322.575 279.203 328.425C320.164 334.275 257.469 290.819 238.242 286.641C219.016 282.462 183.906 270.763 125.391 270.763C78.5781 270.763 58.5156 290.819 54.3359 300.847C54.3359 296.39 62.3609 282.462 94.4609 262.406C134.586 237.335 198.953 259.899 233.227 255.72C267.5 251.542 291.742 262.406 341.062 270.763C390.383 279.119 454.75 203.908 468.125 166.302C481.5 128.696 420.477 149.588 420.477 166.302C420.477 183.015 394.562 211.429 372.828 213.936C355.441 215.941 344.406 232.599 341.062 240.678C339.391 207.25 394.562 180.508 394.562 166.302C394.562 152.095 426.328 132.874 409.609 137.888C393.156 142.823 390.466 146.948 378.434 165.396L377.844 166.302C367.812 181.678 326.294 186.637 306.789 187.194C317.656 182.18 342.734 173.823 377.844 132.874C412.953 91.9255 491.531 105.297 480.664 72.7048C471.97 46.6309 462.273 51.1896 377.844 72.7048C249.945 105.297 324.344 162.241 185.578 197.222C81.6235 223.428 18.6693 292.212 0 328.425C8.91667 309.483 32.2672 264.411 54.3359 235.664C81.9219 199.729 157.156 213.936 249.945 105.297Z" fill="#791913" fill-opacity="0.42"/>
</svg>
