<svg width="242" height="198" viewBox="0 0 242 198" fill="none" xmlns="http://www.w3.org/2000/svg">
<path fill-rule="evenodd" clip-rule="evenodd" d="M47 39.3542H60.8685C59.1875 62.8194 63.1379 105.299 92.3879 87.4958C121.638 69.6925 95.0496 43.4417 78.0991 32.5417L92.3879 28C99.9526 32.2389 116.091 46.6208 120.125 70.2375C125.168 99.7583 159.209 144.267 187.787 133.821L170.136 52.0708H242V197.691H193.918V163.89C172.649 163.89 146.926 150.004 128.697 131.812L111.803 146L108 140.958L123.924 126.756C114.387 116.01 107.625 104.152 105.836 92.9458C99.8125 100.818 85.0754 115.109 74.3168 109.296C72.4757 108.301 70.6267 107.536 68.8065 106.783C57.3312 102.035 47 97.7607 47 39.3542Z" fill="#FFA775"/>
<path d="M142.205 53.852C129.741 58.3995 106.679 75.2368 114.141 106.207C126.162 101.682 148.603 84.8755 142.205 53.852Z" fill="#556645"/>
<path d="M156.976 84.6327C158.37 93.6867 155.855 113.241 134.633 119.028C133.373 110.25 136.076 91.0807 156.976 84.6327Z" fill="#556645"/>
<path d="M147.406 27.5025C129.376 24.2487 90.154 28.2746 77.5051 70.4082C94.991 73.38 133.452 68.9592 147.406 27.5025Z" fill="#556645"/>
<path d="M27.595 49.4437C23.1087 51.7714 15.2199 59.2607 19.5548 70.5957C23.8747 68.2981 31.5307 60.851 27.595 49.4437Z" fill="#556645"/>
<path d="M172.122 83.6123C179.48 92.6932 189.282 115.861 169.62 135.886C162.586 127.023 153.239 104.159 172.122 83.6123Z" fill="#556645"/>
<path d="M80.8193 84.1087C67.6994 86.0808 41.7455 97.984 42.8891 129.82C55.5702 127.781 80.9097 115.785 80.8193 84.1087Z" fill="#556645"/>
<path d="M159.445 132.401C162.616 140.996 164.046 160.66 144.404 170.56C141.42 162.209 140.25 142.885 159.445 132.401Z" fill="#556645"/>
<path d="M71.1462 65.2021C62.4031 62.4681 42.6941 62.0297 33.8032 82.1482C42.2938 84.7085 61.6493 84.9038 71.1462 65.2021Z" fill="#556645"/>
<path d="M27.1017 44.3039C22.8395 42.2337 12.7918 40.4952 6.69769 50.1025C10.844 52.0644 20.7297 53.6513 27.1017 44.3039Z" fill="#556645"/>
<path d="M174.818 131.98C179.374 136.357 186.187 148.125 176.985 160.186C172.617 155.904 166.07 144.268 174.818 131.98Z" fill="#556645"/>
<path d="M214.791 126.893C218.83 129.369 225.706 136.901 220.896 147.211C217.01 144.773 210.349 137.297 214.791 126.893Z" fill="#556645"/>
<path d="M103.018 84.3339C95.3889 89.4051 82.6363 104.442 92.6596 124.022C99.9949 119.038 112.336 104.122 103.018 84.3339Z" fill="#556645"/>
<path d="M151.548 119.008C151.019 125.303 146.17 138.006 131.008 138.451C131.582 132.362 136.494 119.949 151.548 119.008Z" fill="#556645"/>
<path d="M19.3701 41.582C-3.23916 33.359 -1.4786 16.9754 2.22784 9.81148V3.27049L232.953 0C234.498 39.5574 236.66 117.364 232.953 112.131C228.32 105.59 208.862 114 208.398 122.41C207.935 130.82 206.082 140.164 197.742 135.959C189.403 131.754 191.719 105.59 188.476 97.6475C185.233 89.7049 169.017 106.057 146.316 55.1311C123.614 4.20492 85.1594 41.582 83.7694 48.123C82.3795 54.6639 60.6042 62.1393 55.9712 48.123C51.3381 34.1066 47.6317 51.8607 19.3701 41.582Z" fill="#556645"/>
</svg>
