<svg id="emUW1VJYOjn1" xmlns="http://www.w3.org/2000/svg" xmlns:xlink="http://www.w3.org/1999/xlink" viewBox="0 0 249 283" shape-rendering="geometricPrecision" text-rendering="geometricPrecision"><g id="emUW1VJYOjn2" transform="matrix(0.999997 0.002251 -0.002251 0.999997 0.261086 -0.213558)"><path id="emUW1VJYOjn3" d="M150,154.852L150,147.124C150,142.875,146.564,139.395,142.27,139.395L142.27,137L49.7304,137L49.7304,139.395C45.481,139.395,42,142.83,42,147.124L42,154.852C42,157.925,43.7631,160.547,46.3851,161.812C46.6563,161.948,46.8372,162.264,46.8372,162.58C46.8372,162.897,46.6563,163.213,46.3851,163.349C43.8083,164.614,42,167.235,42,170.309L42,178.037C42,181.11,43.7631,183.732,46.3851,184.997C46.6563,185.133,46.8372,185.449,46.8372,185.765C46.8372,186.082,46.6563,186.398,46.3851,186.534C43.8083,187.799,42,190.421,42,193.494L42,201.222C42,204.295,43.7631,206.917,46.3851,208.182C46.6563,208.318,46.8372,208.634,46.8372,208.951C46.8372,209.267,46.6563,209.583,46.3851,209.719C43.8083,210.984,42,213.606,42,216.679C42,225.085,48.9167,232,57.4157,232L134.584,232C143.129,232,150,225.085,150,216.588C150,213.515,148.237,210.894,145.615,209.628C145.344,209.493,145.163,209.176,145.163,208.86C145.163,208.544,145.344,208.227,145.615,208.092C148.192,206.826,150,204.205,150,201.132L150,193.403C150,190.33,148.237,187.709,145.615,186.443C145.344,186.308,145.163,185.991,145.163,185.675C145.163,185.359,145.344,185.042,145.615,184.907C148.192,183.641,150,181.02,150,177.947L150,170.218C150,167.145,148.237,164.524,145.615,163.258C145.344,163.123,145.163,162.806,145.163,162.49C145.163,162.174,145.344,161.857,145.615,161.722C148.237,160.547,150,157.925,150,154.852Z" fill="rgb(162,210,255)" fill-opacity="0.66" stroke="none" stroke-width="1" stroke-miterlimit="1"/><path id="emUW1VJYOjn4" d="M145.696,161.49C148.225,160.221,150,157.591,150,154.508L150,146.754C150,142.491,146.628,139,142.413,139L131.543,139C135.713,139,139.13,142.446,139.13,146.754L139.13,154.508C139.13,157.591,137.399,160.221,134.826,161.49C134.56,161.627,134.382,161.944,134.382,162.261C134.382,162.579,134.56,162.896,134.826,163.032C137.355,164.302,139.13,166.932,139.13,170.015L139.13,177.769C139.13,180.852,137.399,183.482,134.826,184.752C134.56,184.888,134.382,185.205,134.382,185.523C134.382,185.84,134.56,186.157,134.826,186.294C137.355,187.563,139.13,190.193,139.13,193.276L139.13,201.03C139.13,204.114,137.399,206.744,134.826,208.013C134.56,208.149,134.382,208.467,134.382,208.784C134.382,209.101,134.56,209.419,134.826,209.555C137.355,210.824,139.13,213.454,139.13,216.538C139.13,225.108,132.341,232,124,232L134.87,232C143.256,232,150,225.062,150,216.538C150,213.454,148.27,210.824,145.696,209.555C145.43,209.419,145.253,209.101,145.253,208.784C145.253,208.467,145.43,208.149,145.696,208.013C148.225,206.744,150,204.114,150,201.03L150,193.276C150,190.193,148.27,187.563,145.696,186.294C145.43,186.157,145.253,185.84,145.253,185.523C145.253,185.205,145.43,184.888,145.696,184.752C148.225,183.482,150,180.852,150,177.769L150,170.015C150,166.932,148.27,164.302,145.696,163.032C145.43,162.896,145.253,162.579,145.253,162.261C145.208,161.944,145.386,161.627,145.696,161.49Z" fill="rgb(160,198,255)" stroke="none" stroke-width="1" stroke-miterlimit="1"/><path id="emUW1VJYOjn5" d="M126.396,159L43,159C43.7659,160.181,44.8472,161.144,46.1538,161.756C46.4241,161.888,46.6044,162.194,46.6044,162.5C46.6044,162.806,46.4241,163.113,46.1538,163.244C44.8472,163.856,43.7659,164.819,43,166L126.396,166C128.378,166,130,164.425,130,162.5C130,160.575,128.423,159,126.396,159Z" fill="rgb(160,198,255)" stroke="none" stroke-width="1" stroke-miterlimit="1"/><path id="emUW1VJYOjn6" d="M145.846,184.756C147.153,184.144,148.234,183.181,149,182L65.6043,182C63.622,182,62,183.575,62,185.5C62,187.425,63.622,189,65.6043,189L149,189C148.234,187.819,147.153,186.856,145.846,186.244C145.576,186.112,145.396,185.806,145.396,185.5C145.351,185.194,145.531,184.887,145.846,184.756Z" fill="rgb(160,198,255)" stroke="none" stroke-width="1" stroke-miterlimit="1"/><path id="emUW1VJYOjn7" d="M126.396,205L43,205C43.7659,206.181,44.8472,207.144,46.1538,207.756C46.4241,207.888,46.6044,208.194,46.6044,208.5C46.6044,208.806,46.4241,209.113,46.1538,209.244C44.8472,209.856,43.7659,210.819,43,212L126.396,212C128.378,212,130,210.425,130,208.5C130,206.575,128.423,205,126.396,205Z" fill="rgb(160,198,255)" stroke="none" stroke-width="1" stroke-miterlimit="1"/><path id="emUW1VJYOjn8" d="M146.157,139L45.8426,139C43.7179,139,42,137.294,42,135.183L42,89.1973C42,87.0866,43.7179,85.3801,45.8426,85.3801L45.8426,83L146.157,83L146.157,85.3801C148.282,85.3801,150,87.0866,150,89.1973L150,135.183C150,137.294,148.282,139,146.157,139Z" fill="rgb(103,166,193)" stroke="none" stroke-width="1" stroke-miterlimit="1"/><path id="emUW1VJYOjn9" d="M146.136,85.3801L146.136,83L135,83L135,85.3801C137.136,85.3801,138.864,87.0866,138.864,89.1973L138.864,135.183C138.864,137.294,137.136,139,135,139L146.136,139C148.273,139,150,137.294,150,135.183L150,89.2422C150,87.1315,148.273,85.3801,146.136,85.3801Z" fill="rgb(60,152,191)" stroke="none" stroke-width="1" stroke-miterlimit="1"/><path id="emUW1VJYOjn10" d="M119,23L73,23L73,7.1875C73,3.23437,76.2344,0,80.1875,0L111.812,0C115.766,0,119,3.23437,119,7.1875L119,23Z" fill="rgb(237,246,255)" stroke="none" stroke-width="1" stroke-miterlimit="1"/><path id="emUW1VJYOjn11" d="M81,20L112,20L112,41L81,41L81,20Z" fill="rgb(160,198,255)" stroke="none" stroke-width="1" stroke-miterlimit="1"/><path id="emUW1VJYOjn12" d="M80.5617,39C59.2692,39,42,56.1602,42,77.3633L42,81.1816C42,83.293,43.7179,85,45.8426,85L146.157,85C148.282,85,150,83.293,150,81.1816L150,77.3633C150,56.2051,132.731,39.0449,111.438,39.0449L80.5617,39.0449L80.5617,39Z" fill="rgb(162,210,255)" fill-opacity="0.66" stroke="none" stroke-width="1" stroke-miterlimit="1"/><path id="emUW1VJYOjn13" d="M119,23L73,23L73,7.1875C73,3.23437,76.2344,0,80.1875,0L111.812,0C115.766,0,119,3.23437,119,7.1875L119,23Z" fill="rgb(237,246,255)" stroke="none" stroke-width="1" stroke-miterlimit="1"/><path id="emUW1VJYOjn14" d="M111.19,0L100,0C104.293,0,107.81,3.41406,107.81,7.68164L107.81,23L119,23L119,7.68164C119,3.41406,115.483,0,111.19,0Z" fill="rgb(216,226,243)" stroke="none" stroke-width="1" stroke-miterlimit="1"/><path id="emUW1VJYOjn15" d="M119.351,27L72.6487,27C70.6419,27,69,25.425,69,23.5C69,21.575,70.6419,20,72.6487,20L119.351,20C121.358,20,123,21.575,123,23.5C123,25.425,121.358,27,119.351,27Z" fill="rgb(216,226,243)" stroke="none" stroke-width="1" stroke-miterlimit="1"/><path id="emUW1VJYOjn16" d="M111.157,39L100,39C121.448,39,138.843,56.1769,138.843,77.3558L138.843,81.1779C138.843,83.2913,137.113,85,134.973,85L146.129,85C148.27,85,150,83.2913,150,81.1779L150,77.3558C150,56.1769,132.605,39,111.157,39Z" fill="rgb(160,198,255)" stroke="none" stroke-width="1" stroke-miterlimit="1"/><path id="emUW1VJYOjn17" d="M116.675,134L75.325,134C71.8463,134,69,129.249,69,123.443L69,99.5572C69,93.7507,71.8463,89,75.325,89L116.675,89C120.154,89,123,93.7507,123,99.5572L123,123.443C123,129.249,120.154,134,116.675,134Z" fill="rgb(237,246,255)" stroke="none" stroke-width="1" stroke-miterlimit="1"/><path id="emUW1VJYOjn18" d="M92.1974,97.0883C92.1513,97.1397,92.1184,97.375,92.1184,97.625C92.1184,97.875,92.0855,98.1103,92.0395,98.1618C91.9934,98.2133,91.7895,98.25,91.5855,98.25C91.1053,98.25,91,98.353,91,98.8456C91,99.4265,91.0658,99.5,91.5461,99.5C91.7829,99.5,91.9934,99.5368,92.0395,99.5882C92.0855,99.6397,92.1184,99.8677,92.1184,100.096C92.1184,100.654,92.0263,100.75,91.5263,100.75C91.1974,100.75,91.125,100.772,91.0592,100.904C90.9605,101.118,91.0132,101.846,91.1382,101.934C91.2697,102.022,92.9539,102.015,93.1118,101.926C93.2303,101.853,93.2368,101.75,93.2368,100.162L93.2368,100.033C93.2366,98.7983,93.2366,98.4183,93.4119,98.3015C93.4898,98.2497,93.6023,98.2498,93.7648,98.25L93.7961,98.25C94.3355,98.25,94.3553,98.2868,94.3553,99.5368C94.3553,100.507,94.3684,100.603,94.4803,100.676C94.5526,100.713,94.9868,100.75,95.4539,100.75C96.5197,100.75,96.5921,100.706,96.5921,100.096C96.5921,99.8677,96.625,99.6397,96.6711,99.5882C96.7829,99.4632,99.6908,99.4632,99.8026,99.5882C99.8487,99.6397,99.8816,99.875,99.8816,100.14C99.8816,100.684,99.8158,100.75,99.2566,100.75C98.9211,100.75,98.8882,100.765,98.8224,100.949C98.7368,101.191,98.7829,101.735,98.8947,101.89C98.9605,101.978,99.1579,102,99.8618,102C100.349,102,100.803,101.963,100.875,101.926C100.993,101.853,101,101.743,101,99.5147C101,97.7941,100.98,97.1544,100.921,97.0883C100.875,97.0368,100.671,97,100.467,97C99.9737,97,99.8816,97.103,99.8816,97.6544C99.8816,97.8824,99.8487,98.1103,99.8026,98.1618C99.7171,98.2574,99.0395,98.2794,98.9145,98.1912C98.8684,98.1544,98.8092,97.9191,98.7895,97.6544C98.7632,97.3971,98.7171,97.1397,98.6776,97.0883C98.6447,97.0368,98.4605,97,98.2368,97C97.7434,97,97.6447,97.1177,97.6447,97.7133C97.6447,98.0515,97.6184,98.1691,97.5395,98.2059C97.3355,98.2941,95.6382,98.2574,95.5526,98.1618C95.5066,98.1103,95.4737,97.8824,95.4737,97.6544L95.4737,97.611C95.474,97.3998,95.4742,97.2616,95.4086,97.1711C95.2842,96.9998,94.9236,96.9998,93.8798,97L93.7697,97C92.6974,97,92.2566,97.0221,92.1974,97.0883ZM82.0407,104.891C81.9864,104.749,81.9864,97.236,82.0407,97.1002C82.0814,96.9984,82.4746,96.9917,86.0271,97.0052L89.9661,97.0256L89.9864,101.009L90,105L86.0407,105C82.4949,105,82.0814,104.986,82.0407,104.891ZM88.8475,103.846L88.8475,100.996L88.8475,98.1454L86.0339,98.1454C83.8373,98.1454,83.2068,98.1658,83.1864,98.2336C83.1661,98.2743,83.1593,99.5503,83.1661,101.064L83.1864,103.812L86.0203,103.833L88.8475,103.846ZM84,100.501C84,99.7098,84.0176,99.0488,84.0412,99.0251C84.0647,99.0074,84.7294,98.9956,85.5235,99.0015L86.9706,99.0192L86.9882,100.471L87,101.929L86.8706,101.965C86.6941,102.012,84.2118,102.012,84.0941,101.965C84.0118,101.935,84,101.746,84,100.501ZM102.003,101.063C101.996,98.9187,102.003,97.1201,102.023,97.0726C102.043,97.0047,102.878,96.9912,106.008,97.0047L109.966,97.0251L109.986,101.016L110,105L106.015,104.986L102.023,104.966L102.003,101.063ZM108.846,103.846L108.846,100.996L108.846,98.145L106.042,98.145C104.494,98.145,103.211,98.1653,103.191,98.1925C103.163,98.2128,103.143,99.4956,103.143,101.043L103.143,103.846L105.994,103.846L108.846,103.846ZM104.041,99.0251C104.018,99.0488,104,99.7098,104,100.501C104,101.746,104.012,101.935,104.094,101.965C104.212,102.012,106.694,102.012,106.871,101.965L107,101.929L106.988,100.471L106.971,99.0192L105.524,99.0015C104.729,98.9956,104.065,99.0074,104.041,99.0251ZM94,102.474C94,102.201,94.0235,102.054,94.0765,102.036C94.1118,102.018,94.3118,102,94.5118,102C94.9412,101.994,95,102.054,95,102.491C95,102.84,94.8529,103,94.5353,103C94.4059,103,94.2353,102.976,94.1529,102.941C94.0118,102.888,94,102.858,94,102.474ZM98.0001,102.119C97.9597,102.193,97.9259,102.416,97.9259,102.625C97.9259,102.848,97.8922,103.017,97.845,103.05C97.7978,103.077,97.3053,103.118,96.7453,103.138L95.7333,103.172L95.7333,104.252L95.7333,105.332L96.1921,105.352C96.7925,105.379,96.8465,105.332,96.8465,104.785C96.8465,104.292,96.9207,104.218,97.3862,104.218L97.4408,104.218C97.596,104.217,97.7016,104.217,97.7735,104.266C97.9266,104.371,97.9264,104.699,97.926,105.729L97.9259,105.906C97.9259,107.215,97.9394,107.465,98.0339,107.552C98.1216,107.647,98.3645,107.66,99.6193,107.66C100.517,107.66,101.158,107.687,101.238,107.728C101.346,107.789,101.367,107.876,101.367,108.221C101.367,108.464,101.333,108.68,101.286,108.727C101.225,108.788,100.652,108.808,99.1066,108.808C97.5616,108.808,96.9882,108.828,96.9275,108.889C96.8802,108.936,96.8465,109.152,96.8465,109.395C96.8465,109.793,96.86,109.827,97.0219,109.888C97.1164,109.928,97.8247,109.955,98.6006,109.955C99.3764,109.955,100.051,109.976,100.112,109.996C100.193,110.03,100.22,110.138,100.22,110.489C100.22,110.752,100.186,110.974,100.139,111.022C100.085,111.076,99.7475,111.103,99.0594,111.103C98.1486,111.103,98.0609,111.116,97.9934,111.231C97.9597,111.305,97.9259,111.784,97.9259,112.304C97.9259,113.101,97.9124,113.256,97.818,113.29C97.6089,113.371,95.8683,113.337,95.7805,113.249C95.7333,113.202,95.6996,113.006,95.6996,112.81C95.6996,112.223,95.6254,112.183,94.4582,112.183C93.6352,112.183,93.48,112.169,93.4463,112.075C93.372,111.886,93.4058,111.265,93.4867,111.184C93.5407,111.13,93.8713,111.103,94.5257,111.103C95.4432,111.103,95.4972,111.096,95.5916,110.954C95.7131,110.785,95.7333,110.387,95.6389,110.138C95.5715,109.969,95.5647,109.969,94.5551,109.949L94.5527,109.949C93.7431,109.928,93.5205,109.901,93.4732,109.82C93.4395,109.766,93.4058,109.301,93.4058,108.794C93.4058,107.714,93.4328,107.66,93.9522,107.66L94.0064,107.66C94.0171,107.793,94.0408,107.9,94.0706,107.929C94.1176,107.976,94.4118,108,95.0118,108C95.8059,108,95.8824,107.988,95.9412,107.888C95.9706,107.824,96,107.424,96,107C96,106.576,95.9706,106.176,95.9412,106.112C95.8882,106.018,95.8118,106,95.5059,106C95.2765,106,95.1118,106.029,95.0706,106.071C95.0412,106.112,95,106.312,94.9882,106.518C94.9706,106.753,94.9294,106.912,94.8765,106.947C94.8365,106.972,94.6992,106.993,94.5507,106.998C94.5428,106.799,94.5122,106.635,94.4717,106.594C94.411,106.533,93.7026,106.513,91.7124,106.513L91.2539,106.513C89.4331,106.512,88.9688,106.511,88.8534,106.712C88.8139,106.781,88.8153,106.873,88.8172,106.996C88.8177,107.025,88.8181,107.055,88.8181,107.087C88.8181,107.566,88.9193,107.66,89.4186,107.66C89.6277,107.66,89.8369,107.694,89.8841,107.741C89.9313,107.789,89.9651,108.005,89.9651,108.234C89.9651,108.464,89.9313,108.68,89.8841,108.727C89.8301,108.781,89.5063,108.808,88.8789,108.808C88.3661,108.808,87.9074,108.828,87.8466,108.848C87.7657,108.882,87.7387,108.99,87.7387,109.314C87.7387,109.611,87.705,109.76,87.6308,109.82C87.5228,109.915,86.8077,109.942,86.6728,109.861C86.5581,109.793,86.5581,107.856,86.6728,107.741C86.72,107.694,86.9291,107.66,87.1383,107.66C87.6375,107.66,87.7387,107.566,87.7387,107.1C87.7383,107.063,87.7386,107.027,87.7389,106.994C87.7401,106.869,87.7409,106.777,87.7007,106.708C87.5854,106.511,87.132,106.511,85.3772,106.513C85.2134,106.513,85.0384,106.513,84.8512,106.513C84.6406,106.513,84.4454,106.513,84.2646,106.513C82.5856,106.511,82.1451,106.51,82.0349,106.701C81.9957,106.768,81.9983,106.86,82.0018,106.985C82.003,107.025,82.0042,107.067,82.0042,107.114L82.0042,107.127C82.0041,107.298,82.0041,107.415,82.0585,107.494C82.1732,107.661,82.5296,107.66,83.6366,107.66L83.6975,107.66C84.5948,107.66,85.2357,107.687,85.3167,107.728C85.4246,107.789,85.4449,107.876,85.4449,108.221C85.4449,108.464,85.4112,108.68,85.3639,108.727C85.3167,108.774,85.1008,108.808,84.8714,108.808C84.6421,108.808,84.4262,108.842,84.3789,108.889C84.2845,108.983,84.271,109.672,84.3587,109.814C84.3992,109.874,84.5813,109.922,84.8512,109.942C85.0873,109.955,85.3167,110.003,85.3639,110.036C85.4786,110.131,85.4786,111.987,85.3639,112.102C85.3167,112.149,85.1076,112.183,84.8984,112.183C84.3924,112.183,84.298,112.277,84.298,112.783C84.298,112.993,84.3317,113.202,84.3789,113.249C84.4262,113.296,84.6353,113.33,84.8444,113.33C85.3504,113.33,85.4449,113.425,85.4449,113.931C85.4449,114.14,85.4786,114.349,85.5258,114.397C85.5776,114.448,85.7874,114.475,86,114.477L86,114.488C86,114.988,86.0238,115,86.9802,115C87.4317,115,87.8416,114.982,87.8951,114.965C87.9663,114.935,87.9901,114.841,87.9901,114.558C87.9901,114.081,88.0733,113.999,88.5663,113.999C88.9881,113.999,89,113.981,89,113.469C89,113.186,88.9762,113.11,88.8871,113.057C88.7386,112.98,87.2832,112.98,87.1465,113.063C87.0634,113.11,87.0396,113.204,87.0396,113.487C87.0396,113.699,87.0099,113.887,86.9683,113.928C86.9267,113.969,86.7485,113.999,86.5644,113.999L86.5431,113.999C86.5617,113.688,86.5801,113.225,86.5918,112.723L86.6255,111.136L87.091,111.116C87.3676,111.103,87.5903,111.13,87.6308,111.17C87.6712,111.211,87.7185,111.447,87.7387,111.697L87.7724,112.149L89.3579,112.183C90.2282,112.203,90.9838,112.243,91.031,112.27C91.0782,112.304,91.112,112.473,91.112,112.696C91.112,113.256,91.1727,113.33,91.6517,113.33C92.1644,113.33,92.2589,113.418,92.2589,113.931C92.2589,114.14,92.2251,114.349,92.1779,114.397C92.1307,114.444,91.9215,114.478,91.7124,114.478C91.2064,114.478,91.112,114.572,91.112,115.078C91.112,115.287,91.0782,115.497,91.031,115.544C90.977,115.598,90.6397,115.625,89.9516,115.625C89.2635,115.625,88.9931,115.625,88.8869,115.757C88.8181,115.842,88.8181,115.983,88.8181,116.215L88.8181,116.226C88.8181,116.752,88.8654,116.772,89.992,116.772C90.6465,116.772,90.977,116.799,91.031,116.853C91.085,116.907,91.112,117.218,91.112,117.812L91.1119,117.93C91.1115,118.595,91.1114,118.847,91.2336,118.943C91.3082,119.001,91.4285,119,91.6222,119L91.6854,119C92.07,119,92.1847,118.98,92.2184,118.892C92.2386,118.831,92.2589,118.109,92.2589,117.285C92.2589,116.212,92.2791,115.767,92.3398,115.706C92.3871,115.659,92.6029,115.625,92.8323,115.625C93.0617,115.625,93.2776,115.591,93.3248,115.544C93.372,115.497,93.4058,115.287,93.4058,115.078C93.4058,114.579,93.5002,114.478,93.9792,114.478C94.4582,114.478,94.5527,114.579,94.5527,115.078C94.5527,115.287,94.5864,115.497,94.6336,115.544C94.6809,115.591,94.89,115.625,95.0991,115.625C95.6119,115.625,95.6996,115.53,95.6996,115.017C95.6996,114.694,95.7266,114.606,95.8278,114.545C96.0032,114.457,97.6223,114.457,97.7978,114.545C97.899,114.606,97.9259,114.694,97.9259,115.017C97.9259,115.537,98.0136,115.625,98.5264,115.625C98.7625,115.625,98.9514,115.591,98.9851,115.537C99.0256,115.497,99.0728,115.274,99.0931,115.058C99.1133,114.842,99.1673,114.626,99.2078,114.586C99.2483,114.545,99.4844,114.498,99.734,114.478L100.159,114.446C100.155,114.501,100.153,114.563,100.153,114.632C100.153,114.852,100.119,115.072,100.071,115.122C100.024,115.171,99.8068,115.207,99.5627,115.207C99.1627,115.207,99.1288,115.221,99.0678,115.391C99.0271,115.491,99,115.995,99,116.513C99,117.144,98.9729,117.478,98.9186,117.535C98.8034,117.655,95.7864,117.655,95.6915,117.528C95.6576,117.485,95.6102,117.244,95.5966,116.995L95.5966,116.995C95.7115,116.998,95.8457,117,96,117C96.5818,117,96.8788,116.977,96.9273,116.93C96.9697,116.889,97,116.696,97,116.467C97,116.163,96.9758,116.069,96.903,116.04C96.7152,115.97,95.1515,115.999,95.0727,116.075C95.0308,116.116,95.007,116.263,95.0013,116.426C94.8293,116.418,94.6242,116.413,94.4102,116.413C93.7558,116.413,93.4889,116.413,93.3801,116.544C93.3051,116.635,93.3051,116.787,93.3051,117.045C93.3051,117.52,93.4136,117.62,93.9085,117.62C94.1186,117.62,94.3288,117.655,94.3763,117.705C94.4576,117.79,94.4915,118.443,94.4169,118.642C94.3831,118.741,94.2271,118.755,93.4136,118.755C92.2,118.755,92.1525,118.784,92.1525,119.43C92.1525,119.969,92.2203,120.033,92.7763,120.033C92.9797,120.033,93.1763,120.068,93.2237,120.118C93.339,120.239,93.339,122.169,93.2237,122.29C93.1153,122.403,92.3424,122.403,92.2339,122.29C92.1797,122.233,92.1525,121.892,92.1525,121.232C92.1525,120.693,92.1322,120.21,92.1119,120.146C92.078,120.061,91.9695,120.033,91.6034,120.033C91.2169,120.033,91.1288,120.054,91.0678,120.168C91.0271,120.26,91,121.289,91,123.042C91,125.427,91.0136,125.789,91.1085,125.881C91.1966,125.98,91.4407,125.995,92.7559,125.995C93.861,125.995,94.3153,125.973,94.3763,125.91C94.4237,125.86,94.4576,125.633,94.4576,125.391C94.4576,125.15,94.4915,124.923,94.539,124.873C94.5864,124.824,94.7898,124.788,95,124.788C95.2034,124.788,95.4136,124.76,95.4678,124.724C95.5288,124.682,95.5763,124.497,95.5966,124.242C95.6305,123.688,95.5424,123.582,95.0068,123.582C94.7966,123.582,94.5864,123.546,94.539,123.496C94.4915,123.447,94.4576,123.22,94.4576,122.964C94.4576,122.439,94.5254,122.375,95.1017,122.375C95.4407,122.375,95.4814,122.361,95.5424,122.191C95.6441,121.921,95.6237,121.502,95.5017,121.325C95.4136,121.197,95.3322,121.168,95.0068,121.168C94.5051,121.168,94.4441,121.098,94.4712,120.516L94.4915,120.068L96.0847,120.033C96.9593,120.012,97.7186,119.969,97.7661,119.941C97.8136,119.905,97.8475,119.721,97.8475,119.472C97.8475,118.819,97.8881,118.798,98.8983,118.77C99.4678,118.748,99.8271,118.77,99.9559,118.826L100.153,118.919L100.139,120.026L100.119,121.133L99.1017,121.154C97.8746,121.176,97.8475,121.19,97.8475,121.843C97.8475,122.183,97.8203,122.297,97.739,122.332C97.678,122.354,97.2373,122.375,96.7559,122.375C96.2678,122.375,95.8136,122.411,95.739,122.446C95.6373,122.51,95.6102,122.602,95.6102,122.943C95.6102,123.56,95.6237,123.582,96.1186,123.582C96.6475,123.582,96.7627,123.688,96.7627,124.206C96.7627,124.689,96.661,124.788,96.1593,124.788C95.9492,124.788,95.739,124.824,95.6915,124.873C95.5831,124.987,95.5831,125.796,95.6915,125.91C95.8068,126.03,98.8034,126.03,98.9186,125.91C99.0271,125.796,99.0271,124.987,98.9186,124.873C98.8712,124.824,98.6678,124.788,98.4576,124.788C97.9695,124.788,97.8475,124.667,97.8475,124.171C97.8475,123.688,97.9695,123.582,98.5119,123.582L98.5755,123.582C98.7387,123.582,98.8322,123.583,98.8903,123.538C98.9681,123.477,98.9828,123.335,99.0171,123.004L99.0271,122.907C99.0542,122.694,99.1153,122.517,99.1831,122.46C99.2644,122.396,99.7051,122.375,100.797,122.375C101.875,122.375,102.315,122.354,102.376,122.29C102.424,122.24,102.458,122.02,102.458,121.8C102.458,121.19,102.492,121.168,103.603,121.168L103.754,121.168L103.754,121.168C104.254,121.167,104.506,121.167,104.634,121.293C104.764,121.422,104.764,121.684,104.763,122.214L104.763,122.368C104.763,122.886,104.729,123.369,104.695,123.447C104.627,123.574,104.532,123.582,103.047,123.582C101.908,123.582,101.447,123.603,101.386,123.667C101.339,123.716,101.305,123.944,101.305,124.199C101.305,124.561,101.325,124.653,101.434,124.717C101.576,124.795,106.702,124.824,106.892,124.746C106.973,124.71,107,124.597,107,124.227C107,123.951,106.966,123.716,106.919,123.667C106.871,123.617,106.668,123.582,106.458,123.582C106.247,123.582,106.044,123.546,105.997,123.496C105.875,123.369,105.881,121.353,106.003,121.254C106.051,121.211,106.288,121.168,106.525,121.154L106.966,121.133L106.986,120.04C106.993,119.38,106.98,118.919,106.939,118.876C106.898,118.833,106.661,118.784,106.41,118.762L105.949,118.72L105.929,117.662C105.915,116.946,105.936,116.577,105.99,116.513C106.037,116.449,106.207,116.413,106.451,116.413C106.661,116.413,106.871,116.378,106.919,116.328C106.966,116.278,107,116.044,107,115.767C107,115.398,106.973,115.285,106.892,115.249C106.831,115.228,105.59,115.207,104.125,115.207C102.146,115.207,101.447,115.185,101.386,115.122C101.339,115.072,101.305,114.845,101.305,114.589C101.305,114.227,101.285,114.135,101.176,114.071C100.966,113.958,100.383,113.986,100.261,114.114C100.238,114.135,100.219,114.166,100.204,114.206L100.22,113.998C100.26,113.425,100.341,113.33,100.8,113.33C101.272,113.33,101.367,113.431,101.367,113.931C101.367,114.14,101.4,114.349,101.448,114.397C101.562,114.511,103.465,114.511,103.58,114.397C103.627,114.349,103.66,114.133,103.66,113.89C103.66,113.398,103.735,113.33,104.227,113.33C104.652,113.33,104.807,113.492,104.807,113.931C104.807,114.457,104.828,114.478,105.34,114.478C105.603,114.478,105.826,114.444,105.873,114.397C105.927,114.343,105.954,114.005,105.954,113.323C105.954,112.601,105.975,112.311,106.042,112.27C106.082,112.243,106.319,112.203,106.561,112.183L107,112.149L107,111.643L107,111.136L104.308,111.116L103.799,111.113C101.996,111.103,101.525,111.1,101.405,110.894C101.362,110.821,101.364,110.722,101.366,110.589C101.366,110.56,101.367,110.528,101.367,110.495C101.367,110.266,101.4,110.077,101.454,110.036C101.495,110.003,101.987,109.955,102.534,109.942C103.33,109.928,103.546,109.901,103.593,109.82C103.687,109.672,103.674,108.983,103.58,108.889C103.532,108.842,103.316,108.808,103.074,108.808C102.729,108.808,102.642,108.788,102.581,108.68C102.547,108.605,102.514,108.126,102.514,107.613C102.514,106.972,102.487,106.648,102.433,106.594C102.385,106.547,102.169,106.513,101.94,106.513C101.711,106.513,101.495,106.479,101.448,106.432C101.387,106.371,101.367,105.919,101.367,104.826C101.367,103.989,101.34,103.273,101.313,103.226C101.279,103.172,100.935,103.138,100.274,103.125C99.6126,103.111,99.255,103.077,99.201,103.023C99.1538,102.976,99.0998,102.733,99.0796,102.483L99.0391,102.025L98.5534,102.004C98.1283,101.991,98.0609,102.004,98.0001,102.119ZM100.092,104.286C100.206,104.353,100.22,104.441,100.22,105.359C100.22,106.142,100.2,106.378,100.125,106.439C100.065,106.486,99.8622,106.513,99.6058,106.5C99.3502,106.487,99.2483,106.482,99.1945,106.429C99.1588,106.394,99.1443,106.337,99.1201,106.243C99.0863,106.115,99.0728,105.649,99.0863,105.204C99.1133,104.515,99.1336,104.394,99.2415,104.313C99.3899,104.205,99.9027,104.191,100.092,104.286ZM91.004,109.996C91.085,110.03,91.112,110.138,91.112,110.489C91.112,110.752,91.0782,110.974,91.031,111.022C90.977,111.076,90.6465,111.103,89.992,111.103C89.0745,111.103,89.0205,111.096,88.9261,110.954C88.8047,110.785,88.7844,110.279,88.8856,110.084C88.9531,109.969,89.0408,109.955,89.9313,109.955C90.4643,109.955,90.9433,109.976,91.004,109.996ZM91.0602,104.885C90.9725,104.715,90.9842,103.164,91.0719,103.073C91.1128,103.03,91.3056,103,91.5336,103C91.8374,103,91.9309,103.024,91.9602,103.097C92.0303,103.285,92.0011,104.848,91.9251,104.927C91.8842,104.97,91.6972,105,91.4868,105C91.1888,105,91.1128,104.982,91.0602,104.885ZM93.0397,103.097C92.9698,103.285,92.9989,104.848,93.0747,104.927C93.1155,104.97,93.302,105,93.5002,105C93.6984,105,93.8849,104.97,93.9257,104.927C94.0248,104.824,94.0248,103.176,93.9257,103.073C93.8849,103.03,93.6925,103,93.4652,103C93.1621,103,93.0689,103.024,93.0397,103.097ZM94,105.48C94,105.193,94.0238,105.097,94.1073,105.043C94.2146,104.977,94.8644,104.989,94.93,105.061C95.0075,105.139,95.0253,105.743,94.9598,105.874C94.9002,105.982,94.8346,106,94.5186,106C94.304,106,94.1133,105.97,94.0715,105.928C94.0298,105.886,94,105.695,94,105.48ZM103,107.004C103,106.414,103.024,106.118,103.071,106.071C103.112,106.03,103.3,106,103.512,106C103.947,106,104,106.059,104,106.544C104,106.721,104.029,106.892,104.071,106.934C104.112,106.975,104.294,107.004,104.476,107.004C104.982,107.004,105,107.034,105,108.003C105,108.659,104.982,108.836,104.912,108.895C104.788,108.996,104.353,109.037,104.165,108.96C104.012,108.901,104,108.872,104,108.57C104,108.068,103.947,108.009,103.512,108.009C103.3,108.009,103.112,107.979,103.071,107.938C103.024,107.891,103,107.595,103,107.004ZM106.075,106.071C105.975,106.165,105.975,106.835,106.075,106.929C106.15,106.999,106.725,107.029,106.9,106.964C106.975,106.935,107,106.841,107,106.535C107,106.306,106.969,106.112,106.925,106.071C106.825,105.976,106.175,105.976,106.075,106.071ZM108,106.535C108,106.306,108.031,106.112,108.075,106.071C108.175,105.976,108.825,105.976,108.925,106.071C108.969,106.112,109,106.3,109,106.5C109,106.7,108.969,106.888,108.925,106.929C108.85,106.999,108.275,107.029,108.1,106.964C108.025,106.935,108,106.841,108,106.535ZM109.094,107.094C108.988,107.2,108.965,107.706,109.059,107.888C109.112,107.982,109.188,108,109.488,108C109.7,108,109.888,107.971,109.929,107.929C109.971,107.888,110,107.7,110,107.5C110,107.3,109.971,107.112,109.929,107.071C109.824,106.965,109.206,106.982,109.094,107.094ZM107.077,109.885C106.988,109.745,106.971,109.285,107.054,109.115C107.104,109.018,107.177,109,107.483,109C107.917,109,107.994,109.073,108,109.491C108,109.909,107.911,110,107.499,110C107.227,110,107.143,109.976,107.077,109.885ZM82.0588,110.132C82.0235,110.222,82,111.414,82,113.528C82,116.397,82.0118,116.792,82.0941,116.889C82.2059,117.021,82.8235,117.042,82.9294,116.917C82.9824,116.854,83,116.134,83,114.089C83,112.045,83.0176,111.324,83.0706,111.261C83.1118,111.213,83.2941,111.178,83.4765,111.178C83.9176,111.178,84,111.081,84,110.561C84,110.347,83.9706,110.132,83.9294,110.083C83.8824,110.028,83.5882,110,82.9882,110C82.1941,110,82.1176,110.014,82.0588,110.132ZM108.006,111.552C107.994,111.339,108,111.127,108.018,111.085C108.043,111.018,108.255,111,108.989,111C109.783,111,109.928,111.012,109.959,111.097C110.031,111.285,110.001,112.848,109.922,112.927C109.88,112.97,109.686,113,109.468,113C109.019,113,108.964,112.939,108.964,112.43C108.964,112.23,108.934,112.079,108.892,112.048C108.849,112.024,108.637,111.988,108.419,111.97L108.024,111.939L108.006,111.552ZM107,113.614C107,113.379,107.036,113.243,107.118,113.143C107.224,113.014,107.312,113,108.006,113C108.429,113,108.823,113.036,108.888,113.071C108.982,113.136,109,113.229,109,113.593C109,113.85,109.029,114.079,109.07,114.129C109.111,114.179,109.282,114.214,109.458,114.214C109.494,114.214,109.528,114.214,109.559,114.213C109.681,114.211,109.77,114.209,109.834,114.248C110.002,114.35,110.001,114.729,110,116.104L110,116.106C110,116.25,109.999,116.405,109.999,116.571C109.999,117.778,109.982,118.821,109.964,118.886C109.935,118.986,109.752,119,108.523,119L108.364,119C107.465,119,107.158,119.001,107.053,118.855C106.999,118.779,106.999,118.665,107,118.49L107,118.428C107,117.864,107.006,117.857,107.988,117.857C108.588,117.857,108.882,117.828,108.929,117.771C108.976,117.714,109,117.357,109,116.643C109,115.929,108.976,115.571,108.929,115.514C108.888,115.464,108.723,115.429,108.553,115.429C108.082,115.429,108.059,115.407,108.059,114.921C108.059,114.343,107.947,114.214,107.471,114.214C107.065,114.214,107,114.136,107,113.614ZM84.0941,114.094C84.0176,114.171,84,114.341,84,115.024C84,115.594,84.0235,115.882,84.0706,115.929C84.1647,116.024,84.8353,116.024,84.9294,115.929C84.9765,115.882,85,115.594,85,115.024C85,114.035,84.9824,114,84.5,114C84.2941,114,84.1529,114.029,84.0941,114.094ZM104.763,118.195C104.763,116.875,104.749,116.619,104.654,116.527C104.566,116.427,104.322,116.413,103.007,116.413C101.902,116.413,101.447,116.435,101.386,116.498C101.325,116.562,101.305,117.038,101.305,118.188C101.305,119.657,101.319,119.806,101.427,119.912C101.536,120.019,101.753,120.033,103.02,120.033C104.403,120.033,104.498,120.026,104.627,119.891C104.756,119.756,104.763,119.657,104.763,118.195ZM93.3051,124.149C93.3051,123.809,93.278,123.716,93.1763,123.653C92.9932,123.553,92.3356,123.56,92.2339,123.667C92.1864,123.716,92.1525,123.944,92.1525,124.199C92.1525,124.717,92.2203,124.788,92.7559,124.788C93.2102,124.788,93.3051,124.675,93.3051,124.149ZM102.071,118.075C102.001,118.15,101.971,118.725,102.036,118.9C102.065,118.981,102.165,119,102.5,119C102.835,119,102.935,118.981,102.964,118.9C103.029,118.725,102.999,118.15,102.929,118.075C102.888,118.031,102.7,118,102.5,118C102.3,118,102.112,118.031,102.071,118.075ZM82.0452,118.048C81.9774,118.109,81.991,125.819,82.052,125.927C82.0995,125.995,82.9404,126.009,86.0396,125.995L89.9661,125.975L89.9864,121.984L90,118L86.0463,118C83.8695,118,82.0656,118.02,82.0452,118.048ZM88.8336,121.991L88.8471,124.855L86.0192,124.841L83.1845,124.821L83.1642,121.991C83.1506,119.344,83.1574,119.161,83.2659,119.133C83.3337,119.113,84.6087,119.106,86.1006,119.113L88.8132,119.12L88.8336,121.991ZM84,123L84,121.5L84,120L85.4882,120.012L86.9706,120.03L86.9882,121.512L87,123L85.5,123L84,123ZM108.058,121.085C108.015,121.138,107.991,121.326,108.003,121.573L108.021,121.972L108.417,122.002C108.636,122.019,108.849,122.054,108.892,122.078C108.935,122.107,108.965,122.266,108.965,122.495C108.965,122.7,108.995,122.888,109.038,122.93C109.136,123.023,109.83,123.023,109.927,122.93C109.976,122.883,110,122.589,110,121.99C110,121.197,109.988,121.12,109.884,121.062C109.696,120.968,108.143,120.985,108.058,121.085ZM107,122.506C107,122.312,107.033,122.2,107.111,122.118C107.194,122.029,107.294,122,107.5,122C107.867,122,108,122.135,108,122.506C108,122.947,107.944,123,107.5,123C107.056,123,107,122.947,107,122.506ZM99.0909,124.056C99.0242,124.098,99,124.216,99,124.5C99,124.784,99.0242,124.902,99.0909,124.944C99.2242,125.026,99.8424,125.014,99.9273,124.932C99.9697,124.89,100,124.701,100,124.5C100,124.299,99.9697,124.11,99.9273,124.068C99.8424,123.986,99.2242,123.974,99.0909,124.056ZM108.057,124.403C108.057,124.185,108.087,124.056,108.134,124.038C108.281,123.973,108.858,123.997,108.929,124.067C108.97,124.109,108.999,124.291,108.999,124.474C108.999,124.916,109.082,124.998,109.523,124.998C109.706,124.998,109.888,125.028,109.929,125.069C109.971,125.11,110,125.299,110,125.499C110,125.7,109.971,125.888,109.929,125.929C109.876,125.982,109.482,126,108.522,126C107.204,126,107.18,126,107.092,125.87C106.986,125.723,106.968,125.281,107.057,125.11C107.11,125.016,107.186,124.998,107.498,124.998C107.963,124.998,108.057,124.898,108.057,124.403Z" clip-rule="evenodd" fill="rgb(67,56,54)" fill-rule="evenodd" stroke="none" stroke-width="1" stroke-miterlimit="1"/><path id="emUW1VJYOjn19" d="M81.3775,94L108.623,94C110.488,94,112,95.5566,112,97.4768L112,125.523C112,127.443,110.488,129,108.623,129L81.3775,129C79.5121,129,78,127.443,78,125.523L78,97.4768C78,95.5566,79.5122,94,81.3775,94ZM81.3775,95.9123C80.5381,95.9123,79.8576,96.6127,79.8576,97.4768L79.8576,125.523C79.8576,126.387,80.5381,127.088,81.3775,127.088L108.623,127.088C109.462,127.088,110.142,126.387,110.142,125.523L110.142,97.4768C110.142,96.6127,109.462,95.9123,108.623,95.9123L81.3775,95.9123Z" clip-rule="evenodd" fill="rgb(67,56,54)" fill-rule="evenodd" stroke="none" stroke-width="1" stroke-miterlimit="1"/><path id="emUW1VJYOjn20" d="M115.788,89L95,89C98.9879,89,102.212,94.0147,102.212,100.217L102.212,122.783C102.212,128.985,98.9879,134,95,134L115.788,134C119.776,134,123,128.985,123,122.783L123,100.217C123,94.0147,119.776,89,115.788,89Z" fill="rgb(10,27,179)" fill-opacity="0.21" stroke="none" stroke-width="1" stroke-miterlimit="1"/><path id="emUW1VJYOjn21" d="M57.3895,120L42,120L42,127L57.3895,127C59.3753,127,61,125.425,61,123.5C61,121.531,59.4204,120,57.3895,120Z" fill="rgb(60,152,191)" stroke="none" stroke-width="1" stroke-miterlimit="1"/><path id="emUW1VJYOjn22" d="M150,127L150,120L134.61,120C132.625,120,131,121.575,131,123.5C131,125.425,132.625,127,134.61,127L150,127Z" fill="rgb(60,152,191)" stroke="none" stroke-width="1" stroke-miterlimit="1"/></g><path id="emUW1VJYOjn23" d="M200.538,218.044C200.547,218.029,200.556,218.014,200.565,218L200.565,218.088C204.905,225.089,224,260.951,200.511,261C200.502,261,200.493,261,200.484,261C200.475,261,200.456,261,200.456,261C176.967,260.951,196.17,225.089,200.511,218.088L200.511,218C200.52,218.014,200.529,218.029,200.538,218.044Z" transform="matrix(0 0 0 0 200.499886 153.5)" opacity="0" clip-rule="evenodd" fill="rgb(160,198,255)" fill-rule="evenodd" stroke="none" stroke-width="1" stroke-miterlimit="1"/><path id="emUW1VJYOjn24" d="M169.02,261.022C169.024,261.015,169.029,261.007,169.034,261L169.034,261.045C171.298,264.627,181.261,282.975,169.006,283C169.001,283,168.996,283,168.991,283C168.987,283,168.977,283,168.977,283C156.722,282.975,166.741,264.627,169.006,261.045L169.006,261C169.01,261.007,169.015,261.015,169.02,261.022Z" transform="matrix(0 0 0 0 189.000008 154.038697)" opacity="0" clip-rule="evenodd" fill="rgb(160,198,255)" fill-rule="evenodd" stroke="none" stroke-width="1" stroke-miterlimit="1"/><path id="emUW1VJYOjn25" d="M189.02,183.022C189.024,183.015,189.029,183.007,189.034,183L189.034,183.045C191.298,186.627,201.261,204.975,189.006,205C189.001,205,188.996,205,188.991,205C188.987,205,188.977,205,188.977,205C176.722,204.975,186.741,186.627,189.006,183.045L189.006,183C189.01,183.007,189.015,183.015,189.02,183.022Z" transform="matrix(0 0 0 0 189.000008 144)" opacity="0" clip-rule="evenodd" fill="rgb(160,198,255)" fill-rule="evenodd" stroke="none" stroke-width="1" stroke-miterlimit="1"/><script><![CDATA[!function(t,n){"object"==typeof exports&&"undefined"!=typeof module?module.exports=n():"function"==typeof define&&define.amd?define(n):(t="undefined"!=typeof globalThis?globalThis:t||self).__SVGATOR_PLAYER__=n()}(this,(function(){"use strict";function t(n){return(t="function"==typeof Symbol&&"symbol"==typeof Symbol.iterator?function(t){return typeof t}:function(t){return t&&"function"==typeof Symbol&&t.constructor===Symbol&&t!==Symbol.prototype?"symbol":typeof t})(n)}function n(t,n){if(!(t instanceof n))throw new TypeError("Cannot call a class as a function")}function r(t,n){for(var r=0;r<n.length;r++){var e=n[r];e.enumerable=e.enumerable||!1,e.configurable=!0,"value"in e&&(e.writable=!0),Object.defineProperty(t,e.key,e)}}function e(t,n,e){return n&&r(t.prototype,n),e&&r(t,e),t}function i(t){return(i=Object.setPrototypeOf?Object.getPrototypeOf:function(t){return t.__proto__||Object.getPrototypeOf(t)})(t)}function o(t,n){return(o=Object.setPrototypeOf||function(t,n){return t.__proto__=n,t})(t,n)}function u(t,n){return!n||"object"!=typeof n&&"function"!=typeof n?function(t){if(void 0===t)throw new ReferenceError("this hasn't been initialised - super() hasn't been called");return t}(t):n}function a(t){var n=function(){if("undefined"==typeof Reflect||!Reflect.construct)return!1;if(Reflect.construct.sham)return!1;if("function"==typeof Proxy)return!0;try{return Boolean.prototype.valueOf.call(Reflect.construct(Boolean,[],(function(){}))),!0}catch(t){return!1}}();return function(){var r,e=i(t);if(n){var o=i(this).constructor;r=Reflect.construct(e,arguments,o)}else r=e.apply(this,arguments);return u(this,r)}}function l(t,n,r){return(l="undefined"!=typeof Reflect&&Reflect.get?Reflect.get:function(t,n,r){var e=function(t,n){for(;!Object.prototype.hasOwnProperty.call(t,n)&&null!==(t=i(t)););return t}(t,n);if(e){var o=Object.getOwnPropertyDescriptor(e,n);return o.get?o.get.call(r):o.value}})(t,n,r||t)}var f=s(Math.pow(10,-6));function s(t){var n=arguments.length>1&&void 0!==arguments[1]?arguments[1]:6;if(Number.isInteger(t))return t;var r=Math.pow(10,n);return Math.round((+t+Number.EPSILON)*r)/r}function c(t,n){var r=arguments.length>2&&void 0!==arguments[2]?arguments[2]:f;return Math.abs(t-n)<r}var h=Math.PI/180;function v(t){return t}function y(t,n,r){var e=1-r;return 3*r*e*(t*e+n*r)+r*r*r}function d(){var t=arguments.length>0&&void 0!==arguments[0]?arguments[0]:0,n=arguments.length>1&&void 0!==arguments[1]?arguments[1]:0,r=arguments.length>2&&void 0!==arguments[2]?arguments[2]:1,e=arguments.length>3&&void 0!==arguments[3]?arguments[3]:1;return t<0||t>1||r<0||r>1?null:c(t,n)&&c(r,e)?v:function(i){if(i<=0)return t>0?i*n/t:0===n&&r>0?i*e/r:0;if(i>=1)return r<1?1+(i-1)*(e-1)/(r-1):1===r&&t<1?1+(i-1)*(n-1)/(t-1):1;for(var o,u=0,a=1;u<a;){var l=y(t,r,o=(u+a)/2);if(c(i,l))break;l<i?u=o:a=o}return y(n,e,o)}}function g(){return 1}function p(t){return 1===t?1:0}function m(){var t=arguments.length>0&&void 0!==arguments[0]?arguments[0]:1,n=arguments.length>1&&void 0!==arguments[1]?arguments[1]:0;if(1===t){if(0===n)return p;if(1===n)return g}var r=1/t;return function(t){return t>=1?1:(t+=n*r)-t%r}}function b(t,n,r){return t>=.5?r:n}function w(t,n,r){return 0===t||n===r?n:t*(r-n)+n}function x(t,n,r){var e=w(t,n,r);return e<=0?0:e}function k(t,n,r){return 0===t?n:1===t?r:{x:w(t,n.x,r.x),y:w(t,n.y,r.y)}}function A(t,n,r){var e=function(t,n,r){return Math.round(w(t,n,r))}(t,n,r);return e<=0?0:e>=255?255:e}function _(t,n,r){return 0===t?n:1===t?r:{r:A(t,n.r,r.r),g:A(t,n.g,r.g),b:A(t,n.b,r.b),a:w(t,null==n.a?1:n.a,null==r.a?1:r.a)}}function S(t,n,r){if(0===t)return n;if(1===t)return r;var e=n.length;if(e!==r.length)return b(t,n,r);for(var i=[],o=0;o<e;o++)i.push(_(t,n[o],r[o]));return i}function O(t,n){for(var r=[],e=0;e<t;e++)r.push(n);return r}function M(t,n){if(--n<=0)return t;var r=(t=Object.assign([],t)).length;do{for(var e=0;e<r;e++)t.push(t[e])}while(--n>0);return t}var j,P=function(){function t(r){n(this,t),this.list=r,this.length=r.length}return e(t,[{key:"setAttribute",value:function(t,n){for(var r=this.list,e=0;e<this.length;e++)r[e].setAttribute(t,n)}},{key:"removeAttribute",value:function(t){for(var n=this.list,r=0;r<this.length;r++)n[r].removeAttribute(t)}},{key:"style",value:function(t,n){for(var r=this.list,e=0;e<this.length;e++)r[e].style[t]=n}}]),t}(),B=/-./g,E=function(t,n){return n.toUpperCase()};function F(t){return"function"==typeof t?t:b}function I(t){return t?"function"==typeof t?t:Array.isArray(t)?function(t){var n=arguments.length>1&&void 0!==arguments[1]?arguments[1]:v;if(!Array.isArray(t))return n;switch(t.length){case 1:return m(t[0])||n;case 2:return m(t[0],t[1])||n;case 4:return d(t[0],t[1],t[2],t[3])||n}return n}(t,null):function(t,n){var r=arguments.length>2&&void 0!==arguments[2]?arguments[2]:v;switch(t){case"linear":return v;case"steps":return m(n.steps||1,n.jump||0)||r;case"bezier":case"cubic-bezier":return d(n.x1||0,n.y1||0,n.x2||0,n.y2||0)||r}return r}(t.type,t.value,null):null}function R(t,n,r){var e=arguments.length>3&&void 0!==arguments[3]&&arguments[3],i=n.length-1;if(t<=n[0].t)return e?[0,0,n[0].v]:n[0].v;if(t>=n[i].t)return e?[i,1,n[i].v]:n[i].v;var o,u=n[0],a=null;for(o=1;o<=i;o++){if(!(t>n[o].t)){a=n[o];break}u=n[o]}return null==a?e?[i,1,n[i].v]:n[i].v:u.t===a.t?e?[o,1,a.v]:a.v:(t=(t-u.t)/(a.t-u.t),u.e&&(t=u.e(t)),e?[o,t,r(t,u.v,a.v)]:r(t,u.v,a.v))}function q(t,n){var r=arguments.length>2&&void 0!==arguments[2]?arguments[2]:null;return t&&t.length?"function"!=typeof n?null:("function"!=typeof r&&(r=null),function(e){var i=R(e,t,n);return null!=i&&r&&(i=r(i)),i}):null}function T(t,n){return t.t-n.t}function N(n,r,e,i,o){var u,a="@"===e[0],l="#"===e[0],f=j[e],s=b;switch(a?(u=e.substr(1),e=u.replace(B,E)):l&&(e=e.substr(1)),t(f)){case"function":if(s=f(i,o,R,I,e,a,r,n),l)return s;break;case"string":s=q(i,F(f));break;case"object":if((s=q(i,F(f.i),f.f))&&"function"==typeof f.u)return f.u(r,s,e,a,n)}return s?function(t,n,r){var e=arguments.length>3&&void 0!==arguments[3]&&arguments[3];if(e)return t instanceof P?function(e){return t.style(n,r(e))}:function(e){return t.style[n]=r(e)};if(Array.isArray(n)){var i=n.length;return function(e){var o=r(e);if(null==o)for(var u=0;u<i;u++)t[u].removeAttribute(n);else for(var a=0;a<i;a++)t[a].setAttribute(n,o)}}return function(e){var i=r(e);null==i?t.removeAttribute(n):t.setAttribute(n,i)}}(r,e,s,a):null}function C(n,r,e,i){if(!i||"object"!==t(i))return null;var o=null,u=null;return Array.isArray(i)?u=function(t){if(!t||!t.length)return null;for(var n=0;n<t.length;n++)t[n].e&&(t[n].e=I(t[n].e));return t.sort(T)}(i):(u=i.keys,o=i.data||null),u?N(n,r,e,u,o):null}function z(t,n,r){if(!r)return null;var e=[];for(var i in r)if(r.hasOwnProperty(i)){var o=C(t,n,i,r[i]);o&&e.push(o)}return e.length?e:null}function L(t,n){if(!n.duration||n.duration<0)return null;var r=function(t,n){if(!n)return null;var r=[];if(Array.isArray(n))for(var e=n.length,i=0;i<e;i++){var o=n[i];if(2===o.length){var u=null;if("string"==typeof o[0])u=t.getElementById(o[0]);else if(Array.isArray(o[0])){u=[];for(var a=0;a<o[0].length;a++)if("string"==typeof o[0][a]){var l=t.getElementById(o[0][a]);l&&u.push(l)}u=u.length?1===u.length?u[0]:new P(u):null}if(u){var f=z(t,u,o[1]);f&&(r=r.concat(f))}}}else for(var s in n)if(n.hasOwnProperty(s)){var c=t.getElementById(s);if(c){var h=z(t,c,n[s]);h&&(r=r.concat(h))}}return r.length?r:null}(t,n.elements);return r?function(t,n){var r=arguments.length>2&&void 0!==arguments[2]?arguments[2]:1/0,e=arguments.length>3&&void 0!==arguments[3]?arguments[3]:1,i=arguments.length>4&&void 0!==arguments[4]&&arguments[4],o=arguments.length>5&&void 0!==arguments[5]?arguments[5]:1,u=t.length,a=e>0?n:0;i&&r%2==0&&(a=n-a);var l=null;return function(f,s){var c=f%n,h=1+(f-c)/n;s*=e,i&&h%2==0&&(s=-s);var v=!1;if(h>r)c=a,v=!0,-1===o&&(c=e>0?0:n);else if(s<0&&(c=n-c),c===l)return!1;l=c;for(var y=0;y<u;y++)t[y](c);return v}}(r,n.duration,n.iterations||1/0,n.direction||1,!!n.alternate,n.fill||1):null}var D=function(){function t(r,e){var i=arguments.length>2&&void 0!==arguments[2]?arguments[2]:{};n(this,t),this._id=0,this._running=!1,this._rollingBack=!1,this._animations=r,this.duration=e.duration,this.alternate=e.alternate,this.fill=e.fill,this.iterations=e.iterations,this.direction=i.direction||1,this.speed=i.speed||1,this.fps=i.fps||100,this.offset=i.offset||0,this.rollbackStartOffset=0}return e(t,[{key:"_rollback",value:function(){var t=this,n=1/0,r=null;this.rollbackStartOffset=this.offset,this._rollingBack||(this._rollingBack=!0,this._running=!0);this._id=window.requestAnimationFrame((function e(i){if(t._rollingBack){null==r&&(r=i);var o=i-r,u=t.rollbackStartOffset-o,a=Math.round(u*t.speed);if(a>t.duration&&n!=1/0){var l=!!t.alternate&&a/t.duration%2>1,f=a%t.duration;a=(f+=l?t.duration:0)||t.duration}var s=t.fps?1e3/t.fps:0,c=Math.max(0,a);if(c<n-s){t.offset=c,n=c;for(var h=t._animations,v=h.length,y=0;y<v;y++)h[y](c,t.direction)}var d=!1;if(t.iterations>0&&-1===t.fill){var g=t.iterations*t.duration,p=g==a;a=p?0:a,t.offset=p?0:t.offset,d=a>g}a>0&&t.offset>=a&&!d?t._id=window.requestAnimationFrame(e):t.stop()}}))}},{key:"_start",value:function(){var t=this,n=arguments.length>0&&void 0!==arguments[0]?arguments[0]:0,r=-1/0,e=null,i={},o=function o(u){t._running=!0,null==e&&(e=u);var a=Math.round((u-e+n)*t.speed),l=t.fps?1e3/t.fps:0;if(a>r+l&&!t._rollingBack){t.offset=a,r=a;for(var f=t._animations,s=f.length,c=0,h=0;h<s;h++)i[h]?c++:(i[h]=f[h](a,t.direction),i[h]&&c++);if(c===s)return void t._stop()}t._id=window.requestAnimationFrame(o)};this._id=window.requestAnimationFrame(o)}},{key:"_stop",value:function(){this._id&&window.cancelAnimationFrame(this._id),this._running=!1,this._rollingBack=!1}},{key:"play",value:function(){!this._rollingBack&&this._running||(this._rollingBack=!1,this.rollbackStartOffset>this.duration&&(this.offset=this.rollbackStartOffset-(this.rollbackStartOffset-this.offset)%this.duration,this.rollbackStartOffset=0),this._start(this.offset))}},{key:"stop",value:function(){this._stop(),this.offset=0,this.rollbackStartOffset=0;var t=this.direction,n=this._animations;window.requestAnimationFrame((function(){for(var r=0;r<n.length;r++)n[r](0,t)}))}},{key:"reachedToEnd",value:function(){return this.iterations>0&&this.offset>=this.iterations*this.duration}},{key:"restart",value:function(){this._stop(),this.offset=0,this._start()}},{key:"pause",value:function(){this._stop()}},{key:"reverse",value:function(){this.direction=-this.direction}}],[{key:"build",value:function(n,r){return(n=function(t,n){if(j=n,!t||!t.root||!Array.isArray(t.animations))return null;for(var r=document.getElementsByTagName("svg"),e=!1,i=0;i<r.length;i++)if(r[i].id===t.root&&!r[i].svgatorAnimation){(e=r[i]).svgatorAnimation=!0;break}if(!e)return null;var o=t.animations.map((function(t){return L(e,t)})).filter((function(t){return!!t}));return o.length?{element:e,animations:o,animationSettings:t.animationSettings,options:t.options||void 0}:null}(n,r))?{el:n.element,options:n.options||{},player:new t(n.animations,n.animationSettings,n.options)}:null}}]),t}();function Q(t){return s(t)+""}function U(t){var n=arguments.length>1&&void 0!==arguments[1]?arguments[1]:" ";return t&&t.length?t.map(Q).join(n):""}function V(t){return t?null==t.a||t.a>=1?"rgb("+t.r+","+t.g+","+t.b+")":"rgba("+t.r+","+t.g+","+t.b+","+t.a+")":"transparent"}!function(){for(var t=0,n=["ms","moz","webkit","o"],r=0;r<n.length&&!window.requestAnimationFrame;++r)window.requestAnimationFrame=window[n[r]+"RequestAnimationFrame"],window.cancelAnimationFrame=window[n[r]+"CancelAnimationFrame"]||window[n[r]+"CancelRequestAnimationFrame"];window.requestAnimationFrame||(window.requestAnimationFrame=function(n){var r=Date.now(),e=Math.max(0,16-(r-t)),i=window.setTimeout((function(){n(r+e)}),e);return t=r+e,i},window.cancelAnimationFrame=window.clearTimeout)}();var G={f:null,i:function(t,n,r){return 0===t?n:1===t?r:{x:x(t,n.x,r.x),y:x(t,n.y,r.y)}},u:function(t,n){return function(r){var e=n(r);t.setAttribute("rx",Q(e.x)),t.setAttribute("ry",Q(e.y))}}},H={f:null,i:function(t,n,r){return 0===t?n:1===t?r:{width:x(t,n.width,r.width),height:x(t,n.height,r.height)}},u:function(t,n){return function(r){var e=n(r);t.setAttribute("width",Q(e.width)),t.setAttribute("height",Q(e.height))}}},Y=Math.sin,Z=Math.cos,J=Math.acos,K=Math.asin,W=Math.tan,X=Math.atan2,$=Math.PI/180,tt=180/Math.PI,nt=Math.sqrt,rt=function(){function t(){var r=arguments.length>0&&void 0!==arguments[0]?arguments[0]:1,e=arguments.length>1&&void 0!==arguments[1]?arguments[1]:0,i=arguments.length>2&&void 0!==arguments[2]?arguments[2]:0,o=arguments.length>3&&void 0!==arguments[3]?arguments[3]:1,u=arguments.length>4&&void 0!==arguments[4]?arguments[4]:0,a=arguments.length>5&&void 0!==arguments[5]?arguments[5]:0;n(this,t),this.m=[r,e,i,o,u,a],this.i=null,this.w=null,this.s=null}return e(t,[{key:"determinant",get:function(){var t=this.m;return t[0]*t[3]-t[1]*t[2]}},{key:"isIdentity",get:function(){if(null===this.i){var t=this.m;this.i=1===t[0]&&0===t[1]&&0===t[2]&&1===t[3]&&0===t[4]&&0===t[5]}return this.i}},{key:"point",value:function(t,n){var r=this.m;return{x:r[0]*t+r[2]*n+r[4],y:r[1]*t+r[3]*n+r[5]}}},{key:"translateSelf",value:function(){var t=arguments.length>0&&void 0!==arguments[0]?arguments[0]:0,n=arguments.length>1&&void 0!==arguments[1]?arguments[1]:0;if(!t&&!n)return this;var r=this.m;return r[4]+=r[0]*t+r[2]*n,r[5]+=r[1]*t+r[3]*n,this.w=this.s=this.i=null,this}},{key:"rotateSelf",value:function(){var t=arguments.length>0&&void 0!==arguments[0]?arguments[0]:0;if(t%=360){var n=Y(t*=$),r=Z(t),e=this.m,i=e[0],o=e[1];e[0]=i*r+e[2]*n,e[1]=o*r+e[3]*n,e[2]=e[2]*r-i*n,e[3]=e[3]*r-o*n,this.w=this.s=this.i=null}return this}},{key:"scaleSelf",value:function(){var t=arguments.length>0&&void 0!==arguments[0]?arguments[0]:1,n=arguments.length>1&&void 0!==arguments[1]?arguments[1]:1;if(1!==t||1!==n){var r=this.m;r[0]*=t,r[1]*=t,r[2]*=n,r[3]*=n,this.w=this.s=this.i=null}return this}},{key:"skewSelf",value:function(t,n){if(n%=360,(t%=360)||n){var r=this.m,e=r[0],i=r[1],o=r[2],u=r[3];t&&(t=W(t*$),r[2]+=e*t,r[3]+=i*t),n&&(n=W(n*$),r[0]+=o*n,r[1]+=u*n),this.w=this.s=this.i=null}return this}},{key:"resetSelf",value:function(){var t=arguments.length>0&&void 0!==arguments[0]?arguments[0]:1,n=arguments.length>1&&void 0!==arguments[1]?arguments[1]:0,r=arguments.length>2&&void 0!==arguments[2]?arguments[2]:0,e=arguments.length>3&&void 0!==arguments[3]?arguments[3]:1,i=arguments.length>4&&void 0!==arguments[4]?arguments[4]:0,o=arguments.length>5&&void 0!==arguments[5]?arguments[5]:0,u=this.m;return u[0]=t,u[1]=n,u[2]=r,u[3]=e,u[4]=i,u[5]=o,this.w=this.s=this.i=null,this}},{key:"recomposeSelf",value:function(){var t=arguments.length>0&&void 0!==arguments[0]?arguments[0]:null,n=arguments.length>1&&void 0!==arguments[1]?arguments[1]:null,r=arguments.length>2&&void 0!==arguments[2]?arguments[2]:null,e=arguments.length>3&&void 0!==arguments[3]?arguments[3]:null,i=arguments.length>4&&void 0!==arguments[4]?arguments[4]:null;return this.isIdentity||this.resetSelf(),t&&(t.x||t.y)&&this.translateSelf(t.x,t.y),n&&this.rotateSelf(n),r&&(r.x&&this.skewSelf(r.x,0),r.y&&this.skewSelf(0,r.y)),!e||1===e.x&&1===e.y||this.scaleSelf(e.x,e.y),i&&(i.x||i.y)&&this.translateSelf(i.x,i.y),this}},{key:"decompose",value:function(){var t=arguments.length>0&&void 0!==arguments[0]?arguments[0]:0,n=arguments.length>1&&void 0!==arguments[1]?arguments[1]:0,r=this.m,e=r[0]*r[0]+r[1]*r[1],i=[[r[0],r[1]],[r[2],r[3]]],o=nt(e);if(0===o)return{origin:{x:s(r[4]),y:s(r[5])},translate:{x:s(t),y:s(n)},scale:{x:0,y:0},skew:{x:0,y:0},rotate:0};i[0][0]/=o,i[0][1]/=o;var u=r[0]*r[3]-r[1]*r[2]<0;u&&(o=-o);var a=i[0][0]*i[1][0]+i[0][1]*i[1][1];i[1][0]-=i[0][0]*a,i[1][1]-=i[0][1]*a;var l=nt(i[1][0]*i[1][0]+i[1][1]*i[1][1]);if(0===l)return{origin:{x:s(r[4]),y:s(r[5])},translate:{x:s(t),y:s(n)},scale:{x:s(o),y:0},skew:{x:0,y:0},rotate:0};i[1][0]/=l,i[1][1]/=l,a/=l;var f=0;return i[1][1]<0?(f=J(i[1][1])*tt,i[0][1]<0&&(f=360-f)):f=K(i[0][1])*tt,u&&(f=-f),a=X(a,nt(i[0][0]*i[0][0]+i[0][1]*i[0][1]))*tt,u&&(a=-a),{origin:{x:s(r[4]),y:s(r[5])},translate:{x:s(t),y:s(n)},scale:{x:s(o),y:s(l)},skew:{x:s(a),y:0},rotate:s(f)}}},{key:"toString",value:function(){return null===this.s&&(this.s="matrix("+this.m.map((function(t){return s(t)})).join(" ")+")"),this.s}}]),t}();Object.freeze({M:2,L:2,Z:0,H:1,V:1,C:6,Q:4,T:2,S:4,A:7});var et={},it=null;function ot(n){var r=function(){if(it)return it;if("object"!==("undefined"==typeof document?"undefined":t(document))||!document.createElementNS)return{};var n=document.createElementNS("http://www.w3.org/2000/svg","svg");return n&&n.style?(n.style.position="absolute",n.style.opacity="0.01",n.style.zIndex="-9999",n.style.left="-9999px",n.style.width="1px",n.style.height="1px",it={svg:n}):{}}().svg;if(!r)return function(t){return null};var e=document.createElementNS(r.namespaceURI,"path");e.setAttributeNS(null,"d",n),e.setAttributeNS(null,"fill","none"),e.setAttributeNS(null,"stroke","none"),r.appendChild(e);var i=e.getTotalLength();return function(t){var n=e.getPointAtLength(i*t);return{x:n.x,y:n.y}}}function ut(t){return et[t]?et[t]:et[t]=ot(t)}function at(t,n,r,e){if(!t||!e)return!1;var i=["M",t.x,t.y];if(n&&r&&(i.push("C"),i.push(n.x),i.push(n.y),i.push(r.x),i.push(r.y)),n?!r:r){var o=n||r;i.push("Q"),i.push(o.x),i.push(o.y)}return n||r||i.push("L"),i.push(e.x),i.push(e.y),i.join(" ")}function lt(t,n,r,e){var i=arguments.length>4&&void 0!==arguments[4]?arguments[4]:1,o=at(t,n,r,e),u=ut(o);try{return u(i)}catch(t){return null}}function ft(t,n,r,e){var i=1-e;return i*i*t+2*i*e*n+e*e*r}function st(t,n,r,e){return 2*(1-e)*(n-t)+2*e*(r-n)}function ct(t,n,r,e){var i=arguments.length>4&&void 0!==arguments[4]&&arguments[4],o=lt(t,n,null,r,e);return o||(o={x:ft(t.x,n.x,r.x,e),y:ft(t.y,n.y,r.y,e)}),i&&(o.a=ht(t,n,r,e)),o}function ht(t,n,r,e){return Math.atan2(st(t.y,n.y,r.y,e),st(t.x,n.x,r.x,e))}function vt(t,n,r,e,i){var o=i*i;return i*o*(e-t+3*(n-r))+3*o*(t+r-2*n)+3*i*(n-t)+t}function yt(t,n,r,e,i){var o=1-i;return 3*(o*o*(n-t)+2*o*i*(r-n)+i*i*(e-r))}function dt(t,n,r,e,i){var o=arguments.length>5&&void 0!==arguments[5]&&arguments[5],u=lt(t,n,r,e,i);return u||(u={x:vt(t.x,n.x,r.x,e.x,i),y:vt(t.y,n.y,r.y,e.y,i)}),o&&(u.a=gt(t,n,r,e,i)),u}function gt(t,n,r,e,i){return Math.atan2(yt(t.y,n.y,r.y,e.y,i),yt(t.x,n.x,r.x,e.x,i))}function pt(t,n,r){return t+(n-t)*r}function mt(t,n,r){var e=arguments.length>3&&void 0!==arguments[3]&&arguments[3],i={x:pt(t.x,n.x,r),y:pt(t.y,n.y,r)};return e&&(i.a=bt(t,n)),i}function bt(t,n){return Math.atan2(n.y-t.y,n.x-t.x)}function wt(t,n,r){var e=arguments.length>3&&void 0!==arguments[3]&&arguments[3];if(kt(n)){if(At(r))return ct(n,r.start,r,t,e)}else if(kt(r)){if(n.end)return ct(n,n.end,r,t,e)}else{if(n.end)return r.start?dt(n,n.end,r.start,r,t,e):ct(n,n.end,r,t,e);if(r.start)return ct(n,r.start,r,t,e)}return mt(n,r,t,e)}function xt(t,n,r){var e=wt(t,n,r,!0);return e.a=function(t){var n=arguments.length>1&&void 0!==arguments[1]&&arguments[1];return n?t+Math.PI:t}(e.a)/h,e}function kt(t){return!t.type||"corner"===t.type}function At(t){return null!=t.start&&!kt(t)}var _t=new rt;var St={f:Q,i:w},Ot={f:Q,i:function(t,n,r){var e=w(t,n,r);return e<=0?0:e>=1?1:e}};function Mt(t,n,r,e,i,o,u,a){return n=function(t,n,r){for(var e,i,o,u=t.length-1,a={},l=0;l<=u;l++)(e=t[l]).e&&(e.e=n(e.e)),e.v&&"g"===(i=e.v).t&&i.r&&(o=r.getElementById(i.r))&&(a[i.r]=o.querySelectorAll("stop"));return a}(t,e,a),function(e){var i,o=r(e,t,jt);return o?"c"===o.t?V(o.v):"g"===o.t?(n[o.r]&&function(t,n){for(var r=0,e=t.length;r<e;r++)t[r].setAttribute("stop-color",V(n[r]))}(n[o.r],o.v),(i=o.r)?"url(#"+i+")":"none"):"none":"none"}}function jt(t,n,r){if(0===t)return n;if(1===t)return r;if(n&&r){var e=n.t;if(e===r.t)switch(n.t){case"c":return{t:e,v:_(t,n.v,r.v)};case"g":if(n.r===r.r)return{t:e,v:S(t,n.v,r.v),r:n.r}}}return b(t,n,r)}var Pt={fill:Mt,"fill-opacity":Ot,stroke:Mt,"stroke-opacity":Ot,"stroke-width":St,"stroke-dashoffset":{f:Q,i:w},"stroke-dasharray":{f:function(t){var n=arguments.length>1&&void 0!==arguments[1]?arguments[1]:" ";return t&&t.length>0&&(t=t.map((function(t){return s(t,4)}))),U(t,n)},i:function(t,n,r){var e,i,o,u=n.length,a=r.length;if(u!==a)if(0===u)n=O(u=a,0);else if(0===a)a=u,r=O(u,0);else{var l=(o=(e=u)*(i=a)/function(t,n){for(var r;n;)r=n,n=t%n,t=r;return t||1}(e,i))<0?-o:o;n=M(n,Math.floor(l/u)),r=M(r,Math.floor(l/a)),u=a=l}for(var f=[],c=0;c<u;c++)f.push(s(x(t,n[c],r[c])));return f}},opacity:Ot,transform:function(n,r,e,i){if(!(n=function(n,r){if(!n||"object"!==t(n))return null;var e=!1;for(var i in n)n.hasOwnProperty(i)&&(n[i]&&n[i].length?(n[i].forEach((function(t){t.e&&(t.e=r(t.e))})),e=!0):delete n[i]);return e?n:null}(n,i)))return null;var o=function(t,i,o){var u=arguments.length>3&&void 0!==arguments[3]?arguments[3]:null;return n[t]?e(i,n[t],o):r&&r[t]?r[t]:u};return r&&r.a&&n.o?function(t){var r=e(t,n.o,xt);return _t.recomposeSelf(r,o("r",t,w,0)+r.a,o("k",t,k),o("s",t,k),o("t",t,k)).toString()}:function(t){return _t.recomposeSelf(o("o",t,wt,null),o("r",t,w,0),o("k",t,k),o("s",t,k),o("t",t,k)).toString()}},r:St,"#size":H,"#radius":G,_:function(t,n){if(Array.isArray(t))for(var r=0;r<t.length;r++)this[t[r]]=n;else this[t]=n}};return function(t){!function(t,n){if("function"!=typeof n&&null!==n)throw new TypeError("Super expression must either be null or a function");t.prototype=Object.create(n&&n.prototype,{constructor:{value:t,writable:!0,configurable:!0}}),n&&o(t,n)}(u,t);var r=a(u);function u(){return n(this,u),r.apply(this,arguments)}return e(u,null,[{key:"build",value:function(t){var n=l(i(u),"build",this).call(this,t,Pt);if(!n)return null;n.el,n.options;var r=n.player;return function(t,n,r){t.play()}(r),r}}]),u}(D)}));
__SVGATOR_PLAYER__.build({"root":"emUW1VJYOjn1","animations":[{"duration":6000,"direction":1,"iterations":0,"fill":1,"alternate":false,"speed":1,"elements":{"emUW1VJYOjn2":{"transform":{"data":{"o":{"x":95,"y":115.876188,"type":"corner"},"t":{"x":-95,"y":-115.876188}},"keys":{"r":[{"t":0,"v":0.128977},{"t":1000,"v":90.904876}]}}},"emUW1VJYOjn23":{"transform":{"data":{"t":{"x":-200.499886,"y":-239.5}},"keys":{"o":[{"t":1700,"v":{"x":200.499886,"y":153.5,"type":"cusp","end":{"x":191.153099,"y":198.250523}}},{"t":4500,"v":{"x":200.499886,"y":239.5,"type":"cusp","start":{"x":225.186908,"y":203.992605}}}],"s":[{"t":1700,"v":{"x":0,"y":0}},{"t":4500,"v":{"x":1,"y":1}}]}},"opacity":[{"t":1600,"v":0},{"t":1700,"v":1},{"t":4300,"v":1},{"t":4500,"v":0}]},"emUW1VJYOjn24":{"transform":{"data":{"r":6.882779,"t":{"x":-169.000008,"y":-272}},"keys":{"o":[{"t":1000,"v":{"x":189.000008,"y":154.038697,"type":"cusp","end":{"x":189.491774,"y":222.242078}}},{"t":3900,"v":{"x":169.000008,"y":272,"type":"cusp","start":{"x":144.708245,"y":215.114955}},"e":[0.42,0,0.58,1]}],"s":[{"t":1000,"v":{"x":0,"y":0}},{"t":3900,"v":{"x":1,"y":1},"e":[0.42,0,0.58,1]}]}},"opacity":[{"t":900,"v":0},{"t":1000,"v":1},{"t":3700,"v":1},{"t":3900,"v":0}]},"emUW1VJYOjn25":{"transform":{"data":{"t":{"x":-189.000008,"y":-194}},"keys":{"o":[{"t":2200,"v":{"x":189.000008,"y":144,"type":"cusp","end":{"x":177.407536,"y":159.277243}}},{"t":5000,"v":{"x":189.198487,"y":201.811675,"type":"cusp","start":{"x":191.185854,"y":192.307907}}}],"s":[{"t":2200,"v":{"x":0,"y":0}},{"t":5000,"v":{"x":1,"y":1}}]}},"opacity":[{"t":2100,"v":0},{"t":2200,"v":1},{"t":4800,"v":1},{"t":5000,"v":0}]}}}],"options":{"start":"load","hover":null,"click":null,"scroll":null,"font":"embed","exportedIds":"unique","svgFormat":"animated","title":"Frame 11"},"animationSettings":{"duration":6000,"direction":1,"iterations":0,"fill":1,"alternate":false,"speed":1}})]]></script></svg>