<svg id="elxm2pjAOKi1" xmlns="http://www.w3.org/2000/svg" xmlns:xlink="http://www.w3.org/1999/xlink" viewBox="0 0 200 270" shape-rendering="geometricPrecision" text-rendering="geometricPrecision"><g id="elxm2pjAOKi2" transform="matrix(-0.344147 -0.938916 0.938916 -0.344147 77.801918 295.139834)"><path id="elxm2pjAOKi3" d="M12.8726,176.873L30.1427,165.858L17.4143,153.131L6.39902,170.4L12.8726,176.873Z" clip-rule="evenodd" fill="rgb(250,89,79)" fill-rule="evenodd" stroke="none" stroke-width="1" stroke-miterlimit="1"/><path id="elxm2pjAOKi4" d="M21.8683,158.584L15.9499,152.666L5.08167,170.082L11,176L21.8683,158.584Z" clip-rule="evenodd" fill="rgb(207,44,69)" fill-rule="evenodd" stroke="none" stroke-width="1" stroke-miterlimit="1"/><path id="elxm2pjAOKi5" d="M14.9428,179.057C14.4221,179.578,13.5855,179.586,13.0743,179.074L3.61157,169.612C3.10032,169.101,3.10799,168.265,3.62871,167.744L4.57155,166.801C5.09227,166.28,5.92885,166.273,6.4401,166.784L15.9028,176.246C16.4141,176.757,16.4064,177.594,15.8857,178.114L14.9428,179.057Z" fill="rgb(250,89,79)" stroke="none" stroke-width="1" stroke-miterlimit="1"/><path id="elxm2pjAOKi6" d="M38.1214,144.121L22.5645,163.919L18.3217,159.677L38.1214,144.121Z" fill="rgb(226,216,255)" stroke="none" stroke-width="1" stroke-miterlimit="1"/><path id="elxm2pjAOKi7" d="M32.6377,151.363L37.958,144.603L18.1715,160.172L19.6122,161.612L32.6377,151.363Z" clip-rule="evenodd" fill="rgb(162,178,235)" fill-rule="evenodd" stroke="none" stroke-width="1" stroke-miterlimit="1"/><path id="elxm2pjAOKi8" d="M11.8285,172.172L6.3593,166.703C5.86502,166.209,5.04221,166.23,4.52149,166.751L3.57864,167.694C3.05792,168.214,3.03649,169.037,3.53076,169.531L9,175C8.50572,174.506,8.52716,173.683,9.04788,173.162L9.99072,172.22C10.5114,171.699,11.3343,171.677,11.8285,172.172Z" clip-rule="evenodd" fill="rgb(164,0,59)" fill-opacity="0.5" fill-rule="evenodd" stroke="none" stroke-width="1" stroke-miterlimit="1"/><path id="elxm2pjAOKi9" d="M29.6245,168.376C28.7273,169.273,27.2053,169.205,26.225,168.225L14.218,156.219C13.2377,155.239,13.1704,153.717,14.0676,152.82L14.3542,152.533C15.2514,151.636,16.7734,151.703,17.7537,152.684L29.7607,164.69C30.741,165.67,30.8084,167.192,29.9112,168.089L29.6245,168.376Z" fill="rgb(250,89,79)" stroke="none" stroke-width="1" stroke-miterlimit="1"/><path id="elxm2pjAOKi10" d="M23.5357,158.465L17.5938,152.523C16.5795,151.509,15.0299,151.414,14.1327,152.311L13.846,152.598C12.9488,153.495,13.0438,155.044,14.0581,156.059L20,162C18.9857,160.986,18.8907,159.436,19.7879,158.539L20.0746,158.253C20.9718,157.355,22.5214,157.45,23.5357,158.465Z" clip-rule="evenodd" fill="rgb(207,44,69)" fill-rule="evenodd" stroke="none" stroke-width="1" stroke-miterlimit="1"/></g><g id="elxm2pjAOKi11" transform="matrix(0.59 0 0 0.54 96.533255 84.982436)" opacity="0"><path id="elxm2pjAOKi12" d="M42.0132,163.038C42.0163,163.033,42.0194,163.029,42.0225,163.024L42.0227,163.052C43.5459,165.341,50.257,177.057,42.087,177.024C42.0839,177.024,42.0807,177.024,42.0776,177.024C42.0744,177.024,42.0682,177.024,42.0682,177.024C33.898,176.959,40.5078,165.323,42.0038,163.052L42.0036,163.024C42.0068,163.029,42.01,163.033,42.0132,163.038Z" clip-rule="evenodd" fill="rgb(103,166,193)" fill-rule="evenodd" stroke="none" stroke-width="1" stroke-miterlimit="1"/></g><g id="elxm2pjAOKi13" transform="matrix(1.2 0 0 1.09 70.87573 -8.530786)" opacity="0"><path id="elxm2pjAOKi14" d="M42.0132,163.038C42.0163,163.033,42.0194,163.029,42.0225,163.024L42.0227,163.052C43.5459,165.341,50.257,177.057,42.087,177.024C42.0839,177.024,42.0807,177.024,42.0776,177.024C42.0744,177.024,42.0682,177.024,42.0682,177.024C33.898,176.959,40.5078,165.323,42.0038,163.052L42.0036,163.024C42.0068,163.029,42.01,163.033,42.0132,163.038Z" clip-rule="evenodd" fill="rgb(103,166,193)" fill-rule="evenodd" stroke="none" stroke-width="1" stroke-miterlimit="1"/></g><g id="elxm2pjAOKi15" transform="matrix(1.295196 0 0 1 14.974463 11.024017)"><path id="elxm2pjAOKi16" d="M85,106.215L85,100.927C85,98.02,83.0594,95.6389,80.6337,95.6389L80.6337,94L28.3663,94L28.3663,95.6389C25.9661,95.6389,24,97.9891,24,100.927L24,106.215C24,108.317,24.9958,110.111,26.4768,110.977C26.63,111.069,26.7321,111.286,26.7321,111.502C26.7321,111.719,26.63,111.935,26.4768,112.028C25.0213,112.894,24,114.687,24,116.79L24,122.078C24,124.181,24.9958,125.974,26.4768,126.84C26.63,126.933,26.7321,127.149,26.7321,127.366C26.7321,127.582,26.63,127.799,26.4768,127.892C25.0213,128.757,24,130.551,24,132.654L24,137.941C24,140.044,24.9958,141.838,26.4768,142.704C26.63,142.796,26.7321,143.013,26.7321,143.229C26.7321,143.446,26.63,143.662,26.4768,143.755C25.0213,144.621,24,146.414,24,148.517C24,154.269,27.9067,159,32.707,159L76.293,159C81.1189,159,85,154.269,85,148.455C85,146.353,84.0042,144.559,82.5232,143.693C82.37,143.6,82.2679,143.384,82.2679,143.167C82.2679,142.951,82.37,142.735,82.5232,142.642C83.9787,141.776,85,139.982,85,137.88L85,132.592C85,130.489,84.0042,128.696,82.5232,127.83C82.37,127.737,82.2679,127.52,82.2679,127.304C82.2679,127.088,82.37,126.871,82.5232,126.778C83.9787,125.912,85,124.119,85,122.016L85,116.728C85,114.626,84.0042,112.832,82.5232,111.966C82.37,111.873,82.2679,111.657,82.2679,111.441C82.2679,111.224,82.37,111.008,82.5232,110.915C84.0042,110.111,85,108.317,85,106.215Z" fill="rgb(162,210,255)" fill-opacity="0.66" stroke="none" stroke-width="1" stroke-miterlimit="1"/><path id="elxm2pjAOKi17" d="M82.5171,110.477C83.9761,109.604,85,107.794,85,105.672L85,100.336C85,97.4027,83.0546,95,80.6229,95L74.3515,95C76.7577,95,78.7287,97.3715,78.7287,100.336L78.7287,105.672C78.7287,107.794,77.7304,109.604,76.2457,110.477C76.0922,110.571,75.9898,110.789,75.9898,111.008C75.9898,111.226,76.0922,111.445,76.2457,111.538C77.7048,112.412,78.7287,114.222,78.7287,116.344L78.7287,121.68C78.7287,123.802,77.7304,125.611,76.2457,126.485C76.0922,126.579,75.9898,126.797,75.9898,127.016C75.9898,127.234,76.0922,127.452,76.2457,127.546C77.7048,128.42,78.7287,130.23,78.7287,132.352L78.7287,137.687C78.7287,139.809,77.7304,141.619,76.2457,142.493C76.0922,142.587,75.9898,142.805,75.9898,143.023C75.9898,143.242,76.0922,143.46,76.2457,143.554C77.7048,144.428,78.7287,146.237,78.7287,148.359C78.7287,154.257,74.8123,159,70,159L76.2713,159C81.1092,159,85,154.226,85,148.359C85,146.237,84.0017,144.428,82.5171,143.554C82.3635,143.46,82.2611,143.242,82.2611,143.023C82.2611,142.805,82.3635,142.587,82.5171,142.493C83.9761,141.619,85,139.809,85,137.687L85,132.352C85,130.23,84.0017,128.42,82.5171,127.546C82.3635,127.452,82.2611,127.234,82.2611,127.016C82.2611,126.797,82.3635,126.579,82.5171,126.485C83.9761,125.611,85,123.802,85,121.68L85,116.344C85,114.222,84.0017,112.412,82.5171,111.538C82.3635,111.445,82.2611,111.226,82.2611,111.008C82.2355,110.789,82.3379,110.571,82.5171,110.477Z" fill="rgb(160,198,255)" stroke="none" stroke-width="1" stroke-miterlimit="1"/><path id="elxm2pjAOKi18" d="M71.97,109L25,109C25.4314,109.844,26.0404,110.531,26.7763,110.969C26.9285,111.063,27.03,111.281,27.03,111.5C27.03,111.719,26.9285,111.938,26.7763,112.031C26.0404,112.469,25.4314,113.156,25,114L71.97,114C73.0865,114,74,112.875,74,111.5C74,110.125,73.1119,109,71.97,109Z" fill="rgb(160,198,255)" stroke="none" stroke-width="1" stroke-miterlimit="1"/><path id="elxm2pjAOKi19" d="M82.2237,126.969C82.9596,126.531,83.5686,125.844,84,125L37.03,125C35.9135,125,35,126.125,35,127.5C35,128.875,35.9135,130,37.03,130L84,130C83.5686,129.156,82.9596,128.469,82.2237,128.031C82.0715,127.937,81.97,127.719,81.97,127.5C81.9446,127.281,82.0461,127.062,82.2237,126.969Z" fill="rgb(160,198,255)" stroke="none" stroke-width="1" stroke-miterlimit="1"/><path id="elxm2pjAOKi20" d="M71.97,141L25,141C25.4314,141.844,26.0404,142.531,26.7763,142.969C26.9285,143.063,27.03,143.281,27.03,143.5C27.03,143.719,26.9285,143.938,26.7763,144.031C26.0404,144.469,25.4314,145.156,25,146L71.97,146C73.0865,146,74,144.875,74,143.5C74,142.125,73.1119,141,71.97,141Z" fill="rgb(160,198,255)" stroke="none" stroke-width="1" stroke-miterlimit="1"/><path id="elxm2pjAOKi21" d="M82.8296,96L26.1704,96C24.9703,96,24,94.8116,24,93.3416L24,61.316C24,59.846,24.9703,58.6576,26.1704,58.6576L26.1704,57L82.8296,57L82.8296,58.6576C84.0297,58.6576,85,59.846,85,61.316L85,93.3416C85,94.8116,84.0297,96,82.8296,96Z" fill="rgb(103,166,193)" stroke="none" stroke-width="1" stroke-miterlimit="1"/><path id="elxm2pjAOKi22" d="M66.2518,90L41.7482,90C39.6867,90,38,87.1496,38,83.6657L38,69.3343C38,65.8504,39.6867,63,41.7482,63L66.2518,63C68.3133,63,70,65.8504,70,69.3343L70,83.6657C70,87.1496,68.3133,90,66.2518,90Z" fill="rgb(237,246,255)" stroke="none" stroke-width="1" stroke-miterlimit="1"/><path id="elxm2pjAOKi23" d="M58.0013,70.5397C57.9979,69.1992,58.0013,68.0751,58.0115,68.0454C58.0216,68.003,58.4392,67.9945,60.004,68.003L61.983,68.0157L61.9932,70.51L62,73L60.0074,72.9915L58.0115,72.9788L58.0013,70.5397ZM61.4229,72.2789L61.4229,70.4972L61.4229,68.7156L60.021,68.7156C59.2471,68.7156,58.6055,68.7283,58.5953,68.7453C58.5817,68.758,58.5716,69.5598,58.5716,70.5269L58.5716,72.2789L59.9972,72.2789L61.4229,72.2789ZM46.0203,72.9321C45.9932,72.8431,45.9932,68.1475,46.0203,68.0627C46.0407,67.999,46.2373,67.9948,48.0136,68.0033L49.9831,68.016L49.9932,70.5059L50,73L48.0203,73C46.2475,73,46.0407,72.9915,46.0203,72.9321ZM49.4237,72.2789L49.4237,70.4974L49.4237,68.7159L48.0169,68.7159C46.9186,68.7159,46.6034,68.7286,46.5932,68.771C46.5831,68.7965,46.5797,69.5939,46.5831,70.5398L46.5932,72.2577L48.0102,72.2704L49.4237,72.2789ZM47,70.0005C47,69.4732,47.0118,69.0325,47.0275,69.0168C47.0431,69.005,47.4863,68.9971,48.0157,69.001L48.9804,69.0128L48.9922,69.9808L49,70.9528L48.9137,70.9764C48.7961,71.0079,47.1412,71.0079,47.0627,70.9764C47.0078,70.9567,47,70.8308,47,70.0005ZM51.7184,68.053C51.6908,68.0838,51.6711,68.225,51.6711,68.375C51.6711,68.525,51.6513,68.6662,51.6237,68.6971C51.5961,68.728,51.4737,68.75,51.3513,68.75C51.0632,68.75,51,68.8118,51,69.1074C51,69.4559,51.0395,69.5,51.3276,69.5C51.4697,69.5,51.5961,69.5221,51.6237,69.5529C51.6513,69.5838,51.6711,69.7206,51.6711,69.8574C51.6711,70.1927,51.6158,70.25,51.3158,70.25C51.1184,70.25,51.075,70.2632,51.0355,70.3427C50.9763,70.4706,51.0079,70.9074,51.0829,70.9603C51.1618,71.0132,52.1724,71.0088,52.2671,70.9559C52.3382,70.9118,52.3421,70.85,52.3421,69.8971L52.3421,69.82C52.342,69.079,52.3419,68.851,52.4471,68.7809C52.4939,68.7498,52.5614,68.7499,52.6589,68.75L52.6776,68.75C53.0013,68.75,53.0132,68.7721,53.0132,69.5221C53.0132,70.1044,53.0211,70.1618,53.0882,70.2059C53.1316,70.2279,53.3921,70.25,53.6724,70.25C54.3118,70.25,54.3553,70.2235,54.3553,69.8574C54.3553,69.7206,54.375,69.5838,54.4026,69.5529C54.4697,69.4779,56.2145,69.4779,56.2816,69.5529C56.3092,69.5838,56.3289,69.725,56.3289,69.8838C56.3289,70.2103,56.2895,70.25,55.9539,70.25C55.7526,70.25,55.7329,70.2588,55.6934,70.3691C55.6421,70.5147,55.6697,70.8412,55.7368,70.9338C55.7763,70.9868,55.8947,71,56.3171,71C56.6092,71,56.8816,70.9779,56.925,70.9559C56.9961,70.9118,57,70.8456,57,69.5088C57,68.4765,56.9882,68.0927,56.9526,68.053C56.925,68.0221,56.8026,68,56.6803,68C56.3842,68,56.3289,68.0618,56.3289,68.3927C56.3289,68.5294,56.3092,68.6662,56.2816,68.6971C56.2303,68.7544,55.8237,68.7677,55.7487,68.7147C55.7211,68.6927,55.6855,68.5515,55.6737,68.3927C55.6579,68.2382,55.6303,68.0838,55.6066,68.053C55.5868,68.0221,55.4763,68,55.3421,68C55.0461,68,54.9868,68.0706,54.9868,68.428C54.9868,68.6309,54.9711,68.7015,54.9237,68.7235C54.8013,68.7765,53.7829,68.7544,53.7316,68.6971C53.7039,68.6662,53.6842,68.5294,53.6842,68.3927L53.6842,68.3666C53.6844,68.2399,53.6845,68.1569,53.6451,68.1027C53.5705,67.9999,53.3542,67.9999,52.7279,68L52.6618,68C52.0184,68,51.7539,68.0133,51.7184,68.053ZM59.0275,69.0168C59.0118,69.0325,59,69.4732,59,70.0005C59,70.8308,59.0078,70.9567,59.0627,70.9764C59.1412,71.0079,60.7961,71.0079,60.9137,70.9764L61,70.9528L60.9922,69.9808L60.9804,69.0128L60.0157,69.001C59.4863,68.9971,59.0431,69.005,59.0275,69.0168ZM53,71.4736C53,71.2015,53.0235,71.0536,53.0765,71.0359C53.1118,71.0181,53.3118,71.0004,53.5118,71.0004C53.9412,70.9945,54,71.0536,54,71.4913C54,71.5615,53.994,71.6241,53.982,71.6792L54.2574,71.6695C54.5709,71.6576,54.8467,71.6338,54.8732,71.6179C54.8996,71.5981,54.9185,71.4988,54.9185,71.3678C54.9185,71.2447,54.9374,71.1137,54.9601,71.07C54.9941,71.0025,55.0319,70.9946,55.2699,71.0025L55.5419,71.0144L55.5646,71.2844C55.5759,71.4313,55.6061,71.5742,55.6326,71.602C55.6628,71.6338,55.863,71.6536,56.2333,71.6616C56.6035,71.6695,56.7962,71.6894,56.8151,71.7211C56.8302,71.7489,56.8453,72.1698,56.8453,72.6621C56.8453,73.3053,56.8567,73.5713,56.8907,73.6071C56.9171,73.6349,57.038,73.6547,57.1665,73.6547C57.2949,73.6547,57.4158,73.6746,57.4423,73.7024C57.4725,73.7341,57.4876,73.9247,57.4876,74.3019C57.4876,74.6036,57.5065,74.8855,57.5254,74.9292C57.5594,74.9927,57.6085,75.0046,57.8012,75.0046C57.9372,75.0046,58.0581,75.0245,58.0845,75.0523C58.1374,75.1079,58.145,75.5128,58.0921,75.6002C58.0656,75.6478,57.9447,75.6637,57.4989,75.6716C57.1929,75.6796,56.9171,75.7074,56.8944,75.7272C56.8642,75.7511,56.8453,75.8622,56.8453,75.9972C56.8453,76.0166,56.8451,76.035,56.8448,76.0524L56.8448,76.0525C56.8437,76.1327,56.8429,76.1914,56.8685,76.2346C56.9384,76.3531,57.2061,76.3547,58.2073,76.3607L58.2073,76.3607L58.4926,76.3625L60,76.3744L60,76.6722L60,76.97L59.7544,76.9898C59.6184,77.0017,59.4862,77.0255,59.4635,77.0414C59.4257,77.0652,59.4144,77.236,59.4144,77.6608C59.4144,78.0618,59.3993,78.2603,59.3691,78.2921C59.3426,78.3199,59.2179,78.3397,59.0706,78.3397C58.7835,78.3397,58.7721,78.3278,58.7721,78.0181C58.7721,77.7601,58.6852,77.6648,58.4472,77.6648C58.1714,77.6648,58.1299,77.7045,58.1299,77.9943C58.1299,78.1372,58.111,78.2643,58.0845,78.2921C58.0203,78.3596,56.9549,78.3596,56.8907,78.2921C56.8642,78.2643,56.8453,78.1412,56.8453,78.0181C56.8453,77.7243,56.7924,77.6648,56.528,77.6648C56.2711,77.6648,56.2257,77.7203,56.2031,78.0578L56.2019,78.0746C56.2043,78.0716,56.2067,78.0689,56.2093,78.0663C56.278,77.9918,56.6059,77.9753,56.7242,78.0415C56.7852,78.0788,56.7966,78.1326,56.7966,78.3437C56.7966,78.4928,56.8157,78.6253,56.8424,78.6542C56.8767,78.6915,57.2695,78.7039,58.3831,78.7039C59.2068,78.7039,59.9047,78.7163,59.939,78.7288C59.9847,78.7495,60,78.8157,60,79.031C60,79.1925,59.9809,79.3291,59.9542,79.3581C59.9275,79.387,59.8093,79.4077,59.6911,79.4077C59.5538,79.4077,59.4585,79.4284,59.4318,79.4657C59.4013,79.503,59.3898,79.7182,59.3975,80.1364L59.4089,80.7533L59.6682,80.7781C59.8093,80.7905,59.9428,80.8195,59.9657,80.8444C59.9886,80.8692,59.9962,81.1383,59.9924,81.5233L59.9809,82.1609L59.7331,82.1733C59.5996,82.1816,59.4661,82.2065,59.4394,82.2313C59.3708,82.2893,59.3669,83.4651,59.4356,83.5396C59.4623,83.5686,59.5767,83.5893,59.6949,83.5893C59.8131,83.5893,59.9275,83.61,59.9542,83.6389C59.9809,83.6679,60,83.8045,60,83.966C60,84.1813,59.9847,84.2475,59.939,84.2682C59.8437,84.3089,57.5382,84.3001,56.9856,84.2653C56.9948,84.335,57,84.4165,57,84.5C57,84.7011,56.9697,84.8903,56.9273,84.9317C56.8424,85.0145,56.2242,85.0263,56.0909,84.9435C56.0242,84.9021,56,84.7838,56,84.5C56,84.2162,56.0242,84.0979,56.0909,84.0565C56.1937,83.9927,56.5847,83.9851,56.7972,84.0229C56.7968,84.0008,56.7966,83.9764,56.7966,83.9494C56.7966,83.8004,56.8157,83.6679,56.8424,83.6389C56.8767,83.6017,57.136,83.5893,57.7767,83.5893C58.6119,83.5893,58.6653,83.5851,58.7034,83.5106C58.7225,83.4651,58.7415,83.1835,58.7415,82.8813L58.7416,82.7912L58.7416,82.7912C58.7422,82.4784,58.7425,82.3258,58.6663,82.2514C58.5937,82.1806,58.4517,82.1809,58.1742,82.1815L58.0894,82.1816C57.464,82.1816,57.4449,82.194,57.4449,82.5501C57.4449,82.6784,57.4258,82.8068,57.3992,82.8358C57.3648,82.873,57.1169,82.8854,56.5106,82.8854C55.8966,82.8854,55.6487,82.8979,55.603,82.9351C55.5648,82.9682,55.5305,83.0717,55.5153,83.1959L55.5096,83.2523C55.4901,83.4477,55.4819,83.5301,55.4369,83.5647C55.4041,83.5899,55.3518,83.5897,55.2612,83.5893L55.2254,83.5893C54.9203,83.5893,54.8517,83.6514,54.8517,83.9329C54.8517,84.2227,54.9203,84.2931,55.1949,84.2931C55.3131,84.2931,55.4275,84.3138,55.4542,84.3428C55.5153,84.409,55.5153,84.881,55.4542,84.9472C55.3894,85.0176,53.7038,85.0176,53.639,84.9472C53.578,84.881,53.578,84.409,53.639,84.3428C53.6657,84.3138,53.7839,84.2931,53.9021,84.2931C54.1843,84.2931,54.2415,84.2351,54.2415,83.9536C54.2415,83.6514,54.1767,83.5893,53.8792,83.5893C53.6008,83.5893,53.5932,83.5768,53.5932,83.2166C53.5932,83.0179,53.6085,82.9641,53.6657,82.9268C53.7076,82.9061,53.9631,82.8854,54.2377,82.8854C54.5085,82.8854,54.7564,82.873,54.7907,82.8606C54.8364,82.8399,54.8517,82.7737,54.8517,82.5749C54.8517,82.194,54.8669,82.1858,55.5572,82.1733L56.1292,82.1609L56.1407,81.5151L56.1483,80.8692L56.0377,80.8154C55.9653,80.7823,55.7631,80.7698,55.4428,80.7823C54.8746,80.7988,54.8517,80.8112,54.8517,81.1921C54.8517,81.337,54.8326,81.4447,54.8059,81.4654C54.7792,81.4819,54.3521,81.5068,53.8602,81.5192L52.964,81.5399L52.9525,81.8007C52.9373,82.1402,52.9716,82.1816,53.2538,82.1816C53.4369,82.1816,53.4826,82.1982,53.5322,82.2727C53.6008,82.3762,53.6123,82.6205,53.5551,82.7778C53.5208,82.8772,53.4979,82.8854,53.3072,82.8854C52.9831,82.8854,52.9449,82.9227,52.9449,83.2291C52.9449,83.3781,52.964,83.5106,52.9907,83.5396C53.0174,83.5686,53.1356,83.5893,53.2538,83.5893C53.5551,83.5893,53.6047,83.6514,53.5856,83.9743C53.5742,84.1233,53.5475,84.231,53.5131,84.2558C53.4826,84.2765,53.3644,84.2931,53.25,84.2931C53.1318,84.2931,53.0174,84.3138,52.9907,84.3428C52.964,84.3717,52.9449,84.5042,52.9449,84.645C52.9449,84.7857,52.9258,84.9182,52.8992,84.9472C52.8648,84.9845,52.6093,84.9969,51.9877,84.9969C51.2479,84.9969,51.1106,84.9886,51.061,84.9307C51.0076,84.8768,51,84.6657,51,83.2746C51,82.252,51.0153,81.6517,51.0381,81.5979C51.0725,81.5316,51.122,81.5192,51.3394,81.5192C51.5453,81.5192,51.6064,81.5358,51.6254,81.5854C51.6369,81.6227,51.6483,81.9042,51.6483,82.2189C51.6483,82.6039,51.6636,82.8026,51.6941,82.8358C51.7551,82.902,52.1898,82.902,52.2508,82.8358C52.3157,82.7654,52.3157,81.6393,52.2508,81.5689C52.2242,81.5399,52.1136,81.5192,51.9992,81.5192C51.6864,81.5192,51.6483,81.4819,51.6483,81.1673C51.6483,81.0938,51.6493,81.034,51.656,80.9853C51.6111,80.9964,51.5392,80.9999,51.4238,80.9999L51.3884,80.9999C51.2822,81.0003,51.2154,81.0005,51.1734,80.9683C51.1024,80.9139,51.1025,80.7667,51.1027,80.3706L51.1027,80.3011C51.1027,79.9517,51.0876,79.7691,51.0574,79.7373C51.0271,79.7055,50.842,79.6896,50.4755,79.6896C49.8446,79.6896,49.8182,79.6777,49.8182,79.368L49.8182,79.3618C49.8182,79.2227,49.8181,79.1393,49.859,79.0894C49.9201,79.0147,50.0725,79.0147,50.4529,79.0147C50.8382,79.0147,51.0271,78.9988,51.0574,78.967C51.0838,78.9392,51.1027,78.8162,51.1027,78.6931C51.1027,78.3953,51.1556,78.3397,51.4389,78.3397C51.5561,78.3397,51.6732,78.3199,51.6996,78.2921C51.7261,78.2643,51.745,78.1412,51.745,78.0181C51.745,77.7164,51.6921,77.6648,51.4049,77.6648C51.1367,77.6648,51.1027,77.6211,51.1027,77.2915C51.1027,77.1605,51.0838,77.0613,51.0574,77.0414C51.0309,77.0255,50.6078,77.0017,50.1204,76.9898L49.2326,76.97L49.2137,76.7039C49.2023,76.557,49.1759,76.4181,49.1532,76.3942C49.1306,76.3704,49.0059,76.3545,48.851,76.3625L48.5903,76.3744L48.5714,77.3074C48.5601,77.8196,48.5374,78.2643,48.5223,78.2881C48.4841,78.3501,48.1053,78.3552,47.9967,78.3064C47.9995,78.3636,48,78.4314,48,78.5118C48,78.7971,47.9765,78.9412,47.9294,78.9647C47.8353,79.0118,47.1647,79.0118,47.0706,78.9647C47.0235,78.9412,47,78.7971,47,78.5118C47,78.1706,47.0176,78.0853,47.0941,78.0471C47.1529,78.0147,47.2941,78,47.5,78C47.7404,78,47.8653,78.0044,47.9302,78.0699C47.9295,78.0528,47.9291,78.0355,47.9291,78.0181C47.9291,77.7203,47.8762,77.6648,47.5929,77.6648C47.4758,77.6648,47.3587,77.6449,47.3322,77.6171C47.3058,77.5893,47.2869,77.4662,47.2869,77.3432C47.2869,77.0454,47.3398,76.9898,47.6231,76.9898C47.7402,76.9898,47.8574,76.97,47.8838,76.9422C47.948,76.8747,47.948,75.7828,47.8838,75.7272C47.8574,75.7074,47.7289,75.6796,47.5967,75.6716C47.4455,75.6597,47.3435,75.6319,47.3209,75.5962C47.2718,75.5128,47.2793,75.1079,47.3322,75.0523C47.3587,75.0245,47.4795,75.0046,47.608,75.0046C47.7365,75.0046,47.8574,74.9848,47.8838,74.957C47.9102,74.9292,47.9291,74.8021,47.9291,74.6592C47.9291,74.4567,47.9178,74.4051,47.8574,74.3694C47.812,74.3455,47.4531,74.3297,46.9506,74.3297L46.9165,74.3297L46.9165,74.3297C46.3031,74.3297,46.1013,74.3297,46.0349,74.2349C46.0023,74.1884,46.0023,74.119,46.0023,74.0157L46.0023,74.0081C46.0023,73.9808,46.0017,73.9556,46.001,73.9324C45.999,73.8573,45.9975,73.8024,46.0212,73.7623C46.0855,73.6531,46.3359,73.6533,47.2682,73.6545L47.5967,73.6547L47.8912,73.6545C48.8656,73.6537,49.1235,73.6534,49.1907,73.7665C49.2149,73.8072,49.2145,73.8626,49.2138,73.9379C49.2136,73.9573,49.2134,73.978,49.2137,74.0001C49.2137,74.2741,49.157,74.3297,48.8774,74.3297C48.7603,74.3297,48.6432,74.3495,48.6167,74.3773C48.5525,74.4448,48.5525,75.5843,48.6167,75.624C48.6923,75.6716,49.0928,75.6558,49.1532,75.6002C49.1948,75.5644,49.2137,75.4771,49.2137,75.3024C49.2137,75.1118,49.2288,75.0483,49.2741,75.0284C49.3081,75.0165,49.565,75.0046,49.8522,75.0046C50.2035,75.0046,50.3849,74.9887,50.4151,74.957C50.4415,74.9292,50.4604,74.8021,50.4604,74.6671C50.4604,74.5322,50.4415,74.4051,50.4151,74.3773C50.3886,74.3495,50.2715,74.3297,50.1544,74.3297C49.8748,74.3297,49.8182,74.2741,49.8182,73.9922C49.8182,73.9735,49.8179,73.9558,49.8177,73.9391C49.8166,73.8646,49.8158,73.8095,49.8396,73.7688C49.9069,73.6538,50.171,73.6539,51.1822,73.6546L51.4389,73.6547C52.5535,73.6547,52.9502,73.6666,52.9842,73.7024C52.9899,73.7084,52.9952,73.719,53.0001,73.7334C53.0007,73.7013,53.0027,73.6702,53.0059,73.6424C53.0021,73.5914,53,73.5364,53,73.4797C53,73.1927,53.0238,73.097,53.1073,73.0432C53.1719,73.0036,53.4334,72.9922,53.6455,73.005C53.6765,73.0018,53.7127,73,53.7529,73C53.9059,73,53.9441,73.0088,53.9706,73.0559C53.9853,73.0882,54,73.2882,54,73.5L54,73.52C54.0002,73.5551,53.9996,73.5897,53.9984,73.623C53.9942,73.7843,53.9824,73.9182,53.9706,73.9441C53.9418,73.9931,53.9044,73.9998,53.5288,74L53.5186,74L53.5161,74L53.5059,74C53.2059,74,53.0588,73.9882,53.0353,73.9647C53.0331,73.9625,53.0309,73.9594,53.0289,73.9556C53.0293,73.9702,53.0295,73.9851,53.0295,74.0001C53.0295,74.29,52.9917,74.3297,52.6933,74.3297C52.4023,74.3297,52.3872,74.3614,52.3872,74.9967C52.3872,75.2945,52.4061,75.5684,52.425,75.6002C52.4515,75.6478,52.5761,75.6637,53.0295,75.6756L53.0309,75.6756C53.5962,75.6875,53.6,75.6876,53.6378,75.7868C53.6907,75.9337,53.6793,76.1679,53.6113,76.2672C53.5584,76.3506,53.5282,76.3545,53.0144,76.3545C52.6479,76.3545,52.4628,76.3704,52.4326,76.4022C52.3872,76.4498,52.3683,76.8151,52.4099,76.9263C52.4288,76.9819,52.5157,76.9898,52.9766,76.9898C53.6302,76.9898,53.6718,77.0136,53.6718,77.359C53.6718,77.4742,53.6907,77.5893,53.7171,77.6171C53.7662,77.6687,54.741,77.6886,54.8581,77.6409C54.911,77.6211,54.9185,77.5298,54.9185,77.0613C54.9185,76.7556,54.9374,76.4737,54.9563,76.43C54.9941,76.3625,55.0432,76.3545,55.5532,76.3545C55.9386,76.3545,56.1275,76.3387,56.1577,76.3069C56.1842,76.2791,56.2031,76.1481,56.2031,75.9932C56.2031,75.7868,56.1879,75.7233,56.1426,75.7034C56.1086,75.6915,55.7308,75.6796,55.2963,75.6796C54.8619,75.6796,54.4652,75.6637,54.4123,75.6399C54.3216,75.6041,54.314,75.5843,54.314,75.35C54.314,75.2071,54.3329,75.0801,54.3594,75.0523C54.3934,75.0165,54.7145,75.0046,55.5797,75.0046C56.4449,75.0046,56.766,74.9927,56.8,74.957C56.8264,74.9292,56.8453,74.8021,56.8453,74.6592C56.8453,74.4567,56.834,74.4051,56.7735,74.3694C56.7282,74.3455,56.3693,74.3297,55.8668,74.3297C55.1641,74.3297,55.0281,74.3217,54.979,74.2661C54.9261,74.2145,54.9185,74.0676,54.9185,73.2974L54.9186,73.1935L54.9186,73.1935C54.9188,72.5816,54.9189,72.3905,54.8305,72.3311C54.7903,72.3041,54.7318,72.3044,54.6468,72.3047L54.6163,72.3048C54.3556,72.3048,54.314,72.3485,54.314,72.6383C54.314,72.9599,54.2838,72.9877,53.9476,72.9718L53.6907,72.9599L53.6907,72.3246L53.6907,71.9842C53.6443,71.9948,53.5926,72,53.5353,72C53.4059,72,53.2353,71.9763,53.1529,71.9409C53.0118,71.8876,53,71.858,53,71.4736ZM51.7307,80.8395C51.8175,80.7786,51.995,80.774,52.3576,80.774C52.8153,80.774,52.903,80.7657,52.922,80.7077C52.964,80.5918,52.9449,80.2109,52.8992,80.1612C52.8725,80.1323,52.7542,80.1116,52.636,80.1116C52.3576,80.1116,52.2966,80.0536,52.2966,79.7762C52.2966,79.6238,52.2966,79.5344,52.3406,79.482C52.403,79.4077,52.5538,79.4077,52.9182,79.4077C53.2157,79.4077,53.4826,79.4243,53.5131,79.445C53.5475,79.4698,53.5742,79.5816,53.5856,79.7472C53.5932,79.8921,53.6199,80.0329,53.639,80.0577C53.6924,80.1323,55.3894,80.1323,55.4542,80.0619C55.4847,80.0288,55.5,79.8342,55.5,79.4657C55.5,79.2728,55.5062,79.0832,55.5167,78.9562C55.515,78.959,55.5133,78.9613,55.5117,78.9631C55.4928,78.9948,55.387,79.0147,55.2548,79.0147C54.9676,79.0147,54.9185,78.9631,54.9185,78.6574C54.9185,78.4668,54.9034,78.4152,54.8467,78.3794C54.7485,78.3278,53.8418,78.3278,53.7436,78.3794C53.6869,78.4152,53.6718,78.4668,53.6718,78.6574C53.6718,78.9591,53.6227,79.0147,53.3355,79.0147C53.2184,79.0147,53.1013,78.9948,53.0748,78.967C53.0484,78.9392,53.0295,78.8162,53.0295,78.6931C53.0295,78.3993,52.9766,78.3397,52.7084,78.3397C52.4401,78.3397,52.3872,78.3993,52.3872,78.6931C52.3872,78.8162,52.3683,78.9392,52.3419,78.967C52.3154,78.9948,52.1946,79.0147,52.0661,79.0147C51.9376,79.0147,51.8167,79.0345,51.7903,79.0623C51.7563,79.0981,51.745,79.3601,51.745,79.9914C51.745,80.353,51.7386,80.6814,51.7307,80.8395ZM55.5642,78.7533C55.5945,78.7086,55.6472,78.7039,55.8165,78.7039C55.9538,78.7039,56.0758,78.6832,56.1025,78.6542C56.1292,78.6253,56.1483,78.4969,56.1483,78.3686C56.1483,78.3527,56.1485,78.3373,56.1489,78.3226L55.931,78.3397C55.7913,78.3516,55.659,78.3794,55.6364,78.4032C55.6137,78.4271,55.5835,78.5541,55.5721,78.6812C55.57,78.7053,55.5673,78.7296,55.5642,78.7533ZM56.1313,72.3445C56.1955,72.3842,56.2031,72.4358,56.2031,72.9758C56.2031,73.4363,56.1917,73.5753,56.1502,73.611C56.1162,73.6388,56.0028,73.6547,55.8593,73.6468C55.6212,73.6349,55.6212,73.6349,55.5872,73.4959C55.5683,73.4205,55.5608,73.1465,55.5683,72.8845C55.5835,72.4795,55.5948,72.408,55.6552,72.3604C55.7384,72.2968,56.0255,72.2889,56.1313,72.3445ZM51.0422,75.7034C51.0876,75.7233,51.1027,75.7868,51.1027,75.9932C51.1027,76.1481,51.0838,76.2791,51.0574,76.3069C51.0271,76.3387,50.842,76.3545,50.4755,76.3545C49.9617,76.3545,49.9315,76.3506,49.8786,76.2672C49.8106,76.1679,49.7993,75.8702,49.8559,75.755C49.8937,75.6875,49.9428,75.6796,50.4415,75.6796C50.74,75.6796,51.0082,75.6915,51.0422,75.7034ZM51.0602,71.9424C50.9725,71.8576,50.9842,71.0818,51.0719,71.0364C51.1128,71.0152,51.3056,71,51.5336,71C51.8374,71,51.9309,71.0121,51.9602,71.0485C52.0303,71.1424,52.0011,71.9242,51.9251,71.9636C51.8842,71.9848,51.6972,72,51.4868,72C51.1888,72,51.1128,71.9909,51.0602,71.9424ZM52.0397,71.0485C51.9698,71.1424,51.9989,71.9242,52.0747,71.9636C52.1155,71.9848,52.302,72,52.5002,72C52.6984,72,52.8849,71.9848,52.9257,71.9636C53.0248,71.9121,53.0248,71.0879,52.9257,71.0364C52.8849,71.0152,52.6925,71,52.4652,71C52.1621,71,52.0689,71.0121,52.0397,71.0485ZM58,73.6696C58,73.2757,58.0118,73.0788,58.0353,73.0473C58.0559,73.0197,58.15,73,58.2559,73C58.4735,73,58.5,73.0394,58.5,73.3624C58.5,73.4806,58.5147,73.5948,58.5353,73.6224C58.5559,73.65,58.6471,73.6696,58.7382,73.6696C58.9912,73.6696,59,73.6893,59,74.3354C59,74.7726,58.9912,74.8908,58.9559,74.9302C58.8941,74.9971,58.6765,75.0247,58.5824,74.9735C58.5059,74.9341,58.5,74.9144,58.5,74.7135C58.5,74.3787,58.4735,74.3393,58.2559,74.3393C58.15,74.3393,58.0559,74.3196,58.0353,74.292C58.0118,74.2605,58,74.0636,58,73.6696ZM59.075,73.0705C58.975,73.1646,58.975,73.8348,59.075,73.9288C59.15,73.9994,59.725,74.0288,59.9,73.9641C59.975,73.9347,60,73.8407,60,73.535C60,73.3057,59.9687,73.1117,59.925,73.0705C59.825,72.9765,59.175,72.9765,59.075,73.0705ZM61,73.535C61,73.3057,61.0312,73.1117,61.075,73.0705C61.175,72.9765,61.825,72.9765,61.925,73.0705C61.9687,73.1117,62,73.2998,62,73.4997C62,73.6996,61.9687,73.8877,61.925,73.9288C61.85,73.9994,61.275,74.0288,61.1,73.9641C61.025,73.9347,61,73.8407,61,73.535ZM61.0942,74.0941C60.9884,74.2,60.9648,74.7059,61.059,74.8882C61.1119,74.9824,61.1883,75,61.4883,75C61.7,75,61.8883,74.9706,61.9294,74.9294C61.9706,74.8882,62,74.7,62,74.5C62,74.3,61.9706,74.1118,61.9294,74.0706C61.8236,73.9647,61.206,73.9823,61.0942,74.0941ZM60.0766,75.8848C59.9876,75.7455,59.9709,75.2848,60.0544,75.1152C60.1044,75.0182,60.1767,75,60.4827,75C60.9166,75,60.9944,75.0727,61,75.4909C61,75.9091,60.911,76,60.4994,76C60.2268,76,60.1434,75.9758,60.0766,75.8848ZM46.0294,75.0752C46.0118,75.1267,46,75.8079,46,77.0158C46,78.6555,46.0059,78.8812,46.0471,78.9366C46.1029,79.0119,46.4118,79.0238,46.4647,78.9525C46.4912,78.9168,46.5,78.505,46.5,77.3366C46.5,76.1683,46.5088,75.7564,46.5353,75.7208C46.5559,75.6931,46.6471,75.6733,46.7382,75.6733C46.9588,75.6733,47,75.6178,47,75.3208C47,75.198,46.9853,75.0752,46.9647,75.0475C46.9412,75.0158,46.7941,75,46.4941,75C46.0971,75,46.0588,75.0079,46.0294,75.0752ZM61.0032,76.2758C60.9971,76.1697,61.0001,76.0636,61.0092,76.0424C61.0213,76.0091,61.1275,76,61.4943,76C61.8914,76,61.9642,76.0061,61.9793,76.0485C62.0157,76.1424,62.0006,76.9242,61.9611,76.9636C61.9399,76.9848,61.8429,77,61.7338,77C61.5094,77,61.4821,76.9697,61.4821,76.7152C61.4821,76.6152,61.467,76.5394,61.4458,76.5242C61.4245,76.5121,61.3184,76.4939,61.2093,76.4848L61.0122,76.4697L61.0032,76.2758ZM49.7644,78.0313C49.7089,78.0548,49.6931,78.102,49.6931,78.2433C49.6931,78.3493,49.6733,78.4435,49.6455,78.4641C49.6178,78.4847,49.499,78.4995,49.3762,78.4995C49.0673,78.4995,49,78.5436,49,78.7438C49,78.9941,49.0158,79,49.6535,79C49.9545,79,50.2277,78.9912,50.2634,78.9823C50.3109,78.9676,50.3267,78.9205,50.3267,78.7792C50.3267,78.5407,50.3822,78.4995,50.7109,78.4995C50.9921,78.4995,51,78.4906,51,78.2345C51,78.0931,50.9842,78.0548,50.9248,78.0283C50.8257,77.9901,49.8554,77.9901,49.7644,78.0313ZM60.0002,78.3071C60.0002,78.1893,60.0237,78.1214,60.0786,78.0714C60.1492,78.0071,60.208,78,60.6706,78C60.9528,78,61.2155,78.0179,61.2586,78.0357C61.3214,78.0679,61.3331,78.1143,61.3331,78.2964C61.3331,78.425,61.3527,78.5393,61.3802,78.5643C61.4076,78.5893,61.5213,78.6071,61.6389,78.6071C61.6627,78.6071,61.685,78.6068,61.7058,78.6065C61.7991,78.6052,61.8629,78.6043,61.9065,78.6336C62.0011,78.697,62.0008,78.9021,61.9998,79.5521L61.9996,79.7857C61.9996,80.3892,61.9878,80.9107,61.9761,80.9428C61.9565,80.9928,61.8349,81,61.0156,81L60.909,81C60.2722,81.0002,60.0809,81.0003,60.0239,80.9128C59.9994,80.8753,59.9997,80.8217,60.0001,80.745L60.0002,80.7142C60.0002,80.4321,60.0041,80.4285,60.6588,80.4285C61.0587,80.4285,61.2547,80.4142,61.2861,80.3857C61.3174,80.3571,61.3331,80.1785,61.3331,79.8214C61.3331,79.4643,61.3174,79.2857,61.2861,79.2571C61.2586,79.2321,61.1489,79.2143,61.0352,79.2143C60.7215,79.2143,60.7059,79.2036,60.7059,78.9607C60.7059,78.6714,60.6314,78.6071,60.3138,78.6071C60.0433,78.6071,60.0002,78.5678,60.0002,78.3071ZM58.5,81C58.5988,81,58.6771,80.9984,58.7392,80.994C58.734,81.3338,58.7174,81.3797,58.6653,81.4364C58.5928,81.5151,58.5394,81.5192,57.7614,81.5192C57.0483,81.5192,56.9263,81.5109,56.8653,81.4488C56.8042,81.3867,56.7966,81.2998,56.7966,80.4428C56.7966,79.7721,56.8081,79.4947,56.8424,79.4574C56.8767,79.4202,57.1322,79.4077,57.7538,79.4077C58.4936,79.4077,58.6309,79.416,58.6805,79.474C58.7219,79.5157,58.7358,79.6147,58.7399,80.0158C58.6692,80.0058,58.5857,80,58.5,80C58.3002,80,58.1122,80.0313,58.0711,80.075C58.0006,80.15,57.9712,80.725,58.0359,80.9C58.0652,80.9812,58.1651,81,58.5,81ZM52.2966,83.9205C52.2966,83.7217,52.2814,83.6679,52.2242,83.6307C52.1212,83.5727,51.7513,83.5768,51.6941,83.6389C51.6674,83.6679,51.6483,83.8004,51.6483,83.9494C51.6483,84.2517,51.6864,84.2931,51.9877,84.2931C52.2432,84.2931,52.2966,84.2268,52.2966,83.9205ZM54.0364,79.9297C53.9879,79.8361,53.9879,79.1687,54.0364,79.075C54.0758,78.9989,54.8576,78.9697,54.9515,79.0399C54.9879,79.0692,55,79.1628,55,79.4673C55,79.6956,54.9848,79.8888,54.9636,79.9297C54.9394,79.9766,54.7909,80,54.5,80C54.2091,80,54.0606,79.9766,54.0364,79.9297ZM46.0226,80.0297C45.9887,80.0679,45.9955,84.8868,46.026,84.9546C46.0497,84.997,46.4702,85.0055,48.0198,84.997L49.983,84.9843L49.9932,82.49L50,80L48.0232,80C46.9347,80,46.0328,80.0127,46.0226,80.0297ZM49.4168,82.4943L49.4236,84.2844L48.0096,84.2759L46.5923,84.2632L46.5821,82.4943C46.5753,80.8399,46.5787,80.7254,46.633,80.7084C46.6669,80.6957,47.3043,80.6914,48.0503,80.6957L49.4066,80.6999L49.4168,82.4943ZM47,84L47,83L47,82L47.9922,82.008L48.9804,82.02L48.9922,83.008L49,84L48,84L47,84ZM61.029,82.0426C61.0077,82.0691,60.9955,82.163,61.0016,82.2864L61.0107,82.4861L61.2086,82.5008C61.3181,82.5096,61.4247,82.5272,61.446,82.5389C61.4673,82.5536,61.4825,82.6329,61.4825,82.7474C61.4825,82.8502,61.4977,82.9442,61.519,82.9648C61.5678,83.0117,61.9148,83.0117,61.9635,82.9648C61.9878,82.9413,62,82.7944,62,82.4949C62,82.0984,61.9939,82.0602,61.9422,82.0309C61.8478,81.9839,61.0716,81.9927,61.029,82.0426ZM60,83.5059C60,83.3118,60.0333,83.2,60.1111,83.1176C60.1944,83.0294,60.2944,83,60.5,83C60.8667,83,61,83.1353,61,83.5059C61,83.9471,60.9444,84,60.5,84C60.0556,84,60,83.9471,60,83.5059ZM60.7049,84.2016C60.7049,84.0926,60.7245,84.0278,60.7559,84.019C60.854,83.9866,61.2386,83.9984,61.2857,84.0337C61.3132,84.0543,61.3328,84.1457,61.3328,84.237C61.3328,84.4579,61.3878,84.4992,61.6821,84.4992C61.8038,84.4992,61.9254,84.5139,61.9529,84.5345C61.9804,84.5552,62,84.6494,62,84.7496C62,84.8498,61.9804,84.944,61.9529,84.9646C61.9176,84.9912,61.6546,85,61.0149,85C60.1358,85,60.1201,85,60.0612,84.9352C59.9906,84.8615,59.9788,84.6406,60.0377,84.5552C60.073,84.508,60.124,84.4992,60.332,84.4992C60.6421,84.4992,60.7049,84.4491,60.7049,84.2016Z" clip-rule="evenodd" fill="rgb(67,56,54)" fill-rule="evenodd" stroke="none" stroke-width="1" stroke-miterlimit="1"/><path id="elxm2pjAOKi24" d="M45.9868,66L62.0132,66C63.1105,66,64,66.934,64,68.0861L64,84.9139C64,86.066,63.1105,87,62.0132,87L45.9868,87C44.8895,87,44,86.066,44,84.9139L44,68.0861C44,66.934,44.8895,66,45.9868,66ZM45.9868,67.1474C45.493,67.1474,45.0927,67.5676,45.0927,68.0861L45.0927,84.9139C45.0927,85.4324,45.493,85.8526,45.9868,85.8526L62.0132,85.8526C62.507,85.8526,62.9073,85.4324,62.9073,84.9139L62.9073,68.0861C62.9073,67.5676,62.507,67.1474,62.0132,67.1474L45.9868,67.1474Z" clip-rule="evenodd" fill="rgb(67,56,54)" fill-rule="evenodd" stroke="none" stroke-width="1" stroke-miterlimit="1"/><path id="elxm2pjAOKi25" d="M65.6212,63L53,63C55.4212,63,57.3788,66.0088,57.3788,69.7302L57.3788,83.2698C57.3788,86.9912,55.4212,90,53,90L65.6212,90C68.0424,90,70,86.9912,70,83.2698L70,69.7302C70,66.0088,68.0424,63,65.6212,63Z" fill="rgb(10,27,179)" fill-opacity="0.21" stroke="none" stroke-width="1" stroke-miterlimit="1"/><path id="elxm2pjAOKi26" d="M82.9394,58.6576L82.9394,57L77,57L77,58.6576C78.1394,58.6576,79.0606,59.846,79.0606,61.316L79.0606,93.3416C79.0606,94.8116,78.1394,96,77,96L82.9394,96C84.0788,96,85,94.8116,85,93.3416L85,61.3472C85,59.8773,84.0788,58.6576,82.9394,58.6576Z" fill="rgb(60,152,191)" stroke="none" stroke-width="1" stroke-miterlimit="1"/><path id="elxm2pjAOKi27" d="M46,14L63,14L63,28L46,28L46,14Z" fill="rgb(160,198,255)" stroke="none" stroke-width="1" stroke-miterlimit="1"/><path id="elxm2pjAOKi28" d="M45.7802,26C33.7539,26,24,37.9375,24,52.6875L24,55.3438C24,56.8125,24.9703,58,26.1704,58L82.8296,58C84.0297,58,85,56.8125,85,55.3438L85,52.6875C85,37.9688,75.2461,26.0312,63.2198,26.0312L45.7802,26.0312L45.7802,26Z" fill="rgb(162,210,255)" fill-opacity="0.66" stroke="none" stroke-width="1" stroke-miterlimit="1"/><path id="elxm2pjAOKi29" d="M68,16L42,16L42,5C42,2.25,43.8281,0,46.0625,0L63.9375,0C66.1719,0,68,2.25,68,5L68,16Z" fill="rgb(237,246,255)" stroke="none" stroke-width="1" stroke-miterlimit="1"/><path id="elxm2pjAOKi30" d="M63.4784,0L57,0C59.4856,0,61.5216,2.375,61.5216,5.34375L61.5216,16L68,16L68,5.34375C68,2.375,65.9639,0,63.4784,0Z" fill="rgb(216,226,243)" stroke="none" stroke-width="1" stroke-miterlimit="1"/><path id="elxm2pjAOKi31" d="M67.973,18L42.027,18C40.9122,18,40,16.875,40,15.5C40,14.125,40.9122,13,42.027,13L67.973,13C69.0878,13,70,14.125,70,15.5C70,16.875,69.0878,18,67.973,18Z" fill="rgb(216,226,243)" stroke="none" stroke-width="1" stroke-miterlimit="1"/><path id="elxm2pjAOKi32" d="M63.2477,26L57,26C69.0109,26,78.7523,37.9492,78.7523,52.6823L78.7523,55.3412C78.7523,56.8113,77.7832,58,76.5847,58L82.8324,58C84.031,58,85,56.8113,85,55.3412L85,52.6823C85,37.9492,75.2587,26,63.2477,26Z" fill="rgb(160,198,255)" stroke="none" stroke-width="1" stroke-miterlimit="1"/><path id="elxm2pjAOKi33" d="M32.9097,82L24,82L24,87L32.9097,87C34.0594,87,35,85.875,35,84.5C35,83.0938,34.0855,82,32.9097,82Z" fill="rgb(60,152,191)" stroke="none" stroke-width="1" stroke-miterlimit="1"/><path id="elxm2pjAOKi34" d="M85,87L85,82L76.0903,82C74.9406,82,74,83.125,74,84.5C74,85.875,74.9406,87,76.0903,87L85,87Z" fill="rgb(60,152,191)" stroke="none" stroke-width="1" stroke-miterlimit="1"/></g><script><![CDATA[!function(t,n){"object"==typeof exports&&"undefined"!=typeof module?module.exports=n():"function"==typeof define&&define.amd?define(n):(t="undefined"!=typeof globalThis?globalThis:t||self).__SVGATOR_PLAYER__=n()}(this,(function(){"use strict";function t(n){return(t="function"==typeof Symbol&&"symbol"==typeof Symbol.iterator?function(t){return typeof t}:function(t){return t&&"function"==typeof Symbol&&t.constructor===Symbol&&t!==Symbol.prototype?"symbol":typeof t})(n)}function n(t,n){if(!(t instanceof n))throw new TypeError("Cannot call a class as a function")}function r(t,n){for(var r=0;r<n.length;r++){var e=n[r];e.enumerable=e.enumerable||!1,e.configurable=!0,"value"in e&&(e.writable=!0),Object.defineProperty(t,e.key,e)}}function e(t,n,e){return n&&r(t.prototype,n),e&&r(t,e),t}function i(t){return(i=Object.setPrototypeOf?Object.getPrototypeOf:function(t){return t.__proto__||Object.getPrototypeOf(t)})(t)}function o(t,n){return(o=Object.setPrototypeOf||function(t,n){return t.__proto__=n,t})(t,n)}function u(t,n){return!n||"object"!=typeof n&&"function"!=typeof n?function(t){if(void 0===t)throw new ReferenceError("this hasn't been initialised - super() hasn't been called");return t}(t):n}function a(t){var n=function(){if("undefined"==typeof Reflect||!Reflect.construct)return!1;if(Reflect.construct.sham)return!1;if("function"==typeof Proxy)return!0;try{return Boolean.prototype.valueOf.call(Reflect.construct(Boolean,[],(function(){}))),!0}catch(t){return!1}}();return function(){var r,e=i(t);if(n){var o=i(this).constructor;r=Reflect.construct(e,arguments,o)}else r=e.apply(this,arguments);return u(this,r)}}function l(t,n,r){return(l="undefined"!=typeof Reflect&&Reflect.get?Reflect.get:function(t,n,r){var e=function(t,n){for(;!Object.prototype.hasOwnProperty.call(t,n)&&null!==(t=i(t)););return t}(t,n);if(e){var o=Object.getOwnPropertyDescriptor(e,n);return o.get?o.get.call(r):o.value}})(t,n,r||t)}var f=s(Math.pow(10,-6));function s(t){var n=arguments.length>1&&void 0!==arguments[1]?arguments[1]:6;if(Number.isInteger(t))return t;var r=Math.pow(10,n);return Math.round((+t+Number.EPSILON)*r)/r}function c(t,n){var r=arguments.length>2&&void 0!==arguments[2]?arguments[2]:f;return Math.abs(t-n)<r}var h=Math.PI/180;function v(t){return t}function y(t,n,r){var e=1-r;return 3*r*e*(t*e+n*r)+r*r*r}function d(){var t=arguments.length>0&&void 0!==arguments[0]?arguments[0]:0,n=arguments.length>1&&void 0!==arguments[1]?arguments[1]:0,r=arguments.length>2&&void 0!==arguments[2]?arguments[2]:1,e=arguments.length>3&&void 0!==arguments[3]?arguments[3]:1;return t<0||t>1||r<0||r>1?null:c(t,n)&&c(r,e)?v:function(i){if(i<=0)return t>0?i*n/t:0===n&&r>0?i*e/r:0;if(i>=1)return r<1?1+(i-1)*(e-1)/(r-1):1===r&&t<1?1+(i-1)*(n-1)/(t-1):1;for(var o,u=0,a=1;u<a;){var l=y(t,r,o=(u+a)/2);if(c(i,l))break;l<i?u=o:a=o}return y(n,e,o)}}function g(){return 1}function p(t){return 1===t?1:0}function m(){var t=arguments.length>0&&void 0!==arguments[0]?arguments[0]:1,n=arguments.length>1&&void 0!==arguments[1]?arguments[1]:0;if(1===t){if(0===n)return p;if(1===n)return g}var r=1/t;return function(t){return t>=1?1:(t+=n*r)-t%r}}function b(t,n,r){return t>=.5?r:n}function w(t,n,r){return 0===t||n===r?n:t*(r-n)+n}function x(t,n,r){var e=w(t,n,r);return e<=0?0:e}function k(t,n,r){return 0===t?n:1===t?r:{x:w(t,n.x,r.x),y:w(t,n.y,r.y)}}function A(t,n,r){var e=function(t,n,r){return Math.round(w(t,n,r))}(t,n,r);return e<=0?0:e>=255?255:e}function _(t,n,r){return 0===t?n:1===t?r:{r:A(t,n.r,r.r),g:A(t,n.g,r.g),b:A(t,n.b,r.b),a:w(t,null==n.a?1:n.a,null==r.a?1:r.a)}}function S(t,n,r){if(0===t)return n;if(1===t)return r;var e=n.length;if(e!==r.length)return b(t,n,r);for(var i=[],o=0;o<e;o++)i.push(_(t,n[o],r[o]));return i}function O(t,n){for(var r=[],e=0;e<t;e++)r.push(n);return r}function M(t,n){if(--n<=0)return t;var r=(t=Object.assign([],t)).length;do{for(var e=0;e<r;e++)t.push(t[e])}while(--n>0);return t}var j,P=function(){function t(r){n(this,t),this.list=r,this.length=r.length}return e(t,[{key:"setAttribute",value:function(t,n){for(var r=this.list,e=0;e<this.length;e++)r[e].setAttribute(t,n)}},{key:"removeAttribute",value:function(t){for(var n=this.list,r=0;r<this.length;r++)n[r].removeAttribute(t)}},{key:"style",value:function(t,n){for(var r=this.list,e=0;e<this.length;e++)r[e].style[t]=n}}]),t}(),B=/-./g,E=function(t,n){return n.toUpperCase()};function F(t){return"function"==typeof t?t:b}function I(t){return t?"function"==typeof t?t:Array.isArray(t)?function(t){var n=arguments.length>1&&void 0!==arguments[1]?arguments[1]:v;if(!Array.isArray(t))return n;switch(t.length){case 1:return m(t[0])||n;case 2:return m(t[0],t[1])||n;case 4:return d(t[0],t[1],t[2],t[3])||n}return n}(t,null):function(t,n){var r=arguments.length>2&&void 0!==arguments[2]?arguments[2]:v;switch(t){case"linear":return v;case"steps":return m(n.steps||1,n.jump||0)||r;case"bezier":case"cubic-bezier":return d(n.x1||0,n.y1||0,n.x2||0,n.y2||0)||r}return r}(t.type,t.value,null):null}function R(t,n,r){var e=arguments.length>3&&void 0!==arguments[3]&&arguments[3],i=n.length-1;if(t<=n[0].t)return e?[0,0,n[0].v]:n[0].v;if(t>=n[i].t)return e?[i,1,n[i].v]:n[i].v;var o,u=n[0],a=null;for(o=1;o<=i;o++){if(!(t>n[o].t)){a=n[o];break}u=n[o]}return null==a?e?[i,1,n[i].v]:n[i].v:u.t===a.t?e?[o,1,a.v]:a.v:(t=(t-u.t)/(a.t-u.t),u.e&&(t=u.e(t)),e?[o,t,r(t,u.v,a.v)]:r(t,u.v,a.v))}function q(t,n){var r=arguments.length>2&&void 0!==arguments[2]?arguments[2]:null;return t&&t.length?"function"!=typeof n?null:("function"!=typeof r&&(r=null),function(e){var i=R(e,t,n);return null!=i&&r&&(i=r(i)),i}):null}function T(t,n){return t.t-n.t}function N(n,r,e,i,o){var u,a="@"===e[0],l="#"===e[0],f=j[e],s=b;switch(a?(u=e.substr(1),e=u.replace(B,E)):l&&(e=e.substr(1)),t(f)){case"function":if(s=f(i,o,R,I,e,a,r,n),l)return s;break;case"string":s=q(i,F(f));break;case"object":if((s=q(i,F(f.i),f.f))&&"function"==typeof f.u)return f.u(r,s,e,a,n)}return s?function(t,n,r){var e=arguments.length>3&&void 0!==arguments[3]&&arguments[3];if(e)return t instanceof P?function(e){return t.style(n,r(e))}:function(e){return t.style[n]=r(e)};if(Array.isArray(n)){var i=n.length;return function(e){var o=r(e);if(null==o)for(var u=0;u<i;u++)t[u].removeAttribute(n);else for(var a=0;a<i;a++)t[a].setAttribute(n,o)}}return function(e){var i=r(e);null==i?t.removeAttribute(n):t.setAttribute(n,i)}}(r,e,s,a):null}function C(n,r,e,i){if(!i||"object"!==t(i))return null;var o=null,u=null;return Array.isArray(i)?u=function(t){if(!t||!t.length)return null;for(var n=0;n<t.length;n++)t[n].e&&(t[n].e=I(t[n].e));return t.sort(T)}(i):(u=i.keys,o=i.data||null),u?N(n,r,e,u,o):null}function z(t,n,r){if(!r)return null;var e=[];for(var i in r)if(r.hasOwnProperty(i)){var o=C(t,n,i,r[i]);o&&e.push(o)}return e.length?e:null}function L(t,n){if(!n.duration||n.duration<0)return null;var r=function(t,n){if(!n)return null;var r=[];if(Array.isArray(n))for(var e=n.length,i=0;i<e;i++){var o=n[i];if(2===o.length){var u=null;if("string"==typeof o[0])u=t.getElementById(o[0]);else if(Array.isArray(o[0])){u=[];for(var a=0;a<o[0].length;a++)if("string"==typeof o[0][a]){var l=t.getElementById(o[0][a]);l&&u.push(l)}u=u.length?1===u.length?u[0]:new P(u):null}if(u){var f=z(t,u,o[1]);f&&(r=r.concat(f))}}}else for(var s in n)if(n.hasOwnProperty(s)){var c=t.getElementById(s);if(c){var h=z(t,c,n[s]);h&&(r=r.concat(h))}}return r.length?r:null}(t,n.elements);return r?function(t,n){var r=arguments.length>2&&void 0!==arguments[2]?arguments[2]:1/0,e=arguments.length>3&&void 0!==arguments[3]?arguments[3]:1,i=arguments.length>4&&void 0!==arguments[4]&&arguments[4],o=arguments.length>5&&void 0!==arguments[5]?arguments[5]:1,u=t.length,a=e>0?n:0;i&&r%2==0&&(a=n-a);var l=null;return function(f,s){var c=f%n,h=1+(f-c)/n;s*=e,i&&h%2==0&&(s=-s);var v=!1;if(h>r)c=a,v=!0,-1===o&&(c=e>0?0:n);else if(s<0&&(c=n-c),c===l)return!1;l=c;for(var y=0;y<u;y++)t[y](c);return v}}(r,n.duration,n.iterations||1/0,n.direction||1,!!n.alternate,n.fill||1):null}var D=function(){function t(r,e){var i=arguments.length>2&&void 0!==arguments[2]?arguments[2]:{};n(this,t),this._id=0,this._running=!1,this._rollingBack=!1,this._animations=r,this.duration=e.duration,this.alternate=e.alternate,this.fill=e.fill,this.iterations=e.iterations,this.direction=i.direction||1,this.speed=i.speed||1,this.fps=i.fps||100,this.offset=i.offset||0,this.rollbackStartOffset=0}return e(t,[{key:"_rollback",value:function(){var t=this,n=1/0,r=null;this.rollbackStartOffset=this.offset,this._rollingBack||(this._rollingBack=!0,this._running=!0);this._id=window.requestAnimationFrame((function e(i){if(t._rollingBack){null==r&&(r=i);var o=i-r,u=t.rollbackStartOffset-o,a=Math.round(u*t.speed);if(a>t.duration&&n!=1/0){var l=!!t.alternate&&a/t.duration%2>1,f=a%t.duration;a=(f+=l?t.duration:0)||t.duration}var s=t.fps?1e3/t.fps:0,c=Math.max(0,a);if(c<n-s){t.offset=c,n=c;for(var h=t._animations,v=h.length,y=0;y<v;y++)h[y](c,t.direction)}var d=!1;if(t.iterations>0&&-1===t.fill){var g=t.iterations*t.duration,p=g==a;a=p?0:a,t.offset=p?0:t.offset,d=a>g}a>0&&t.offset>=a&&!d?t._id=window.requestAnimationFrame(e):t.stop()}}))}},{key:"_start",value:function(){var t=this,n=arguments.length>0&&void 0!==arguments[0]?arguments[0]:0,r=-1/0,e=null,i={},o=function o(u){t._running=!0,null==e&&(e=u);var a=Math.round((u-e+n)*t.speed),l=t.fps?1e3/t.fps:0;if(a>r+l&&!t._rollingBack){t.offset=a,r=a;for(var f=t._animations,s=f.length,c=0,h=0;h<s;h++)i[h]?c++:(i[h]=f[h](a,t.direction),i[h]&&c++);if(c===s)return void t._stop()}t._id=window.requestAnimationFrame(o)};this._id=window.requestAnimationFrame(o)}},{key:"_stop",value:function(){this._id&&window.cancelAnimationFrame(this._id),this._running=!1,this._rollingBack=!1}},{key:"play",value:function(){!this._rollingBack&&this._running||(this._rollingBack=!1,this.rollbackStartOffset>this.duration&&(this.offset=this.rollbackStartOffset-(this.rollbackStartOffset-this.offset)%this.duration,this.rollbackStartOffset=0),this._start(this.offset))}},{key:"stop",value:function(){this._stop(),this.offset=0,this.rollbackStartOffset=0;var t=this.direction,n=this._animations;window.requestAnimationFrame((function(){for(var r=0;r<n.length;r++)n[r](0,t)}))}},{key:"reachedToEnd",value:function(){return this.iterations>0&&this.offset>=this.iterations*this.duration}},{key:"restart",value:function(){this._stop(),this.offset=0,this._start()}},{key:"pause",value:function(){this._stop()}},{key:"reverse",value:function(){this.direction=-this.direction}}],[{key:"build",value:function(n,r){return(n=function(t,n){if(j=n,!t||!t.root||!Array.isArray(t.animations))return null;for(var r=document.getElementsByTagName("svg"),e=!1,i=0;i<r.length;i++)if(r[i].id===t.root&&!r[i].svgatorAnimation){(e=r[i]).svgatorAnimation=!0;break}if(!e)return null;var o=t.animations.map((function(t){return L(e,t)})).filter((function(t){return!!t}));return o.length?{element:e,animations:o,animationSettings:t.animationSettings,options:t.options||void 0}:null}(n,r))?{el:n.element,options:n.options||{},player:new t(n.animations,n.animationSettings,n.options)}:null}}]),t}();function Q(t){return s(t)+""}function U(t){var n=arguments.length>1&&void 0!==arguments[1]?arguments[1]:" ";return t&&t.length?t.map(Q).join(n):""}function V(t){return t?null==t.a||t.a>=1?"rgb("+t.r+","+t.g+","+t.b+")":"rgba("+t.r+","+t.g+","+t.b+","+t.a+")":"transparent"}!function(){for(var t=0,n=["ms","moz","webkit","o"],r=0;r<n.length&&!window.requestAnimationFrame;++r)window.requestAnimationFrame=window[n[r]+"RequestAnimationFrame"],window.cancelAnimationFrame=window[n[r]+"CancelAnimationFrame"]||window[n[r]+"CancelRequestAnimationFrame"];window.requestAnimationFrame||(window.requestAnimationFrame=function(n){var r=Date.now(),e=Math.max(0,16-(r-t)),i=window.setTimeout((function(){n(r+e)}),e);return t=r+e,i},window.cancelAnimationFrame=window.clearTimeout)}();var G={f:null,i:function(t,n,r){return 0===t?n:1===t?r:{x:x(t,n.x,r.x),y:x(t,n.y,r.y)}},u:function(t,n){return function(r){var e=n(r);t.setAttribute("rx",Q(e.x)),t.setAttribute("ry",Q(e.y))}}},H={f:null,i:function(t,n,r){return 0===t?n:1===t?r:{width:x(t,n.width,r.width),height:x(t,n.height,r.height)}},u:function(t,n){return function(r){var e=n(r);t.setAttribute("width",Q(e.width)),t.setAttribute("height",Q(e.height))}}},Y=Math.sin,Z=Math.cos,J=Math.acos,K=Math.asin,W=Math.tan,X=Math.atan2,$=Math.PI/180,tt=180/Math.PI,nt=Math.sqrt,rt=function(){function t(){var r=arguments.length>0&&void 0!==arguments[0]?arguments[0]:1,e=arguments.length>1&&void 0!==arguments[1]?arguments[1]:0,i=arguments.length>2&&void 0!==arguments[2]?arguments[2]:0,o=arguments.length>3&&void 0!==arguments[3]?arguments[3]:1,u=arguments.length>4&&void 0!==arguments[4]?arguments[4]:0,a=arguments.length>5&&void 0!==arguments[5]?arguments[5]:0;n(this,t),this.m=[r,e,i,o,u,a],this.i=null,this.w=null,this.s=null}return e(t,[{key:"determinant",get:function(){var t=this.m;return t[0]*t[3]-t[1]*t[2]}},{key:"isIdentity",get:function(){if(null===this.i){var t=this.m;this.i=1===t[0]&&0===t[1]&&0===t[2]&&1===t[3]&&0===t[4]&&0===t[5]}return this.i}},{key:"point",value:function(t,n){var r=this.m;return{x:r[0]*t+r[2]*n+r[4],y:r[1]*t+r[3]*n+r[5]}}},{key:"translateSelf",value:function(){var t=arguments.length>0&&void 0!==arguments[0]?arguments[0]:0,n=arguments.length>1&&void 0!==arguments[1]?arguments[1]:0;if(!t&&!n)return this;var r=this.m;return r[4]+=r[0]*t+r[2]*n,r[5]+=r[1]*t+r[3]*n,this.w=this.s=this.i=null,this}},{key:"rotateSelf",value:function(){var t=arguments.length>0&&void 0!==arguments[0]?arguments[0]:0;if(t%=360){var n=Y(t*=$),r=Z(t),e=this.m,i=e[0],o=e[1];e[0]=i*r+e[2]*n,e[1]=o*r+e[3]*n,e[2]=e[2]*r-i*n,e[3]=e[3]*r-o*n,this.w=this.s=this.i=null}return this}},{key:"scaleSelf",value:function(){var t=arguments.length>0&&void 0!==arguments[0]?arguments[0]:1,n=arguments.length>1&&void 0!==arguments[1]?arguments[1]:1;if(1!==t||1!==n){var r=this.m;r[0]*=t,r[1]*=t,r[2]*=n,r[3]*=n,this.w=this.s=this.i=null}return this}},{key:"skewSelf",value:function(t,n){if(n%=360,(t%=360)||n){var r=this.m,e=r[0],i=r[1],o=r[2],u=r[3];t&&(t=W(t*$),r[2]+=e*t,r[3]+=i*t),n&&(n=W(n*$),r[0]+=o*n,r[1]+=u*n),this.w=this.s=this.i=null}return this}},{key:"resetSelf",value:function(){var t=arguments.length>0&&void 0!==arguments[0]?arguments[0]:1,n=arguments.length>1&&void 0!==arguments[1]?arguments[1]:0,r=arguments.length>2&&void 0!==arguments[2]?arguments[2]:0,e=arguments.length>3&&void 0!==arguments[3]?arguments[3]:1,i=arguments.length>4&&void 0!==arguments[4]?arguments[4]:0,o=arguments.length>5&&void 0!==arguments[5]?arguments[5]:0,u=this.m;return u[0]=t,u[1]=n,u[2]=r,u[3]=e,u[4]=i,u[5]=o,this.w=this.s=this.i=null,this}},{key:"recomposeSelf",value:function(){var t=arguments.length>0&&void 0!==arguments[0]?arguments[0]:null,n=arguments.length>1&&void 0!==arguments[1]?arguments[1]:null,r=arguments.length>2&&void 0!==arguments[2]?arguments[2]:null,e=arguments.length>3&&void 0!==arguments[3]?arguments[3]:null,i=arguments.length>4&&void 0!==arguments[4]?arguments[4]:null;return this.isIdentity||this.resetSelf(),t&&(t.x||t.y)&&this.translateSelf(t.x,t.y),n&&this.rotateSelf(n),r&&(r.x&&this.skewSelf(r.x,0),r.y&&this.skewSelf(0,r.y)),!e||1===e.x&&1===e.y||this.scaleSelf(e.x,e.y),i&&(i.x||i.y)&&this.translateSelf(i.x,i.y),this}},{key:"decompose",value:function(){var t=arguments.length>0&&void 0!==arguments[0]?arguments[0]:0,n=arguments.length>1&&void 0!==arguments[1]?arguments[1]:0,r=this.m,e=r[0]*r[0]+r[1]*r[1],i=[[r[0],r[1]],[r[2],r[3]]],o=nt(e);if(0===o)return{origin:{x:s(r[4]),y:s(r[5])},translate:{x:s(t),y:s(n)},scale:{x:0,y:0},skew:{x:0,y:0},rotate:0};i[0][0]/=o,i[0][1]/=o;var u=r[0]*r[3]-r[1]*r[2]<0;u&&(o=-o);var a=i[0][0]*i[1][0]+i[0][1]*i[1][1];i[1][0]-=i[0][0]*a,i[1][1]-=i[0][1]*a;var l=nt(i[1][0]*i[1][0]+i[1][1]*i[1][1]);if(0===l)return{origin:{x:s(r[4]),y:s(r[5])},translate:{x:s(t),y:s(n)},scale:{x:s(o),y:0},skew:{x:0,y:0},rotate:0};i[1][0]/=l,i[1][1]/=l,a/=l;var f=0;return i[1][1]<0?(f=J(i[1][1])*tt,i[0][1]<0&&(f=360-f)):f=K(i[0][1])*tt,u&&(f=-f),a=X(a,nt(i[0][0]*i[0][0]+i[0][1]*i[0][1]))*tt,u&&(a=-a),{origin:{x:s(r[4]),y:s(r[5])},translate:{x:s(t),y:s(n)},scale:{x:s(o),y:s(l)},skew:{x:s(a),y:0},rotate:s(f)}}},{key:"toString",value:function(){return null===this.s&&(this.s="matrix("+this.m.map((function(t){return s(t)})).join(" ")+")"),this.s}}]),t}();Object.freeze({M:2,L:2,Z:0,H:1,V:1,C:6,Q:4,T:2,S:4,A:7});var et={},it=null;function ot(n){var r=function(){if(it)return it;if("object"!==("undefined"==typeof document?"undefined":t(document))||!document.createElementNS)return{};var n=document.createElementNS("http://www.w3.org/2000/svg","svg");return n&&n.style?(n.style.position="absolute",n.style.opacity="0.01",n.style.zIndex="-9999",n.style.left="-9999px",n.style.width="1px",n.style.height="1px",it={svg:n}):{}}().svg;if(!r)return function(t){return null};var e=document.createElementNS(r.namespaceURI,"path");e.setAttributeNS(null,"d",n),e.setAttributeNS(null,"fill","none"),e.setAttributeNS(null,"stroke","none"),r.appendChild(e);var i=e.getTotalLength();return function(t){var n=e.getPointAtLength(i*t);return{x:n.x,y:n.y}}}function ut(t){return et[t]?et[t]:et[t]=ot(t)}function at(t,n,r,e){if(!t||!e)return!1;var i=["M",t.x,t.y];if(n&&r&&(i.push("C"),i.push(n.x),i.push(n.y),i.push(r.x),i.push(r.y)),n?!r:r){var o=n||r;i.push("Q"),i.push(o.x),i.push(o.y)}return n||r||i.push("L"),i.push(e.x),i.push(e.y),i.join(" ")}function lt(t,n,r,e){var i=arguments.length>4&&void 0!==arguments[4]?arguments[4]:1,o=at(t,n,r,e),u=ut(o);try{return u(i)}catch(t){return null}}function ft(t,n,r,e){var i=1-e;return i*i*t+2*i*e*n+e*e*r}function st(t,n,r,e){return 2*(1-e)*(n-t)+2*e*(r-n)}function ct(t,n,r,e){var i=arguments.length>4&&void 0!==arguments[4]&&arguments[4],o=lt(t,n,null,r,e);return o||(o={x:ft(t.x,n.x,r.x,e),y:ft(t.y,n.y,r.y,e)}),i&&(o.a=ht(t,n,r,e)),o}function ht(t,n,r,e){return Math.atan2(st(t.y,n.y,r.y,e),st(t.x,n.x,r.x,e))}function vt(t,n,r,e,i){var o=i*i;return i*o*(e-t+3*(n-r))+3*o*(t+r-2*n)+3*i*(n-t)+t}function yt(t,n,r,e,i){var o=1-i;return 3*(o*o*(n-t)+2*o*i*(r-n)+i*i*(e-r))}function dt(t,n,r,e,i){var o=arguments.length>5&&void 0!==arguments[5]&&arguments[5],u=lt(t,n,r,e,i);return u||(u={x:vt(t.x,n.x,r.x,e.x,i),y:vt(t.y,n.y,r.y,e.y,i)}),o&&(u.a=gt(t,n,r,e,i)),u}function gt(t,n,r,e,i){return Math.atan2(yt(t.y,n.y,r.y,e.y,i),yt(t.x,n.x,r.x,e.x,i))}function pt(t,n,r){return t+(n-t)*r}function mt(t,n,r){var e=arguments.length>3&&void 0!==arguments[3]&&arguments[3],i={x:pt(t.x,n.x,r),y:pt(t.y,n.y,r)};return e&&(i.a=bt(t,n)),i}function bt(t,n){return Math.atan2(n.y-t.y,n.x-t.x)}function wt(t,n,r){var e=arguments.length>3&&void 0!==arguments[3]&&arguments[3];if(kt(n)){if(At(r))return ct(n,r.start,r,t,e)}else if(kt(r)){if(n.end)return ct(n,n.end,r,t,e)}else{if(n.end)return r.start?dt(n,n.end,r.start,r,t,e):ct(n,n.end,r,t,e);if(r.start)return ct(n,r.start,r,t,e)}return mt(n,r,t,e)}function xt(t,n,r){var e=wt(t,n,r,!0);return e.a=function(t){var n=arguments.length>1&&void 0!==arguments[1]&&arguments[1];return n?t+Math.PI:t}(e.a)/h,e}function kt(t){return!t.type||"corner"===t.type}function At(t){return null!=t.start&&!kt(t)}var _t=new rt;var St={f:Q,i:w},Ot={f:Q,i:function(t,n,r){var e=w(t,n,r);return e<=0?0:e>=1?1:e}};function Mt(t,n,r,e,i,o,u,a){return n=function(t,n,r){for(var e,i,o,u=t.length-1,a={},l=0;l<=u;l++)(e=t[l]).e&&(e.e=n(e.e)),e.v&&"g"===(i=e.v).t&&i.r&&(o=r.getElementById(i.r))&&(a[i.r]=o.querySelectorAll("stop"));return a}(t,e,a),function(e){var i,o=r(e,t,jt);return o?"c"===o.t?V(o.v):"g"===o.t?(n[o.r]&&function(t,n){for(var r=0,e=t.length;r<e;r++)t[r].setAttribute("stop-color",V(n[r]))}(n[o.r],o.v),(i=o.r)?"url(#"+i+")":"none"):"none":"none"}}function jt(t,n,r){if(0===t)return n;if(1===t)return r;if(n&&r){var e=n.t;if(e===r.t)switch(n.t){case"c":return{t:e,v:_(t,n.v,r.v)};case"g":if(n.r===r.r)return{t:e,v:S(t,n.v,r.v),r:n.r}}}return b(t,n,r)}var Pt={fill:Mt,"fill-opacity":Ot,stroke:Mt,"stroke-opacity":Ot,"stroke-width":St,"stroke-dashoffset":{f:Q,i:w},"stroke-dasharray":{f:function(t){var n=arguments.length>1&&void 0!==arguments[1]?arguments[1]:" ";return t&&t.length>0&&(t=t.map((function(t){return s(t,4)}))),U(t,n)},i:function(t,n,r){var e,i,o,u=n.length,a=r.length;if(u!==a)if(0===u)n=O(u=a,0);else if(0===a)a=u,r=O(u,0);else{var l=(o=(e=u)*(i=a)/function(t,n){for(var r;n;)r=n,n=t%n,t=r;return t||1}(e,i))<0?-o:o;n=M(n,Math.floor(l/u)),r=M(r,Math.floor(l/a)),u=a=l}for(var f=[],c=0;c<u;c++)f.push(s(x(t,n[c],r[c])));return f}},opacity:Ot,transform:function(n,r,e,i){if(!(n=function(n,r){if(!n||"object"!==t(n))return null;var e=!1;for(var i in n)n.hasOwnProperty(i)&&(n[i]&&n[i].length?(n[i].forEach((function(t){t.e&&(t.e=r(t.e))})),e=!0):delete n[i]);return e?n:null}(n,i)))return null;var o=function(t,i,o){var u=arguments.length>3&&void 0!==arguments[3]?arguments[3]:null;return n[t]?e(i,n[t],o):r&&r[t]?r[t]:u};return r&&r.a&&n.o?function(t){var r=e(t,n.o,xt);return _t.recomposeSelf(r,o("r",t,w,0)+r.a,o("k",t,k),o("s",t,k),o("t",t,k)).toString()}:function(t){return _t.recomposeSelf(o("o",t,wt,null),o("r",t,w,0),o("k",t,k),o("s",t,k),o("t",t,k)).toString()}},r:St,"#size":H,"#radius":G,_:function(t,n){if(Array.isArray(t))for(var r=0;r<t.length;r++)this[t[r]]=n;else this[t]=n}};return function(t){!function(t,n){if("function"!=typeof n&&null!==n)throw new TypeError("Super expression must either be null or a function");t.prototype=Object.create(n&&n.prototype,{constructor:{value:t,writable:!0,configurable:!0}}),n&&o(t,n)}(u,t);var r=a(u);function u(){return n(this,u),r.apply(this,arguments)}return e(u,null,[{key:"build",value:function(t){var n=l(i(u),"build",this).call(this,t,Pt);if(!n)return null;n.el,n.options;var r=n.player;return function(t,n,r){t.play()}(r),r}}]),u}(D)}));
__SVGATOR_PLAYER__.build({"root":"elxm2pjAOKi1","animations":[{"duration":7000,"direction":1,"iterations":0,"fill":1,"alternate":false,"speed":1,"elements":{"elxm2pjAOKi2":{"transform":{"data":{"r":-110.129758,"t":{"x":-20.647517,"y":-161.786964}},"keys":{"o":[{"t":0,"v":{"x":222.600439,"y":220.074996,"type":"corner"}},{"t":1000,"v":{"x":128.238622,"y":168.102586,"type":"corner"}},{"t":2000,"v":{"x":140.542984,"y":174.510214,"type":"corner"}}]}},"opacity":[{"t":5300,"v":1},{"t":5400,"v":0}]},"elxm2pjAOKi11":{"transform":{"data":{"t":{"x":-42.061517,"y":-170.02404}},"keys":{"o":[{"t":2500,"v":{"x":121.34955,"y":176.795418,"type":"cusp","end":{"x":94.717729,"y":195.542072}}},{"t":4500,"v":{"x":120.860583,"y":257.032103,"type":"cusp","start":{"x":138.790557,"y":230.668991}}}],"s":[{"t":2000,"v":{"x":0.59,"y":0.54}},{"t":2500,"v":{"x":1.2,"y":1.12}},{"t":4500,"v":{"x":2,"y":1.84}}]}},"opacity":[{"t":2000,"v":0},{"t":2500,"v":1},{"t":4500,"v":0.99},{"t":4600,"v":0}]},"elxm2pjAOKi13":{"transform":{"data":{"t":{"x":-42.061517,"y":-170.02404}},"keys":{"o":[{"t":3300,"v":{"x":121.34955,"y":176.795418,"type":"cusp","end":{"x":146.171804,"y":200.871764}}},{"t":5300,"v":{"x":124.119656,"y":257.032039,"type":"cusp","start":{"x":106.842464,"y":228.491026},"end":{"x":110.152533,"y":270.704137}}}],"s":[{"t":2800,"v":{"x":1.2,"y":1.09}},{"t":5300,"v":{"x":2,"y":1.84}}]}},"opacity":[{"t":2800,"v":0},{"t":3300,"v":1},{"t":5300,"v":0.99},{"t":5400,"v":0}]}}}],"options":{"start":"load","hover":null,"click":null,"scroll":null,"font":"embed","exportedIds":"unique","svgFormat":"animated","title":"footer_bottle"},"animationSettings":{"duration":7000,"direction":1,"iterations":0,"fill":1,"alternate":false,"speed":1}})]]></script></svg>