<svg width="49" height="100" viewBox="0 0 49 100" fill="none" xmlns="http://www.w3.org/2000/svg">
<path fill-rule="evenodd" clip-rule="evenodd" d="M37.5378 35.0437C37.5469 35.0291 37.556 35.0145 37.565 35V35.0875C41.9052 42.0895 61.0002 77.9514 37.5107 77.9999C37.5017 77.9999 37.4926 78 37.4836 78C37.4746 78 37.4565 78 37.4565 78C13.967 77.9515 33.1705 42.0895 37.5107 35.0875V35C37.5197 35.0145 37.5287 35.0291 37.5378 35.0437Z" fill="#A0C6FF"/>
<path fill-rule="evenodd" clip-rule="evenodd" d="M26.0197 0.0223829C26.0245 0.0148646 26.0292 0.00740349 26.0339 0V0.0447742C28.2984 3.62717 38.261 21.9752 26.0056 22C26.0009 22 25.9962 22 25.9914 22C25.9867 22 25.9773 22 25.9773 22C13.7219 21.9752 23.7411 3.62717 26.0056 0.0447742V0C26.0103 0.00740349 26.015 0.0148646 26.0197 0.0223829Z" fill="#A0C6FF"/>
<path fill-rule="evenodd" clip-rule="evenodd" d="M6.01974 78.0224C6.02449 78.0149 6.02921 78.0074 6.03389 78V78.0448C8.29836 81.6272 18.261 99.9752 6.0056 100C6.00087 100 5.99616 100 5.99144 100C5.98672 100 5.97728 100 5.97728 100C-6.27809 99.9752 3.74111 81.6272 6.00558 78.0448V78C6.01026 78.0074 6.01498 78.0149 6.01974 78.0224Z" fill="#A0C6FF"/>
</svg>
