<svg width="222" height="221" viewBox="0 0 222 221" fill="none" xmlns="http://www.w3.org/2000/svg">
<path d="M67.148 108L74.8763 108C79.1246 108 82.6046 104.564 82.6046 100.27L85 100.27L85 7.73043L82.6047 7.73043C82.6047 3.48095 79.1698 -2.54903e-07 74.8763 -4.42621e-07L67.148 -7.80514e-07C64.0747 -9.14881e-07 61.4534 1.76308 60.1879 4.3851C60.0523 4.65634 59.736 4.83717 59.4196 4.83717C59.1032 4.83717 58.7869 4.65634 58.6513 4.3851C57.3858 1.80829 54.7645 -1.32193e-06 51.6912 -1.4563e-06L43.9629 -1.7942e-06C40.8896 -1.92856e-06 38.2683 1.76308 37.0029 4.3851C36.8673 4.65634 36.5509 4.83717 36.2345 4.83717C35.9182 4.83717 35.6018 4.65634 35.4662 4.3851C34.2008 1.80829 31.5795 -2.33561e-06 28.5062 -2.46998e-06L20.7778 -2.80788e-06C17.7046 -2.94224e-06 15.0833 1.76308 13.8178 4.3851C13.6822 4.65634 13.3658 4.83717 13.0495 4.83717C12.7331 4.83717 12.4167 4.65634 12.2812 4.3851C11.0157 1.80828 8.39439 -3.3493e-06 5.32112 -3.48366e-06C-3.08516 -3.8512e-06 -10 6.9167 -10 15.4157L-10 92.5843C-10 101.129 -3.08516 108 5.41151 108C8.48477 108 11.1061 106.237 12.3715 103.615C12.5071 103.344 12.8235 103.163 13.1399 103.163C13.4562 103.163 13.7726 103.344 13.9082 103.615C15.1736 106.192 17.7949 108 20.8682 108L28.5966 108C31.6698 108 34.2911 106.237 35.5566 103.615C35.6922 103.344 36.0086 103.163 36.3249 103.163C36.6413 103.163 36.9577 103.344 37.0932 103.615C38.3587 106.192 40.98 108 44.0533 108L51.7816 108C54.8549 108 57.4762 106.237 58.7417 103.615C58.8773 103.344 59.1936 103.163 59.51 103.163C59.8263 103.163 60.1427 103.344 60.2783 103.615C61.4534 106.237 64.0747 108 67.148 108Z" fill="#A2D2FF" fill-opacity="0.66"/>
<path d="M60.5095 103.696C61.7791 106.225 64.4091 108 67.4925 108L75.2462 108C79.5085 108 83 104.628 83 100.413L83 89.5427C83 93.7133 79.5539 97.1297 75.2462 97.1297L67.4925 97.1297C64.4091 97.1297 61.7791 95.3993 60.5095 92.8259C60.3735 92.5597 60.0561 92.3823 59.7387 92.3823C59.4213 92.3823 59.1039 92.5597 58.9678 92.8259C57.6982 95.3549 55.0683 97.1297 51.9849 97.1297L44.2311 97.1297C41.1477 97.1297 38.5178 95.3993 37.2482 92.8259C37.1121 92.5597 36.7947 92.3823 36.4773 92.3823C36.1599 92.3823 35.8425 92.5597 35.7065 92.8259C34.4369 95.3549 31.8069 97.1297 28.7236 97.1297L20.9698 97.1297C17.8864 97.1297 15.2565 95.3993 13.9868 92.8259C13.8508 92.5597 13.5334 92.3823 13.216 92.3823C12.8986 92.3823 12.5812 92.5597 12.4452 92.8259C11.1755 95.3549 8.54559 97.1297 5.46222 97.1297C-3.10775 97.1297 -10 90.3413 -10 82L-10 92.8703C-10 101.256 -3.0624 108 5.46222 108C8.54559 108 11.1755 106.27 12.4452 103.696C12.5812 103.43 12.8986 103.253 13.216 103.253C13.5334 103.253 13.8508 103.43 13.9868 103.696C15.2565 106.225 17.8864 108 20.9698 108L28.7236 108C31.8069 108 34.4369 106.27 35.7065 103.696C35.8425 103.43 36.1599 103.253 36.4773 103.253C36.7947 103.253 37.1121 103.43 37.2482 103.696C38.5178 106.225 41.1477 108 44.2311 108L51.9849 108C55.0683 108 57.6982 106.27 58.9678 103.696C59.1039 103.43 59.4213 103.253 59.7387 103.253C60.0561 103.208 60.3735 103.386 60.5095 103.696Z" fill="#A0C6FF"/>
<path d="M63 84.3957L63 1C61.8187 1.76592 60.8562 2.84723 60.2437 4.15381C60.1125 4.42413 59.8062 4.60435 59.5 4.60435C59.1937 4.60435 58.8875 4.42413 58.7562 4.15381C58.1437 2.84723 57.1813 1.76592 56 1L56 84.3957C56 86.378 57.575 88 59.5 88C61.425 88 63 86.4231 63 84.3957Z" fill="#A0C6FF"/>
<path d="M37.2438 103.846C37.8563 105.153 38.8187 106.234 40 107L40 23.6043C40 21.622 38.425 20 36.5 20C34.575 20 33 21.622 33 23.6043L33 107C34.1812 106.234 35.1438 105.153 35.7563 103.846C35.8875 103.576 36.1937 103.396 36.5 103.396C36.8062 103.351 37.1125 103.531 37.2438 103.846Z" fill="#A0C6FF"/>
<path d="M17 84.3957L17 1C15.8187 1.76592 14.8562 2.84723 14.2437 4.15381C14.1125 4.42413 13.8062 4.60435 13.5 4.60435C13.1937 4.60435 12.8875 4.42413 12.7562 4.15381C12.1437 2.84723 11.1813 1.76592 10 1L10 84.3957C10 86.378 11.575 88 13.5 88C15.425 88 17 86.4231 17 84.3957Z" fill="#A0C6FF"/>
<path d="M83 104.157L83 3.84261C83 1.71787 84.7065 -2.37378e-06 86.8172 -2.2815e-06L132.803 -2.70953e-07C134.913 -1.78672e-07 136.62 1.71787 136.62 3.84261L139 3.84261L139 104.157L136.62 104.157C136.62 106.282 134.913 108 132.803 108L86.8172 108C84.7065 108 83 106.282 83 104.157Z" fill="#67A6C1"/>
<path d="M136.62 104.136L139 104.136L139 93L136.62 93C136.62 95.1364 134.913 96.8636 132.803 96.8636L86.8172 96.8636C84.7065 96.8636 83 95.1364 83 93L83 104.136C83 106.273 84.7065 108 86.8172 108L132.758 108C134.868 108 136.62 106.273 136.62 104.136Z" fill="#3C98BF"/>
<path d="M199 77L199 31L214.812 31C218.766 31 222 34.2344 222 38.1875L222 69.8125C222 73.7656 218.766 77 214.812 77L199 77Z" fill="#EDF6FF"/>
<path d="M202 39L202 70L181 70L181 39L202 39Z" fill="#A0C6FF"/>
<path d="M183 38.5617C183 17.2692 165.84 -7.50264e-07 144.637 -1.67729e-06L140.818 -1.84424e-06C138.707 -1.93655e-06 137 1.71787 137 3.84261L137 104.157C137 106.282 138.707 108 140.818 108L144.637 108C165.795 108 182.955 90.7309 182.955 69.4383L182.955 38.5617L183 38.5617Z" fill="#A2D2FF" fill-opacity="0.66"/>
<path d="M199 77L199 31L214.812 31C218.766 31 222 34.2344 222 38.1875L222 69.8125C222 73.7656 218.766 77 214.812 77L199 77Z" fill="#EDF6FF"/>
<path d="M222 69.1899L222 58C222 62.2933 218.586 65.8101 214.318 65.8101L199 65.8101L199 77L214.318 77C218.586 77 222 73.4832 222 69.1899Z" fill="#D8E2F3"/>
<path d="M195 77.3513L195 30.6487C195 28.6419 196.575 27 198.5 27C200.425 27 202 28.6419 202 30.6487L202 77.3513C202 79.3581 200.425 81 198.5 81C196.575 81 195 79.3581 195 77.3513Z" fill="#D8E2F3"/>
<path d="M183 69.1566L183 58C183 79.4481 165.823 96.8433 144.644 96.8433L140.822 96.8433C138.709 96.8433 137 95.1129 137 92.9727L137 104.129C137 106.27 138.709 108 140.822 108L144.644 108C165.823 108 183 90.6047 183 69.1566Z" fill="#A0C6FF"/>
<path d="M88 74.675L88 33.325C88 29.8463 92.7507 27 98.5572 27L122.443 27C128.249 27 133 29.8463 133 33.325L133 74.675C133 78.1537 128.249 81 122.443 81L98.5572 81C92.7507 81 88 78.1537 88 74.675Z" fill="#EDF6FF"/>
<path fill-rule="evenodd" clip-rule="evenodd" d="M120.937 60.0025C123.081 59.9958 124.88 60.0025 124.927 60.0229C124.995 60.0433 125.009 60.8783 124.995 64.0081L124.975 67.9661L120.984 67.9864L117 68L117.014 64.0149L117.034 60.0229L120.937 60.0025ZM118.154 66.8459L121.004 66.8459L123.855 66.8459L123.855 64.042C123.855 62.4941 123.835 61.211 123.808 61.1906C123.787 61.1635 122.504 61.1431 120.957 61.1431L118.154 61.1431L118.154 63.9945L118.154 66.8459ZM124.912 50.1974C124.86 50.1513 124.625 50.1184 124.375 50.1184C124.125 50.1184 123.89 50.0855 123.838 50.0395C123.787 49.9934 123.75 49.7895 123.75 49.5855C123.75 49.1053 123.647 49 123.154 49C122.574 49 122.5 49.0658 122.5 49.5461C122.5 49.7829 122.463 49.9934 122.412 50.0395C122.36 50.0855 122.132 50.1184 121.904 50.1184C121.346 50.1184 121.25 50.0263 121.25 49.5263C121.25 49.1974 121.228 49.125 121.096 49.0592C120.882 48.9605 120.154 49.0132 120.066 49.1382C119.978 49.2697 119.985 50.9539 120.074 51.1118C120.147 51.2303 120.25 51.2368 121.838 51.2368L121.967 51.2368C123.202 51.2366 123.582 51.2366 123.698 51.4119C123.75 51.4898 123.75 51.6023 123.75 51.7648L123.75 51.7961C123.75 52.3355 123.713 52.3553 122.463 52.3553C121.493 52.3553 121.397 52.3684 121.324 52.4803C121.287 52.5526 121.25 52.9868 121.25 53.4539C121.25 54.5197 121.294 54.5921 121.904 54.5921C122.132 54.5921 122.36 54.625 122.412 54.6711C122.537 54.7829 122.537 57.6908 122.412 57.8026C122.36 57.8487 122.125 57.8816 121.86 57.8816C121.316 57.8816 121.25 57.8158 121.25 57.2566C121.25 56.9211 121.235 56.8882 121.051 56.8224C120.809 56.7368 120.265 56.7829 120.11 56.8947C120.022 56.9605 120 57.1579 120 57.8618C120 58.3487 120.037 58.8026 120.074 58.875C120.147 58.9934 120.257 59 122.485 59C124.206 59 124.846 58.9803 124.912 58.9211C124.963 58.875 125 58.6711 125 58.4671C125 57.9737 124.897 57.8816 124.346 57.8816C124.118 57.8816 123.89 57.8487 123.838 57.8026C123.743 57.7171 123.721 57.0395 123.809 56.9145C123.846 56.8684 124.081 56.8092 124.346 56.7895C124.603 56.7632 124.86 56.7171 124.912 56.6776C124.963 56.6447 125 56.4605 125 56.2368C125 55.7434 124.882 55.6447 124.287 55.6447C123.949 55.6447 123.831 55.6184 123.794 55.5395C123.706 55.3355 123.743 53.6382 123.838 53.5526C123.89 53.5066 124.118 53.4737 124.346 53.4737L124.389 53.4737C124.6 53.474 124.738 53.4742 124.829 53.4086C125 53.2842 125 52.9236 125 51.8798L125 51.7697C125 50.6974 124.978 50.2566 124.912 50.1974ZM117.109 40.0407C117.251 39.9864 124.764 39.9864 124.9 40.0407C125.002 40.0814 125.008 40.4746 124.995 44.0271L124.974 47.9661L120.991 47.9864L117 48L117 44.0407C117 40.4949 117.014 40.0814 117.109 40.0407ZM118.154 46.8475L121.004 46.8475L123.855 46.8475L123.855 44.0339C123.855 41.8373 123.834 41.2068 123.766 41.1864C123.726 41.1661 122.45 41.1593 120.936 41.1661L118.188 41.1864L118.167 44.0203L118.154 46.8475ZM121.499 42C122.29 42 122.951 42.0176 122.975 42.0412C122.993 42.0647 123.004 42.7294 122.998 43.5235L122.981 44.9706L121.529 44.9882L120.071 45L120.035 44.8706C119.988 44.6941 119.988 42.2118 120.035 42.0941C120.065 42.0118 120.254 42 121.499 42ZM122.975 62.0412C122.951 62.0176 122.29 62 121.499 62C120.254 62 120.065 62.0118 120.035 62.0941C119.988 62.2118 119.988 64.6941 120.035 64.8706L120.071 65L121.529 64.9882L122.981 64.9706L122.998 63.5235C123.004 62.7294 122.993 62.0647 122.975 62.0412ZM119.526 52C119.799 52 119.946 52.0235 119.964 52.0765C119.982 52.1118 120 52.3118 120 52.5118C120.006 52.9412 119.946 53 119.509 53C119.16 53 119 52.8529 119 52.5353C119 52.4059 119.024 52.2353 119.059 52.1529C119.112 52.0118 119.142 52 119.526 52ZM119.881 56.0001C119.807 55.9597 119.584 55.9259 119.375 55.9259C119.152 55.9259 118.983 55.8922 118.95 55.845C118.923 55.7978 118.882 55.3053 118.862 54.7453L118.828 53.7333L117.748 53.7333L116.668 53.7333L116.648 54.1921C116.621 54.7925 116.668 54.8465 117.215 54.8465C117.708 54.8465 117.782 54.9207 117.782 55.3862L117.782 55.4408C117.783 55.596 117.783 55.7016 117.734 55.7735C117.629 55.9266 117.301 55.9264 116.271 55.926L116.094 55.9259C114.785 55.9259 114.535 55.9394 114.448 56.0339C114.353 56.1216 114.34 56.3645 114.34 57.6193C114.34 58.5166 114.313 59.1575 114.272 59.2385C114.211 59.3464 114.124 59.3667 113.779 59.3667C113.536 59.3667 113.32 59.3329 113.273 59.2857C113.212 59.225 113.192 58.6515 113.192 57.1066C113.192 55.5616 113.172 54.9882 113.111 54.9275C113.064 54.8802 112.848 54.8465 112.605 54.8465C112.207 54.8465 112.173 54.86 112.112 55.0219C112.072 55.1164 112.045 55.8247 112.045 56.6006C112.045 57.3764 112.024 58.0511 112.004 58.1118C111.97 58.1928 111.862 58.2198 111.511 58.2198C111.248 58.2198 111.026 58.186 110.978 58.1388C110.924 58.0848 110.897 57.7475 110.897 57.0594C110.897 56.1486 110.884 56.0609 110.769 55.9934C110.695 55.9597 110.216 55.9259 109.696 55.9259C108.899 55.9259 108.744 55.9124 108.71 55.818C108.629 55.6089 108.663 53.8683 108.751 53.7805C108.798 53.7333 108.994 53.6996 109.19 53.6996C109.777 53.6996 109.817 53.6254 109.817 52.4582C109.817 51.6352 109.831 51.48 109.925 51.4463C110.114 51.372 110.735 51.4058 110.816 51.4867C110.87 51.5407 110.897 51.8713 110.897 52.5257C110.897 53.4432 110.904 53.4972 111.046 53.5916C111.215 53.7131 111.613 53.7333 111.862 53.6389C112.031 53.5715 112.031 53.5647 112.051 52.5551L112.051 52.5527C112.072 51.7431 112.099 51.5205 112.18 51.4732C112.234 51.4395 112.699 51.4058 113.206 51.4058C114.286 51.4058 114.34 51.4328 114.34 51.9522L114.34 52.0064C114.207 52.0171 114.1 52.0408 114.071 52.0706C114.024 52.1176 114 52.4118 114 53.0118C114 53.8059 114.012 53.8824 114.112 53.9412C114.176 53.9706 114.576 54 115 54C115.424 54 115.824 53.9706 115.888 53.9412C115.982 53.8882 116 53.8118 116 53.5059C116 53.2765 115.971 53.1118 115.929 53.0706C115.888 53.0412 115.688 53 115.482 52.9882C115.247 52.9706 115.088 52.9294 115.053 52.8765C115.028 52.8365 115.007 52.6992 115.002 52.5507C115.201 52.5428 115.365 52.5122 115.406 52.4717C115.467 52.411 115.487 51.7026 115.487 49.7124L115.487 49.2539C115.488 47.4331 115.489 46.9688 115.288 46.8534C115.219 46.8139 115.127 46.8153 115.004 46.8172C114.975 46.8177 114.945 46.8181 114.913 46.8181C114.434 46.8181 114.34 46.9193 114.34 47.4186C114.34 47.6277 114.306 47.8369 114.259 47.8841C114.211 47.9313 113.995 47.9651 113.766 47.9651C113.536 47.9651 113.32 47.9313 113.273 47.8841C113.219 47.8301 113.192 47.5063 113.192 46.8789C113.192 46.3661 113.172 45.9074 113.152 45.8466C113.118 45.7657 113.01 45.7387 112.686 45.7387C112.389 45.7387 112.24 45.705 112.18 45.6308C112.085 45.5228 112.058 44.8077 112.139 44.6728C112.207 44.5581 114.144 44.5581 114.259 44.6728C114.306 44.72 114.34 44.9291 114.34 45.1383C114.34 45.6375 114.434 45.7387 114.9 45.7387C114.937 45.7383 114.973 45.7386 115.006 45.7389C115.131 45.7401 115.223 45.7409 115.292 45.7007C115.489 45.5854 115.489 45.132 115.487 43.3772C115.487 43.2134 115.487 43.0384 115.487 42.8512C115.487 42.6406 115.487 42.4454 115.487 42.2646C115.489 40.5856 115.49 40.1451 115.299 40.0349C115.232 39.9957 115.14 39.9983 115.015 40.0018C114.975 40.003 114.933 40.0042 114.886 40.0042L114.873 40.0042C114.702 40.0041 114.585 40.0041 114.506 40.0585C114.339 40.1732 114.34 40.5296 114.34 41.6366L114.34 41.6975C114.34 42.5948 114.313 43.2357 114.272 43.3167C114.211 43.4246 114.124 43.4449 113.779 43.4449C113.536 43.4449 113.32 43.4112 113.273 43.3639C113.226 43.3167 113.192 43.1008 113.192 42.8714C113.192 42.6421 113.158 42.4262 113.111 42.3789C113.017 42.2845 112.328 42.271 112.186 42.3587C112.126 42.3992 112.078 42.5813 112.058 42.8512C112.045 43.0873 111.997 43.3167 111.964 43.3639C111.869 43.4786 110.013 43.4786 109.898 43.3639C109.851 43.3167 109.817 43.1076 109.817 42.8984C109.817 42.3924 109.723 42.298 109.217 42.298C109.007 42.298 108.798 42.3317 108.751 42.3789C108.704 42.4262 108.67 42.6353 108.67 42.8444C108.67 43.3504 108.575 43.4449 108.069 43.4449C107.86 43.4449 107.651 43.4786 107.603 43.5258C107.552 43.5776 107.525 43.7874 107.523 44L107.512 44C107.012 44 107 44.0238 107 44.9802C107 45.4317 107.018 45.8416 107.035 45.895C107.065 45.9663 107.159 45.9901 107.442 45.9901C107.919 45.9901 108.001 46.0733 108.001 46.5663C108.001 46.9881 108.019 47 108.531 47C108.814 47 108.89 46.9762 108.943 46.8871C109.02 46.7386 109.02 45.2832 108.937 45.1465C108.89 45.0634 108.796 45.0396 108.513 45.0396C108.301 45.0396 108.113 45.0099 108.072 44.9683C108.031 44.9267 108.001 44.7485 108.001 44.5644L108.001 44.5431C108.312 44.5617 108.775 44.5801 109.277 44.5918L110.864 44.6255L110.884 45.091C110.897 45.3676 110.87 45.5903 110.83 45.6308C110.789 45.6712 110.553 45.7185 110.303 45.7387L109.851 45.7724L109.817 47.3579C109.797 48.2282 109.757 48.9838 109.73 49.031C109.696 49.0782 109.527 49.112 109.304 49.112C108.744 49.112 108.67 49.1727 108.67 49.6517C108.67 50.1644 108.582 50.2589 108.069 50.2589C107.86 50.2589 107.651 50.2251 107.603 50.1779C107.556 50.1307 107.522 49.9215 107.522 49.7124C107.522 49.2064 107.428 49.112 106.922 49.112C106.713 49.112 106.503 49.0782 106.456 49.031C106.402 48.977 106.375 48.6397 106.375 47.9516C106.375 47.2635 106.375 46.9931 106.243 46.8869C106.158 46.8181 106.017 46.8181 105.785 46.8181L105.774 46.8181C105.248 46.8181 105.228 46.8654 105.228 47.992C105.228 48.6464 105.201 48.977 105.147 49.031C105.093 49.085 104.782 49.112 104.188 49.112L104.07 49.1119C103.405 49.1115 103.153 49.1114 103.057 49.2336C102.999 49.3082 103 49.4285 103 49.6222L103 49.6854C103 50.07 103.02 50.1847 103.108 50.2184C103.169 50.2386 103.891 50.2589 104.715 50.2589C105.788 50.2589 106.233 50.2791 106.294 50.3398C106.341 50.387 106.375 50.6029 106.375 50.8323C106.375 51.0617 106.409 51.2776 106.456 51.3248C106.503 51.372 106.713 51.4058 106.922 51.4058C107.421 51.4058 107.522 51.5002 107.522 51.9792C107.522 52.4582 107.421 52.5527 106.922 52.5527C106.713 52.5527 106.503 52.5864 106.456 52.6336C106.409 52.6809 106.375 52.89 106.375 53.0991C106.375 53.6119 106.47 53.6996 106.983 53.6996C107.306 53.6996 107.394 53.7266 107.455 53.8278C107.543 54.0032 107.543 55.6223 107.455 55.7978C107.394 55.899 107.306 55.9259 106.983 55.9259C106.463 55.9259 106.375 56.0136 106.375 56.5264C106.375 56.7625 106.409 56.9514 106.463 56.9851C106.503 57.0256 106.726 57.0728 106.942 57.0931C107.158 57.1133 107.374 57.1673 107.414 57.2078C107.455 57.2483 107.502 57.4844 107.522 57.734L107.554 58.1589C107.499 58.1546 107.437 58.1525 107.368 58.1525C107.148 58.1525 106.928 58.1186 106.878 58.0712C106.829 58.0237 106.793 57.8068 106.793 57.5627C106.793 57.1627 106.779 57.1288 106.609 57.0678C106.509 57.0271 106.005 57 105.487 57C104.856 57 104.522 56.9729 104.465 56.9186C104.345 56.8034 104.345 53.7864 104.472 53.6915C104.515 53.6576 104.756 53.6102 105.005 53.5966L105.005 53.5966C105.002 53.7115 105 53.8457 105 54C105 54.5818 105.023 54.8788 105.07 54.9273C105.111 54.9697 105.304 55 105.533 55C105.837 55 105.931 54.9758 105.96 54.903C106.03 54.7152 106.001 53.1515 105.925 53.0727C105.884 53.0308 105.737 53.007 105.574 53.0013C105.582 52.8293 105.587 52.6242 105.587 52.4102C105.587 51.7558 105.587 51.4889 105.456 51.3801C105.365 51.3051 105.213 51.3051 104.955 51.3051C104.48 51.3051 104.38 51.4136 104.38 51.9085C104.38 52.1186 104.345 52.3288 104.295 52.3763C104.21 52.4576 103.557 52.4915 103.358 52.4169C103.259 52.383 103.245 52.2271 103.245 51.4136C103.245 50.2 103.216 50.1525 102.57 50.1525C102.031 50.1525 101.967 50.2203 101.967 50.7763C101.967 50.9797 101.932 51.1763 101.882 51.2237C101.761 51.339 99.8308 51.339 99.7101 51.2237C99.5966 51.1153 99.5966 50.3424 99.7101 50.2339C99.7669 50.1797 100.108 50.1525 100.768 50.1525C101.307 50.1525 101.79 50.1322 101.854 50.1119C101.939 50.078 101.967 49.9695 101.967 49.6034C101.967 49.2169 101.946 49.1288 101.832 49.0678C101.74 49.0271 100.711 49 98.9578 49C96.5731 49 96.2111 49.0136 96.1189 49.1085C96.0195 49.1966 96.0053 49.4407 96.0053 50.7559C96.0053 51.861 96.0266 52.3153 96.0905 52.3763C96.1402 52.4237 96.3673 52.4576 96.6086 52.4576C96.8499 52.4576 97.077 52.4915 97.1267 52.539C97.1764 52.5864 97.2119 52.7898 97.2119 53C97.2119 53.2034 97.2403 53.4136 97.2757 53.4678C97.3183 53.5288 97.5029 53.5763 97.7584 53.5966C98.312 53.6305 98.4184 53.5424 98.4184 53.0068C98.4184 52.7966 98.4539 52.5864 98.5036 52.539C98.5533 52.4915 98.7804 52.4576 99.0359 52.4576C99.5611 52.4576 99.625 52.5254 99.625 53.1017C99.625 53.4407 99.6392 53.4814 99.8095 53.5424C100.079 53.6441 100.498 53.6237 100.675 53.5017C100.803 53.4136 100.832 53.3322 100.832 53.0068C100.832 52.5051 100.902 52.4441 101.484 52.4712L101.932 52.4915L101.967 54.0847C101.988 54.9593 102.031 55.7186 102.059 55.7661C102.095 55.8136 102.279 55.8475 102.528 55.8475C103.181 55.8475 103.202 55.8881 103.23 56.8983C103.252 57.4678 103.23 57.8271 103.174 57.9559L103.081 58.1525L101.974 58.139L100.867 58.1186L100.846 57.1017C100.824 55.8746 100.81 55.8475 100.157 55.8475C99.8166 55.8475 99.703 55.8203 99.6675 55.739C99.6463 55.678 99.625 55.2373 99.625 54.7559C99.625 54.2678 99.5895 53.8136 99.554 53.739C99.4901 53.6373 99.3978 53.6102 99.0572 53.6102C98.4397 53.6102 98.4184 53.6237 98.4184 54.1186C98.4184 54.6475 98.312 54.7627 97.7939 54.7627C97.3112 54.7627 97.2119 54.661 97.2119 54.1593C97.2119 53.9492 97.1764 53.739 97.1267 53.6915C97.0131 53.5831 96.204 53.5831 96.0905 53.6915C95.9698 53.8068 95.9698 56.8034 96.0905 56.9186C96.204 57.0271 97.0131 57.0271 97.1267 56.9186C97.1764 56.8712 97.2119 56.6678 97.2119 56.4576C97.2119 55.9695 97.3325 55.8475 97.8293 55.8475C98.312 55.8475 98.4184 55.9695 98.4184 56.5119L98.4183 56.5755C98.4176 56.7387 98.4173 56.8322 98.4624 56.8903C98.5227 56.9681 98.6645 56.9828 98.996 57.0171L99.0927 57.0271C99.3056 57.0542 99.483 57.1153 99.5398 57.1831C99.6037 57.2644 99.625 57.7051 99.625 58.7966C99.625 59.8746 99.6463 60.3153 99.7101 60.3763C99.7598 60.4237 99.9798 60.4576 100.2 60.4576C100.81 60.4576 100.832 60.4915 100.832 61.6034L100.832 61.7541L100.832 61.7541C100.833 62.2535 100.833 62.5062 100.707 62.6338C100.578 62.7644 100.316 62.7639 99.7865 62.7629L99.6321 62.7627C99.114 62.7627 98.6313 62.7288 98.5533 62.6949C98.4255 62.6271 98.4184 62.5322 98.4184 61.0475C98.4184 59.9085 98.3971 59.4475 98.3332 59.3864C98.2836 59.339 98.0565 59.3051 97.8009 59.3051C97.439 59.3051 97.3467 59.3254 97.2828 59.4339C97.2048 59.5763 97.1764 64.7017 97.2545 64.8915C97.2899 64.9729 97.4035 65 97.7726 65C98.0494 65 98.2836 64.9661 98.3332 64.9186C98.3829 64.8712 98.4184 64.6678 98.4184 64.4576C98.4184 64.2475 98.4539 64.0441 98.5036 63.9966C98.6313 63.8746 100.647 63.8814 100.746 64.0034C100.789 64.0508 100.832 64.2881 100.846 64.5254L100.867 64.9661L101.96 64.9864C102.62 64.9932 103.081 64.9797 103.124 64.939C103.167 64.8983 103.216 64.661 103.238 64.4102L103.28 63.9492L104.338 63.9288C105.054 63.9153 105.423 63.9356 105.487 63.9898C105.551 64.0373 105.587 64.2068 105.587 64.4508C105.587 64.661 105.622 64.8712 105.672 64.9186C105.722 64.9661 105.956 65 106.233 65C106.602 65 106.715 64.9729 106.751 64.8915C106.772 64.8305 106.793 63.5898 106.793 62.1254C106.793 60.1458 106.815 59.4475 106.878 59.3864C106.928 59.339 107.155 59.3051 107.411 59.3051C107.773 59.3051 107.865 59.2847 107.929 59.1763C108.042 58.9661 108.014 58.3831 107.886 58.261C107.865 58.2383 107.834 58.2194 107.794 58.204L108.002 58.2198C108.575 58.2602 108.67 58.3412 108.67 58.8C108.67 59.2722 108.569 59.3667 108.069 59.3667C107.86 59.3667 107.651 59.4004 107.603 59.4476C107.489 59.5623 107.489 61.4648 107.603 61.5795C107.651 61.6267 107.867 61.6605 108.11 61.6605C108.602 61.6605 108.67 61.7347 108.67 62.2272C108.67 62.6522 108.508 62.8074 108.069 62.8074C107.543 62.8074 107.522 62.8276 107.522 63.3404C107.522 63.6035 107.556 63.8261 107.603 63.8733C107.657 63.9273 107.995 63.9543 108.677 63.9543C109.399 63.9543 109.689 63.9745 109.73 64.042C109.757 64.0825 109.797 64.3186 109.817 64.5615L109.851 65L110.357 65L110.864 65L110.884 62.3081L110.887 61.7988C110.897 59.9955 110.9 59.5248 111.106 59.4048C111.179 59.3625 111.278 59.3639 111.411 59.3658C111.44 59.3662 111.472 59.3667 111.505 59.3667C111.734 59.3667 111.923 59.4004 111.964 59.4544C111.997 59.4948 112.045 59.9873 112.058 60.5338C112.072 61.3299 112.099 61.5458 112.18 61.593C112.328 61.6875 113.017 61.674 113.111 61.5795C113.158 61.5323 113.192 61.3164 113.192 61.0735C113.192 60.7295 113.212 60.6418 113.32 60.581C113.395 60.5473 113.874 60.5136 114.387 60.5136C115.028 60.5136 115.352 60.4866 115.406 60.4326C115.453 60.3854 115.487 60.1695 115.487 59.9401C115.487 59.7107 115.521 59.4948 115.568 59.4476C115.629 59.3869 116.081 59.3667 117.174 59.3667C118.011 59.3667 118.727 59.3397 118.774 59.3127C118.828 59.279 118.862 58.9349 118.875 58.2737C118.889 57.6126 118.923 57.255 118.977 57.201C119.024 57.1538 119.267 57.0998 119.517 57.0796L119.975 57.0391L119.996 56.5534C120.009 56.1283 119.996 56.0609 119.881 56.0001ZM117.714 58.0916C117.647 58.2063 117.559 58.2198 116.641 58.2198C115.858 58.2198 115.622 58.1995 115.561 58.1253C115.514 58.0646 115.487 57.8622 115.5 57.6058C115.513 57.3502 115.518 57.2483 115.571 57.1945C115.606 57.1588 115.663 57.1443 115.757 57.1201C115.885 57.0863 116.351 57.0728 116.796 57.0863C117.485 57.1133 117.606 57.1336 117.687 57.2415C117.795 57.3899 117.809 57.9027 117.714 58.0916ZM112.004 49.004C111.97 49.085 111.862 49.112 111.511 49.112C111.248 49.112 111.026 49.0782 110.978 49.031C110.924 48.977 110.897 48.6464 110.897 47.992C110.897 47.0745 110.904 47.0205 111.046 46.9261C111.215 46.8047 111.721 46.7844 111.916 46.8856C112.031 46.9531 112.045 47.0408 112.045 47.9313C112.045 48.4643 112.024 48.9433 112.004 49.004ZM117.115 49.0602C117.285 48.9725 118.836 48.9842 118.927 49.0719C118.97 49.1128 119 49.3056 119 49.5336C119 49.8374 118.976 49.9309 118.903 49.9602C118.715 50.0303 117.152 50.0011 117.073 49.9251C117.03 49.8842 117 49.6972 117 49.4868C117 49.1888 117.018 49.1128 117.115 49.0602ZM118.903 51.0397C118.715 50.9698 117.152 50.9989 117.073 51.0747C117.03 51.1155 117 51.302 117 51.5002C117 51.6984 117.03 51.8849 117.073 51.9257C117.176 52.0248 118.824 52.0248 118.927 51.9257C118.97 51.8849 119 51.6925 119 51.4652C119 51.1621 118.976 51.0689 118.903 51.0397ZM116.52 52C116.807 52 116.903 52.0238 116.957 52.1073C117.023 52.2146 117.011 52.8644 116.939 52.93C116.861 53.0075 116.257 53.0253 116.126 52.9598C116.018 52.9002 116 52.8346 116 52.5186C116 52.304 116.03 52.1133 116.072 52.0715C116.114 52.0298 116.305 52 116.52 52ZM114.996 61C115.586 61 115.882 61.0235 115.929 61.0706C115.97 61.1118 116 61.3 116 61.5118C116 61.9471 115.941 62 115.456 62C115.279 62 115.108 62.0294 115.066 62.0706C115.025 62.1118 114.996 62.2941 114.996 62.4765C114.996 62.9824 114.966 63 113.997 63C113.341 63 113.164 62.9824 113.105 62.9118C113.004 62.7882 112.963 62.3529 113.04 62.1647C113.099 62.0118 113.128 62 113.43 62C113.932 62 113.991 61.9471 113.991 61.5118C113.991 61.3 114.021 61.1118 114.062 61.0706C114.109 61.0235 114.405 61 114.996 61ZM115.929 64.075C115.835 63.975 115.165 63.975 115.071 64.075C115.001 64.15 114.971 64.725 115.036 64.9C115.065 64.975 115.159 65 115.465 65C115.694 65 115.888 64.9687 115.929 64.925C116.024 64.825 116.024 64.175 115.929 64.075ZM115.465 66C115.694 66 115.888 66.0312 115.929 66.075C116.024 66.175 116.024 66.825 115.929 66.925C115.888 66.9687 115.7 67 115.5 67C115.3 67 115.112 66.9687 115.071 66.925C115.001 66.85 114.971 66.275 115.036 66.1C115.065 66.025 115.159 66 115.465 66ZM114.906 67.0942C114.8 66.9884 114.294 66.9648 114.112 67.059C114.018 67.1119 114 67.1883 114 67.4883C114 67.7 114.029 67.8882 114.071 67.9294C114.112 67.9706 114.3 68 114.5 68C114.7 68 114.888 67.9706 114.929 67.9294C115.035 67.8236 115.018 67.206 114.906 67.0942ZM112.115 65.0766C112.255 64.9876 112.715 64.9709 112.885 65.0544C112.982 65.1044 113 65.1767 113 65.4827C113 65.9166 112.927 65.9944 112.509 66C112.091 66 112 65.911 112 65.4994C112 65.2268 112.024 65.1434 112.115 65.0766ZM111.868 40.0588C111.778 40.0235 110.586 40 108.472 40C105.603 40 105.208 40.0118 105.111 40.0941C104.979 40.2059 104.958 40.8235 105.083 40.9294C105.146 40.9824 105.866 41 107.911 41C109.955 41 110.676 41.0176 110.739 41.0706C110.787 41.1118 110.822 41.2941 110.822 41.4765C110.822 41.9176 110.919 42 111.439 42C111.653 42 111.868 41.9706 111.917 41.9294C111.972 41.8824 112 41.5882 112 40.9882C112 40.1941 111.986 40.1176 111.868 40.0588ZM110.448 66.0063C110.661 65.9942 110.873 66.0002 110.915 66.0184C110.982 66.0427 111 66.2549 111 66.9885C111 67.7828 110.988 67.9283 110.903 67.9587C110.715 68.0314 109.152 68.0011 109.073 67.9223C109.03 67.8798 109 67.6858 109 67.4675C109 67.0189 109.061 66.9643 109.57 66.9643C109.77 66.9643 109.921 66.934 109.952 66.8915C109.976 66.8491 110.012 66.6369 110.03 66.4186L110.061 66.0245L110.448 66.0063ZM108.386 65.0003C108.621 65.0003 108.757 65.0356 108.857 65.1179C108.986 65.2237 109 65.312 109 66.0059C109 66.4293 108.964 66.8233 108.929 66.8879C108.864 66.982 108.771 66.9997 108.407 66.9997C108.15 66.9997 107.921 67.0291 107.871 67.0702C107.821 67.1114 107.786 67.2819 107.786 67.4584C107.786 67.4941 107.786 67.5275 107.787 67.5588C107.789 67.6811 107.791 67.7697 107.752 67.8338C107.65 68.0018 107.271 68.0013 105.896 67.9997L105.894 67.9997C105.75 67.9995 105.595 67.9994 105.429 67.9994C104.222 67.9994 103.179 67.9817 103.114 67.9641C103.014 67.9347 103 67.7524 103 66.5233L103 66.3635C103 65.4651 102.999 65.1579 103.145 65.0534C103.221 64.9991 103.335 64.9995 103.51 65.0001L103.572 65.0003C104.136 65.0003 104.143 65.0062 104.143 65.9882C104.143 66.588 104.172 66.8821 104.229 66.9291C104.286 66.9761 104.643 66.9997 105.357 66.9997C106.071 66.9997 106.429 66.9761 106.486 66.9291C106.536 66.8879 106.571 66.7233 106.571 66.5527C106.571 66.0823 106.593 66.0588 107.079 66.0588C107.657 66.0588 107.786 65.9471 107.786 65.4707C107.786 65.065 107.864 65.0003 108.386 65.0003ZM107.906 42.0941C107.829 42.0176 107.659 42 106.976 42C106.406 42 106.118 42.0235 106.071 42.0706C105.976 42.1647 105.976 42.8353 106.071 42.9294C106.118 42.9765 106.406 43 106.976 43C107.965 43 108 42.9824 108 42.5C108 42.2941 107.971 42.1529 107.906 42.0941ZM103.805 62.7627C105.125 62.7627 105.381 62.7492 105.473 62.6542C105.573 62.5661 105.587 62.322 105.587 61.0068C105.587 59.9017 105.565 59.4475 105.502 59.3864C105.438 59.3254 104.962 59.3051 103.812 59.3051C102.343 59.3051 102.194 59.3186 102.088 59.4271C101.981 59.5356 101.967 59.7525 101.967 61.0203C101.967 62.4034 101.974 62.4983 102.109 62.6271C102.244 62.7559 102.343 62.7627 103.805 62.7627ZM97.8506 51.3051C98.1913 51.3051 98.2836 51.278 98.3474 51.1763C98.4468 50.9932 98.4397 50.3356 98.3332 50.2339C98.2836 50.1864 98.0565 50.1525 97.8009 50.1525C97.2828 50.1525 97.2119 50.2203 97.2119 50.7559C97.2119 51.2102 97.3254 51.3051 97.8506 51.3051ZM103.925 60.0711C103.85 60.0006 103.275 59.9712 103.1 60.0359C103.019 60.0652 103 60.1651 103 60.5C103 60.8349 103.019 60.9348 103.1 60.9641C103.275 61.0288 103.85 60.9994 103.925 60.9289C103.969 60.8878 104 60.6998 104 60.5C104 60.3002 103.969 60.1122 103.925 60.0711ZM103.952 40.0452C103.891 39.9774 96.1812 39.991 96.0726 40.052C96.0047 40.0995 95.9912 40.9404 96.0047 44.0396L96.0251 47.9661L100.016 47.9864L104 48L104 44.0463C104 41.8695 103.98 40.0656 103.952 40.0452ZM100.009 46.8336L97.145 46.8471L97.1585 44.0192L97.1789 41.1845L100.009 41.1642C102.656 41.1506 102.839 41.1574 102.867 41.2659C102.887 41.3337 102.894 42.6087 102.887 44.1006L102.88 46.8132L100.009 46.8336ZM99 42L100.5 42L102 42L101.988 43.4882L101.97 44.9706L100.488 44.9882L99 45L99 43.5L99 42ZM100.915 66.0579C100.862 66.0153 100.674 65.991 100.427 66.0031L100.028 66.0214L99.9985 66.4171C99.9809 66.6363 99.9456 66.8494 99.9221 66.892C99.8928 66.9346 99.7342 66.965 99.5051 66.965C99.2995 66.965 99.1116 66.9955 99.0705 67.0381C98.9765 67.1355 98.9765 67.8295 99.0705 67.9269C99.1175 67.9756 99.4111 68 100.01 68C100.803 68 100.88 67.9878 100.938 67.8843C101.032 67.6956 101.015 66.1432 100.915 66.0579ZM99.4941 65C99.6882 65 99.8 65.0333 99.8824 65.1111C99.9706 65.1944 100 65.2944 100 65.5C100 65.8667 99.8647 66 99.4941 66C99.0529 66 99 65.9444 99 65.5C99 65.0556 99.0529 65 99.4941 65ZM97.9435 57.0909C97.9021 57.0242 97.7838 57 97.5 57C97.2162 57 97.0979 57.0242 97.0565 57.0909C96.9737 57.2242 96.9855 57.8424 97.0683 57.9273C97.1097 57.9697 97.2989 58 97.5 58C97.7011 58 97.8903 57.9697 97.9317 57.9273C98.0145 57.8424 98.0263 57.2242 97.9435 57.0909ZM97.5967 66.0573C97.8147 66.0573 97.9443 66.0868 97.962 66.1338C98.0268 66.281 98.0032 66.8579 97.9325 66.9286C97.8913 66.9698 97.7087 66.9992 97.526 66.9992C97.0841 66.9992 97.0016 67.0816 97.0016 67.5232C97.0016 67.7057 96.9722 67.8881 96.9309 67.9294C96.8897 67.9706 96.7011 68 96.5008 68C96.3005 68 96.1119 67.9706 96.0707 67.9294C96.0177 67.8764 96 67.482 96 66.5224C96 65.2037 96 65.1802 96.1296 65.0919C96.2769 64.9859 96.7188 64.9682 96.8897 65.0565C96.9839 65.1095 97.0016 65.1861 97.0016 65.4981C97.0016 65.9631 97.1018 66.0573 97.5967 66.0573Z" fill="#433836"/>
<path fill-rule="evenodd" clip-rule="evenodd" d="M128 39.3775L128 66.6225C128 68.4879 126.443 70 124.523 70L96.4768 70C94.5566 70 93 68.4878 93 66.6225L93 39.3775C93 37.5121 94.5566 36 96.4768 36L124.523 36C126.443 36 128 37.5122 128 39.3775ZM126.088 39.3775C126.088 38.5381 125.387 37.8576 124.523 37.8576L96.4768 37.8576C95.6127 37.8576 94.9123 38.5381 94.9123 39.3775L94.9122 66.6225C94.9122 67.4619 95.6127 68.1424 96.4768 68.1424L124.523 68.1424C125.387 68.1424 126.088 67.4619 126.088 66.6225L126.088 39.3775Z" fill="#433836"/>
<path d="M133 73.7879L133 53C133 56.9879 127.985 60.2121 121.783 60.2121L99.217 60.2121C93.0147 60.2121 88 56.9879 88 53L88 73.7879C88 77.7758 93.0147 81 99.217 81L121.783 81C127.985 81 133 77.7758 133 73.7879Z" fill="#0A1BB3" fill-opacity="0.21"/>
<path d="M102 15.3895L102 0L95 -3.06049e-07L95 15.3895C95 17.3753 96.575 19 98.5 19C100.469 19 102 17.4204 102 15.3895Z" fill="#3C98BF"/>
<path d="M95 108L102 108L102 92.6105C102 90.6247 100.425 89 98.5 89C96.575 89 95 90.6247 95 92.6105L95 108Z" fill="#3C98BF"/>
<path fill-rule="evenodd" clip-rule="evenodd" d="M210.538 156.044C210.547 156.029 210.556 156.014 210.565 156V156.088C214.905 163.089 234 198.951 210.511 199C210.502 199 210.493 199 210.484 199C210.475 199 210.456 199 210.456 199C186.967 198.951 206.17 163.089 210.511 156.088V156C210.52 156.014 210.529 156.029 210.538 156.044Z" fill="#A0C6FF"/>
<path fill-rule="evenodd" clip-rule="evenodd" d="M199.02 121.022C199.024 121.015 199.029 121.007 199.034 121V121.045C201.298 124.627 211.261 142.975 199.006 143C199.001 143 198.996 143 198.991 143C198.987 143 198.977 143 198.977 143C186.722 142.975 196.741 124.627 199.006 121.045V121C199.01 121.007 199.015 121.015 199.02 121.022Z" fill="#A0C6FF"/>
<path fill-rule="evenodd" clip-rule="evenodd" d="M179.02 199.022C179.024 199.015 179.029 199.007 179.034 199V199.045C181.298 202.627 191.261 220.975 179.006 221C179.001 221 178.996 221 178.991 221C178.987 221 178.977 221 178.977 221C166.722 220.975 176.741 202.627 179.006 199.045V199C179.01 199.007 179.015 199.015 179.02 199.022Z" fill="#A0C6FF"/>
</svg>
