<svg width="232" height="108" viewBox="0 0 232 108" fill="none" xmlns="http://www.w3.org/2000/svg">
<path d="M77.148 108L84.8763 108C89.1246 108 92.6046 104.564 92.6046 100.27L95 100.27L95 7.73043L92.6047 7.73043C92.6047 3.48095 89.1698 -2.54903e-07 84.8763 -4.42621e-07L77.148 -7.80514e-07C74.0747 -9.14881e-07 71.4534 1.76308 70.1879 4.3851C70.0523 4.65634 69.736 4.83717 69.4196 4.83717C69.1032 4.83717 68.7869 4.65634 68.6513 4.3851C67.3858 1.80829 64.7645 -1.32193e-06 61.6912 -1.4563e-06L53.9629 -1.7942e-06C50.8896 -1.92856e-06 48.2683 1.76308 47.0029 4.3851C46.8673 4.65634 46.5509 4.83717 46.2345 4.83717C45.9182 4.83717 45.6018 4.65634 45.4662 4.3851C44.2008 1.80829 41.5795 -2.33561e-06 38.5062 -2.46998e-06L30.7778 -2.80788e-06C27.7046 -2.94224e-06 25.0833 1.76308 23.8178 4.3851C23.6822 4.65634 23.3658 4.83717 23.0495 4.83717C22.7331 4.83717 22.4167 4.65634 22.2812 4.3851C21.0157 1.80828 18.3944 -3.3493e-06 15.3211 -3.48366e-06C6.91484 -3.8512e-06 -3.0227e-07 6.9167 -6.73687e-07 15.4157L-4.04607e-06 92.5843C-4.41947e-06 101.129 6.91484 108 15.4115 108C18.4848 108 21.1061 106.237 22.3715 103.615C22.5071 103.344 22.8235 103.163 23.1399 103.163C23.4562 103.163 23.7726 103.344 23.9082 103.615C25.1736 106.192 27.7949 108 30.8682 108L38.5966 108C41.6698 108 44.2911 106.237 45.5566 103.615C45.6922 103.344 46.0086 103.163 46.3249 103.163C46.6413 103.163 46.9577 103.344 47.0932 103.615C48.3587 106.192 50.98 108 54.0533 108L61.7816 108C64.8549 108 67.4762 106.237 68.7417 103.615C68.8773 103.344 69.1936 103.163 69.51 103.163C69.8263 103.163 70.1427 103.344 70.2783 103.615C71.4534 106.237 74.0747 108 77.148 108Z" fill="#A2D2FF" fill-opacity="0.66"/>
<path d="M70.5095 103.696C71.7791 106.225 74.4091 108 77.4925 108L85.2462 108C89.5085 108 93 104.628 93 100.413L93 89.5427C93 93.7133 89.5539 97.1297 85.2462 97.1297L77.4925 97.1297C74.4091 97.1297 71.7791 95.3993 70.5095 92.8259C70.3735 92.5597 70.0561 92.3823 69.7387 92.3823C69.4213 92.3823 69.1039 92.5597 68.9678 92.8259C67.6982 95.3549 65.0683 97.1297 61.9849 97.1297L54.2311 97.1297C51.1477 97.1297 48.5178 95.3993 47.2482 92.8259C47.1121 92.5597 46.7947 92.3823 46.4773 92.3823C46.1599 92.3823 45.8425 92.5597 45.7065 92.8259C44.4369 95.3549 41.8069 97.1297 38.7236 97.1297L30.9698 97.1297C27.8864 97.1297 25.2565 95.3993 23.9868 92.8259C23.8508 92.5597 23.5334 92.3823 23.216 92.3823C22.8986 92.3823 22.5812 92.5597 22.4452 92.8259C21.1755 95.3549 18.5456 97.1297 15.4622 97.1297C6.89225 97.1297 -3.64526e-07 90.3413 0 82L-4.75048e-07 92.8703C-8.41513e-07 101.256 6.9376 108 15.4622 108C18.5456 108 21.1755 106.27 22.4452 103.696C22.5812 103.43 22.8986 103.253 23.216 103.253C23.5334 103.253 23.8508 103.43 23.9868 103.696C25.2565 106.225 27.8864 108 30.9698 108L38.7236 108C41.8069 108 44.4369 106.27 45.7065 103.696C45.8425 103.43 46.1599 103.253 46.4773 103.253C46.7947 103.253 47.1121 103.43 47.2482 103.696C48.5178 106.225 51.1477 108 54.2311 108L61.9849 108C65.0683 108 67.6982 106.27 68.9678 103.696C69.1039 103.43 69.4213 103.253 69.7387 103.253C70.0561 103.208 70.3735 103.386 70.5095 103.696Z" fill="#A0C6FF"/>
<path d="M73 84.3957L73 1C71.8187 1.76592 70.8562 2.84723 70.2437 4.15381C70.1125 4.42413 69.8062 4.60435 69.5 4.60435C69.1937 4.60435 68.8875 4.42413 68.7562 4.15381C68.1437 2.84723 67.1813 1.76592 66 1L66 84.3957C66 86.378 67.575 88 69.5 88C71.425 88 73 86.4231 73 84.3957Z" fill="#A0C6FF"/>
<path d="M47.2438 103.846C47.8563 105.153 48.8187 106.234 50 107L50 23.6043C50 21.622 48.425 20 46.5 20C44.575 20 43 21.622 43 23.6043L43 107C44.1812 106.234 45.1438 105.153 45.7563 103.846C45.8875 103.576 46.1937 103.396 46.5 103.396C46.8062 103.351 47.1125 103.531 47.2438 103.846Z" fill="#A0C6FF"/>
<path d="M27 84.3957L27 1C25.8187 1.76592 24.8562 2.84723 24.2437 4.15381C24.1125 4.42413 23.8062 4.60435 23.5 4.60435C23.1937 4.60435 22.8875 4.42413 22.7562 4.15381C22.1437 2.84723 21.1813 1.76592 20 1L20 84.3957C20 86.378 21.575 88 23.5 88C25.425 88 27 86.4231 27 84.3957Z" fill="#A0C6FF"/>
<path d="M93 104.157L93 3.84261C93 1.71787 94.7065 -2.37378e-06 96.8172 -2.2815e-06L142.803 -2.70953e-07C144.913 -1.78672e-07 146.62 1.71787 146.62 3.84261L149 3.84261L149 104.157L146.62 104.157C146.62 106.282 144.913 108 142.803 108L96.8172 108C94.7065 108 93 106.282 93 104.157Z" fill="#67A6C1"/>
<path d="M146.62 104.136L149 104.136L149 93L146.62 93C146.62 95.1364 144.913 96.8636 142.803 96.8636L96.8172 96.8636C94.7065 96.8636 93 95.1364 93 93L93 104.136C93 106.273 94.7065 108 96.8172 108L142.758 108C144.869 108 146.62 106.273 146.62 104.136Z" fill="#3C98BF"/>
<path d="M209 77L209 31L224.813 31C228.766 31 232 34.2344 232 38.1875L232 69.8125C232 73.7656 228.766 77 224.813 77L209 77Z" fill="#EDF6FF"/>
<path d="M212 39L212 70L191 70L191 39L212 39Z" fill="#A0C6FF"/>
<path d="M193 38.5617C193 17.2692 175.84 -7.50264e-07 154.637 -1.67729e-06L150.818 -1.84424e-06C148.707 -1.93655e-06 147 1.71787 147 3.84261L147 104.157C147 106.282 148.707 108 150.818 108L154.637 108C175.795 108 192.955 90.7309 192.955 69.4383L192.955 38.5617L193 38.5617Z" fill="#A2D2FF" fill-opacity="0.66"/>
<path d="M209 77L209 31L224.813 31C228.766 31 232 34.2344 232 38.1875L232 69.8125C232 73.7656 228.766 77 224.813 77L209 77Z" fill="#EDF6FF"/>
<path d="M232 69.1899L232 58C232 62.2933 228.586 65.8101 224.318 65.8101L209 65.8101L209 77L224.318 77C228.586 77 232 73.4832 232 69.1899Z" fill="#D8E2F3"/>
<path d="M205 77.3513L205 30.6487C205 28.6419 206.575 27 208.5 27C210.425 27 212 28.6419 212 30.6487L212 77.3513C212 79.3581 210.425 81 208.5 81C206.575 81 205 79.3581 205 77.3513Z" fill="#D8E2F3"/>
<path d="M193 69.1566L193 58C193 79.4481 175.823 96.8433 154.644 96.8433L150.822 96.8433C148.709 96.8433 147 95.1129 147 92.9727L147 104.129C147 106.27 148.709 108 150.822 108L154.644 108C175.823 108 193 90.6047 193 69.1566Z" fill="#A0C6FF"/>
<path d="M98 74.675L98 33.325C98 29.8463 102.751 27 108.557 27L132.443 27C138.249 27 143 29.8463 143 33.325L143 74.675C143 78.1537 138.249 81 132.443 81L108.557 81C102.751 81 98 78.1537 98 74.675Z" fill="#EDF6FF"/>
<path fill-rule="evenodd" clip-rule="evenodd" d="M130.937 60.0025C133.081 59.9958 134.88 60.0025 134.927 60.0229C134.995 60.0433 135.009 60.8783 134.995 64.0081L134.975 67.9661L130.984 67.9864L127 68L127.014 64.0149L127.034 60.0229L130.937 60.0025ZM128.154 66.8459L131.004 66.8459L133.855 66.8459L133.855 64.042C133.855 62.4941 133.835 61.211 133.808 61.1906C133.787 61.1635 132.504 61.1431 130.957 61.1431L128.154 61.1431L128.154 63.9945L128.154 66.8459ZM134.912 50.1974C134.86 50.1513 134.625 50.1184 134.375 50.1184C134.125 50.1184 133.89 50.0855 133.838 50.0395C133.787 49.9934 133.75 49.7895 133.75 49.5855C133.75 49.1053 133.647 49 133.154 49C132.574 49 132.5 49.0658 132.5 49.5461C132.5 49.7829 132.463 49.9934 132.412 50.0395C132.36 50.0855 132.132 50.1184 131.904 50.1184C131.346 50.1184 131.25 50.0263 131.25 49.5263C131.25 49.1974 131.228 49.125 131.096 49.0592C130.882 48.9605 130.154 49.0132 130.066 49.1382C129.978 49.2697 129.985 50.9539 130.074 51.1118C130.147 51.2303 130.25 51.2368 131.838 51.2368L131.967 51.2368C133.202 51.2366 133.582 51.2366 133.698 51.4119C133.75 51.4898 133.75 51.6023 133.75 51.7648L133.75 51.7961C133.75 52.3355 133.713 52.3553 132.463 52.3553C131.493 52.3553 131.397 52.3684 131.324 52.4803C131.287 52.5526 131.25 52.9868 131.25 53.4539C131.25 54.5197 131.294 54.5921 131.904 54.5921C132.132 54.5921 132.36 54.625 132.412 54.6711C132.537 54.7829 132.537 57.6908 132.412 57.8026C132.36 57.8487 132.125 57.8816 131.86 57.8816C131.316 57.8816 131.25 57.8158 131.25 57.2566C131.25 56.9211 131.235 56.8882 131.051 56.8224C130.809 56.7368 130.265 56.7829 130.11 56.8947C130.022 56.9605 130 57.1579 130 57.8618C130 58.3487 130.037 58.8026 130.074 58.875C130.147 58.9934 130.257 59 132.485 59C134.206 59 134.846 58.9803 134.912 58.9211C134.963 58.875 135 58.6711 135 58.4671C135 57.9737 134.897 57.8816 134.346 57.8816C134.118 57.8816 133.89 57.8487 133.838 57.8026C133.743 57.7171 133.721 57.0395 133.809 56.9145C133.846 56.8684 134.081 56.8092 134.346 56.7895C134.603 56.7632 134.86 56.7171 134.912 56.6776C134.963 56.6447 135 56.4605 135 56.2368C135 55.7434 134.882 55.6447 134.287 55.6447C133.949 55.6447 133.831 55.6184 133.794 55.5395C133.706 55.3355 133.743 53.6382 133.838 53.5526C133.89 53.5066 134.118 53.4737 134.346 53.4737L134.389 53.4737C134.6 53.474 134.738 53.4742 134.829 53.4086C135 53.2842 135 52.9236 135 51.8798L135 51.7697C135 50.6974 134.978 50.2566 134.912 50.1974ZM127.109 40.0407C127.251 39.9864 134.764 39.9864 134.9 40.0407C135.002 40.0814 135.008 40.4746 134.995 44.0271L134.974 47.9661L130.991 47.9864L127 48L127 44.0407C127 40.4949 127.014 40.0814 127.109 40.0407ZM128.154 46.8475L131.004 46.8475L133.855 46.8475L133.855 44.0339C133.855 41.8373 133.834 41.2068 133.766 41.1864C133.726 41.1661 132.45 41.1593 130.936 41.1661L128.188 41.1864L128.167 44.0203L128.154 46.8475ZM131.499 42C132.29 42 132.951 42.0176 132.975 42.0412C132.993 42.0647 133.004 42.7294 132.998 43.5235L132.981 44.9706L131.529 44.9882L130.071 45L130.035 44.8706C129.988 44.6941 129.988 42.2118 130.035 42.0941C130.065 42.0118 130.254 42 131.499 42ZM132.975 62.0412C132.951 62.0176 132.29 62 131.499 62C130.254 62 130.065 62.0118 130.035 62.0941C129.988 62.2118 129.988 64.6941 130.035 64.8706L130.071 65L131.529 64.9882L132.981 64.9706L132.998 63.5235C133.004 62.7294 132.993 62.0647 132.975 62.0412ZM129.526 52C129.799 52 129.946 52.0235 129.964 52.0765C129.982 52.1118 130 52.3118 130 52.5118C130.006 52.9412 129.946 53 129.509 53C129.16 53 129 52.8529 129 52.5353C129 52.4059 129.024 52.2353 129.059 52.1529C129.112 52.0118 129.142 52 129.526 52ZM129.881 56.0001C129.807 55.9597 129.584 55.9259 129.375 55.9259C129.152 55.9259 128.983 55.8922 128.95 55.845C128.923 55.7978 128.882 55.3053 128.862 54.7453L128.828 53.7333L127.748 53.7333L126.668 53.7333L126.648 54.1921C126.621 54.7925 126.668 54.8465 127.215 54.8465C127.708 54.8465 127.782 54.9207 127.782 55.3862L127.782 55.4408C127.783 55.596 127.783 55.7016 127.734 55.7735C127.629 55.9266 127.301 55.9264 126.271 55.926L126.094 55.9259C124.785 55.9259 124.535 55.9394 124.448 56.0339C124.353 56.1216 124.34 56.3645 124.34 57.6193C124.34 58.5166 124.313 59.1575 124.272 59.2385C124.211 59.3464 124.124 59.3667 123.779 59.3667C123.536 59.3667 123.32 59.3329 123.273 59.2857C123.212 59.225 123.192 58.6515 123.192 57.1066C123.192 55.5616 123.172 54.9882 123.111 54.9275C123.064 54.8802 122.848 54.8465 122.605 54.8465C122.207 54.8465 122.173 54.86 122.112 55.0219C122.072 55.1164 122.045 55.8247 122.045 56.6006C122.045 57.3764 122.024 58.0511 122.004 58.1118C121.97 58.1928 121.862 58.2198 121.511 58.2198C121.248 58.2198 121.026 58.186 120.978 58.1388C120.924 58.0848 120.897 57.7475 120.897 57.0594C120.897 56.1486 120.884 56.0609 120.769 55.9934C120.695 55.9597 120.216 55.9259 119.696 55.9259C118.899 55.9259 118.744 55.9124 118.71 55.818C118.629 55.6089 118.663 53.8683 118.751 53.7805C118.798 53.7333 118.994 53.6996 119.19 53.6996C119.777 53.6996 119.817 53.6254 119.817 52.4582C119.817 51.6352 119.831 51.48 119.925 51.4463C120.114 51.372 120.735 51.4058 120.816 51.4867C120.87 51.5407 120.897 51.8713 120.897 52.5257C120.897 53.4432 120.904 53.4972 121.046 53.5916C121.215 53.7131 121.613 53.7333 121.862 53.6389C122.031 53.5715 122.031 53.5647 122.051 52.5551L122.051 52.5527C122.072 51.7431 122.099 51.5205 122.18 51.4732C122.234 51.4395 122.699 51.4058 123.206 51.4058C124.286 51.4058 124.34 51.4328 124.34 51.9522L124.34 52.0064C124.207 52.0171 124.1 52.0408 124.071 52.0706C124.024 52.1176 124 52.4118 124 53.0118C124 53.8059 124.012 53.8824 124.112 53.9412C124.176 53.9706 124.576 54 125 54C125.424 54 125.824 53.9706 125.888 53.9412C125.982 53.8882 126 53.8118 126 53.5059C126 53.2765 125.971 53.1118 125.929 53.0706C125.888 53.0412 125.688 53 125.482 52.9882C125.247 52.9706 125.088 52.9294 125.053 52.8765C125.028 52.8365 125.007 52.6992 125.002 52.5507C125.201 52.5428 125.365 52.5122 125.406 52.4717C125.467 52.411 125.487 51.7026 125.487 49.7124L125.487 49.2539C125.488 47.4331 125.489 46.9688 125.288 46.8534C125.219 46.8139 125.127 46.8153 125.004 46.8172C124.975 46.8177 124.945 46.8181 124.913 46.8181C124.434 46.8181 124.34 46.9193 124.34 47.4186C124.34 47.6277 124.306 47.8369 124.259 47.8841C124.211 47.9313 123.995 47.9651 123.766 47.9651C123.536 47.9651 123.32 47.9313 123.273 47.8841C123.219 47.8301 123.192 47.5063 123.192 46.8789C123.192 46.3661 123.172 45.9074 123.152 45.8466C123.118 45.7657 123.01 45.7387 122.686 45.7387C122.389 45.7387 122.24 45.705 122.18 45.6308C122.085 45.5228 122.058 44.8077 122.139 44.6728C122.207 44.5581 124.144 44.5581 124.259 44.6728C124.306 44.72 124.34 44.9291 124.34 45.1383C124.34 45.6375 124.434 45.7387 124.9 45.7387C124.937 45.7383 124.973 45.7386 125.006 45.7389C125.131 45.7401 125.223 45.7409 125.292 45.7007C125.489 45.5854 125.489 45.132 125.487 43.3771C125.487 43.2134 125.487 43.0384 125.487 42.8512C125.487 42.6406 125.487 42.4454 125.487 42.2646C125.489 40.5856 125.49 40.1451 125.299 40.0349C125.232 39.9957 125.14 39.9983 125.015 40.0018C124.975 40.003 124.933 40.0042 124.886 40.0042L124.873 40.0042C124.702 40.0041 124.585 40.0041 124.506 40.0585C124.339 40.1732 124.34 40.5296 124.34 41.6366L124.34 41.6975C124.34 42.5948 124.313 43.2357 124.272 43.3167C124.211 43.4246 124.124 43.4449 123.779 43.4449C123.536 43.4449 123.32 43.4112 123.273 43.3639C123.226 43.3167 123.192 43.1008 123.192 42.8714C123.192 42.6421 123.158 42.4262 123.111 42.3789C123.017 42.2845 122.328 42.271 122.186 42.3587C122.126 42.3992 122.078 42.5813 122.058 42.8512C122.045 43.0873 121.997 43.3167 121.964 43.3639C121.869 43.4786 120.013 43.4786 119.898 43.3639C119.851 43.3167 119.817 43.1076 119.817 42.8984C119.817 42.3924 119.723 42.298 119.217 42.298C119.007 42.298 118.798 42.3317 118.751 42.3789C118.704 42.4262 118.67 42.6353 118.67 42.8444C118.67 43.3504 118.575 43.4449 118.069 43.4449C117.86 43.4449 117.651 43.4786 117.603 43.5258C117.552 43.5776 117.525 43.7874 117.523 44L117.512 44C117.012 44 117 44.0238 117 44.9802C117 45.4317 117.018 45.8416 117.035 45.895C117.065 45.9663 117.159 45.9901 117.442 45.9901C117.919 45.9901 118.001 46.0733 118.001 46.5663C118.001 46.9881 118.019 47 118.531 47C118.814 47 118.89 46.9762 118.943 46.8871C119.02 46.7386 119.02 45.2832 118.937 45.1465C118.89 45.0634 118.796 45.0396 118.513 45.0396C118.301 45.0396 118.113 45.0099 118.072 44.9683C118.031 44.9267 118.001 44.7485 118.001 44.5644L118.001 44.5431C118.312 44.5617 118.775 44.5801 119.277 44.5918L120.864 44.6255L120.884 45.091C120.897 45.3676 120.87 45.5903 120.83 45.6308C120.789 45.6712 120.553 45.7185 120.303 45.7387L119.851 45.7724L119.817 47.3579C119.797 48.2282 119.757 48.9838 119.73 49.031C119.696 49.0782 119.527 49.112 119.304 49.112C118.744 49.112 118.67 49.1727 118.67 49.6517C118.67 50.1644 118.582 50.2589 118.069 50.2589C117.86 50.2589 117.651 50.2251 117.603 50.1779C117.556 50.1307 117.522 49.9215 117.522 49.7124C117.522 49.2064 117.428 49.112 116.922 49.112C116.713 49.112 116.503 49.0782 116.456 49.031C116.402 48.977 116.375 48.6397 116.375 47.9516C116.375 47.2635 116.375 46.9931 116.243 46.8869C116.158 46.8181 116.017 46.8181 115.785 46.8181L115.774 46.8181C115.248 46.8181 115.228 46.8654 115.228 47.992C115.228 48.6464 115.201 48.977 115.147 49.031C115.093 49.085 114.782 49.112 114.188 49.112L114.07 49.1119C113.405 49.1115 113.153 49.1114 113.057 49.2336C112.999 49.3082 113 49.4285 113 49.6222L113 49.6854C113 50.07 113.02 50.1847 113.108 50.2184C113.169 50.2386 113.891 50.2589 114.715 50.2589C115.788 50.2589 116.233 50.2791 116.294 50.3398C116.341 50.387 116.375 50.6029 116.375 50.8323C116.375 51.0617 116.409 51.2776 116.456 51.3248C116.503 51.372 116.713 51.4058 116.922 51.4058C117.421 51.4058 117.522 51.5002 117.522 51.9792C117.522 52.4582 117.421 52.5527 116.922 52.5527C116.713 52.5527 116.503 52.5864 116.456 52.6336C116.409 52.6809 116.375 52.89 116.375 53.0991C116.375 53.6119 116.47 53.6996 116.983 53.6996C117.306 53.6996 117.394 53.7266 117.455 53.8278C117.543 54.0032 117.543 55.6223 117.455 55.7978C117.394 55.899 117.306 55.9259 116.983 55.9259C116.463 55.9259 116.375 56.0136 116.375 56.5264C116.375 56.7625 116.409 56.9514 116.463 56.9851C116.503 57.0256 116.726 57.0728 116.942 57.0931C117.158 57.1133 117.374 57.1673 117.414 57.2078C117.455 57.2483 117.502 57.4844 117.522 57.734L117.554 58.1589C117.499 58.1546 117.437 58.1525 117.368 58.1525C117.148 58.1525 116.928 58.1186 116.878 58.0712C116.829 58.0237 116.793 57.8068 116.793 57.5627C116.793 57.1627 116.779 57.1288 116.609 57.0678C116.509 57.0271 116.005 57 115.487 57C114.856 57 114.522 56.9729 114.465 56.9186C114.345 56.8034 114.345 53.7864 114.472 53.6915C114.515 53.6576 114.756 53.6102 115.005 53.5966L115.005 53.5966C115.002 53.7115 115 53.8457 115 54C115 54.5818 115.023 54.8788 115.07 54.9273C115.111 54.9697 115.304 55 115.533 55C115.837 55 115.931 54.9758 115.96 54.903C116.03 54.7152 116.001 53.1515 115.925 53.0727C115.884 53.0308 115.737 53.007 115.574 53.0013C115.582 52.8293 115.587 52.6242 115.587 52.4102C115.587 51.7558 115.587 51.4889 115.456 51.3801C115.365 51.3051 115.213 51.3051 114.955 51.3051C114.48 51.3051 114.38 51.4136 114.38 51.9085C114.38 52.1186 114.345 52.3288 114.295 52.3763C114.21 52.4576 113.557 52.4915 113.358 52.4169C113.259 52.383 113.245 52.2271 113.245 51.4136C113.245 50.2 113.216 50.1525 112.57 50.1525C112.031 50.1525 111.967 50.2203 111.967 50.7763C111.967 50.9797 111.932 51.1763 111.882 51.2237C111.761 51.339 109.831 51.339 109.71 51.2237C109.597 51.1153 109.597 50.3424 109.71 50.2339C109.767 50.1797 110.108 50.1525 110.768 50.1525C111.307 50.1525 111.79 50.1322 111.854 50.1119C111.939 50.078 111.967 49.9695 111.967 49.6034C111.967 49.2169 111.946 49.1288 111.832 49.0678C111.74 49.0271 110.711 49 108.958 49C106.573 49 106.211 49.0136 106.119 49.1085C106.02 49.1966 106.005 49.4407 106.005 50.7559C106.005 51.861 106.027 52.3153 106.09 52.3763C106.14 52.4237 106.367 52.4576 106.609 52.4576C106.85 52.4576 107.077 52.4915 107.127 52.539C107.176 52.5864 107.212 52.7898 107.212 53C107.212 53.2034 107.24 53.4136 107.276 53.4678C107.318 53.5288 107.503 53.5763 107.758 53.5966C108.312 53.6305 108.418 53.5424 108.418 53.0068C108.418 52.7966 108.454 52.5864 108.504 52.539C108.553 52.4915 108.78 52.4576 109.036 52.4576C109.561 52.4576 109.625 52.5254 109.625 53.1017C109.625 53.4407 109.639 53.4814 109.809 53.5424C110.079 53.6441 110.498 53.6237 110.675 53.5017C110.803 53.4136 110.832 53.3322 110.832 53.0068C110.832 52.5051 110.902 52.4441 111.484 52.4712L111.932 52.4915L111.967 54.0847C111.988 54.9593 112.031 55.7186 112.059 55.7661C112.095 55.8136 112.279 55.8475 112.528 55.8475C113.181 55.8475 113.202 55.8881 113.23 56.8983C113.252 57.4678 113.23 57.8271 113.174 57.9559L113.081 58.1525L111.974 58.139L110.867 58.1186L110.846 57.1017C110.824 55.8746 110.81 55.8475 110.157 55.8475C109.817 55.8475 109.703 55.8203 109.668 55.739C109.646 55.678 109.625 55.2373 109.625 54.7559C109.625 54.2678 109.589 53.8136 109.554 53.739C109.49 53.6373 109.398 53.6102 109.057 53.6102C108.44 53.6102 108.418 53.6237 108.418 54.1186C108.418 54.6475 108.312 54.7627 107.794 54.7627C107.311 54.7627 107.212 54.661 107.212 54.1593C107.212 53.9492 107.176 53.739 107.127 53.6915C107.013 53.5831 106.204 53.5831 106.09 53.6915C105.97 53.8068 105.97 56.8034 106.09 56.9186C106.204 57.0271 107.013 57.0271 107.127 56.9186C107.176 56.8712 107.212 56.6678 107.212 56.4576C107.212 55.9695 107.333 55.8475 107.829 55.8475C108.312 55.8475 108.418 55.9695 108.418 56.5119L108.418 56.5755C108.418 56.7387 108.417 56.8322 108.462 56.8903C108.523 56.9681 108.665 56.9828 108.996 57.0171L109.093 57.0271C109.306 57.0542 109.483 57.1153 109.54 57.1831C109.604 57.2644 109.625 57.7051 109.625 58.7966C109.625 59.8746 109.646 60.3153 109.71 60.3763C109.76 60.4237 109.98 60.4576 110.2 60.4576C110.81 60.4576 110.832 60.4915 110.832 61.6034L110.832 61.7541L110.832 61.7541C110.833 62.2535 110.833 62.5062 110.707 62.6338C110.578 62.7644 110.316 62.7639 109.786 62.7629L109.632 62.7627C109.114 62.7627 108.631 62.7288 108.553 62.6949C108.426 62.6271 108.418 62.5322 108.418 61.0475C108.418 59.9085 108.397 59.4475 108.333 59.3864C108.284 59.339 108.056 59.3051 107.801 59.3051C107.439 59.3051 107.347 59.3254 107.283 59.4339C107.205 59.5763 107.176 64.7017 107.254 64.8915C107.29 64.9729 107.403 65 107.773 65C108.049 65 108.284 64.9661 108.333 64.9186C108.383 64.8712 108.418 64.6678 108.418 64.4576C108.418 64.2475 108.454 64.0441 108.504 63.9966C108.631 63.8746 110.647 63.8814 110.746 64.0034C110.789 64.0508 110.832 64.2881 110.846 64.5254L110.867 64.9661L111.96 64.9864C112.62 64.9932 113.081 64.9797 113.124 64.939C113.167 64.8983 113.216 64.661 113.238 64.4102L113.28 63.9492L114.338 63.9288C115.054 63.9153 115.423 63.9356 115.487 63.9898C115.551 64.0373 115.587 64.2068 115.587 64.4508C115.587 64.661 115.622 64.8712 115.672 64.9186C115.722 64.9661 115.956 65 116.233 65C116.602 65 116.715 64.9729 116.751 64.8915C116.772 64.8305 116.793 63.5898 116.793 62.1254C116.793 60.1458 116.815 59.4475 116.878 59.3864C116.928 59.339 117.155 59.3051 117.411 59.3051C117.773 59.3051 117.865 59.2847 117.929 59.1763C118.042 58.9661 118.014 58.3831 117.886 58.261C117.865 58.2383 117.834 58.2194 117.794 58.204L118.002 58.2198C118.575 58.2602 118.67 58.3412 118.67 58.8C118.67 59.2722 118.569 59.3667 118.069 59.3667C117.86 59.3667 117.651 59.4004 117.603 59.4476C117.489 59.5623 117.489 61.4648 117.603 61.5795C117.651 61.6267 117.867 61.6605 118.11 61.6605C118.602 61.6605 118.67 61.7347 118.67 62.2272C118.67 62.6522 118.508 62.8074 118.069 62.8074C117.543 62.8074 117.522 62.8276 117.522 63.3404C117.522 63.6035 117.556 63.8261 117.603 63.8733C117.657 63.9273 117.995 63.9543 118.677 63.9543C119.399 63.9543 119.689 63.9745 119.73 64.042C119.757 64.0825 119.797 64.3186 119.817 64.5615L119.851 65L120.357 65L120.864 65L120.884 62.3081L120.887 61.7988C120.897 59.9955 120.9 59.5248 121.106 59.4048C121.179 59.3625 121.278 59.3639 121.411 59.3658C121.44 59.3662 121.472 59.3667 121.505 59.3667C121.734 59.3667 121.923 59.4004 121.964 59.4544C121.997 59.4948 122.045 59.9873 122.058 60.5338C122.072 61.3299 122.099 61.5458 122.18 61.593C122.328 61.6875 123.017 61.674 123.111 61.5795C123.158 61.5323 123.192 61.3164 123.192 61.0735C123.192 60.7295 123.212 60.6418 123.32 60.581C123.395 60.5473 123.874 60.5136 124.387 60.5136C125.028 60.5136 125.352 60.4866 125.406 60.4326C125.453 60.3854 125.487 60.1695 125.487 59.9401C125.487 59.7107 125.521 59.4948 125.568 59.4476C125.629 59.3869 126.081 59.3667 127.174 59.3667C128.011 59.3667 128.727 59.3397 128.774 59.3127C128.828 59.279 128.862 58.9349 128.875 58.2737C128.889 57.6126 128.923 57.255 128.977 57.201C129.024 57.1538 129.267 57.0998 129.517 57.0796L129.975 57.0391L129.996 56.5534C130.009 56.1283 129.996 56.0609 129.881 56.0001ZM127.714 58.0916C127.647 58.2063 127.559 58.2198 126.641 58.2198C125.858 58.2198 125.622 58.1995 125.561 58.1253C125.514 58.0646 125.487 57.8622 125.5 57.6058C125.513 57.3502 125.518 57.2483 125.571 57.1945C125.606 57.1588 125.663 57.1443 125.757 57.1201C125.885 57.0863 126.351 57.0728 126.796 57.0863C127.485 57.1133 127.606 57.1336 127.687 57.2415C127.795 57.3899 127.809 57.9027 127.714 58.0916ZM122.004 49.004C121.97 49.085 121.862 49.112 121.511 49.112C121.248 49.112 121.026 49.0782 120.978 49.031C120.924 48.977 120.897 48.6464 120.897 47.992C120.897 47.0745 120.904 47.0205 121.046 46.9261C121.215 46.8047 121.721 46.7844 121.916 46.8856C122.031 46.9531 122.045 47.0408 122.045 47.9313C122.045 48.4643 122.024 48.9433 122.004 49.004ZM127.115 49.0602C127.285 48.9725 128.836 48.9842 128.927 49.0719C128.97 49.1128 129 49.3056 129 49.5336C129 49.8374 128.976 49.9309 128.903 49.9602C128.715 50.0303 127.152 50.0011 127.073 49.9251C127.03 49.8842 127 49.6972 127 49.4868C127 49.1888 127.018 49.1128 127.115 49.0602ZM128.903 51.0397C128.715 50.9698 127.152 50.9989 127.073 51.0747C127.03 51.1155 127 51.302 127 51.5002C127 51.6984 127.03 51.8849 127.073 51.9257C127.176 52.0248 128.824 52.0248 128.927 51.9257C128.97 51.8849 129 51.6925 129 51.4652C129 51.1621 128.976 51.0689 128.903 51.0397ZM126.52 52C126.807 52 126.903 52.0238 126.957 52.1073C127.023 52.2146 127.011 52.8644 126.939 52.93C126.861 53.0075 126.257 53.0253 126.126 52.9598C126.018 52.9002 126 52.8346 126 52.5186C126 52.304 126.03 52.1133 126.072 52.0715C126.114 52.0298 126.305 52 126.52 52ZM124.996 61C125.586 61 125.882 61.0235 125.929 61.0706C125.97 61.1118 126 61.3 126 61.5118C126 61.9471 125.941 62 125.456 62C125.279 62 125.108 62.0294 125.066 62.0706C125.025 62.1118 124.996 62.2941 124.996 62.4765C124.996 62.9824 124.966 63 123.997 63C123.341 63 123.164 62.9824 123.105 62.9118C123.004 62.7882 122.963 62.3529 123.04 62.1647C123.099 62.0118 123.128 62 123.43 62C123.932 62 123.991 61.9471 123.991 61.5118C123.991 61.3 124.021 61.1118 124.062 61.0706C124.109 61.0235 124.405 61 124.996 61ZM125.929 64.075C125.835 63.975 125.165 63.975 125.071 64.075C125.001 64.15 124.971 64.725 125.036 64.9C125.065 64.975 125.159 65 125.465 65C125.694 65 125.888 64.9687 125.929 64.925C126.024 64.825 126.024 64.175 125.929 64.075ZM125.465 66C125.694 66 125.888 66.0312 125.929 66.075C126.024 66.175 126.024 66.825 125.929 66.925C125.888 66.9687 125.7 67 125.5 67C125.3 67 125.112 66.9687 125.071 66.925C125.001 66.85 124.971 66.275 125.036 66.1C125.065 66.025 125.159 66 125.465 66ZM124.906 67.0942C124.8 66.9884 124.294 66.9648 124.112 67.059C124.018 67.1119 124 67.1883 124 67.4883C124 67.7 124.029 67.8882 124.071 67.9294C124.112 67.9706 124.3 68 124.5 68C124.7 68 124.888 67.9706 124.929 67.9294C125.035 67.8236 125.018 67.206 124.906 67.0942ZM122.115 65.0766C122.255 64.9876 122.715 64.9709 122.885 65.0544C122.982 65.1044 123 65.1767 123 65.4827C123 65.9166 122.927 65.9944 122.509 66C122.091 66 122 65.911 122 65.4994C122 65.2268 122.024 65.1434 122.115 65.0766ZM121.868 40.0588C121.778 40.0235 120.586 40 118.472 40C115.603 40 115.208 40.0118 115.111 40.0941C114.979 40.2059 114.958 40.8235 115.083 40.9294C115.146 40.9824 115.866 41 117.911 41C119.955 41 120.676 41.0176 120.739 41.0706C120.787 41.1118 120.822 41.2941 120.822 41.4765C120.822 41.9176 120.919 42 121.439 42C121.653 42 121.868 41.9706 121.917 41.9294C121.972 41.8824 122 41.5882 122 40.9882C122 40.1941 121.986 40.1176 121.868 40.0588ZM120.448 66.0063C120.661 65.9942 120.873 66.0002 120.915 66.0184C120.982 66.0427 121 66.2549 121 66.9885C121 67.7828 120.988 67.9283 120.903 67.9587C120.715 68.0314 119.152 68.0011 119.073 67.9223C119.03 67.8798 119 67.6858 119 67.4675C119 67.0189 119.061 66.9643 119.57 66.9643C119.77 66.9643 119.921 66.934 119.952 66.8915C119.976 66.8491 120.012 66.6369 120.03 66.4186L120.061 66.0245L120.448 66.0063ZM118.386 65.0003C118.621 65.0003 118.757 65.0356 118.857 65.1179C118.986 65.2237 119 65.312 119 66.0059C119 66.4293 118.964 66.8233 118.929 66.8879C118.864 66.982 118.771 66.9997 118.407 66.9997C118.15 66.9997 117.921 67.0291 117.871 67.0702C117.821 67.1114 117.786 67.2819 117.786 67.4584C117.786 67.4941 117.786 67.5275 117.787 67.5588C117.789 67.6811 117.791 67.7697 117.752 67.8338C117.65 68.0018 117.271 68.0013 115.896 67.9997L115.894 67.9997C115.75 67.9995 115.595 67.9994 115.429 67.9994C114.222 67.9994 113.179 67.9817 113.114 67.9641C113.014 67.9347 113 67.7524 113 66.5233L113 66.3635C113 65.4651 112.999 65.1579 113.145 65.0534C113.221 64.9991 113.335 64.9995 113.51 65.0001L113.572 65.0003C114.136 65.0003 114.143 65.0062 114.143 65.9882C114.143 66.588 114.172 66.8821 114.229 66.9291C114.286 66.9761 114.643 66.9997 115.357 66.9997C116.071 66.9997 116.429 66.9761 116.486 66.9291C116.536 66.8879 116.571 66.7233 116.571 66.5527C116.571 66.0823 116.593 66.0588 117.079 66.0588C117.657 66.0588 117.786 65.9471 117.786 65.4707C117.786 65.065 117.864 65.0003 118.386 65.0003ZM117.906 42.0941C117.829 42.0176 117.659 42 116.976 42C116.406 42 116.118 42.0235 116.071 42.0706C115.976 42.1647 115.976 42.8353 116.071 42.9294C116.118 42.9765 116.406 43 116.976 43C117.965 43 118 42.9824 118 42.5C118 42.2941 117.971 42.1529 117.906 42.0941ZM113.805 62.7627C115.125 62.7627 115.381 62.7492 115.473 62.6542C115.573 62.5661 115.587 62.322 115.587 61.0068C115.587 59.9017 115.565 59.4475 115.502 59.3864C115.438 59.3254 114.962 59.3051 113.812 59.3051C112.343 59.3051 112.194 59.3186 112.088 59.4271C111.981 59.5356 111.967 59.7525 111.967 61.0203C111.967 62.4034 111.974 62.4983 112.109 62.6271C112.244 62.7559 112.343 62.7627 113.805 62.7627ZM107.851 51.3051C108.191 51.3051 108.284 51.278 108.347 51.1763C108.447 50.9932 108.44 50.3356 108.333 50.2339C108.284 50.1864 108.056 50.1525 107.801 50.1525C107.283 50.1525 107.212 50.2203 107.212 50.7559C107.212 51.2102 107.325 51.3051 107.851 51.3051ZM113.925 60.0711C113.85 60.0006 113.275 59.9712 113.1 60.0359C113.019 60.0652 113 60.1651 113 60.5C113 60.8349 113.019 60.9348 113.1 60.9641C113.275 61.0288 113.85 60.9994 113.925 60.9289C113.969 60.8878 114 60.6998 114 60.5C114 60.3002 113.969 60.1122 113.925 60.0711ZM113.952 40.0452C113.891 39.9774 106.181 39.991 106.073 40.052C106.005 40.0995 105.991 40.9404 106.005 44.0396L106.025 47.9661L110.016 47.9864L114 48L114 44.0463C114 41.8695 113.98 40.0656 113.952 40.0452ZM110.009 46.8336L107.145 46.8471L107.159 44.0192L107.179 41.1845L110.009 41.1642C112.656 41.1506 112.839 41.1574 112.867 41.2659C112.887 41.3337 112.894 42.6087 112.887 44.1006L112.88 46.8132L110.009 46.8336ZM109 42L110.5 42L112 42L111.988 43.4882L111.97 44.9706L110.488 44.9882L109 45L109 43.5L109 42ZM110.915 66.0579C110.862 66.0153 110.674 65.991 110.427 66.0031L110.028 66.0214L109.998 66.4171C109.981 66.6363 109.946 66.8494 109.922 66.892C109.893 66.9346 109.734 66.965 109.505 66.965C109.3 66.965 109.112 66.9955 109.07 67.0381C108.977 67.1355 108.977 67.8295 109.07 67.9269C109.117 67.9756 109.411 68 110.01 68C110.803 68 110.88 67.9878 110.938 67.8843C111.032 67.6956 111.015 66.1432 110.915 66.0579ZM109.494 65C109.688 65 109.8 65.0333 109.882 65.1111C109.971 65.1944 110 65.2944 110 65.5C110 65.8667 109.865 66 109.494 66C109.053 66 109 65.9444 109 65.5C109 65.0556 109.053 65 109.494 65ZM107.944 57.0909C107.902 57.0242 107.784 57 107.5 57C107.216 57 107.098 57.0242 107.056 57.0909C106.974 57.2242 106.986 57.8424 107.068 57.9273C107.11 57.9697 107.299 58 107.5 58C107.701 58 107.89 57.9697 107.932 57.9273C108.014 57.8424 108.026 57.2242 107.944 57.0909ZM107.597 66.0573C107.815 66.0573 107.944 66.0868 107.962 66.1338C108.027 66.281 108.003 66.8579 107.933 66.9286C107.891 66.9698 107.709 66.9992 107.526 66.9992C107.084 66.9992 107.002 67.0816 107.002 67.5232C107.002 67.7057 106.972 67.8881 106.931 67.9294C106.89 67.9706 106.701 68 106.501 68C106.3 68 106.112 67.9706 106.071 67.9294C106.018 67.8764 106 67.482 106 66.5224C106 65.2037 106 65.1802 106.13 65.0919C106.277 64.9859 106.719 64.9682 106.89 65.0565C106.984 65.1095 107.002 65.1861 107.002 65.4981C107.002 65.9631 107.102 66.0573 107.597 66.0573Z" fill="#433836"/>
<path fill-rule="evenodd" clip-rule="evenodd" d="M138 39.3775L138 66.6225C138 68.4879 136.443 70 134.523 70L106.477 70C104.557 70 103 68.4878 103 66.6225L103 39.3775C103 37.5121 104.557 36 106.477 36L134.523 36C136.443 36 138 37.5122 138 39.3775ZM136.088 39.3775C136.088 38.5381 135.387 37.8576 134.523 37.8576L106.477 37.8576C105.613 37.8576 104.912 38.5381 104.912 39.3775L104.912 66.6225C104.912 67.4619 105.613 68.1424 106.477 68.1424L134.523 68.1424C135.387 68.1424 136.088 67.4619 136.088 66.6225L136.088 39.3775Z" fill="#433836"/>
<path d="M143 73.7879L143 53C143 56.9879 137.985 60.2121 131.783 60.2121L109.217 60.2121C103.015 60.2121 98 56.9879 98 53L98 73.7879C98 77.7758 103.015 81 109.217 81L131.783 81C137.985 81 143 77.7758 143 73.7879Z" fill="#0A1BB3" fill-opacity="0.21"/>
<path d="M112 15.3895L112 0L105 -3.06049e-07L105 15.3895C105 17.3753 106.575 19 108.5 19C110.469 19 112 17.4204 112 15.3895Z" fill="#3C98BF"/>
<path d="M105 108L112 108L112 92.6105C112 90.6247 110.425 89 108.5 89C106.575 89 105 90.6247 105 92.6105L105 108Z" fill="#3C98BF"/>
</svg>
