<svg width="50" height="76" viewBox="0 0 50 76" fill="none" xmlns="http://www.w3.org/2000/svg">
<path fill-rule="evenodd" clip-rule="evenodd" d="M25.5649 0L25.5378 0.0427311L25.5107 0V0.0854779C21.1989 6.87977 2.21814 41.4946 25 41.9946V28.6607C25 28.2958 25.2239 28 25.5 28C25.7761 28 26 28.2958 26 28.6607V41.9938C48.7323 41.4613 29.8746 6.87651 25.5649 0.0854779V0ZM15.8101 24.2756C17.9001 24.1497 20.0203 24.8376 21.6019 26.3443C23.1836 27.8509 23.9057 29.8707 23.7735 31.8616L23.7747 31.8628C21.6848 31.9888 19.5645 31.3008 17.9829 29.7942C16.4013 28.2875 15.6792 26.2678 15.8114 24.2768L15.8101 24.2756ZM29.398 32.3443C30.9797 30.8376 33.0999 30.1497 35.1899 30.2756L35.1886 30.2768C35.3208 32.2678 34.5987 34.2875 33.0171 35.7942C31.4355 37.3008 29.3152 37.9888 27.2253 37.8628L27.2265 37.8616C27.0943 35.8707 27.8164 33.8509 29.398 32.3443Z" fill="#67A6C1"/>
<path d="M12.3537 56.956V58H6.25773V49.6H12.1857V50.644H7.45773V53.224H11.6697V54.244H7.45773V56.956H12.3537ZM16.5048 51.58C17.3128 51.58 17.9528 51.816 18.4248 52.288C18.9048 52.752 19.1448 53.436 19.1448 54.34V58H17.9928V54.472C17.9928 53.856 17.8448 53.392 17.5488 53.08C17.2528 52.768 16.8288 52.612 16.2768 52.612C15.6528 52.612 15.1608 52.796 14.8008 53.164C14.4408 53.524 14.2608 54.044 14.2608 54.724V58H13.1088V51.64H14.2128V52.6C14.4448 52.272 14.7568 52.02 15.1488 51.844C15.5488 51.668 16.0008 51.58 16.5048 51.58ZM26.2919 49.096V58H25.1879V56.992C24.9319 57.344 24.6079 57.612 24.2159 57.796C23.8239 57.98 23.3919 58.072 22.9199 58.072C22.3039 58.072 21.7519 57.936 21.2639 57.664C20.7759 57.392 20.3919 57.012 20.1119 56.524C19.8399 56.028 19.7039 55.46 19.7039 54.82C19.7039 54.18 19.8399 53.616 20.1119 53.128C20.3919 52.64 20.7759 52.26 21.2639 51.988C21.7519 51.716 22.3039 51.58 22.9199 51.58C23.3759 51.58 23.7959 51.668 24.1799 51.844C24.5639 52.012 24.8839 52.264 25.1399 52.6V49.096H26.2919ZM23.0159 57.064C23.4159 57.064 23.7799 56.972 24.1079 56.788C24.4359 56.596 24.6919 56.332 24.8759 55.996C25.0599 55.652 25.1519 55.26 25.1519 54.82C25.1519 54.38 25.0599 53.992 24.8759 53.656C24.6919 53.312 24.4359 53.048 24.1079 52.864C23.7799 52.68 23.4159 52.588 23.0159 52.588C22.6079 52.588 22.2399 52.68 21.9119 52.864C21.5919 53.048 21.3359 53.312 21.1439 53.656C20.9599 53.992 20.8679 54.38 20.8679 54.82C20.8679 55.26 20.9599 55.652 21.1439 55.996C21.3359 56.332 21.5919 56.596 21.9119 56.788C22.2399 56.972 22.6079 57.064 23.0159 57.064ZM27.4516 49.096H28.6036V58H27.4516V49.096ZM35.5312 54.856C35.5312 54.944 35.5232 55.06 35.5072 55.204H30.3472C30.4192 55.764 30.6632 56.216 31.0792 56.56C31.5032 56.896 32.0272 57.064 32.6512 57.064C33.4112 57.064 34.0232 56.808 34.4872 56.296L35.1232 57.04C34.8352 57.376 34.4752 57.632 34.0432 57.808C33.6192 57.984 33.1432 58.072 32.6152 58.072C31.9432 58.072 31.3472 57.936 30.8272 57.664C30.3072 57.384 29.9032 56.996 29.6152 56.5C29.3352 56.004 29.1952 55.444 29.1952 54.82C29.1952 54.204 29.3312 53.648 29.6032 53.152C29.8832 52.656 30.2632 52.272 30.7432 52C31.2312 51.72 31.7792 51.58 32.3872 51.58C32.9952 51.58 33.5352 51.72 34.0072 52C34.4872 52.272 34.8592 52.656 35.1232 53.152C35.3952 53.648 35.5312 54.216 35.5312 54.856ZM32.3872 52.552C31.8352 52.552 31.3712 52.72 30.9952 53.056C30.6272 53.392 30.4112 53.832 30.3472 54.376H34.4272C34.3632 53.84 34.1432 53.404 33.7672 53.068C33.3992 52.724 32.9392 52.552 32.3872 52.552ZM37.9348 58.072C37.4148 58.072 36.9148 58.004 36.4348 57.868C35.9548 57.724 35.5788 57.544 35.3068 57.328L35.7868 56.416C36.0668 56.616 36.4068 56.776 36.8068 56.896C37.2068 57.016 37.6108 57.076 38.0188 57.076C39.0268 57.076 39.5308 56.788 39.5308 56.212C39.5308 56.02 39.4628 55.868 39.3268 55.756C39.1908 55.644 39.0188 55.564 38.8108 55.516C38.6108 55.46 38.3228 55.4 37.9468 55.336C37.4348 55.256 37.0148 55.164 36.6868 55.06C36.3668 54.956 36.0908 54.78 35.8588 54.532C35.6268 54.284 35.5108 53.936 35.5108 53.488C35.5108 52.912 35.7508 52.452 36.2308 52.108C36.7108 51.756 37.3548 51.58 38.1628 51.58C38.5868 51.58 39.0108 51.632 39.4348 51.736C39.8588 51.84 40.2068 51.98 40.4788 52.156L39.9868 53.068C39.4668 52.732 38.8548 52.564 38.1508 52.564C37.6628 52.564 37.2908 52.644 37.0348 52.804C36.7788 52.964 36.6508 53.176 36.6508 53.44C36.6508 53.648 36.7228 53.812 36.8668 53.932C37.0108 54.052 37.1868 54.14 37.3948 54.196C37.6108 54.252 37.9108 54.316 38.2948 54.388C38.8068 54.476 39.2188 54.572 39.5308 54.676C39.8508 54.772 40.1228 54.94 40.3468 55.18C40.5708 55.42 40.6828 55.756 40.6828 56.188C40.6828 56.764 40.4348 57.224 39.9388 57.568C39.4508 57.904 38.7828 58.072 37.9348 58.072ZM42.9265 58.072C42.4065 58.072 41.9065 58.004 41.4265 57.868C40.9465 57.724 40.5705 57.544 40.2985 57.328L40.7785 56.416C41.0585 56.616 41.3985 56.776 41.7985 56.896C42.1985 57.016 42.6025 57.076 43.0105 57.076C44.0185 57.076 44.5225 56.788 44.5225 56.212C44.5225 56.02 44.4545 55.868 44.3185 55.756C44.1825 55.644 44.0105 55.564 43.8025 55.516C43.6025 55.46 43.3145 55.4 42.9385 55.336C42.4265 55.256 42.0065 55.164 41.6785 55.06C41.3585 54.956 41.0825 54.78 40.8505 54.532C40.6185 54.284 40.5025 53.936 40.5025 53.488C40.5025 52.912 40.7425 52.452 41.2225 52.108C41.7025 51.756 42.3465 51.58 43.1545 51.58C43.5785 51.58 44.0025 51.632 44.4265 51.736C44.8505 51.84 45.1985 51.98 45.4705 52.156L44.9785 53.068C44.4585 52.732 43.8465 52.564 43.1425 52.564C42.6545 52.564 42.2825 52.644 42.0265 52.804C41.7705 52.964 41.6425 53.176 41.6425 53.44C41.6425 53.648 41.7145 53.812 41.8585 53.932C42.0025 54.052 42.1785 54.14 42.3865 54.196C42.6025 54.252 42.9025 54.316 43.2865 54.388C43.7985 54.476 44.2105 54.572 44.5225 54.676C44.8425 54.772 45.1145 54.94 45.3385 55.18C45.5625 55.42 45.6745 55.756 45.6745 56.188C45.6745 56.764 45.4265 57.224 44.9305 57.568C44.4425 57.904 43.7745 58.072 42.9265 58.072ZM13.2918 64.6L10.4837 73H9.22375L6.93175 66.292L4.63975 73H3.35575L0.54775 64.6H1.78375L4.05175 71.428L6.41575 64.6H7.51975L9.83575 71.464L12.1518 64.6H13.2918ZM15.4072 66.58C16.2872 66.58 16.9592 66.796 17.4232 67.228C17.8952 67.66 18.1312 68.304 18.1312 69.16V73H17.0392V72.16C16.8472 72.456 16.5712 72.684 16.2112 72.844C15.8592 72.996 15.4392 73.072 14.9512 73.072C14.2392 73.072 13.6672 72.9 13.2352 72.556C12.8112 72.212 12.5992 71.76 12.5992 71.2C12.5992 70.64 12.8032 70.192 13.2112 69.856C13.6192 69.512 14.2672 69.34 15.1552 69.34H16.9792V69.112C16.9792 68.616 16.8352 68.236 16.5472 67.972C16.2592 67.708 15.8352 67.576 15.2752 67.576C14.8992 67.576 14.5312 67.64 14.1712 67.768C13.8112 67.888 13.5072 68.052 13.2592 68.26L12.7792 67.396C13.1072 67.132 13.4992 66.932 13.9552 66.796C14.4112 66.652 14.8952 66.58 15.4072 66.58ZM15.1432 72.184C15.5832 72.184 15.9632 72.088 16.2832 71.896C16.6032 71.696 16.8352 71.416 16.9792 71.056V70.168H15.2032C14.2272 70.168 13.7392 70.496 13.7392 71.152C13.7392 71.472 13.8632 71.724 14.1112 71.908C14.3592 72.092 14.7032 72.184 15.1432 72.184ZM22.8191 72.628C22.6511 72.772 22.4431 72.884 22.1951 72.964C21.9471 73.036 21.6911 73.072 21.4271 73.072C20.7871 73.072 20.2911 72.9 19.9391 72.556C19.5871 72.212 19.4111 71.72 19.4111 71.08V67.588H18.3311V66.64H19.4111V65.248H20.5631V66.64H22.3871V67.588H20.5631V71.032C20.5631 71.376 20.6471 71.64 20.8151 71.824C20.9911 72.008 21.2391 72.1 21.5591 72.1C21.9111 72.1 22.2111 72 22.4591 71.8L22.8191 72.628ZM28.7289 69.856C28.7289 69.944 28.7209 70.06 28.7049 70.204H23.5449C23.6169 70.764 23.8609 71.216 24.2769 71.56C24.7009 71.896 25.2249 72.064 25.8489 72.064C26.6089 72.064 27.2209 71.808 27.6849 71.296L28.3209 72.04C28.0329 72.376 27.6729 72.632 27.2409 72.808C26.8169 72.984 26.3409 73.072 25.8129 73.072C25.1409 73.072 24.5449 72.936 24.0249 72.664C23.5049 72.384 23.1009 71.996 22.8129 71.5C22.5329 71.004 22.3929 70.444 22.3929 69.82C22.3929 69.204 22.5289 68.648 22.8009 68.152C23.0809 67.656 23.4609 67.272 23.9409 67C24.4289 66.72 24.9769 66.58 25.5849 66.58C26.1929 66.58 26.7329 66.72 27.2049 67C27.6849 67.272 28.0569 67.656 28.3209 68.152C28.5929 68.648 28.7289 69.216 28.7289 69.856ZM25.5849 67.552C25.0329 67.552 24.5689 67.72 24.1929 68.056C23.8249 68.392 23.6089 68.832 23.5449 69.376H27.6249C27.5609 68.84 27.3409 68.404 26.9649 68.068C26.5969 67.724 26.1369 67.552 25.5849 67.552ZM30.4126 67.708C30.6126 67.34 30.9086 67.06 31.3006 66.868C31.6926 66.676 32.1686 66.58 32.7286 66.58V67.696C32.6646 67.688 32.5766 67.684 32.4646 67.684C31.8406 67.684 31.3486 67.872 30.9886 68.248C30.6366 68.616 30.4606 69.144 30.4606 69.832V73H29.3086V66.64H30.4126V67.708ZM33.1284 66.64H34.2804V73H33.1284V66.64ZM33.7044 65.416C33.4804 65.416 33.2924 65.344 33.1404 65.2C32.9964 65.056 32.9244 64.88 32.9244 64.672C32.9244 64.464 32.9964 64.288 33.1404 64.144C33.2924 63.992 33.4804 63.916 33.7044 63.916C33.9284 63.916 34.1124 63.988 34.2564 64.132C34.4084 64.268 34.4844 64.44 34.4844 64.648C34.4844 64.864 34.4084 65.048 34.2564 65.2C34.1124 65.344 33.9284 65.416 33.7044 65.416ZM38.856 66.58C39.664 66.58 40.304 66.816 40.776 67.288C41.256 67.752 41.496 68.436 41.496 69.34V73H40.344V69.472C40.344 68.856 40.196 68.392 39.9 68.08C39.604 67.768 39.18 67.612 38.628 67.612C38.004 67.612 37.512 67.796 37.152 68.164C36.792 68.524 36.612 69.044 36.612 69.724V73H35.46V66.64H36.564V67.6C36.796 67.272 37.108 67.02 37.5 66.844C37.9 66.668 38.352 66.58 38.856 66.58ZM48.7271 66.64V72.136C48.7271 73.248 48.4511 74.068 47.8991 74.596C47.3471 75.132 46.5231 75.4 45.4271 75.4C44.8271 75.4 44.2551 75.316 43.7111 75.148C43.1671 74.988 42.7271 74.756 42.3911 74.452L42.9431 73.564C43.2391 73.82 43.6031 74.02 44.0351 74.164C44.4751 74.316 44.9271 74.392 45.3911 74.392C46.1351 74.392 46.6831 74.216 47.0351 73.864C47.3951 73.512 47.5751 72.976 47.5751 72.256V71.752C47.3031 72.08 46.9671 72.328 46.5671 72.496C46.1751 72.656 45.7471 72.736 45.2831 72.736C44.6751 72.736 44.1231 72.608 43.6271 72.352C43.1391 72.088 42.7551 71.724 42.4751 71.26C42.1951 70.788 42.0551 70.252 42.0551 69.652C42.0551 69.052 42.1951 68.52 42.4751 68.056C42.7551 67.584 43.1391 67.22 43.6271 66.964C44.1231 66.708 44.6751 66.58 45.2831 66.58C45.7631 66.58 46.2071 66.668 46.6151 66.844C47.0311 67.02 47.3711 67.28 47.6351 67.624V66.64H48.7271ZM45.4151 71.728C45.8311 71.728 46.2031 71.64 46.5311 71.464C46.8671 71.288 47.1271 71.044 47.3111 70.732C47.5031 70.412 47.5991 70.052 47.5991 69.652C47.5991 69.036 47.3951 68.54 46.9871 68.164C46.5791 67.78 46.0551 67.588 45.4151 67.588C44.7671 67.588 44.2391 67.78 43.8311 68.164C43.4231 68.54 43.2191 69.036 43.2191 69.652C43.2191 70.052 43.3111 70.412 43.4951 70.732C43.6871 71.044 43.9471 71.288 44.2751 71.464C44.6111 71.64 44.9911 71.728 45.4151 71.728Z" fill="#67A6C1"/>
</svg>
